<svg id="logo"  xmlns="http://www.w3.org/2000/svg" viewBox="0 0 184.59 80.78">

      <path class="cls-1" d="M2.61,49.66l4.26-1q3.45-.78,5.33.2a4.55,4.55,0,0,1,2.38,3.19,5.46,5.46,0,0,1,0,2.58,3.48,3.48,0,0,1-1.16,1.89,5.26,5.26,0,0,1,2.31,1.25,5.73,5.73,0,0,1,1.42,2.94Q18.37,66.07,10,68l-3,.69Zm6.25,6.71a4.1,4.1,0,0,0,2.08-1,2.29,2.29,0,0,0,.27-2.14A2,2,0,0,0,10,51.63a4.46,4.46,0,0,0-2.36,0l-.74.17L8,56.57Zm1.82,8.33a3.49,3.49,0,0,0,2.43-1.5,3,3,0,0,0,.36-2.15q-.38-1.65-1.37-2a4.76,4.76,0,0,0-2.57,0l-.81.18L10,64.86Z"/>
      <path class="cls-1" d="M19.58,60.1a9.68,9.68,0,0,1-2.14-5.3,9.57,9.57,0,0,1,.67-5.62,4.61,4.61,0,0,1,3.75-2.57,4.68,4.68,0,0,1,4.3,1.5,9.37,9.37,0,0,1,2.16,5.25,9.56,9.56,0,0,1-.7,5.67,4.66,4.66,0,0,1-3.76,2.61A4.6,4.6,0,0,1,19.58,60.1Zm5.23-2.77a18.38,18.38,0,0,0-.93-7Q23.36,49,22.2,49.15t-1.29,1.54A14.9,14.9,0,0,0,21,54a18.45,18.45,0,0,0,.81,3.73q.5,1.36,1.66,1.21T24.82,57.33Z"/>
      <path class="cls-1" d="M28.64,45.54l3.48-1.11.52,2.31a6.22,6.22,0,0,1,1.49-2.19,5.7,5.7,0,0,1,2.72-1.33l.79,3.47a12.37,12.37,0,0,0-2.32.86,5.26,5.26,0,0,0-2.12,1.64l2.13,9.36-3.48,1.11Z"/>
      <path class="cls-1" d="M39.2,44.38l3.48-1.11.41,1.83a10.16,10.16,0,0,1,1.81-2,4.54,4.54,0,0,1,1.82-1,2.84,2.84,0,0,1,2.41.48,4,4,0,0,1,1.45,2.43L53,55.77l-3.48,1.11-2.2-9.66q-.43-1.9-1.73-1.61a2.24,2.24,0,0,0-.89.47q-.46.37-1.16,1l2.34,10.27L42.41,58.5Z"/>
      <path class="cls-1" d="M64.18,53.05,60.5,36.85l-3.88.88-.4-3,11.16-2.54.37,3L64.2,36l3.62,15.9Z"/>
      <path class="cls-1" d="M70.07,48a9.67,9.67,0,0,1-2-5.34A9.57,9.57,0,0,1,68.79,37a4.61,4.61,0,0,1,3.79-2.51,4.68,4.68,0,0,1,4.28,1.57,9.37,9.37,0,0,1,2.07,5.28,9.56,9.56,0,0,1-.8,5.65,4.66,4.66,0,0,1-3.8,2.55A4.6,4.6,0,0,1,70.07,48Zm5.28-2.68a15.59,15.59,0,0,0-.07-3.53,15.58,15.58,0,0,0-.74-3.45Q74,37,72.88,37.1t-1.32,1.51a15,15,0,0,0,.07,3.32,18.46,18.46,0,0,0,.75,3.75Q72.85,47,74,46.91T75.35,45.32Z"/>
      <path class="cls-1" d="M85.33,29.44l4.26-1q3.45-.78,5.33.2a4.56,4.56,0,0,1,2.38,3.19,5.46,5.46,0,0,1,0,2.58,3.47,3.47,0,0,1-1.16,1.89,5.26,5.26,0,0,1,2.31,1.25,5.72,5.72,0,0,1,1.42,2.94q1.21,5.32-7.18,7.23l-3,.69Zm6.25,6.71a4.1,4.1,0,0,0,2.08-1A2.29,2.29,0,0,0,93.93,33,2,2,0,0,0,92.7,31.4a4.46,4.46,0,0,0-2.36,0l-.74.17,1.08,4.77Zm1.82,8.33A3.48,3.48,0,0,0,95.83,43a3,3,0,0,0,.36-2.15q-.38-1.65-1.37-2a4.75,4.75,0,0,0-2.57,0l-.81.18,1.27,5.6Z"/>
      <path class="cls-1" d="M104.48,44.48a9.77,9.77,0,0,1-3.28-4.62,9.67,9.67,0,0,1-.7-5.67,4.64,4.64,0,0,1,3.06-3.4,4.39,4.39,0,0,1,4.38.5A10,10,0,0,1,111.2,36a.46.46,0,0,1,0,.31.31.31,0,0,0,0,.14l-6.47,2.52a10.13,10.13,0,0,0,1.53,2.71q.92,1.14,1.76.81a1.61,1.61,0,0,0,1-1.64q0-1.27,0-1.33l2.94,0a6.2,6.2,0,0,1-.55,3.38,4.94,4.94,0,0,1-7,1.66Zm2.77-8.79A6.06,6.06,0,0,0,106,33.54a1.37,1.37,0,0,0-1.54-.38,1.19,1.19,0,0,0-.64.72,3.26,3.26,0,0,0-.19,1.38A5.36,5.36,0,0,0,104,37Z"/>
      <path class="cls-1" d="M126.09,42.24,115.16,25.79l3.8-1.7,6.27,10.06L123,22.64l2.83-1.31,6.32,10.18-2.07-11.73,3.2-1.46L136.68,38l-3.5,1.41-6.36-10.27,2.5,11.83Z"/>
      <path class="cls-1" d="M140.17,39.55,137,25.43l3.48-1.11,3.21,14.12Z"/>
      <path class="cls-1" d="M146.49,37.4,142.24,18.7l3.45-1.26L150,36.29Z"/>
      <path class="cls-1" d="M150.68,29.31q-.88-3.88-.26-5.83A3.5,3.5,0,0,1,153.19,21a3,3,0,0,1,1.88.2,3.59,3.59,0,0,1,1.55,1.21l-1.41-6.19L158.7,15,163,33.84l-2.62.92L159,33a3,3,0,0,1-.59,1.73,3.28,3.28,0,0,1-2,1.06Q152.37,36.77,150.68,29.31Zm7.59,2.55a6.4,6.4,0,0,0-.17-3L157,24.11a2.13,2.13,0,0,0-2-.75,1.4,1.4,0,0,0-1.09.88,3.65,3.65,0,0,0-.15,1.67,23.2,23.2,0,0,0,.47,2.59,24.92,24.92,0,0,0,.71,2.61,3.93,3.93,0,0,0,.89,1.53,1.38,1.38,0,0,0,1.36.36A1.46,1.46,0,0,0,158.27,31.86Z"/>
      <path class="cls-1" d="M166.37,31.45l-2.46-13.6,3.63-.49,1.25,13.76Zm.16,5.88L166,33.41l3.63-.49.51,3.76Z"/>
        <path class="cls-1" d="M137.45,16.46c-.26.71-1.41-1.05-1.5-.78-.57-.41.37-2.93.54-3.28a.34.34,0,0,0-.16,0,.25.25,0,0,0,0-.18c-.28-.07.41-2.94.64-3.24.51-.67.69,1.25.4,1.13,0,0,.21.05.06.1q.39.73-.41.7,1,.22-.18.25c-.18,0,1.68,1,.17,1.29a10.8,10.8,0,0,0,2.56.46c0,.14.57.41.38.52a3.37,3.37,0,0,0,.65.39c.1.29.54,3.14-.76,3,.07.08.37.07.23.24,1.57.52-2.57,1.72-2.73,1.74,0,0-.24,0-.19,0-2.16.63-.72-2.1-1.4-2.3.83.25.8.47,1.11.46,0,.15,1.66-.54-.18,1.06,1-.33,2-.32,3-.62,0,0-.28-.19-.29-.2,0,.26-.45,0-.47-.13-.78.76-1.18-.38-1.39-.55a0,0,0,0,0,0,0s-.07,0-.05-.1"/>
        <path class="cls-1" d="M139.84,11.53a.24.24,0,0,0-.14.06c.22.12.41,0,.54.08s-1.59,1.35-.91-.28c0,0,.16,0,.19,0s-.32-.25-.18-.36a.08.08,0,0,1,.09.05c.31-.11,0-.58,0-.54a3.14,3.14,0,0,1,.9-1.41C141.54,9,139.78,11.61,139.84,11.53Zm-.46-.38Z"/>
        <path class="cls-1" d="M140.81,11.91c-.59.36-.18-.9,0-.81,0,0,0,.2,0,.14s.05-.16.06-.15c1.42.27.1,1.84-.36,2.57-.26.43-.57-1.75,0-1.68l0,.09c0-.12.23-.16.28-.17"/>
        <path class="cls-1" d="M138.38,10.79c-.64-.27-.9-.54-.49-1.92C138.12,8.1,139.57,10.51,138.38,10.79Z"/>
        <path class="cls-1" d="M137.82,11.38c.06-.14.71-.11.92-.16q-.54,0-.21-.19c-1.8,1,.48-.56.07,0,.25-.07,0,.09-.06.08C138.23,13.15,138.33,11.34,137.82,11.38Z"/>
        <path class="cls-1" d="M135.1,17.1s-.35-.06-.2-.09q-1.11-.57-.2-1.18Q136,16.37,135.1,17.1Z"/>
    <path class="cls-1" d="M0,80.78c6.16-1.18,53.4-5.2,58.53-6.18s47.24-14.09,47.24-14.09,30.29-3.29,36.45-4.47,31.57-2.27,31.57-2.27l-7.18-3.66,18-6L135,52.38,97.57,52l-32.1,9.93s-11.56,6-16.69,7L21.05,74.23Z"/>
    <polyline class="cls-1" points="18.95 36.88 45.69 31 63.77 26.12 81.91 18.53 97.37 15.03 111.28 11.27 119.68 6.31 129.36 6.39 153 0 120.81 1.97 98.55 7.99 69.13 17.95 50.45 26.36 30.72 27.65 0.76 38.44 17.55 37.26"/>
</svg>
