<?xml version="1.0" encoding="utf-8"?>
<!-- Generator: Adobe Illustrator 21.0.2, SVG Export Plug-In . SVG Version: 6.00 Build 0)  -->
<!DOCTYPE svg PUBLIC "-//W3C//DTD SVG 1.1//EN" "http://www.w3.org/Graphics/SVG/1.1/DTD/svg11.dtd">
<svg version="1.1" id="logo" xmlns="http://www.w3.org/2000/svg" xmlns:xlink="http://www.w3.org/1999/xlink" x="0px" y="0px"
	 viewBox="0 0 163.3 25.3" style="enable-background:new 0 0 163.3 25.3;" xml:space="preserve">
<g>
	<path d="M0,5.9l4.3-0.5c2.3-0.3,4.1,0,5.3,0.8c1.2,0.8,1.9,2,2,3.4c0.1,0.9,0,1.7-0.3,2.6c-0.3,0.7-0.7,1.3-1.4,1.7
		c0.8,0.3,1.6,0.8,2.2,1.5c0.7,0.9,1,2,1.1,3.1c0.4,3.6-2.2,5.8-7.9,6.4l-3.1,0.4L0,5.9z M5.5,13.3c0.8,0,1.5-0.3,2.2-0.8
		c0.5-0.6,0.7-1.4,0.5-2.1c0-0.7-0.4-1.4-1-1.7C6.4,8.4,5.6,8.3,4.8,8.5L4,8.6l0.6,4.9L5.5,13.3z M6.3,21.8c1,0,1.9-0.5,2.6-1.2
		c0.5-0.6,0.7-1.3,0.6-2.1c-0.1-1.1-0.5-1.8-1.1-2.1c-0.8-0.3-1.7-0.4-2.6-0.3L5,16.1l0.6,5.7L6.3,21.8z"/>
	<path d="M14.1,18.3c-0.9-1.7-1.3-3.7-1.1-5.6c0-1.9,0.6-3.8,1.7-5.4c1-1.3,2.6-2,4.2-1.8c1.6,0,3.1,0.9,3.9,2.3
		c0.9,1.7,1.3,3.6,1.1,5.6c0,1.9-0.6,3.8-1.7,5.4c-1,1.3-2.6,2-4.2,1.9C16.4,20.6,14.9,19.7,14.1,18.3z M19.8,16.6
		c0.6-2.3,0.7-4.7,0.4-7.1C20,8.6,19.5,8.1,18.8,8c-0.8,0-1.3,0.4-1.6,1.3c-0.3,1.1-0.5,2.2-0.5,3.3c-0.1,1.3-0.1,2.6,0.1,3.8
		c0.2,1,0.6,1.5,1.4,1.5C19,17.9,19.5,17.5,19.8,16.6L19.8,16.6z"/>
	<path d="M25.1,6.5l3.6-0.8L29,8.1c0.4-0.8,1-1.5,1.7-2c0.8-0.6,1.8-1,2.8-1.1L34,8.5c-0.8,0.1-1.6,0.4-2.4,0.6
		c-0.9,0.3-1.6,0.8-2.3,1.4l1.3,9.5L27,20.9L25.1,6.5z"/>
	<path d="M34,9.3l3.6-0.4l0.1,1.9c0.6-0.6,1.4-1.2,2.2-1.6c0.6-0.4,1.3-0.6,2-0.6c0.9-0.1,1.7,0.3,2.3,0.9c0.6,0.7,1,1.7,1,2.7
		l0.4,11l-3.6,0.4l-0.4-9.9c0-1.3-0.5-1.9-1.4-1.9c-0.3,0-0.7,0.1-1,0.3c-0.3,0.2-0.8,0.4-1.3,0.8l0.4,10.5l-3.6,0.5L34,9.3z"/>
	<path d="M55.8,25L55.2,8.4l-4,0.1l0.2-3l11.4-0.4l-0.2,3L59,8.2l0.6,16.3L55.8,25z"/>
	<path d="M61.9,21.9c-0.9-1.7-1.2-3.7-1-5.6c0-1.9,0.6-3.8,1.8-5.4c1-1.3,2.6-2,4.2-1.8c1.6,0,3.1,0.9,3.9,2.3
		c0.9,1.7,1.3,3.7,1,5.6c0,1.9-0.7,3.8-1.8,5.4c-1,1.3-2.6,2-4.2,1.8C64.2,24.1,62.7,23.3,61.9,21.9z M67.6,20.2
		c0.3-1.1,0.5-2.3,0.6-3.5c0.1-1.2,0.1-2.4-0.1-3.5c-0.2-0.9-0.7-1.5-1.4-1.5c-0.7-0.1-1.3,0.3-1.6,1.2c-0.3,1.1-0.5,2.2-0.6,3.3
		c-0.1,1.3-0.1,2.6,0,3.8c0.1,0.9,0.6,1.4,1.4,1.5C66.7,21.6,67.3,21.2,67.6,20.2z"/>
	<path d="M81.6,4.6L86,5.2c2.3,0.4,3.9,1.1,4.9,2.2c0.9,1.1,1.3,2.5,1,3.9c-0.1,0.9-0.5,1.7-1,2.4c-0.4,0.6-1.1,1.1-1.8,1.3
		c0.7,0.5,1.3,1.2,1.7,2c0.4,1,0.5,2.2,0.2,3.3c-0.6,3.6-3.7,4.9-9.4,4l-3-0.5L81.6,4.6z M84.9,13.1c0.8,0.2,1.6,0.1,2.3-0.1
		c0.6-0.4,1-1.1,1.1-1.9c0.2-0.7,0-1.4-0.5-1.9c-0.6-0.5-1.4-0.8-2.2-0.9l-0.7-0.1L84,13L84.9,13.1z M83.4,21.5c1,0.3,2,0.1,2.8-0.4
		c0.6-0.5,1-1.1,1.1-1.9c0.2-1.1,0-1.9-0.5-2.4c-0.7-0.5-1.5-0.9-2.4-1l-0.8-0.1l-0.9,5.7L83.4,21.5z"/>
	<path d="M94.5,22.7c-1.3-1.4-2.1-3.2-2.4-5.2c-0.5-1.9-0.3-3.9,0.4-5.7c0.6-1.5,2-2.6,3.6-2.8c1.5-0.4,3.1,0.1,4.2,1.3
		c1.3,1.5,2.1,3.3,2.3,5.2c0,0.1,0,0.2-0.1,0.3c0,0,0,0.1,0,0.1l-6.8,1.3c0.2,1,0.5,2,1,2.9c0.5,0.9,1,1.2,1.6,1.1
		c0.7-0.1,1.2-0.7,1.3-1.4c0.2-0.8,0.2-1.3,0.2-1.3l2.9,0.5c-0.1,1.2-0.5,2.3-1.2,3.2c-1.8,2.1-4.9,2.3-7,0.5
		C94.6,22.9,94.5,22.9,94.5,22.7L94.5,22.7z M98.9,14.6c-0.1-0.8-0.4-1.6-0.8-2.3c-0.3-0.5-0.9-0.8-1.4-0.7
		c-0.3,0.1-0.6,0.3-0.8,0.6c-0.2,0.4-0.4,0.9-0.4,1.3c-0.1,0.6-0.1,1.2,0,1.8L98.9,14.6z"/>
	<path d="M112.8,25l-4.6-19.2l4.2-0.3l2.5,11.6l1.8-11.6l3.1-0.3l2.5,11.7l2.1-11.7l3.5-0.3l-3.5,19.7l-3.8,0.1L118,13l-1.7,12
		L112.8,25z"/>
	<path d="M129.8,23.2l-0.5-14.5l3.6-0.4l0.5,14.5L129.8,23.2z"/>
	<path d="M135.2,22.1l2-19.1l3.7-0.1l-2,19.2L135.2,22.1z"/>
	<path d="M141.1,15.9c0.4-2.6,1-4.5,1.9-5.5c0.8-1.1,2.2-1.6,3.5-1.3c0.6,0.1,1.2,0.4,1.7,0.9c0.5,0.5,0.8,1,1,1.7l1-6.3l3.7,0.2
		l-3,19.1l-2.8-0.1l-0.6-2.1c-0.2,0.6-0.7,1.1-1.2,1.4c-0.7,0.3-1.5,0.4-2.3,0.2C141.3,23.7,140.3,20.9,141.1,15.9z M147.2,21.1
		c0.5-0.9,0.9-1.8,0.9-2.9l0.7-4.8c-0.2-0.7-0.8-1.3-1.6-1.4c-0.5-0.1-1,0-1.3,0.4c-0.4,0.4-0.6,0.9-0.8,1.5
		c-0.2,0.8-0.4,1.7-0.5,2.6c-0.1,0.9-0.3,1.8-0.3,2.7c0,0.6,0,1.2,0.3,1.8c0.2,0.5,0.6,0.8,1.1,0.8
		C146.4,21.8,146.9,21.6,147.2,21.1L147.2,21.1z"/>
	<path d="M158.6,16.6l1.1-13.8l3.6,0.5L161,16.9L158.6,16.6z M157.3,22.3l0.5-3.9l3.6,0.5l-0.5,3.8L157.3,22.3z"/>
	<ellipse transform="matrix(0.1865 -0.9825 0.9825 0.1865 103.4763 130.6329)" cx="130.6" cy="2.8" rx="2.8" ry="2.8"/>
</g>
</svg>
