<svg xmlns="http://www.w3.org/2000/svg" viewBox="0 0 155.63 183.02">
      <path id="shadow" fill="rgba(0,0,0,.2)" d="M149.38,52.16h0M73.07,4.56A6,6,0,0,0,69.2,8a41.27,41.27,0,0,1-8,12.85c-6.25-4.91-10.65-7-15-5.76a8.17,8.17,0,0,0-4,2.57,6,6,0,0,0-.64,6.84,9.22,9.22,0,0,1,1.22,4.41,27.55,27.55,0,0,0-11,.57,17.34,17.34,0,0,0-10.66,8.63A6,6,0,0,0,24,46.54a5.13,5.13,0,0,1,.5,1.81c-6-2.58-10.69-5.77-13.91-9.5A6,6,0,0,0,4.4,37l-.17.05a6,6,0,0,0-4.13,5.2c-.7,8.21,2.66,16.66,10.23,25.62A19.28,19.28,0,0,0,5,72.18a6,6,0,0,0,3.8,9.91c1.75.21,5.27,1.59,10.55,8a11.14,11.14,0,0,1-4.07,2.48,5.62,5.62,0,0,1-1.44.23,6,6,0,0,0-5.56,7.82c1.87,5.86,8.61,10.63,21.73,15.31C36.73,130,45.91,143,55.69,152.35c-.56,3.64-2.21,7.82-5.49,10.22a6,6,0,0,0-.17,9.55c3.95,3.12,9.74,3.94,16.43,2.37A6,6,0,0,0,74.9,182a72.07,72.07,0,0,0,7.9-4.88,6,6,0,0,0,9.54,4.78l19.23-14.07a17.52,17.52,0,0,0,15.9,4.23l.46-.12a6,6,0,0,0,4.28-6.42,24.5,24.5,0,0,1,.05-7.62,21.82,21.82,0,0,0,11.63-.4,35,35,0,0,0,5.83-2.32,6,6,0,0,0-1.66-11.29c-1.8-.82-7-4.53-11.2-8.36,4.64-13.28,6.37-30.17,4.82-47.44,5.68-4.42,8.74-8.52,9.55-12.76a6,6,0,0,0-5.77-7.13,12.15,12.15,0,0,1-5.19-1.22c8.27-4,13.56-8,14.88-13.2a6,6,0,0,0-7.45-7.34h0l-.12,0A33.5,33.5,0,0,1,139.2,48a20.92,20.92,0,0,0,5.35-6.87,6,6,0,0,0-7.07-8.39l-.08,0h0a17.13,17.13,0,0,1-4.65-.07,34.77,34.77,0,0,0-6.87-.15c-.14-1.61-.32-3.14-.57-4.53-1.54-8.78-5.89-10.64-9.26-10.66a6,6,0,0,0-4.61,2.12,12.4,12.4,0,0,1-6.3,4,19,19,0,0,1-2,.46c.08-3.35.72-8.08,1.52-10.08a6,6,0,0,0-5.8-8.22,19.31,19.31,0,0,0-4.63.79,40.45,40.45,0,0,0-13.06,7.14c-.15-1.12-.3-2.37-.44-3.79a6,6,0,0,0-7.64-5.18Zm3.35,11.52h0Z"/>
      <path id="white-outline" d="M149.62,47.84h0M73.31.24A6,6,0,0,0,69.44,3.7a41.27,41.27,0,0,1-8,12.85c-6.25-4.91-10.65-7-15-5.76a8.17,8.17,0,0,0-4,2.57,6,6,0,0,0-.64,6.84A9.22,9.22,0,0,1,43,24.62a27.55,27.55,0,0,0-11,.57,17.34,17.34,0,0,0-10.66,8.63,6,6,0,0,0,2.89,8.4,5.13,5.13,0,0,1,.5,1.81c-6-2.58-10.69-5.77-13.91-9.5a6,6,0,0,0-6.22-1.84l-.17.05a6,6,0,0,0-4.13,5.2C-.37,46.15,3,54.59,10.56,63.55a19.28,19.28,0,0,0-5.32,4.3A6,6,0,0,0,9,77.77c1.75.21,5.27,1.59,10.55,8a11.14,11.14,0,0,1-4.07,2.48,5.62,5.62,0,0,1-1.44.23,6,6,0,0,0-5.56,7.82c1.87,5.86,8.61,10.63,21.73,15.31C37,125.69,46.15,138.72,55.93,148c-.56,3.64-2.21,7.82-5.49,10.22a6,6,0,0,0-.17,9.55c3.95,3.12,9.74,3.94,16.43,2.37a6,6,0,0,0,8.45,7.45,72.07,72.07,0,0,0,7.9-4.88,6,6,0,0,0,9.54,4.78l19.23-14.07a17.52,17.52,0,0,0,15.9,4.23l.46-.12a6,6,0,0,0,4.28-6.42,24.5,24.5,0,0,1,.05-7.62,21.82,21.82,0,0,0,11.63-.4,35,35,0,0,0,5.83-2.32,6,6,0,0,0-1.66-11.29c-1.8-.82-7-4.53-11.2-8.36,4.64-13.28,6.37-30.17,4.82-47.44,5.68-4.42,8.74-8.52,9.55-12.76a6,6,0,0,0-5.77-7.13,12.15,12.15,0,0,1-5.19-1.22c8.27-4,13.56-8,14.88-13.2A6,6,0,0,0,148,42.07h0l-.12,0a33.5,33.5,0,0,1-8.37,1.53,20.92,20.92,0,0,0,5.35-6.87,6,6,0,0,0-7.07-8.39l-.08,0h0a17.13,17.13,0,0,1-4.65-.07,34.77,34.77,0,0,0-6.87-.15c-.14-1.61-.32-3.14-.57-4.53C124,14.89,119.66,13,116.29,13a6,6,0,0,0-4.61,2.12,12.4,12.4,0,0,1-6.3,4,19,19,0,0,1-2,.46c.08-3.35.72-8.08,1.52-10.08a6,6,0,0,0-5.8-8.22,19.31,19.31,0,0,0-4.63.79A40.45,40.45,0,0,0,81.4,9.21c-.15-1.12-.3-2.37-.44-3.79A6,6,0,0,0,73.31.24Zm3.35,11.52h0Z"/>
    <path id="fur" d="M149.34,46.88c-9,3.13-14.48,2.17-17.72-.06-1-8.34,4.08-6.63,7.49-13.63-5.55,1.7-14.22-2.94-18.8,3.38C120,27,119.52,18.06,116,18c-4.26,5-10.11,6.76-16.73,6.94C95.73,26,97.16,11,99,6.31,90.79,6.62,76.8,18,79.45,21.37c-2.4-1.66-3.88-7.53-4.74-16.32C71.55,12.67,67.2,19,61.33,23.51,54.87,18,49,13.64,46.73,16.29c2.12,3.73,2.7,8.35,1,14.28-6.6-1.21-16.64-3.5-21.41,5.18,4.68,1.76,4.91,9.63,3.5,15.64C19.61,48.26,11.45,43.77,6,37.49c-.82,9.59,5.82,19.45,16.89,29.46q-8.28-2-13.44,3.91c5.89.7,11.79,6.06,17.71,14.35-4,4.82-8.23,8.16-13.21,8.3,1.36,4.28,8.69,8.36,20.39,12.3h0c6.13,13.56,15.71,28.39,27.52,38.85-.11,5.7-2.33,13.22-8.18,17.49,6.75,5.33,23.12-2.21,22.37-5.46,1.9,3.54-.67,9-4.06,14.72,7.64-4.13,13.43-8.53,14.82-13.56q1.45.27,2.93.42c1,3.51-.89,9.24-1,13.48l23.59-17.27c4.43,6.1,9.1,7.37,13.86,6.39-.75-6.71-.32-12.55,3.78-15.68,6,4.73,18,.47,17.44-.9-4.74-.18-12.19-6.53-17.72-12.27,6.56-15.55,7.54-35.32,5.62-52,5.56-3.86,9.31-7.59,10-11.09a19.16,19.16,0,0,1-13.11-5.64q-.19-.7-.39-1.38-.38-1.32-.83-2.6C140.72,55.11,148.42,51,149.34,46.88Z"/>
    <circle id="maw" cx="97.53" cy="133.78" r="24" transform="translate(-33.45 32.52) rotate(-16.2)"/>
    <circle id="forehead" cx="85.26" cy="91.53" r="32" transform="translate(-22.15 27.42) rotate(-16.2)"/>
    <g id="eyes-dark">
      <circle cx="69.89" cy="96" r="5" transform="translate(-24.01 23.31) rotate(-16.2)"/>
      <circle cx="99.66" cy="87.35" r="5" transform="translate(-20.41 31.27) rotate(-16.2)"/>
    </g>
    <path id="smileshape" d="M119.41,123.05c7.16,24.64-38.94,38-46.09,13.39C77.38,150.46,123.48,137.07,119.41,123.05Z"/>
    <path id="nostrils" d="M94.56,114.86a2.5,2.5,0,0,0-1.79,2.51,2.5,2.5,0,1,0,.33,1.13,2.5,2.5,0,1,0,1.47-3.64Z"/>
    <path id="head-highlight" d="M52.94,78A29.42,29.42,0,0,1,88.3,57.26"/>
    <circle id="eye-highlightL" fill="white" cx="67.75" cy="94.01" r="1.5" transform="translate(-23.54 22.64) rotate(-16.2)"/>
    <circle id="eye-highlightR" fill="white" cx="97.52" cy="85.36" r="1.5" transform="translate(-19.94 30.6) rotate(-16.2)"/>

        <path class="tooth" fill="white" d="M100.5,141.3,101,143a2.16,2.16,0,0,0,2.67,1.47l1.62-.47a2.16,2.16,0,0,0,1.47-2.67l-.64-2.22A43.76,43.76,0,0,1,100.5,141.3Z"/>
        <path class="tooth" fill="white" d="M93.65,142.83l.62,2.15a2.16,2.16,0,0,0,2.67,1.47l1.62-.47a2.16,2.16,0,0,0,1.47-2.67l-.5-1.73A44.13,44.13,0,0,1,93.65,142.83Z"/>

</svg>
