<svg class="leaves {{include.class}}" id="{{include.id}}" data-name="Layer 1" xmlns="http://www.w3.org/2000/svg" viewBox="0 0 1280 283">
  <path d="M1282-4C1228.89-4-3.26-4.57-5-3-6.39-1.75-6,7.07-6,9c0,14.6,3,80.12,3,97,0,8,1.32,21.37,4,29,2.27,6.5,11.31,12,16.54,16.44,3.8,3.24,18.66,15.64,17.85,20.1,2.33-12.82,24.87-20.2,33.53-29.59,10.72-11.61,18-24,25-38.25,3.14,8.56,2.61,10-2.77,17.86-5.11,7.45-10.79,14.48-15.88,22-4.82,7.08-9.36,14.35-14.17,21.44-2.58,3.8-14,14.82-13.42,19.47,6.28.93,22.8-20.63,26.7-24.75,10.72-11.34,21.39-24.59,27.58-39.06,14,24.39-27.66,67-39.9,86.44,10.77-4.24,25.79-22.45,32.3-31.37,9.57-13.12,13-28.54,15.36-44.35,9.53,9.73-3.73,41.68-8.8,52.42-9.41,19.93-16.57,44.22-20.5,66,4,1.17,20.92-44.75,23-49.8,8.34-20.76,11.29-40.43,12.24-62.7,8.51,8.94,2.15,33.63,1.67,45.32-.38,9.26-2.29,17.62-3.57,26.64a153.69,153.69,0,0,0-1.25,28.15c.32,7.2,1.83,14.29,2.22,21.49s-2,14.09-1.61,21.2c8.85-21.49,10.85-48.65,13.27-71.93,1.34-12.91.24-24.37-.74-37.23-.55-7.15-3.36-16,2.49-20.78-1.16,20.14,3.57,40.5,1.45,60.91C127,235,117.66,258.68,116,282.59c5.41-10.31,8.43-21.73,10.91-33s7.22-22.09,7.44-33.71c.23-12.3-2.14-24.7-2.15-37.12,0-7-3.28-29.49,2.37-33.29.85,17.87-.26,35.82.83,53.67.44,7.17,2.28,14.82,1.16,22-1,6.36-5.53,11.82-5.58,18.29,5.54.71,9.75-12.83,11-16.57,3.73-11.32,2.1-21.3.71-32.91-.73-6.1-6.67-45.5-1.74-47,.66,5.82,2.91,11.61,4.1,17,2.26,10.28.09,13.64-1.88,23.32,7.29.3,11.45-14,11.36-19.26-.09-5.71-10.17-22-4-24l0,3.72c5.6-2.05,12.55-9.32,17.07-13.6,1.64-1.55,3.79-5.91,6-6.45,3.11-.77,6.4,5.61,10.41,4.95.63-1.79-6.1-5.58-6.2-5.89-1.3-4.06,1.58-5.05,4.37-8.8,4.51-6,7.24-12.94,10.65-19.62,4.15,12.68,10.47,21.42,9.54,35.18,1,1,6.92-4.4,7.81-5,4.37-3,5.54-4.47,9.82-3.61,9.26,1.85,12.77,13.89,24.79,13.72-7.16-7-12.28-13.38-18.25-21.22,4.55-1.93,9.81-3.68,14-6.25,1.73-1.06,6.56-6.39,8.4-6.49-.3,0,12.1,7.6,13,8,7.56,3.06,14.31,3.62,20.66,8,3.32,2.29,14.88,14.37,14.09,17.66,1.55-6.5,16.9-16.74,23.07-15.75-1.14,5.27-8.22,46.48,2.87,44.77.62-18.38,1-46.53,12.21-61.31C326,135.16,320.47,169.18,323,204c3.8-21.68,7.32-43.41,11.17-65.08,3.51-19.81,5.22-42,14.89-59.69-4.32,21.34-8,42.79-12.16,64.16-3.74,19.31-9.84,38.2-9.24,57.88,18.72-37.14,24.7-78,27.76-118.51,3.94,5.16,2.64,16.13,3.43,22.69,1.1,9.21,2.65,18.37,4.54,27.45,1,4.75,7.93,42.73,12.25,42.66,4.48-28.18-8.69-56.81-12-85.07,8,7.06,10.61,22.67,16.82,32.07A90.72,90.72,0,0,0,407,149a245.71,245.71,0,0,1-27.33-44.48c5.35,4.38,12.35,5.56,18.18,9.07,9.84,5.94,17.44,16.84,25.16,25.41-1.92-3.84-3.43-7.68-5.32-11.52a6.75,6.75,0,0,0,4,2c-.67-9.92,1.19-16.76,5.66-25.71,6.08,4,12.33,7.7,18.68,11.23-3.25-3.36-9.91-8.31-12.25-12.33-3.53-6.06-3.31-5.05-1.26-13a83.4,83.4,0,0,0,2-29c3.8,16.25,8.53,31.37,20.91,42.93,5,4.65,27.23,20,25.95,27,2.33-12.82,24.87-20.2,33.53-29.59,11.43-12.38,19.21-26,26.42-41.24,9.83,8.64,18.52,17.46,30.32,23.13,3.07,1.48,31.76,19.84,32,19.61-.94-14,5.63-22.86,9.74-35.79,4.73,6.51,11.59,8.45,17.48,13.21,4.37,3.54,5,1.53,5.67,6.64.42,3-2.14,8.23-2.64,11.35-2.4,14.86,4,27.54,10.6,40.71,5,9.87,10.21,20.79,19.36,27.37,6.4,4.6,31,13.09,31.21,21-.25-11,15.33-18.75,21.12-27.33A107,107,0,0,0,726.28,141c3.69-8.87,6.16-18.72,8.18-28.08,2.47-11.39-.37-22.77,7.58-30.53,1.18,2.78,11.4,35.46,11.87,35.39,5.45-7.83,11.06-13.21,19.87-17.19,1.29,8.9,3.45,21.57,7.79,29.62S794.79,143,800,150.4c.51.73,4.53,12,5.61,12.27,3.32.9,2.91-2.65,5.57-3.8,8.71-3.78,19.06-6.75,27.31-11.42-6.08,6.49-7.6,13.42-12.62,20.11,13.07-11.4,26.41-22.52,38.81-34.67,8.31-8.13,16.46-22.65,27.09-25.43a201.11,201.11,0,0,1-27.81,34.6c-9.11,9.23-23.59,16.44-23.14,30.68,1.42-6.65,11.91-10.87,16.79-14.72a172.67,172.67,0,0,0,18.93-17.26c9.43-10,18.65-33.31,30.25-37.93-7.48,16.81-18.37,31.89-29.95,46.08-11.42,14-22.64,23.82-23.25,42.94,11.41-16.26,24.65-31.13,36.38-47.14a200.37,200.37,0,0,0,14.29-22c4.41-8.05,7.18-21,14.08-26.39-4.6,25.75-18.79,50-24.45,76.17,21.49-16.61,29.62-38.94,31.5-62.91,6.33,14.13,16.4,25,25.69,36.95,5.24,6.76-2,5.68,6.87,3,5.85-1.79,11.87-6.45,18.25-8.49,27-8.63,40.16-34,52.22-58.29,7.11,12,12.18,21.39,24.47,28.77,5.76,3.46,12.29,6.05,17.83,9.87,1.27.87,12.77,12.05,12.51,12.14a106.23,106.23,0,0,1,3.67-10c4-6.18,11.69-10.23,16.48-15.79,4.44-5.15,11.13-23.92,17.05-25,1.17,3.94,6,15.1,5.6,16.37-1.4,4.15-13.93,10.15-17.55,12.71-6.39,4.52-11.93,9-16.44,15.66-2.63,3.88-12.86,20.87-10.67,25,5.25-5.28,7.83-12.62,13.65-18s12.39-8.62,18.62-13c4.42-3.09,13.9-14.73,19.84-14.35,8.88.57,6.53,9.8,2.4,15.86-9,13.18-21.61,26.64-28.14,41.21-2.75,6.13-12.84,34.68-9.05,40.46,5-8.72,6.92-17.58,13.09-25.78,7.21-9.57,14-19.33,21-29.08,12-16.74,20.24-35.05,37.65-46.1-16.48,20.71-27,44.89-38.94,68.38-5.1,10.06-12.15,18.52-15.45,29.43-1.38,4.54-7.4,23.4-2.71,26.65,3-15.07,10.4-24.56,19.4-36.28,8.36-10.89,13.13-24.44,18.51-36.91,13-30,31.58-54.81,49-82.19-9.17,16.57-19.75,32.3-29.08,48.62-9,15.74-12.66,33.31-19.39,49.94-6.31,15.6-15,27.74-19,44.57-.91,3.83-10.25,44-9.9,44.1,4.18-10.52,12.65-20.28,17.63-31.07,7.11-15.4,10.4-31.91,17.6-47.34,14.46-31,16.87-66.34,37.85-94.38-3,12.59-10.75,23.34-14.2,35.79-4.2,15.14-7.71,30.65-11.41,45.93-5,20.46-16.17,48.24-10.57,69.59,3.48-15.48,12.06-28.8,17.79-43.41s7-28.88,9-44.26c1.73-13.7,5-27.65,8.16-41.15s6-33.51,15.5-44.24c-6,23.73-10.12,44.7-12.52,69-.52,5.22,2.9,64.72,8.06,61.5,1.6-22.62,6.7-43.39,6.32-66.5-.39-23.5-5.69-50.43,6.72-72.33-4.75,17.06-10.11,41-.58,58.16,4.86,8.74,9.13,18.26,14.68,26.63,4.4,6.63,15.74,20.3,23,23.82-.72-17-16.56-34-23.34-48.75-8.55-18.63-8.87-38.12-9.79-58.15,4.28,3.78,1.56,12.88,2.88,18.14,1.92,7.62,6.87,13.87,12.53,19.29,11.74,11.22,28.23,13.07,40.64,22.93.75-6.66-18.37-19.93-22.23-23.18-10.93-9.2-21.9-17.56-27.21-31.33,4.36,3.86,47.13,33.22,48.63,31.72-1.13-7.48,1.49-13.56,2.17-20.67.83-8.78,5-21.06,5-29.88C1285,29.66,1282,12.34,1282-4ZM268.86,101.87c-3.9-2.83-7.6-6-11.5-8.63l6.81-6c1.08,4.54,2.21,9.85,5.16,15ZM430.64,43.68c-2.36-4.4-3.73-9.21-6-13.68,6.9-1.29,5.73,9.8,6.71,15.07C431.11,44.6,430.89,44.14,430.64,43.68ZM1195.27,75c-.85,1.2-1.71,2.34-2.59,3.46,2.87-5.14,4.51-10,9.28-13.83C1200.57,68.56,1197.59,71.75,1195.27,75Zm5.42-12.56c1.07-2.21,2.69-5.18,5.91-4.06A32.21,32.21,0,0,0,1200.69,62.48Zm3-5.93c1.52-2.76,4.09-4.53,7.62-3.45C1209.14,55.15,1206.47,55.93,1203.72,56.55Zm2.43-4.78c1-2.83.28-3.61,4-3.61A4.29,4.29,0,0,1,1206.16,51.77Zm5.41-6.18a30.35,30.35,0,0,1-3.72.61A23,23,0,0,0,1205.61,30C1210.79,29.87,1216.76,44.37,1211.56,45.59Z"/>
</svg>
