<?xml version="1.0" encoding="utf-8"?>
<!-- Generator: Adobe Illustrator 21.0.2, SVG Export Plug-In . SVG Version: 6.00 Build 0)  -->
<!DOCTYPE svg PUBLIC "-//W3C//DTD SVG 1.1//EN" "http://www.w3.org/Graphics/SVG/1.1/DTD/svg11.dtd">
<svg version="1.1" id="logo" xmlns="http://www.w3.org/2000/svg" xmlns:xlink="http://www.w3.org/1999/xlink" x="0px" y="0px"
	 viewBox="0 0 900 200" style="enable-background:new 0 0 900 200;" xml:space="preserve">
<style type="text/css">
	.st0{fill:#FFB770;}
</style>
<title>logo2</title>
<g>
	<path class="st0" d="M1131.4-321l6.9-0.1c3.7,0,6.5,0.7,8.2,2.1c1.7,1.4,2.7,3.5,2.6,5.7c0,1.4-0.3,2.7-0.9,4
		c-0.5,1.1-1.4,2-2.4,2.5c1.3,0.6,2.3,1.6,3.2,2.7c0.9,1.5,1.3,3.3,1.2,5c0.1,5.9-4.5,8.8-13.5,9l-4.9,0.1L1131.4-321z
		 M1138.9-308.6c1.2,0.1,2.5-0.2,3.6-0.9c0.9-0.8,1.3-2,1.1-3.2c0.1-1.1-0.4-2.2-1.3-2.9c-1.1-0.6-2.4-0.9-3.7-0.8l-1.2,0l0.1,7.7
		L1138.9-308.6z M1138.9-295.1c1.6,0.1,3.1-0.4,4.3-1.5c0.8-0.9,1.3-2.1,1.3-3.3c0-1.8-0.5-3-1.4-3.6c-1.2-0.6-2.6-0.9-4-0.9l-1.3,0
		l0.1,9.2L1138.9-295.1z"/>
	<path class="st0" d="M1154.2-299.2c-1.4-2.8-1.9-5.9-1.5-8.9c0.1-3.1,1.1-6,2.9-8.5c1.6-2,4.1-3,6.7-2.7c2.6,0.1,4.9,1.5,6.2,3.8
		c1.4,2.7,2,5.8,1.6,8.8c-0.1,3.1-1.1,6.1-3,8.5c-1.6,2-4.1,3.1-6.7,2.8C1157.7-295.5,1155.4-296.9,1154.2-299.2z M1163.2-301.7
		c1-3.6,1.3-7.4,0.9-11.1c-0.2-1.5-1-2.3-2.2-2.4c-1.2-0.1-2.1,0.5-2.5,2c-0.5,1.7-0.8,3.4-1,5.2c-0.2,2-0.2,4,0,6
		c0.2,1.5,0.9,2.3,2.2,2.4C1161.8-299.6,1162.7-300.3,1163.2-301.7L1163.2-301.7z"/>
	<path class="st0" d="M1173.1-318.7l5.8-0.6l0,3.7c0.8-1.2,1.8-2.2,3-2.9c1.4-0.8,3-1.2,4.7-1.1l0.1,5.6c-1.3,0.1-2.6,0.2-3.9,0.6
		c-1.4,0.3-2.7,0.9-3.8,1.8l0.2,15.2l-5.8,0.6L1173.1-318.7z"/>
	<path class="st0" d="M1189.8-317l5.8-0.6l0,3c1-1,2.2-1.8,3.5-2.5c1-0.6,2-0.9,3.2-0.9c1.4-0.1,2.7,0.5,3.6,1.5
		c1,1.2,1.5,2.7,1.4,4.2l0.1,17.5l-5.8,0.6l-0.2-15.7c0-2.1-0.7-3.1-2.1-3.1c-0.5,0-1.1,0.2-1.5,0.4c-0.6,0.3-1.3,0.7-2.1,1.2
		l0.2,16.7l-5.8,0.6L1189.8-317z"/>
	<path class="st0" d="M1225.6-295.3l-0.3-26.2l-6.3,0.1l0.4-4.8l18.1-0.2l-0.4,4.8l-5.8,0.1l0.3,25.8L1225.6-295.3z"/>
	<path class="st0" d="M1236.4-301c-1.3-2.8-1.8-5.9-1.3-8.9c0.1-3.1,1.2-6,3-8.5c1.6-2,4.2-3,6.7-2.6c2.6,0.1,4.9,1.6,6.1,3.9
		c1.4,2.7,1.9,5.8,1.4,8.9c-0.2,3.1-1.2,6-3.1,8.5c-1.6,2-4.2,3-6.7,2.7C1239.9-297.3,1237.6-298.8,1236.4-301z M1245.4-303.4
		c0.6-1.8,0.9-3.6,1.1-5.5c0.2-1.9,0.2-3.7,0-5.6c-0.3-1.5-1-2.3-2.2-2.5c-1.2-0.1-2,0.5-2.5,1.9c-0.5,1.7-0.9,3.4-1,5.2
		c-0.2,2-0.3,4-0.1,6.1c0,1.2,0.9,2.3,2.1,2.4C1244-301.2,1244.9-301.9,1245.4-303.4z"/>
	<path class="st0" d="M1266.2-324.6l6.9-0.1c3.7,0,6.5,0.7,8.2,2.1c1.7,1.4,2.7,3.5,2.6,5.7c0,1.4-0.3,2.7-0.9,4
		c-0.5,1.1-1.4,2-2.4,2.5c1.3,0.6,2.3,1.6,3.2,2.7c0.9,1.5,1.3,3.3,1.2,5c0.1,5.8-4.4,8.7-13.5,8.8l-4.9,0.1L1266.2-324.6z
		 M1273.6-312.1c1.2,0.1,2.5-0.2,3.6-0.9c0.9-0.8,1.3-2,1.1-3.2c0.1-1.1-0.4-2.2-1.4-2.9c-1.1-0.6-2.4-0.9-3.7-0.8l-1.2,0l0.1,7.7
		L1273.6-312.1z M1273.7-298.6c1.6,0.1,3.1-0.4,4.3-1.5c0.8-0.9,1.3-2,1.3-3.2c0-1.8-0.5-3-1.4-3.6c-1.2-0.6-2.6-0.9-4-0.9l-1.3,0
		l0.1,9.1L1273.7-298.6z"/>
	<path class="st0" d="M1290.8-294.9c-2-2.3-3.2-5.2-3.5-8.2c-0.6-3-0.4-6.2,0.8-9c1.1-2.3,3.3-4,5.9-4.2c2.4-0.5,5,0.4,6.6,2.2
		c1.9,2.4,3.2,5.3,3.5,8.4c0,0.2,0,0.3-0.1,0.5c0,0.1,0,0.1,0,0.2l-10.9,1.8c0.2,1.6,0.7,3.2,1.5,4.7c0.7,1.4,1.5,2,2.5,1.8
		c1.1-0.2,2-1.1,2.1-2.2l0.5-2.1l4.6,1c-0.2,1.8-0.9,3.6-2,5c-2.9,3.2-7.8,3.5-11,0.6c0,0,0,0,0,0l-0.3-0.3L1290.8-294.9z
		 M1298-307.6c-0.1-1.3-0.6-2.6-1.2-3.7c-0.4-0.8-1.3-1.3-2.3-1.1c-0.5,0.1-1,0.4-1.2,0.9c-0.4,0.6-0.7,1.3-0.8,2.1
		c-0.2,0.9-0.2,1.9,0,2.8L1298-307.6z"/>
	<path class="st0" d="M1325-291.2l-11.4-29.1l6.4-1.4l6.3,17.7l0.4-18.6l4.8-1.1l6.4,17.9l0.7-18.8l5.4-1.2l-1.3,31.6l-5.9,1
		l-6.4-18l-0.1,19.2L1325-291.2z"/>
	<path class="st0" d="M1347.7-290.6l-0.2-22.9l5.8-0.6l0.2,22.9L1347.7-290.6z"/>
	<path class="st0" d="M1358.2-291.8l-0.3-30.4l5.8-0.8l0.4,30.6L1358.2-291.8z"/>
	<path class="st0" d="M1367.4-302.9c0-4.2,0.5-7.2,1.6-9.1c1-1.9,3-3,5.1-2.9c1,0,2,0.3,2.8,0.9c0.9,0.6,1.6,1.4,2,2.4l-0.1-10
		l5.8-0.7l0.3,30.6l-4.4,0.5l-1.5-3.2c-0.2,1-0.7,1.8-1.5,2.5c-1,0.7-2.2,1.1-3.4,1C1369.7-290.9,1367.4-294.9,1367.4-302.9z
		 M1378.3-296.4c0.6-1.5,0.9-3.1,0.7-4.7l-0.1-7.7c-0.6-1.1-1.6-1.8-2.8-1.8c-0.8,0-1.5,0.3-2,1c-0.5,0.8-0.7,1.6-0.8,2.5
		c-0.1,1.4-0.2,2.8-0.1,4.2c0,1.4,0.1,2.9,0.2,4.3c0.1,0.9,0.4,1.9,0.9,2.7c0.4,0.7,1.2,1.1,2,1
		C1377.1-295.1,1377.9-295.6,1378.3-296.4L1378.3-296.4z"/>
	<path class="st0" d="M1390.9-294.4l0.7-21.9l5.8,0.5l-2.7,21.7L1390.9-294.4z M1389.2-285.2l0.5-6.2l5.8,0.5l-0.5,6L1389.2-285.2z"
		/>
	
		<ellipse transform="matrix(0.2115 -0.9774 0.9774 0.2115 1383.514 1063.5742)" class="st0" cx="1351" cy="-325.7" rx="4.5" ry="4.5"/>
</g>
<path id="LF" class="st0" d="M1186.3-204.8c1.2-1.8,1.2-3.9,1.1-6c-0.1-1.4-1.3-2.1-2.4-2.8c-1.4-1-1.4-1.8,0.2-2.5
	c2-0.8,4-1.5,6-2.3c0.2-0.1,0.4,0,0.6,0c4.6,0.2,9.3-0.2,13.8-1.3c0.5-0.1,0.9-0.1,1.4-0.2c3.8-0.7,7.7-0.9,11.1-2.9
	c3-1.8,5.9-3.6,8.9-5.3c2.5-1.4,2.1-0.9,1.7-3.4c0.9-0.7,1.8-1.1,2.4-1.8c0.9-0.9,0.7-1.8-0.3-2.6c-1.1-0.8-2.4-0.9-3.7-0.8
	c-1.7,0.2-3.4,0.2-5.1,0.3c2-1.3,4.1-2.3,6.1-3.4c0.9-0.5,1.1-1.3,0.2-2c-0.5-0.4-1.1-0.7-1.7-0.7c-2.2-0.2-4.5,0.1-6.6,1
	c-1.2,0.6-2.6,1-3.8,1.4l-0.2-0.4c0.5-0.3,1.1-0.5,1.6-0.8c1.5-0.8,3.1-1.6,4.6-2.6c0.8-0.6,1.5-1.5,1-2.6c-0.5-1.2-1.8-1.3-3-1.3
	c-0.3,0-0.5,0-0.8,0.1c-1.3,0.5-2.6,1-3.8,1.7c-0.7,0.4-1.3,0.6-2.1,0.3c-0.8-0.3-1.6-0.1-2.5,0.3c-1.8,0.8-3.5,2-5.7,2
	c-1.5,0-2.9,0.3-4.4,0.6c-0.9,0.2-1.9,0.5-1.6,1.8c0,0.2-0.1,0.4-0.2,0.7c-4-2.3-5-2.1-6,0.8c-1.6-1.8-3.2-2.1-5.5-1.3
	c-1,0.3-2.1,0.4-3.2,0.4c-0.9,0-1.8-0.2-2.6-0.3c-2.7-0.2-4.4,1.2-4.4,3.9c0,1.9-0.5,3.7-1.1,5.5c-0.8,2.3-1.4,4.7-1.8,7.2
	c-0.3,2-0.5,4.1,1.1,6c0.9,1.1,1.3,2.7,1.8,4.1c0.3,0.8,0.3,1.8,0.8,2.5c1.3,2.3,2.8,4.6,4.3,6.8
	C1183.6-203.2,1185.3-203.3,1186.3-204.8z M1228.7-231.4C1228.7-231.5,1228.8-231.5,1228.7-231.4z M1220.4-229.3
	c-0.8,0.2-1.6,0-2.3,0.1s-6.5,1.4-8.3,1.6c-1.7,0.2-2.3,0-2.3,0s5.5-1.1,6.1-1.1c0.6,0.1,9-2.1,9.9-2.4s1.2,0.4,1.2,0.4
	C1224.9-230,1221.2-229.4,1220.4-229.3L1220.4-229.3z"/>
<path id="RF" class="st0" d="M1345-193.7c-2.7-4.4-5.2-8.8-7.6-13.3c-0.4-1-0.6-1.9-0.7-3c-0.1-1.1,0.2-2.2,0.7-3.1
	c1-5,2.4-9.6,5.6-14.1c0.5-0.5,1.1-0.7,1.8-0.7c1,0.5,1.8,1.2,2.2,2.2c1.7,2.8,0.1,6.3-2,8.6c1.8,0.6,3.6,0.6,5.3,0.9
	c9.9,0.8,20-2.8,29.6,0.3c0.8,0.3,1.6,0.6,2.4,0.9l1.2,0.5c0.3,0.2,0.7,0.4,1,0.5c0.4,0.1,0.8,0.3,1.2,0.4c0.9,0.3,1.9,0.4,2.7,0.7
	c1.3,0.3,2.5,1.9,1.7,2.7c-1.1,1.2-3.1,0.4-5,0.4l-1.1,0l-0.9,0c-0.9,0-1.6,0.3-2.2,0.3l-3.8-0.1c-2.3,0.2-4.6-0.8-6.9,0.1
	c2.8,0.3,5.9,0.7,8.7,0.4c1.3,0.1,2.9,0.2,4.3,0.3l1.6,0.1c2.3,0,4.6-0.7,7.1-0.1c1.8,0.6,3,3.1,1.2,4.1c-1,0.7-2.3,1-3.5,1.1
	s-2.5,0.2-3.7,0.5c1.1,0.5,2.8,0.8,4.1,1.3c1.3,0.4,2.3,1,2.2,2c0,1.1-0.5,1.8-1.3,2.2c-0.8,0.4-1.8,0.4-3,0.3c-2.4-0.1-4.7-1-7.3-1
	c2.2,1.9,6.4,0.7,8.1,3.8c0.2,0.8,0.2,2.1-0.8,2.5c-2.8,1.2-5.3-0.7-8.2-0.7c-0.8,0-1.8,1-2.6,0.4c-4.3-1.6-8.7,0.5-12.7-1.6
	c-0.3,0-0.2-0.8-0.5-1.3c-0.5,0.6-1.2,1.1-1.8,1.5c-1.3,1.2-3.6,0.3-3.8-1.4c-2.4,3.8-6.9,0.3-10.3,2
	C1347-193,1345.9-193.2,1345-193.7z"/>
<path id="RH" class="st0" d="M1619.6-260.4c-0.4-0.1-0.8,0.4-1.2,0.1c-0.2-0.1-0.1-0.4-0.1-0.6c0.2-0.8,0.5-1.6,0.9-2.3
	c0.2-0.3,0.3-0.6,0.5-0.9c0.3-1.1,0.6-4.7,2-4.6c1.1-2.6,5.6-1,7.8-1.1c2.1-0.2,4.4-1.8,6.5-1.2c1,0.3,1.5,1.1,2.5,1.3
	c0-0.3-0.1-0.5-0.2-0.8c0.4,0.1,0.5,0,0.9-0.2c0-1.5,12.1-1,13.7-1c1.5,0,5.7,0.2,3,3.1c-0.4,0.4-5.2,1.2-5.1,0.6
	c-0.1,0.1,0,1.1-0.4,0.4c-0.6,0.6-1.4,1.6-2.6,1c-1.2-0.5-0.5-1.4-1.3-2.3c0,0,0.7,3-0.2,2.5c-0.6-0.3-0.1-2.6-1.2-3.1
	c0,0.3,0.8,3.2,0.6,3.2c-0.5,0-0.9-2.8-1.1-2.9c-0.7-0.3,0.1,3.1,0,3.3c-0.5,0.7-3,1.1-4.1,1c-0.1,0-0.3-0.1-0.4-0.1
	c-1-0.2-0.9-1.4-1.2-2.2c-0.1,0.2-0.2,0.4-0.2,0.6c0,0.2-0.1,0.5-0.1,0.7c-0.1,0.5-1.1,3.9-0.4,3.8c0.1,0,0.3-0.1,0.4-0.2
	c0.1-0.1,0.3-0.1,0.4-0.1c0.1,0,0.2,0.1,0.2,0.1c0.1,0.1,0.2,0.3,0.2,0.5c0,0.2,2.1,8.1,0.2,8.7c-0.5,0.1-0.1-0.8-0.1-0.9
	c-0.7,0-1.4,3.3-2.1,2.5c-0.2,0-1.2,3.3-1.2,3.6c-0.5,0.3-0.2,1.3-0.9,2c-1.1,1-4.4,0.6-5.9,0.5c-2.9-0.1-8.3,0.5-8.6-2.9
	c-0.3,0.4,0.1,1.9-1,1.4c-0.1,1.4-7.1-0.5-8.1-0.9c-0.8-0.3-3.8-2.7-4.2-3.6c-0.4-0.9,0.6-6.9,0.6-7c0.1,0.2-0.3-1.2-0.2-0.9
	c-2.2-3.9,5.4-11,8.9-9.2c1.7,0.9,0.1-1.7,1.7,0.4c0.7,0.9,0.4,1.8,0,2.9c-0.1,0.2-0.2,0.3-0.3,0.5c-0.2,0.3-0.4,0.5-0.6,0.8
	c-0.3,0.2-0.4,0.6-0.7,0.5c-0.5-0.3,0.1-0.7,0.3-0.8c0.3-0.2,0.5-0.4,0.4-0.5c-0.1-0.1-0.3-0.1-0.4,0c-0.2,0.2-0.3,0.4-0.4,0.6
	c-0.1,0.5-0.3,0.9-0.2,1.4c0.2-0.1,0.1-0.5,0.4-0.4c0.3,0.2,0.5,0.6,0.5,0.9c-0.1,0.3-0.5,0.4-0.5,0.7c0.2,0.8-0.3,1.8-0.5,1.9
	c-1.9-0.1-3.6-1.5-5.3-2.8c1,1.8,3.4,2.1,4.3,3.9c0.6,1,0.5,2.2,0.7,3.2c0,0.2,0.1,0.4,0.1,0.6s0.1,0.4,0.2,0.6
	c0.1,0.3,0.1,0.5,0.2,0.7c0.1,0.5,0.2,1,0.3,1.4c0.2,1,0.1,2.8,0.6,3.7c0.1-0.1,0.6-1.6,0.7-1.6c-1.3,0.1-0.4-2.3,0.1-2.5
	c-0.2-0.1-0.4-0.3-0.6-0.5c-0.2-0.2-0.4-0.4-0.6-0.6c-0.1-0.2-0.3-0.4-0.4-0.7c-0.2-0.3-0.3-0.5-0.4-0.8c-0.5-1-0.4-2.4,0.7-2.9
	c0.1-0.1,0.2,0,0.3,0.1c0,0.1,0.1,0.3,0.3,0.3c0.1,0.1,0.3,0.2,0.4,0.2c0.3-0.1,0.3-0.3,0.3-0.5c-0.1-0.6-1.1-0.8-0.7-1.5
	c0.3-0.5,1.1-0.3,1.6-0.3c0.1,0,0.2-0.1,0.3-0.3c-0.1,0-0.1,0-0.2,0.1c0.1-0.2,0.1-0.4,0.4-0.4 M1646.6-254.1
	c-0.1-0.2-0.2-0.5-0.5-0.6c-0.3,1.2,0.6,2,0.2,2.8c0,0-0.8,0.5-1.1,0.5c-2.5,0.9-4.9-1-4.3-3.7c0.3-1.5,1.6-2.4,3.1-2.6
	c0.3,0,1,0.4,1,0.4c0.2,0.1,1.7,0.5,1.6,0.5c0.1,0,0.1,0.8,0.4,0.9c0.2-0.2,0.9-1.8,1.6-1.3c0.1,0.2,0,0.4-0.2,0.5
	c-0.1-0.2,2.3-1.1,2.5-0.6c0.1,0.2-0.1,0.3,0,0.5c0.2,0.4,0.3-0.7,0.2-0.6c0.8-0.5,7.7,1.9,8,2.9c0.6,2.1-1.6,2.3-3.2,2.5
	c-1.9,0.2-6.4,1-8.3,0C1647-252.3,1646.9-254,1646.6-254.1L1646.6-254.1z M1648-256.8C1648-256.8,1648.5-256.1,1648-256.8
	L1648-256.8z M1645.8-248.9c0.1,0.1-0.2-1.4-0.3-1.5c0-1.2,4.3,0.3,4.2,0.5c0-0.1-1,0.2-0.7,0.4c-0.2-0.1,0.8,0.1,0.8,0.1
	c0-1.1,2.1-0.1,2.6,0.4c2,2.2-1.6,3.1-3.4,3.3c-3,0.4-6,0.6-8.9,0.6c-1.6,0-3.1-0.2-3.5-0.1c-1.3,0.2-0.7-3.3,0.1-3
	c0,0-0.1,1.2,0.2,1c0.6-0.4,0.2-1.8,0.6-2.5c0.7-1.2,1.5-0.9,2.5-1.1c0.9-0.1,4.9,0,5,0.7c-0.1,0.1-0.3,0.2-0.4,0.2
	c0.6,0,1,1,1.2,1.2 M1648.6-262.2c-0.1,0.6-1.2-1.8-1.1-2.1c0.3-1.6,2.2-1.4,3.5-1.4c2.1-0.1,4.5-1.1,6.5-1c5,0.3-0.4,4.1-2.8,4.8
	c-1.2,0.4-3.2,1.3-4.5,1.2C1648.6-260.9,1649.2-261,1648.6-262.2L1648.6-262.2z M1645.1-264.3c0.8,0.1,1.3,3.4,1.8,4.4
	c0-0.3,0.2-1.5,0-1.7c0,0,0.7,0.5,0.7,0.5c-0.4-0.5-1.5-2.3-1.6-3c-0.1-0.7,3.3,3.7,1.9,3.8c-0.1,0-0.1-0.5-0.3-0.5
	c0.6,1.2-0.4,0.3-0.5-0.2c0.7,0-1.6,2.3-2.2,2.5c-1.9,0.6-3.6,0-4-2.3c-0.3-1.7,0.5-2.2,1.3-2.8
	C1642.8-263.9,1644.9-264.9,1645.1-264.3L1645.1-264.3z M1616.7-270.1c1.5-0.7,2.8-3.1,3-4.6c0.2-2.1-0.9-2.5-2.9-1.4
	c-0.8,0.4-2.6,3.7-2.7,3.8c-0.3-0.7-0.4,0.9-0.2,1.1C1613.1-271,1615.2-269.4,1616.7-270.1z M1615.6-261.4
	C1614.8-261.6,1615.4-261.3,1615.6-261.4L1615.6-261.4z"/>
<path id="LH" class="st0" d="M1483.8-289.9c-0.3,0.1-0.4-0.1-0.5-0.2c0.1,0,0.1,0,0.2,0c-0.1-0.1-0.2-0.2-0.3-0.2
	c-0.5,0.1-1.2,0.5-1.6,0.1c-0.6-0.5,0.4-1,0.3-1.6c0-0.2-0.1-0.4-0.4-0.4c-0.1,0-0.2,0.2-0.3,0.3c-0.1,0.1-0.2,0.2-0.2,0.4
	c-0.1,0.1-0.2,0.2-0.3,0.1c-1.2-0.2-1.7-1.5-1.4-2.6c0.1-0.3,0.1-0.6,0.2-0.9c0.1-0.3,0.2-0.5,0.3-0.8c0.1-0.3,0.2-0.5,0.4-0.7
	c0.1-0.2,0.3-0.4,0.5-0.6c-0.5-0.1-2-2.1-0.7-2.4c-0.1,0-1-1.3-1-1.4c-0.3,1,0.3,2.7,0.3,3.8c0,0.5,0,1,0.1,1.5c0,0.3,0,0.5,0,0.7
	c0,0.2,0,0.4,0,0.6c0,0.2,0,0.4,0,0.6c0.1,1.1,0.4,2.2,0.1,3.3c-0.5,2-2.7,2.8-3.3,4.8c1.3-1.6,2.6-3.4,4.5-3.9c0.2-0.1,1,0.8,1,1.7
	c0,0.3,0.5,0.2,0.6,0.5c0.1,0.4,0.1,0.7-0.2,1c-0.2,0.2-0.3-0.3-0.5-0.3c0,0.5,0.2,0.9,0.5,1.3c0.1,0.2,0.3,0.4,0.5,0.5
	c0.2,0.1,0.3,0.1,0.4-0.1c0.1-0.2-0.2-0.3-0.5-0.4c-0.3-0.1-0.9-0.3-0.5-0.7c0.3-0.2,0.5,0.1,0.8,0.3c0.3,0.2,0.5,0.4,0.7,0.6
	c0.1,0.1,0.3,0.3,0.4,0.4c0.7,1,1.2,1.7,0.7,2.8c-1,2.4-0.1-0.5-1.6,0.8c-3,2.5-12-2.5-10.8-6.8c-0.1,0.3,0-1.1,0-0.9
	c0-0.1-2.4-5.7-2.3-6.7c0.1-0.9,2.5-4,3.2-4.5c0.8-0.6,7.1-4.1,7.6-2.8c0.9-0.7,0.8,0.8,1.3,1.1c-0.5-3.4,4.9-4,7.7-4.9
	c1.5-0.5,4.5-1.7,5.9-1c0.9,0.5,0.8,1.5,1.4,1.7c0.1,0.3,1.8,3.2,2.1,3.2c0.5-0.9,2,2.1,2.7,1.9c0-0.1-0.6-0.9-0.1-0.9
	c2,0.1,1.9,8.3,1.9,8.5c0,0.2,0,0.3-0.1,0.5c0,0.1-0.1,0.1-0.2,0.2c-0.1,0-0.3,0-0.4,0c-0.1,0-0.3-0.1-0.4-0.1
	c-0.7,0.1,1.1,3.1,1.3,3.6c0.1,0.2,0.2,0.4,0.3,0.7c0.1,0.2,0.2,0.4,0.3,0.5c0.1-0.8-0.2-2,0.7-2.4c0.1-0.1,0.2-0.2,0.4-0.2
	c1.1-0.4,3.6-0.6,4.2-0.1c0.2,0.2,0.2,3.6,0.8,3.2c0.1-0.1-0.2-3,0.3-3.1c0.2,0,0.1,3,0.2,3.2c0.9-0.8,0-2.9,0.4-3.3
	c0.8-0.7,0.8,2.4,0.8,2.4c0.5-1-0.4-1.7,0.7-2.5c1.1-0.8,2.1-0.1,2.8,0.3c0.2-0.8,0.4,0.2,0.5,0.3c-0.2-0.6,4.6-0.9,5.1-0.6
	c3.3,2.1-0.7,3.3-2.2,3.7c-1.5,0.4-13.1,3.8-13.5,2.4c-0.4-0.1-0.5-0.1-0.9,0.1c0.1-0.3,0.1-0.5,0-0.8c-1,0.5-1.3,1.4-2.1,1.9
	c-1.9,1.1-4.5,0.1-6.6,0.4c-2.2,0.4-6.1,3.1-7.9,0.8c-1.4,0.5-2.5-3-3.1-4c-0.2-0.3-0.4-0.5-0.7-0.8c-0.6-0.6-1.1-1.3-1.5-2
	c0-0.2-0.2-0.4-0.1-0.6c0.3-0.4,0.8,0,1.2-0.1 M1508.9-304.7c1.6-1.4,6.1-1.8,8-2c1.6-0.2,3.8-0.6,3.7,1.6c0,1-6.2,5-7.1,4.7
	c0.1,0-0.2-0.9-0.3-0.5c-0.1,0.3,0.1,0.4,0.1,0.5c-0.1,0.6-2.6,0.3-2.6,0.1c0.2,0.1,0.3,0.3,0.3,0.5c-0.5,0.7-1.6-0.8-1.8-0.9
	c-0.3,0.2-0.1,0.9-0.2,1c0.1,0-1.3,0.8-1.5,0.9c0,0-0.6,0.5-0.9,0.6c-1.5,0.3-2.9-0.4-3.6-1.7c-1.3-2.5,0.6-4.9,3.3-4.6
	c0.3,0,1.2,0.3,1.2,0.3c0.6,0.7-0.1,1.6,0.5,2.7c0.2-0.2,0.3-0.4,0.3-0.7C1508.6-302.5,1508.2-304.1,1508.9-304.7z M1510.3-300
	C1510.7-300.8,1510.3-300,1510.3-300z M1506.3-307.4c-0.1,0.3-0.2,1.2-0.8,1.4c0.2,0,0.3,0.1,0.5,0.1c0.1,0.7-3.8,1.8-4.7,1.9
	c-1,0.1-1.7,0.5-2.7-0.4c-0.6-0.6-0.5-2-1.2-2.3c-0.3-0.1,0,1.1,0,1.1c-0.7,0.4-2.2-2.8-0.8-2.9c0.4,0,1.8-0.5,3.4-1
	c2.9-0.8,5.8-1.3,8.8-1.6c1.8-0.2,5.4-0.3,4.1,2.4c-0.3,0.7-2.2,2.2-2.4,1.1c0.1,0-0.9,0.4-0.7,0.3c-0.3,0.2,0.8,0.3,0.7,0.2
	c0.1,0.2-3.7,2.8-4,1.5c0-0.1-0.1-1.6-0.1-1.5 M1513.5-296.7c1.2-0.4,3.3,0,4.6,0.1c2.5,0.1,8.6,2.4,3.9,4c-1.9,0.6-4.5,0.3-6.6,0.6
	c-1.3,0.2-3.1,1-3.8-0.5c-0.2-0.3,0.3-2.9,0.6-2.3C1512.5-296.2,1511.9-296.2,1513.5-296.7L1513.5-296.7z M1506.3-292.1
	c-0.8-0.4-1.8-0.7-1.9-2.4c-0.2-2.3,1.4-3.3,3.3-3.2c0.6,0,3.4,1.8,2.8,1.9c-0.1-0.5,0.7-1.6,0.4-0.3c0.1-0.1,0-0.5,0.1-0.6
	c1.4-0.2-0.8,4.9-0.9,4.2c-0.1-0.6,0.5-2.7,0.8-3.3c0,0-0.6,0.6-0.6,0.6c0.1-0.3-0.3-1.4-0.4-1.7c-0.3,1.1,0,4.3-0.7,4.7
	C1509.3-291.3,1507-291.8,1506.3-292.1L1506.3-292.1z M1480.6-277.7c-0.1,0.2,0.3,1.8,0.5,1c0.1,0,2.6,2.8,3.5,3
	c2.2,0.6,3.2-0.1,2.5-2.1c-0.5-1.4-2.4-3.5-4-3.7C1481.6-279.9,1479.9-277.8,1480.6-277.7z M1480-287.7
	C1479.8-287.7,1479.2-287.3,1480-287.7L1480-287.7z"/>
<path id="LF_1_" class="st0" d="M1835.8-259.1c1.3-1.7,1.5-3.9,1.5-5.9c0-1.4-1.2-2.2-2.2-3c-1.4-1.1-1.3-1.9,0.4-2.5
	c2-0.7,4.1-1.3,6.1-1.9c0.2-0.1,0.4,0.1,0.6,0.1c4.6,0.5,9.3,0.4,13.9-0.3c0.5-0.1,0.9,0,1.4-0.1c3.8-0.4,7.7-0.4,11.3-2.1
	c3.1-1.5,6.1-3.2,9.3-4.7c2.6-1.2,2.2-0.8,1.9-3.3c1-0.6,1.9-1,2.6-1.6c0.9-0.9,0.8-1.8-0.1-2.6c-1.1-0.9-2.3-1.1-3.7-1.1
	c-1.7,0.1-3.4,0-5.1,0c2.1-1.1,4.2-2.1,6.3-3c1-0.4,1.2-1.2,0.4-2c-0.4-0.4-1-0.7-1.6-0.9c-2.2-0.3-4.5-0.2-6.6,0.5
	c-1.3,0.5-2.6,0.8-3.9,1.2l-0.1-0.5c0.6-0.2,1.1-0.4,1.7-0.7c1.6-0.7,3.2-1.4,4.7-2.3c0.8-0.5,1.6-1.4,1.2-2.5
	c-0.5-1.2-1.7-1.4-2.9-1.5c-0.3,0-0.5,0-0.8,0.1c-1.3,0.4-2.6,0.9-3.9,1.4c-0.7,0.3-1.3,0.5-2.1,0.2c-0.8-0.4-1.6-0.2-2.5,0.2
	c-1.9,0.7-3.7,1.8-5.9,1.6c-1.5-0.1-3,0.1-4.4,0.3c-0.9,0.1-1.9,0.4-1.7,1.7c0,0.2-0.2,0.4-0.3,0.7c-3.8-2.6-4.9-2.5-6,0.4
	c-1.5-1.9-3-2.3-5.4-1.7c-1,0.3-2.1,0.2-3.2,0.2c-0.9,0-1.7-0.3-2.6-0.5c-2.6-0.4-4.4,0.9-4.6,3.5c-0.1,1.9-0.8,3.6-1.5,5.4
	c-1,2.3-1.8,4.6-2.3,7c-0.5,2-0.7,4,0.7,6c0.8,1.2,1.1,2.8,1.6,4.2c0.3,0.8,0.2,1.8,0.6,2.6c1.2,2.4,2.4,4.8,3.8,7.1
	C1833-257.7,1834.7-257.7,1835.8-259.1z M1880-282.7C1880-282.8,1880-282.8,1880-282.7z M1871.5-281.2c-0.9,0.1-1.6-0.1-2.3-0.1
	c-0.6,0.1-6.6,0.9-8.3,1c-1.7,0.1-2.3-0.2-2.3-0.2s5.6-0.8,6.1-0.7c0.6,0.1,9.2-1.4,10.1-1.7c0.9-0.2,1.1,0.5,1.1,0.5
	C1876.1-281.6,1872.3-281.3,1871.5-281.2L1871.5-281.2z"/>
<path id="RF_1_" class="st0" d="M2047.3-243.4c-2.4-4.5-4.6-9.1-6.6-13.8c-0.3-1-0.5-2-0.5-3c0-1.1,0.3-2.1,0.9-3
	c1.3-5,3.1-9.4,6.6-13.7c0.5-0.4,1.2-0.6,1.9-0.6c0.9,0.5,1.7,1.3,2.1,2.3c1.5,2.9-0.4,6.3-2.6,8.4c1.7,0.7,3.5,0.9,5.3,1.3
	c9.9,1.5,20.2-1.4,29.5,2.3c0.8,0.4,1.6,0.7,2.4,1.1l1.2,0.5c0.3,0.2,0.6,0.4,1,0.6c0.4,0.2,0.8,0.3,1.2,0.5
	c0.8,0.3,1.8,0.5,2.7,0.9c1.2,0.4,2.4,2.1,1.5,2.8c-1.1,1.2-3.1,0.2-5,0.1l-1.1-0.1l-0.9-0.1c-0.9-0.1-1.6,0.2-2.3,0.1l-3.8-0.4
	c-2.4,0.1-4.5-1.2-6.9-0.4c2.8,0.5,5.8,1.1,8.7,1c1.3,0.2,2.9,0.4,4.3,0.6l1.5,0.2c2.3,0.2,4.6-0.4,7.1,0.4c1.7,0.7,2.8,3.3,0.9,4.2
	c-1.1,0.7-2.3,0.8-3.6,0.8c-1.3,0-2.5,0-3.7,0.2c1.1,0.6,2.7,1,4,1.5c1.3,0.5,2.3,1.1,2,2.1c-0.1,1.1-0.7,1.8-1.4,2.1
	c-0.8,0.3-1.8,0.3-3,0.1c-2.4-0.3-4.6-1.3-7.2-1.5c2.1,2,6.3,1.1,7.8,4.3c0.2,0.8,0.1,2.1-1,2.5c-2.9,1-5.3-1-8.1-1.3
	c-0.8-0.1-1.9,0.8-2.6,0.3c-4.2-1.9-8.7-0.1-12.6-2.5c-0.3,0-0.2-0.8-0.4-1.3c-0.6,0.5-1.2,1-1.9,1.4c-1.4,1.1-3.6,0.1-3.7-1.7
	c-2.7,3.6-6.9-0.2-10.4,1.3C2049.2-242.6,2048.1-242.8,2047.3-243.4z"/>
<path id="LH_1_" class="st0" d="M2169.5-337c-0.3,0.1-0.4-0.1-0.5-0.3c0.1,0,0.1,0,0.2,0c-0.1-0.1-0.2-0.2-0.3-0.2
	c-0.5,0.1-1.2,0.4-1.6,0c-0.6-0.6,0.4-1,0.4-1.6c0-0.2-0.1-0.5-0.4-0.5c-0.1,0-0.2,0.2-0.4,0.3c-0.1,0.1-0.2,0.2-0.2,0.4
	c-0.1,0.1-0.2,0.2-0.3,0.1c-1.2-0.3-1.6-1.7-1.2-2.7c0.1-0.3,0.2-0.6,0.3-0.9c0.1-0.3,0.2-0.5,0.3-0.8c0.1-0.3,0.3-0.5,0.4-0.7
	c0.2-0.2,0.3-0.4,0.5-0.6c-0.5-0.1-1.9-2.3-0.6-2.4c-0.1,0-0.9-1.4-0.9-1.5c-0.3,1,0.1,2.7,0.1,3.8c0,0.5,0,1,0,1.5
	c0,0.3,0,0.5,0,0.7c0,0.2-0.1,0.4-0.1,0.6c0,0.2,0,0.4,0,0.6c0,1.1,0.3,2.2-0.1,3.3c-0.7,1.9-2.9,2.6-3.6,4.6
	c1.4-1.5,2.8-3.2,4.7-3.6c0.3,0,0.9,0.9,0.9,1.7c0,0.3,0.4,0.3,0.6,0.6c0.1,0.4,0,0.8-0.3,1c-0.2,0.2-0.3-0.3-0.5-0.3
	c0,0.5,0.2,0.9,0.4,1.3c0.1,0.2,0.3,0.4,0.5,0.5c0.2,0.1,0.3,0.1,0.4-0.1s-0.2-0.3-0.5-0.4c-0.3-0.1-0.9-0.4-0.5-0.7
	c0.3-0.2,0.5,0.2,0.8,0.3c0.2,0.2,0.5,0.4,0.7,0.7c0.1,0.1,0.3,0.3,0.4,0.4c0.6,1,1,1.8,0.5,2.9c-1.2,2.4-0.1-0.5-1.6,0.7
	c-3.1,2.3-11.8-3.3-10.3-7.5c-0.1,0.3,0.1-1.1,0-0.9c0-0.1-2-5.9-1.8-6.8s2.8-3.8,3.5-4.3c0.9-0.6,7.4-3.6,7.8-2.3
	c0.9-0.7,0.8,0.8,1.2,1.2c-0.3-3.4,5.2-3.7,8-4.3c1.5-0.4,4.6-1.4,5.9-0.6c0.8,0.5,0.7,1.5,1.3,1.8c0,0.3,1.6,3.4,1.8,3.4
	c0.6-0.9,1.8,2.2,2.5,2.1c0-0.1-0.5-1-0.1-0.9c2,0.2,1.3,8.4,1.3,8.6c0,0.2,0,0.3-0.1,0.5c0,0.1-0.1,0.1-0.2,0.2
	c-0.1,0-0.3,0-0.4-0.1c-0.1,0-0.3-0.1-0.4-0.1c-0.7,0.1,0.9,3.2,1.1,3.7c0.1,0.2,0.1,0.5,0.2,0.7c0.1,0.2,0.2,0.4,0.3,0.5
	c0.2-0.8-0.1-2,0.8-2.3c0.1-0.1,0.2-0.1,0.4-0.2c1.1-0.4,3.6-0.4,4.2,0.2c0.2,0.2,0,3.6,0.6,3.2c0.1-0.1,0-3,0.5-3
	c0.2,0-0.1,3,0,3.2c1-0.7,0.2-2.9,0.7-3.3c0.8-0.7,0.7,2.5,0.7,2.5c0.6-1-0.2-1.7,0.9-2.5c1.2-0.8,2.1,0,2.8,0.5
	c0.2-0.7,0.4,0.2,0.5,0.3c-0.2-0.6,4.6-0.6,5.1-0.2c3.1,2.3-0.9,3.2-2.4,3.5c-1.5,0.3-13.3,2.8-13.6,1.4c-0.4-0.1-0.5-0.1-0.9,0
	c0.1-0.3,0.1-0.5,0-0.8c-1,0.4-1.3,1.3-2.2,1.7c-2,0.9-4.5-0.3-6.6-0.1c-2.2,0.2-6.3,2.6-7.9,0.2c-1.4,0.4-2.3-3.1-2.8-4.2
	c-0.2-0.3-0.4-0.6-0.6-0.8c-0.5-0.6-1-1.4-1.3-2.1c0-0.2-0.2-0.4,0-0.6c0.3-0.3,0.8,0.1,1.2-0.1 M2195.6-350
	c1.7-1.3,6.2-1.3,8.1-1.4c1.6-0.1,3.9-0.4,3.6,1.9c-0.1,1-6.5,4.6-7.4,4.2c0.1,0.1-0.1-0.9-0.3-0.5c-0.1,0.3,0.1,0.4,0.1,0.5
	c-0.1,0.6-2.7,0.1-2.6-0.1c0.2,0.1,0.3,0.3,0.3,0.5c-0.6,0.7-1.5-0.9-1.8-1c-0.3,0.1-0.2,0.9-0.3,1c0.1,0-1.3,0.7-1.5,0.8
	c0,0-0.6,0.5-0.9,0.5c-1.5,0.1-2.9-0.6-3.5-2c-1.1-2.6,0.9-4.8,3.6-4.4c0.3,0,1.2,0.4,1.1,0.4c0.6,0.7-0.3,1.6,0.3,2.8
	c0.2-0.2,0.3-0.4,0.3-0.7C2195.1-347.8,2194.9-349.4,2195.6-350z M2196.7-345.2C2197.1-346,2196.7-345.2,2196.7-345.2z
	 M2193.2-352.9c-0.1,0.3-0.3,1.2-0.9,1.4c0.1,0,0.3,0.1,0.4,0.2c0,0.7-3.9,1.5-4.8,1.6c-1,0-1.8,0.4-2.6-0.6c-0.5-0.6-0.4-2.1-1-2.4
	c-0.3-0.1-0.1,1.1,0,1.1c-0.7,0.4-2-2.9-0.6-3c0.4,0,1.9-0.4,3.4-0.7c2.9-0.6,5.9-0.9,8.9-1c1.8-0.1,5.4,0.1,3.9,2.7
	c-0.4,0.6-2.3,2-2.5,0.9c0.1,0-0.9,0.4-0.8,0.3c-0.3,0.2,0.8,0.4,0.7,0.3c0.1,0.2-3.9,2.5-4.1,1.3c0-0.1,0.1-1.6,0-1.5
	 M2199.6-341.7c1.2-0.3,3.3,0.3,4.6,0.4c2.5,0.3,8.4,3,3.6,4.2c-1.9,0.5-4.5-0.1-6.6,0.2c-1.3,0.1-3.1,0.7-3.7-0.8
	c-0.1-0.3,0.5-2.9,0.7-2.3C2198.6-341.3,2197.9-341.3,2199.6-341.7L2199.6-341.7z M2192.1-337.6c-0.8-0.4-1.7-0.8-1.7-2.5
	c0-2.3,1.6-3.2,3.5-2.9c0.6,0.1,3.3,2.1,2.6,2.1c0-0.5,0.8-1.5,0.4-0.3c0.1-0.1,0-0.5,0.2-0.6c1.4-0.1-1.1,4.8-1.2,4.1
	c0-0.7,0.7-2.6,1.1-3.2c0,0-0.6,0.6-0.6,0.6c0.1-0.3-0.2-1.4-0.3-1.7c-0.3,1.1-0.3,4.3-1,4.6C2195-336.7,2192.8-337.3,2192.1-337.6
	L2192.1-337.6z M2165.5-325.1c-0.2,0.2,0.2,1.8,0.4,1c0.1,0,2.4,2.9,3.3,3.2c2.2,0.7,3.2,0.1,2.6-1.9c-0.4-1.5-2.1-3.6-3.7-4
	C2166.6-327.1,2164.8-325.2,2165.5-325.1z M2165.6-335C2165.3-335.1,2164.8-334.7,2165.6-335L2165.6-335z"/>
<g>
	<path class="st0" d="M2313.2,131.3l6.9-0.3c3.7-0.1,6.5,0.5,8.2,1.9c1.7,1.3,2.7,3.4,2.8,5.6c0.1,1.4-0.2,2.8-0.8,4
		c-0.5,1.1-1.3,2-2.4,2.6c1.3,0.6,2.4,1.5,3.2,2.6c0.9,1.5,1.4,3.2,1.3,5c0.2,5.9-4.3,8.9-13.3,9.3l-4.9,0.2L2313.2,131.3z
		 M2321,143.6c1.2,0,2.5-0.3,3.5-0.9c0.9-0.8,1.3-2.1,1.1-3.2c0.1-1.1-0.5-2.2-1.4-2.8c-1.1-0.6-2.4-0.8-3.7-0.7l-1.2,0l0.3,7.7
		L2321,143.6z M2321.3,157.1c1.6,0.1,3.1-0.5,4.2-1.6c0.8-0.9,1.3-2.1,1.2-3.3c-0.1-1.8-0.6-3-1.5-3.5c-1.2-0.6-2.6-0.9-4-0.8
		l-1.3,0l0.3,9.2L2321.3,157.1z"/>
	<path class="st0" d="M2336.5,152.7c-1.5-2.7-2.1-5.8-1.7-8.9c0-3.1,1-6,2.7-8.5c1.5-2.1,4-3.1,6.6-2.9c2.6,0,4.9,1.4,6.2,3.6
		c1.5,2.7,2.1,5.8,1.8,8.8c0,3.1-1,6.1-2.8,8.6c-1.5,2.1-4.1,3.2-6.6,2.9C2340.1,156.3,2337.8,154.9,2336.5,152.7z M2345.5,149.9
		c0.9-3.6,1.2-7.4,0.7-11.2c-0.3-1.5-1-2.3-2.3-2.3s-2.1,0.6-2.5,2c-0.5,1.7-0.8,3.4-0.9,5.2c-0.2,2-0.1,4,0.1,6
		c0.2,1.5,1,2.3,2.2,2.4C2344.1,152.1,2345,151.4,2345.5,149.9L2345.5,149.9z"/>
	<path class="st0" d="M2354.9,132.7l5.7-0.7l0.1,3.7c0.8-1.2,1.8-2.2,3-3c1.4-0.8,3-1.3,4.6-1.3l0.2,5.6c-1.3,0.1-2.6,0.3-3.9,0.6
		c-1.4,0.3-2.7,1-3.8,1.9l0.5,15.2l-5.7,0.7L2354.9,132.7z"/>
	<path class="st0" d="M2371.7,134.1l5.7-0.7l0.1,3c1-1,2.2-1.9,3.4-2.6c1-0.6,2-0.9,3.1-1c1.4-0.1,2.7,0.5,3.6,1.5
		c1,1.2,1.5,2.7,1.5,4.2l0.5,17.5l-5.7,0.7l-0.5-15.7c-0.1-2.1-0.8-3.1-2.2-3c-0.5,0-1.1,0.2-1.5,0.5c-0.6,0.3-1.3,0.7-2.1,1.2
		l0.6,16.7l-5.7,0.7L2371.7,134.1z"/>
	<path class="st0" d="M2408,155l-0.9-26.2l-6.3,0.2l0.3-4.8l18.1-0.6l-0.3,4.8l-5.8,0.2l0.9,25.8L2408,155z"/>
	<path class="st0" d="M2418.6,149c-1.4-2.7-1.9-5.8-1.5-8.9c0-3.1,1-6.1,2.8-8.6c1.6-2,4.1-3.1,6.6-2.8c2.6,0.1,4.9,1.5,6.2,3.7
		c1.4,2.7,2,5.8,1.6,8.8c-0.1,3.1-1.1,6.1-2.9,8.5c-1.6,2-4.1,3.1-6.7,2.8C2422.2,152.6,2419.9,151.2,2418.6,149z M2427.6,146.4
		c0.5-1.8,0.8-3.6,0.9-5.5c0.2-1.9,0.1-3.7-0.1-5.6c-0.3-1.5-1-2.3-2.2-2.4c-1.2-0.1-2,0.5-2.5,2c-0.5,1.7-0.8,3.4-0.9,5.2
		c-0.2,2-0.2,4,0,6.1c0,1.2,0.9,2.3,2.1,2.4C2426.3,148.6,2427.1,147.9,2427.6,146.4z"/>
	<path class="st0" d="M2447.9,124.7l6.9-0.3c3.7-0.1,6.5,0.5,8.2,1.9c1.7,1.4,2.7,3.5,2.7,5.7c0.1,1.4-0.2,2.8-0.8,4
		c-0.5,1.1-1.3,2-2.4,2.6c1.3,0.6,2.4,1.5,3.2,2.6c0.9,1.5,1.4,3.2,1.3,5c0.2,5.8-4.3,8.8-13.3,9.1l-4.9,0.2L2447.9,124.7z
		 M2455.6,137c1.2,0,2.5-0.3,3.5-0.9c0.9-0.8,1.3-2.1,1.1-3.3c0.1-1.1-0.5-2.2-1.4-2.9c-1.1-0.6-2.4-0.8-3.7-0.7l-1.2,0l0.2,7.7
		L2455.6,137z M2455.9,150.5c1.6,0.1,3.1-0.5,4.2-1.6c0.8-0.9,1.2-2,1.2-3.2c-0.1-1.8-0.6-3-1.5-3.5c-1.2-0.6-2.6-0.9-4-0.8l-1.3,0
		l0.3,9.1L2455.9,150.5z"/>
	<path class="st0" d="M2473.2,153.8c-2-2.3-3.3-5.1-3.7-8.2c-0.7-3-0.5-6.1,0.6-9c1-2.4,3.2-4,5.8-4.4c2.4-0.5,5,0.2,6.7,2.1
		c2,2.4,3.3,5.2,3.7,8.3c0,0.2,0,0.3-0.1,0.5c0,0.1,0,0.1,0,0.2l-10.8,2c0.3,1.6,0.8,3.2,1.6,4.7c0.7,1.4,1.6,2,2.5,1.8
		c1.1-0.2,1.9-1.1,2-2.2l0.4-2.1l4.6,0.9c-0.1,1.8-0.8,3.6-1.9,5.1c-2.8,3.3-7.8,3.6-11,0.8c0,0,0,0,0,0l-0.3-0.3L2473.2,153.8z
		 M2480.1,141c-0.2-1.3-0.6-2.6-1.3-3.7c-0.5-0.8-1.4-1.2-2.3-1.1c-0.5,0.1-1,0.5-1.2,0.9c-0.4,0.6-0.6,1.3-0.7,2.1
		c-0.1,0.9-0.1,1.9,0.1,2.8L2480.1,141z"/>
	<path class="st0" d="M2507.4,156.8l-12.1-28.8l6.4-1.5l6.7,17.5l0-18.6l4.8-1.2l6.8,17.7l0.3-18.9l5.4-1.3l-0.6,31.6l-5.9,1.1
		l-6.8-17.9l0.3,19.2L2507.4,156.8z"/>
	<path class="st0" d="M2530.1,156.9l-0.7-22.9l5.7-0.7l0.8,22.9L2530.1,156.9z"/>
	<path class="st0" d="M2540.6,155.4l-1-30.3l5.7-0.9l1,30.6L2540.6,155.4z"/>
	<path class="st0" d="M2549.5,144.1c-0.1-4.2,0.3-7.2,1.3-9.1c1-1.9,2.9-3.1,5-3c1,0,2,0.3,2.9,0.9c0.9,0.6,1.6,1.4,2,2.3l-0.3-10
		l5.8-0.8l1,30.6l-4.3,0.6l-1.6-3.1c-0.2,1-0.7,1.8-1.4,2.5c-1,0.7-2.2,1.1-3.4,1C2552.1,156.1,2549.8,152.2,2549.5,144.1z
		 M2560.5,150.3c0.6-1.5,0.8-3.1,0.6-4.7l-0.3-7.7c-0.6-1.1-1.7-1.7-2.9-1.8c-0.8,0-1.5,0.4-2,1c-0.4,0.8-0.7,1.7-0.7,2.6
		c-0.1,1.4-0.1,2.8,0,4.2c0,1.4,0.1,2.9,0.3,4.3c0.1,0.9,0.4,1.8,0.9,2.6c0.4,0.7,1.2,1,2,1C2559.4,151.7,2560.2,151.2,2560.5,150.3
		L2560.5,150.3z"/>
	<path class="st0" d="M2573.3,152.1l0.3-21.9l5.8,0.3l-2.2,21.8L2573.3,152.1z M2571.7,161.3l0.4-6.3l5.8,0.3l-0.3,6L2571.7,161.3z"
		/>
	
		<ellipse transform="matrix(0.1894 -0.9819 0.9819 0.1894 1933.3339 2585.3984)" class="st0" cx="2532.6" cy="121.7" rx="4.5" ry="4.5"/>
</g>
<path id="LF_7_" class="st0" d="M2369,243.4c1.2-1.8,1.2-3.9,1.1-6c-0.1-1.4-1.3-2.1-2.4-2.8c-1.4-1-1.4-1.8,0.2-2.5
	c2-0.8,4-1.5,6-2.3c0.2-0.1,0.4,0,0.6,0c4.6,0.2,9.3-0.2,13.8-1.3c0.5-0.1,0.9-0.1,1.4-0.2c3.8-0.7,7.7-0.9,11.1-2.9
	c3-1.8,5.9-3.6,8.9-5.3c2.5-1.4,2.1-0.9,1.7-3.4c0.9-0.7,1.8-1.1,2.4-1.8c0.9-0.9,0.7-1.8-0.3-2.6c-1.1-0.8-2.4-0.9-3.7-0.8
	c-1.7,0.2-3.4,0.2-5.1,0.3c2-1.3,4.1-2.3,6.1-3.4c0.9-0.5,1.1-1.3,0.2-2c-0.5-0.4-1.1-0.7-1.7-0.7c-2.2-0.2-4.5,0.1-6.6,1
	c-1.2,0.6-2.6,1-3.8,1.4l-0.2-0.4c0.5-0.3,1.1-0.5,1.6-0.8c1.5-0.8,3.1-1.6,4.6-2.6c0.8-0.6,1.5-1.5,1-2.6c-0.5-1.2-1.8-1.3-3-1.3
	c-0.3,0-0.5,0-0.8,0.1c-1.3,0.5-2.6,1-3.8,1.7c-0.7,0.4-1.3,0.6-2.1,0.3c-0.8-0.3-1.6-0.1-2.5,0.3c-1.8,0.8-3.5,2-5.7,2
	c-1.5,0-2.9,0.3-4.4,0.6c-0.9,0.2-1.9,0.5-1.6,1.8c0,0.2-0.1,0.4-0.2,0.7c-4-2.3-5-2.1-6,0.8c-1.6-1.8-3.2-2.1-5.5-1.3
	c-1,0.3-2.1,0.4-3.2,0.4c-0.9,0-1.8-0.2-2.6-0.3c-2.7-0.2-4.4,1.2-4.4,3.9c0,1.9-0.5,3.7-1.1,5.5c-0.8,2.3-1.4,4.7-1.8,7.2
	c-0.3,2-0.5,4.1,1.1,6c0.9,1.1,1.3,2.7,1.8,4.1c0.3,0.8,0.3,1.8,0.8,2.5c1.3,2.3,2.8,4.6,4.3,6.8C2366.3,245,2368,244.9,2369,243.4z
	 M2411.4,216.8C2411.4,216.7,2411.4,216.7,2411.4,216.8z M2403,218.9c-0.8,0.2-1.6,0-2.3,0.1s-6.5,1.4-8.3,1.6s-2.3,0-2.3,0
	s5.5-1.1,6.1-1.1c0.6,0.1,9-2.1,9.9-2.4c0.9-0.3,1.2,0.4,1.2,0.4C2407.6,218.2,2403.9,218.7,2403,218.9L2403,218.9z"/>
<path id="RF_7_" class="st0" d="M2527.7,254.5c-2.7-4.4-5.2-8.8-7.6-13.3c-0.4-1-0.6-1.9-0.7-3c-0.1-1.1,0.2-2.2,0.7-3.1
	c1-5,2.4-9.6,5.6-14.1c0.5-0.5,1.1-0.7,1.8-0.7c1,0.5,1.8,1.2,2.2,2.2c1.7,2.8,0.1,6.3-2,8.6c1.8,0.6,3.6,0.6,5.3,0.9
	c9.9,0.8,20-2.8,29.6,0.3c0.8,0.3,1.6,0.6,2.4,0.9l1.2,0.5c0.3,0.2,0.7,0.4,1,0.5c0.4,0.1,0.8,0.3,1.2,0.4c0.9,0.3,1.9,0.4,2.7,0.7
	c1.3,0.3,2.5,1.9,1.7,2.7c-1.1,1.2-3.1,0.4-5,0.4l-1.1,0l-0.9,0c-0.9,0-1.6,0.3-2.2,0.3l-3.8-0.1c-2.3,0.2-4.6-0.8-6.9,0.1
	c2.8,0.3,5.9,0.7,8.7,0.4c1.3,0.1,2.9,0.2,4.3,0.3l1.6,0.1c2.3,0,4.6-0.7,7.1-0.1c1.8,0.6,3,3.1,1.2,4.1c-1,0.7-2.3,1-3.5,1.1
	c-1.3,0.1-2.5,0.2-3.7,0.5c1.1,0.5,2.8,0.8,4.1,1.3c1.3,0.4,2.3,1,2.2,2c0,1.1-0.5,1.8-1.3,2.2c-0.8,0.4-1.8,0.4-3,0.3
	c-2.4-0.1-4.7-1-7.3-1c2.2,1.9,6.4,0.7,8.1,3.8c0.2,0.8,0.2,2.1-0.8,2.5c-2.8,1.2-5.3-0.7-8.2-0.7c-0.8,0-1.8,1-2.6,0.4
	c-4.3-1.6-8.7,0.5-12.7-1.6c-0.3,0-0.2-0.8-0.5-1.3c-0.5,0.6-1.2,1.1-1.8,1.5c-1.3,1.2-3.6,0.3-3.8-1.4c-2.4,3.8-6.9,0.3-10.3,2
	C2529.6,255.1,2528.5,255,2527.7,254.5z"/>
<path id="RH_3_" class="st0" d="M2802.3,187.8c-0.4-0.1-0.8,0.4-1.2,0.1c-0.2-0.1-0.1-0.4-0.1-0.6c0.2-0.8,0.5-1.6,0.9-2.3
	c0.2-0.3,0.3-0.6,0.5-0.9c0.3-1.1,0.6-4.7,2-4.6c1.1-2.6,5.6-1,7.8-1.1c2.1-0.2,4.4-1.8,6.5-1.2c1,0.3,1.5,1.1,2.5,1.3
	c0-0.3-0.1-0.5-0.2-0.8c0.4,0.1,0.5,0,0.9-0.2c0-1.5,12.1-1,13.7-1s5.7,0.2,3,3.1c-0.4,0.4-5.2,1.2-5.1,0.6c-0.1,0.1,0,1.1-0.4,0.4
	c-0.6,0.6-1.4,1.6-2.6,1c-1.2-0.5-0.5-1.4-1.3-2.3c0,0,0.7,3-0.2,2.5c-0.6-0.3-0.1-2.6-1.2-3.1c0,0.3,0.8,3.2,0.6,3.2
	c-0.5,0-0.9-2.8-1.1-2.9c-0.7-0.3,0.1,3.1,0,3.3c-0.5,0.7-3,1.1-4.1,1c-0.1,0-0.3-0.1-0.4-0.1c-1-0.2-0.9-1.4-1.2-2.2
	c-0.1,0.2-0.2,0.4-0.2,0.6c0,0.2-0.1,0.5-0.1,0.7c-0.1,0.5-1.1,3.9-0.4,3.8c0.1,0,0.3-0.1,0.4-0.2c0.1-0.1,0.3-0.1,0.4-0.1
	c0.1,0,0.2,0.1,0.2,0.1c0.1,0.1,0.2,0.3,0.2,0.5c0,0.2,2.1,8.1,0.2,8.7c-0.5,0.1-0.1-0.8-0.1-0.9c-0.7,0-1.4,3.3-2.1,2.5
	c-0.2,0-1.2,3.3-1.2,3.6c-0.5,0.3-0.2,1.3-0.9,2c-1.1,1-4.4,0.6-5.9,0.5c-2.9-0.1-8.3,0.5-8.6-2.9c-0.3,0.4,0.1,1.9-1,1.4
	c-0.1,1.4-7.1-0.5-8.1-0.9c-0.8-0.3-3.8-2.7-4.2-3.6c-0.4-0.9,0.6-6.9,0.6-7c0.1,0.2-0.3-1.2-0.2-0.9c-2.2-3.9,5.4-11,8.9-9.2
	c1.7,0.9,0.1-1.7,1.7,0.4c0.7,0.9,0.4,1.8,0,2.9c-0.1,0.2-0.2,0.3-0.3,0.5c-0.2,0.3-0.4,0.5-0.6,0.8c-0.3,0.2-0.4,0.6-0.7,0.5
	c-0.5-0.3,0.1-0.7,0.3-0.8c0.3-0.2,0.5-0.4,0.4-0.5c-0.1-0.1-0.3-0.1-0.4,0c-0.2,0.2-0.3,0.4-0.4,0.6c-0.1,0.5-0.3,0.9-0.2,1.4
	c0.2-0.1,0.1-0.5,0.4-0.4c0.3,0.2,0.5,0.6,0.5,0.9c-0.1,0.3-0.5,0.4-0.5,0.7c0.2,0.8-0.3,1.8-0.5,1.9c-1.9-0.1-3.6-1.5-5.3-2.8
	c1,1.8,3.4,2.1,4.3,3.9c0.6,1,0.5,2.2,0.7,3.2c0,0.2,0.1,0.4,0.1,0.6c0.1,0.2,0.1,0.4,0.2,0.6c0.1,0.3,0.1,0.5,0.2,0.7
	c0.1,0.5,0.2,1,0.3,1.4c0.2,1,0.1,2.8,0.6,3.7c0.1-0.1,0.6-1.6,0.7-1.6c-1.3,0.1-0.4-2.3,0.1-2.5c-0.2-0.1-0.4-0.3-0.6-0.5
	c-0.2-0.2-0.4-0.4-0.6-0.6c-0.1-0.2-0.3-0.4-0.4-0.7c-0.2-0.3-0.3-0.5-0.4-0.8c-0.5-1-0.4-2.4,0.7-2.9c0.1-0.1,0.2,0,0.3,0.1
	c0,0.1,0.1,0.3,0.3,0.3c0.1,0.1,0.3,0.2,0.4,0.2c0.3-0.1,0.3-0.3,0.3-0.5c-0.1-0.6-1.1-0.8-0.7-1.5c0.3-0.5,1.1-0.3,1.6-0.3
	c0.1,0,0.2-0.1,0.3-0.3c-0.1,0-0.1,0-0.2,0.1c0.1-0.2,0.1-0.4,0.4-0.4 M2829.3,194.1c-0.1-0.2-0.2-0.5-0.5-0.6
	c-0.3,1.2,0.6,2,0.2,2.8c0,0-0.8,0.5-1.1,0.5c-2.5,0.9-4.9-1-4.3-3.7c0.3-1.5,1.6-2.4,3.1-2.6c0.3,0,1,0.4,1,0.4
	c0.2,0.1,1.7,0.5,1.6,0.5c0.1,0,0.1,0.8,0.4,0.9c0.2-0.2,0.9-1.8,1.6-1.3c0.1,0.2,0,0.4-0.2,0.5c-0.1-0.2,2.3-1.1,2.5-0.6
	c0.1,0.2-0.1,0.3,0,0.5c0.2,0.4,0.3-0.7,0.2-0.6c0.8-0.5,7.7,1.9,8,2.9c0.6,2.1-1.6,2.3-3.2,2.5c-1.9,0.2-6.4,1-8.3,0
	C2829.6,195.8,2829.6,194.2,2829.3,194.1L2829.3,194.1z M2830.7,191.4C2830.7,191.4,2831.2,192.1,2830.7,191.4L2830.7,191.4z
	 M2828.5,199.3c0.1,0.1-0.2-1.4-0.3-1.5c0-1.2,4.3,0.3,4.2,0.5c0-0.1-1,0.2-0.7,0.4c-0.2-0.1,0.8,0.1,0.8,0.1c0-1.1,2.1-0.1,2.6,0.4
	c2,2.2-1.6,3.1-3.4,3.3c-3,0.4-6,0.6-8.9,0.6c-1.6,0-3.1-0.2-3.5-0.1c-1.3,0.2-0.7-3.3,0.1-3c0,0-0.1,1.2,0.2,1
	c0.6-0.4,0.2-1.8,0.6-2.5c0.7-1.2,1.5-0.9,2.5-1.1c0.9-0.1,4.9,0,5,0.7c-0.1,0.1-0.3,0.2-0.4,0.2c0.6,0,1,1,1.2,1.2 M2831.3,186
	c-0.1,0.6-1.2-1.8-1.1-2.1c0.3-1.6,2.2-1.4,3.5-1.4c2.1-0.1,4.5-1.1,6.5-1c5,0.3-0.4,4.1-2.8,4.8c-1.2,0.4-3.2,1.3-4.5,1.2
	C2831.3,187.3,2831.9,187.2,2831.3,186L2831.3,186z M2827.8,183.9c0.8,0.1,1.3,3.4,1.8,4.4c0-0.3,0.2-1.5,0-1.7c0,0,0.7,0.5,0.7,0.5
	c-0.4-0.5-1.5-2.3-1.6-3c-0.1-0.7,3.3,3.7,1.9,3.8c-0.1,0-0.1-0.5-0.3-0.5c0.6,1.2-0.4,0.3-0.5-0.2c0.7,0-1.6,2.3-2.2,2.5
	c-1.9,0.6-3.6,0-4-2.3c-0.3-1.7,0.5-2.2,1.3-2.8C2825.5,184.2,2827.6,183.2,2827.8,183.9L2827.8,183.9z M2799.4,178.1
	c1.5-0.7,2.8-3.1,3-4.6c0.2-2.1-0.9-2.5-2.9-1.4c-0.8,0.4-2.6,3.7-2.7,3.8c-0.3-0.7-0.4,0.9-0.2,1.1
	C2795.8,177.2,2797.9,178.8,2799.4,178.1z M2798.3,186.7C2797.5,186.5,2798.1,186.9,2798.3,186.7L2798.3,186.7z"/>
<path id="RH_4_" class="st0" d="M3546,211c-0.4-0.1-0.8,0.4-1.2,0.1c-0.2-0.1-0.1-0.4-0.1-0.6c0.2-0.8,0.5-1.6,0.9-2.3
	c0.2-0.3,0.3-0.6,0.5-0.9c0.3-1.1,0.6-4.7,2-4.6c1.1-2.6,5.6-1,7.8-1.1c2.1-0.2,4.4-1.8,6.5-1.2c1,0.3,1.5,1.1,2.5,1.3
	c0-0.3-0.1-0.5-0.2-0.8c0.4,0.1,0.5,0,0.9-0.2c0-1.5,12.1-1,13.7-1c1.5,0,5.7,0.2,3,3.1c-0.4,0.4-5.2,1.2-5.1,0.6
	c-0.1,0.1,0,1.1-0.4,0.4c-0.6,0.6-1.4,1.6-2.6,1c-1.2-0.5-0.5-1.4-1.3-2.3c0,0,0.7,3-0.2,2.5c-0.6-0.3-0.1-2.6-1.2-3.1
	c0,0.3,0.8,3.2,0.6,3.2c-0.5,0-0.9-2.8-1.1-2.9c-0.7-0.3,0.1,3.1,0,3.3c-0.5,0.7-3,1.1-4.1,1c-0.1,0-0.3-0.1-0.4-0.1
	c-1-0.2-0.9-1.4-1.2-2.2c-0.1,0.2-0.2,0.4-0.2,0.6c0,0.2-0.1,0.5-0.1,0.7c-0.1,0.5-1.1,3.9-0.4,3.8c0.1,0,0.3-0.1,0.4-0.2
	c0.1-0.1,0.3-0.1,0.4-0.1c0.1,0,0.2,0.1,0.2,0.1c0.1,0.1,0.2,0.3,0.2,0.5c0,0.2,2.1,8.1,0.2,8.7c-0.5,0.1-0.1-0.8-0.1-0.9
	c-0.7,0-1.4,3.3-2.1,2.5c-0.2,0-1.2,3.3-1.2,3.6c-0.5,0.3-0.2,1.3-0.9,2c-1.1,1-4.4,0.6-5.9,0.5c-2.9-0.1-8.3,0.5-8.6-2.9
	c-0.3,0.4,0.1,1.9-1,1.4c-0.1,1.4-7.1-0.5-8.1-0.9c-0.8-0.3-3.8-2.7-4.2-3.6c-0.4-0.9,0.6-6.9,0.6-7c0.1,0.2-0.3-1.2-0.2-0.9
	c-2.2-3.9,5.4-11,8.9-9.2c1.7,0.9,0.1-1.7,1.7,0.4c0.7,0.9,0.4,1.8,0,2.9c-0.1,0.2-0.2,0.3-0.3,0.5c-0.2,0.3-0.4,0.5-0.6,0.8
	c-0.3,0.2-0.4,0.6-0.7,0.5c-0.5-0.3,0.1-0.7,0.3-0.8c0.3-0.2,0.5-0.4,0.4-0.5c-0.1-0.1-0.3-0.1-0.4,0c-0.2,0.2-0.3,0.4-0.4,0.6
	c-0.1,0.5-0.3,0.9-0.2,1.4c0.2-0.1,0.1-0.5,0.4-0.4c0.3,0.2,0.5,0.6,0.5,0.9c-0.1,0.3-0.5,0.4-0.5,0.7c0.2,0.8-0.3,1.8-0.5,1.9
	c-1.9-0.1-3.6-1.5-5.3-2.8c1,1.8,3.4,2.1,4.3,3.9c0.6,1,0.5,2.2,0.7,3.2c0,0.2,0.1,0.4,0.1,0.6c0.1,0.2,0.1,0.4,0.2,0.6
	c0.1,0.3,0.1,0.5,0.2,0.7c0.1,0.5,0.2,1,0.3,1.4c0.2,1,0.1,2.8,0.6,3.7c0.1-0.1,0.6-1.6,0.7-1.6c-1.3,0.1-0.4-2.3,0.1-2.5
	c-0.2-0.1-0.4-0.3-0.6-0.5c-0.2-0.2-0.4-0.4-0.6-0.6c-0.1-0.2-0.3-0.4-0.4-0.7c-0.2-0.3-0.3-0.5-0.4-0.8c-0.5-1-0.4-2.4,0.7-2.9
	c0.1-0.1,0.2,0,0.3,0.1c0,0.1,0.1,0.3,0.3,0.3c0.1,0.1,0.3,0.2,0.4,0.2c0.3-0.1,0.3-0.3,0.3-0.5c-0.1-0.6-1.1-0.8-0.7-1.5
	c0.3-0.5,1.1-0.3,1.6-0.3c0.1,0,0.2-0.1,0.3-0.3c-0.1,0-0.1,0-0.2,0.1c0.1-0.2,0.1-0.4,0.4-0.4 M3573,217.2
	c-0.1-0.2-0.2-0.5-0.5-0.6c-0.3,1.2,0.6,2,0.2,2.8c0,0-0.8,0.5-1.1,0.5c-2.5,0.9-4.9-1-4.3-3.7c0.3-1.5,1.6-2.4,3.1-2.6
	c0.3,0,1,0.4,1,0.4c0.2,0.1,1.7,0.5,1.6,0.5c0.1,0,0.1,0.8,0.4,0.9c0.2-0.2,0.9-1.8,1.6-1.3c0.1,0.2,0,0.4-0.2,0.5
	c-0.1-0.2,2.3-1.1,2.5-0.6c0.1,0.2-0.1,0.3,0,0.5c0.2,0.4,0.3-0.7,0.2-0.6c0.8-0.5,7.7,1.9,8,2.9c0.6,2.1-1.6,2.3-3.2,2.5
	c-1.9,0.2-6.4,1-8.3,0C3573.3,219,3573.3,217.4,3573,217.2L3573,217.2z M3574.3,214.6C3574.3,214.6,3574.9,215.3,3574.3,214.6
	L3574.3,214.6z M3572.2,222.5c0.1,0.1-0.2-1.4-0.3-1.5c0-1.2,4.3,0.3,4.2,0.5c0-0.1-1,0.2-0.7,0.4c-0.2-0.1,0.8,0.1,0.8,0.1
	c0-1.1,2.1-0.1,2.6,0.4c2,2.2-1.6,3.1-3.4,3.3c-3,0.4-6,0.6-8.9,0.6c-1.6,0-3.1-0.2-3.5-0.1c-1.3,0.2-0.7-3.3,0.1-3
	c0,0-0.1,1.2,0.2,1c0.6-0.4,0.2-1.8,0.6-2.5c0.7-1.2,1.5-0.9,2.5-1.1c0.9-0.1,4.9,0,5,0.7c-0.1,0.1-0.3,0.2-0.4,0.2
	c0.6,0,1,1,1.2,1.2 M3575,209.2c-0.1,0.6-1.2-1.8-1.1-2.1c0.3-1.6,2.2-1.4,3.5-1.4c2.1-0.1,4.5-1.1,6.5-1c5,0.3-0.4,4.1-2.8,4.8
	c-1.2,0.4-3.2,1.3-4.5,1.2C3574.9,210.5,3575.5,210.4,3575,209.2L3575,209.2z M3571.4,207.1c0.8,0.1,1.3,3.4,1.8,4.4
	c0-0.3,0.2-1.5,0-1.7c0,0,0.7,0.5,0.7,0.5c-0.4-0.5-1.5-2.3-1.6-3c-0.1-0.7,3.3,3.7,1.9,3.8c-0.1,0-0.1-0.5-0.3-0.5
	c0.6,1.2-0.4,0.3-0.5-0.2c0.7,0-1.6,2.3-2.2,2.5c-1.9,0.6-3.6,0-4-2.3c-0.3-1.7,0.5-2.2,1.3-2.8
	C3569.1,207.4,3571.2,206.4,3571.4,207.1L3571.4,207.1z M3543.1,201.3c1.5-0.7,2.8-3.1,3-4.6c0.2-2.1-0.9-2.5-2.9-1.4
	c-0.8,0.4-2.6,3.7-2.7,3.8c-0.3-0.7-0.4,0.9-0.2,1.1C3539.5,200.3,3541.6,202,3543.1,201.3z M3541.9,209.9
	C3541.1,209.7,3541.7,210,3541.9,209.9L3541.9,209.9z"/>
<path id="LH_6_" class="st0" d="M2666.5,158.2c-0.3,0.1-0.4-0.1-0.5-0.2c0.1,0,0.1,0,0.2,0c-0.1-0.1-0.2-0.2-0.3-0.2
	c-0.5,0.1-1.2,0.5-1.6,0.1c-0.6-0.5,0.4-1,0.3-1.6c0-0.2-0.1-0.4-0.4-0.4c-0.1,0-0.2,0.2-0.3,0.3c-0.1,0.1-0.2,0.2-0.2,0.4
	c-0.1,0.1-0.2,0.2-0.3,0.1c-1.2-0.2-1.7-1.5-1.4-2.6c0.1-0.3,0.1-0.6,0.2-0.9c0.1-0.3,0.2-0.5,0.3-0.8c0.1-0.3,0.2-0.5,0.4-0.7
	c0.1-0.2,0.3-0.4,0.5-0.6c-0.5-0.1-2-2.1-0.7-2.4c-0.1,0-1-1.3-1-1.4c-0.3,1,0.3,2.7,0.3,3.8c0,0.5,0,1,0.1,1.5c0,0.3,0,0.5,0,0.7
	c0,0.2,0,0.4,0,0.6s0,0.4,0,0.6c0.1,1.1,0.4,2.2,0.1,3.3c-0.5,2-2.7,2.8-3.3,4.8c1.3-1.6,2.6-3.4,4.5-3.9c0.2-0.1,1,0.8,1,1.7
	c0,0.3,0.5,0.2,0.6,0.5c0.1,0.4,0.1,0.7-0.2,1c-0.2,0.2-0.3-0.3-0.5-0.3c0,0.5,0.2,0.9,0.5,1.3c0.1,0.2,0.3,0.4,0.5,0.5
	c0.2,0.1,0.3,0.1,0.4-0.1c0.1-0.2-0.2-0.3-0.5-0.4c-0.3-0.1-0.9-0.3-0.5-0.7c0.3-0.2,0.5,0.1,0.8,0.3c0.3,0.2,0.5,0.4,0.7,0.6
	c0.1,0.1,0.3,0.3,0.4,0.4c0.7,1,1.2,1.7,0.7,2.8c-1,2.4-0.1-0.5-1.6,0.8c-3,2.5-12-2.5-10.8-6.8c-0.1,0.3,0-1.1,0-0.9
	c0-0.1-2.4-5.7-2.3-6.7c0.1-0.9,2.5-4,3.2-4.5c0.8-0.6,7.1-4.1,7.6-2.8c0.9-0.7,0.8,0.8,1.3,1.1c-0.5-3.4,4.9-4,7.7-4.9
	c1.5-0.5,4.5-1.7,5.9-1c0.9,0.5,0.8,1.5,1.4,1.7c0.1,0.3,1.8,3.2,2.1,3.2c0.5-0.9,2,2.1,2.7,1.9c0-0.1-0.6-0.9-0.1-0.9
	c2,0.1,1.9,8.3,1.9,8.5c0,0.2,0,0.3-0.1,0.5c0,0.1-0.1,0.1-0.2,0.2c-0.1,0-0.3,0-0.4,0c-0.1,0-0.3-0.1-0.4-0.1
	c-0.7,0.1,1.1,3.1,1.3,3.6c0.1,0.2,0.2,0.4,0.3,0.7c0.1,0.2,0.2,0.4,0.3,0.5c0.1-0.8-0.2-2,0.7-2.4c0.1-0.1,0.2-0.2,0.4-0.2
	c1.1-0.4,3.6-0.6,4.2-0.1c0.2,0.2,0.2,3.6,0.8,3.2c0.1-0.1-0.2-3,0.3-3.1c0.2,0,0.1,3,0.2,3.2c0.9-0.8,0-2.9,0.4-3.3
	c0.8-0.7,0.8,2.4,0.8,2.4c0.5-1-0.4-1.7,0.7-2.5c1.1-0.8,2.1-0.1,2.8,0.3c0.2-0.8,0.4,0.2,0.5,0.3c-0.2-0.6,4.6-0.9,5.1-0.6
	c3.3,2.1-0.7,3.3-2.2,3.7c-1.5,0.4-13.1,3.8-13.5,2.4c-0.4-0.1-0.5-0.1-0.9,0.1c0.1-0.3,0.1-0.5,0-0.8c-1,0.5-1.3,1.4-2.1,1.9
	c-1.9,1.1-4.5,0.1-6.6,0.4c-2.2,0.4-6.1,3.1-7.9,0.8c-1.4,0.5-2.5-3-3.1-4c-0.2-0.3-0.4-0.5-0.7-0.8c-0.6-0.6-1.1-1.3-1.5-2
	c0-0.2-0.2-0.4-0.1-0.6c0.3-0.4,0.8,0,1.2-0.1 M2691.6,143.5c1.6-1.4,6.1-1.8,8-2c1.6-0.2,3.8-0.6,3.7,1.6c0,1-6.2,5-7.1,4.7
	c0.1,0-0.2-0.9-0.3-0.5c-0.1,0.3,0.1,0.4,0.1,0.5c-0.1,0.6-2.6,0.3-2.6,0.1c0.2,0.1,0.3,0.3,0.3,0.5c-0.5,0.7-1.6-0.8-1.8-0.9
	c-0.3,0.2-0.1,0.9-0.2,1c0.1,0-1.3,0.8-1.5,0.9c0,0-0.6,0.5-0.9,0.6c-1.5,0.3-2.9-0.4-3.6-1.7c-1.3-2.5,0.6-4.9,3.3-4.6
	c0.3,0,1.2,0.3,1.2,0.3c0.6,0.7-0.1,1.6,0.5,2.7c0.2-0.2,0.3-0.4,0.3-0.7C2691.3,145.7,2690.9,144.1,2691.6,143.5z M2693,148.2
	C2693.4,147.3,2693,148.2,2693,148.2z M2689,140.8c-0.1,0.3-0.2,1.2-0.8,1.4c0.2,0,0.3,0.1,0.5,0.1c0.1,0.7-3.8,1.8-4.7,1.9
	c-1,0.1-1.7,0.5-2.7-0.4c-0.6-0.6-0.5-2-1.2-2.3c-0.3-0.1,0,1.1,0,1.1c-0.7,0.4-2.2-2.8-0.8-2.9c0.4,0,1.8-0.5,3.4-1
	c2.9-0.8,5.8-1.3,8.8-1.6c1.8-0.2,5.4-0.3,4.1,2.4c-0.3,0.7-2.2,2.2-2.4,1.1c0.1,0-0.9,0.4-0.7,0.3c-0.3,0.2,0.8,0.3,0.7,0.2
	c0.1,0.2-3.7,2.8-4,1.5c0-0.1-0.1-1.6-0.1-1.5 M2696.2,151.5c1.2-0.4,3.3,0,4.6,0.1c2.5,0.1,8.6,2.4,3.9,4c-1.9,0.6-4.5,0.3-6.6,0.6
	c-1.3,0.2-3.1,1-3.8-0.5c-0.2-0.3,0.3-2.9,0.6-2.3C2695.2,152,2694.5,152,2696.2,151.5L2696.2,151.5z M2689,156.1
	c-0.8-0.4-1.8-0.7-1.9-2.4c-0.2-2.3,1.4-3.3,3.3-3.2c0.6,0,3.4,1.8,2.8,1.9c-0.1-0.5,0.7-1.6,0.4-0.3c0.1-0.1,0-0.5,0.1-0.6
	c1.4-0.2-0.8,4.9-0.9,4.2c-0.1-0.6,0.5-2.7,0.8-3.3c0,0-0.6,0.6-0.6,0.6c0.1-0.3-0.3-1.4-0.4-1.7c-0.3,1.1,0,4.3-0.7,4.7
	C2691.9,156.8,2689.7,156.4,2689,156.1L2689,156.1z M2663.3,170.4c-0.1,0.2,0.3,1.8,0.5,1c0.1,0,2.6,2.8,3.5,3
	c2.2,0.6,3.2-0.1,2.5-2.1c-0.5-1.4-2.4-3.5-4-3.7C2664.3,168.3,2662.6,170.4,2663.3,170.4z M2662.7,160.5
	C2662.4,160.4,2661.9,160.9,2662.7,160.5L2662.7,160.5z"/>
<path id="LF_6_" class="st0" d="M3016.6,228.7c1.4-1.6,1.8-3.7,2-5.8c0.1-1.4-1-2.2-1.9-3.1c-1.3-1.2-1.1-2,0.6-2.4
	c2.1-0.5,4.2-0.9,6.3-1.4c0.2,0,0.4,0.1,0.6,0.1c4.6,0.9,9.2,1.2,13.9,0.8c0.5,0,0.9,0.1,1.4,0c3.8-0.1,7.7,0.2,11.4-1.2
	c3.2-1.3,6.4-2.7,9.6-3.9c2.6-1,2.3-0.6,2.2-3.1c1-0.5,1.9-0.8,2.7-1.4c1-0.8,1-1.7,0.1-2.6c-1-1-2.2-1.3-3.6-1.4
	c-1.7-0.1-3.4-0.3-5.1-0.4c2.2-1,4.4-1.7,6.6-2.5c1-0.4,1.3-1.1,0.5-1.9c-0.4-0.5-0.9-0.8-1.6-1c-2.2-0.5-4.4-0.6-6.6,0
	c-1.3,0.4-2.7,0.6-4,0.9l-0.1-0.5c0.6-0.2,1.1-0.3,1.7-0.5c1.6-0.6,3.3-1.1,4.9-1.9c0.9-0.4,1.7-1.3,1.4-2.4
	c-0.4-1.3-1.5-1.6-2.7-1.7c-0.3,0-0.5,0-0.8,0c-1.3,0.3-2.7,0.6-4,1.1c-0.7,0.2-1.4,0.4-2.1,0c-0.8-0.4-1.6-0.3-2.5,0
	c-1.9,0.6-3.8,1.5-6,1.1c-1.4-0.3-3-0.1-4.4-0.1c-0.9,0.1-2,0.2-1.9,1.6c0,0.2-0.2,0.4-0.3,0.6c-3.6-2.9-4.7-2.9-6.1-0.1
	c-1.3-2-2.8-2.5-5.3-2.1c-1,0.2-2.2,0.1-3.2-0.1c-0.9-0.1-1.7-0.5-2.6-0.7c-2.6-0.6-4.5,0.5-4.9,3.2c-0.3,1.9-1.1,3.6-1.9,5.3
	c-1.2,2.2-2.1,4.5-2.9,6.8c-0.6,2-1.1,4,0.2,6.1c0.7,1.2,0.9,2.8,1.2,4.3c0.2,0.9,0,1.8,0.4,2.6c1,2.5,2,4.9,3.2,7.4
	C3013.7,229.9,3015.4,230.1,3016.6,228.7z M3062.6,208.7C3062.6,208.7,3062.6,208.6,3062.6,208.7z M3054,209.6
	c-0.9,0-1.6-0.3-2.2-0.2s-6.7,0.4-8.4,0.3c-1.7-0.1-2.2-0.4-2.2-0.4s5.6-0.3,6.2-0.2c0.6,0.1,9.2-0.7,10.2-0.9
	c0.9-0.2,1.1,0.5,1.1,0.5C3058.6,209.6,3054.8,209.6,3054,209.6L3054,209.6z"/>
<path id="LF_8_" class="st0" d="M3695.5,145.7c1.2-1.8,1.3-3.9,1.2-6c-0.1-1.4-1.3-2.1-2.3-2.9c-1.4-1.1-1.4-1.8,0.3-2.5
	c2-0.8,4-1.5,6-2.2c0.2-0.1,0.4,0,0.6,0.1c4.6,0.3,9.3-0.1,13.9-1c0.5-0.1,0.9-0.1,1.4-0.1c3.8-0.6,7.7-0.8,11.1-2.7
	c3-1.7,6-3.5,9-5.1c2.5-1.3,2.2-0.9,1.8-3.4c1-0.7,1.8-1.1,2.5-1.8c0.9-0.9,0.7-1.8-0.3-2.6c-1.1-0.8-2.4-1-3.7-0.9
	c-1.7,0.1-3.4,0.2-5.1,0.2c2.1-1.3,4.1-2.3,6.2-3.3c1-0.5,1.1-1.3,0.3-2c-0.5-0.4-1-0.7-1.7-0.8c-2.2-0.2-4.5,0-6.6,0.9
	c-1.3,0.5-2.6,0.9-3.9,1.4l-0.2-0.4c0.5-0.2,1.1-0.5,1.6-0.7c1.6-0.8,3.2-1.5,4.6-2.5c0.8-0.5,1.6-1.5,1.1-2.6
	c-0.5-1.2-1.7-1.4-2.9-1.3c-0.3,0-0.5,0-0.8,0.1c-1.3,0.5-2.6,1-3.8,1.6c-0.7,0.3-1.3,0.6-2.1,0.3c-0.8-0.3-1.6-0.1-2.5,0.3
	c-1.9,0.8-3.6,2-5.8,1.9c-1.5-0.1-2.9,0.3-4.4,0.5c-0.9,0.2-1.9,0.5-1.6,1.8c0,0.2-0.2,0.4-0.2,0.7c-4-2.4-5-2.2-6,0.7
	c-1.6-1.8-3.1-2.1-5.5-1.4c-1,0.3-2.1,0.4-3.2,0.4c-0.9,0-1.8-0.2-2.6-0.3c-2.6-0.3-4.4,1.1-4.4,3.8c0,1.9-0.6,3.7-1.2,5.5
	c-0.9,2.3-1.5,4.7-2,7.1c-0.4,2-0.5,4.1,1,6c0.9,1.1,1.3,2.7,1.8,4.1c0.3,0.8,0.3,1.8,0.7,2.6c1.3,2.3,2.7,4.6,4.2,6.9
	C3692.8,147.2,3694.5,147.1,3695.5,145.7z M3738.4,119.8C3738.4,119.7,3738.5,119.7,3738.4,119.8z M3730,121.8
	c-0.8,0.2-1.6-0.1-2.3,0.1s-6.6,1.2-8.3,1.4c-1.7,0.2-2.3-0.1-2.3-0.1s5.5-1,6.1-1c0.6,0.1,9.1-1.9,10-2.2c0.9-0.3,1.2,0.4,1.2,0.4
	C3734.6,121.1,3730.9,121.6,3730,121.8L3730,121.8z"/>
<path id="RF_6_" class="st0" d="M3226.2,261.4c-2.1-4.7-3.8-9.4-5.5-14.3c-0.2-1-0.3-2-0.2-3c0.1-1.1,0.5-2.1,1.2-2.9
	c1.7-4.8,3.8-9.1,7.6-13.1c0.6-0.4,1.2-0.5,1.9-0.4c0.9,0.6,1.5,1.5,1.9,2.5c1.3,3-0.9,6.3-3.3,8.2c1.7,0.8,3.4,1.1,5.1,1.7
	c9.7,2.3,20.2,0.3,29.2,4.7c0.8,0.4,1.5,0.8,2.3,1.3l1.1,0.6c0.3,0.3,0.6,0.5,0.9,0.7c0.4,0.2,0.7,0.4,1.1,0.6
	c0.8,0.4,1.8,0.7,2.6,1.1c1.2,0.5,2.2,2.3,1.3,2.9c-1.2,1.1-3.1,0-5-0.3l-1.1-0.1l-0.8-0.2c-0.8-0.2-1.6,0.1-2.3,0l-3.7-0.7
	c-2.4-0.1-4.4-1.5-6.9-0.9c2.7,0.8,5.7,1.5,8.6,1.7c1.3,0.3,2.8,0.6,4.2,0.9l1.5,0.3c2.3,0.3,4.7,0,7.1,1c1.7,0.8,2.5,3.6,0.5,4.2
	c-1.1,0.6-2.4,0.6-3.6,0.5s-2.5-0.2-3.7-0.1c1,0.7,2.6,1.3,3.9,1.9c1.3,0.6,2.2,1.3,1.9,2.3c-0.2,1.1-0.8,1.7-1.6,2
	c-0.8,0.2-1.8,0.1-3-0.1c-2.4-0.5-4.5-1.7-7-2.1c1.9,2.2,6.2,1.6,7.4,5c0.1,0.8-0.1,2.1-1.2,2.4c-3,0.8-5.2-1.5-8-2
	c-0.8-0.1-1.9,0.7-2.6,0.1c-4-2.3-8.7-0.8-12.3-3.5c-0.3,0-0.1-0.8-0.3-1.3c-0.6,0.5-1.3,0.9-2,1.2c-1.5,1-3.6-0.2-3.6-2
	c-2.9,3.4-6.9-0.7-10.5,0.4C3228.1,262.3,3227,262,3226.2,261.4z"/>
<path id="LH_5_" class="st0" d="M3355.5,177.9c-0.3,0.1-0.4-0.1-0.4-0.3c0.1,0,0.1,0.1,0.2,0c-0.1-0.1-0.2-0.3-0.3-0.2
	c-0.5,0.1-1.2,0.3-1.6-0.2c-0.5-0.6,0.5-0.9,0.5-1.5c0-0.2,0-0.5-0.3-0.5c-0.1,0-0.3,0.2-0.4,0.2c-0.1,0.1-0.2,0.2-0.2,0.4
	c-0.1,0.1-0.2,0.1-0.3,0.1c-1.2-0.3-1.4-1.8-1-2.8c0.1-0.3,0.2-0.6,0.3-0.8c0.1-0.3,0.3-0.5,0.4-0.7c0.1-0.2,0.3-0.5,0.5-0.7
	c0.2-0.2,0.4-0.4,0.6-0.5c-0.5-0.2-1.7-2.4-0.4-2.4c-0.1,0-0.7-1.4-0.8-1.6c-0.4,0.9-0.1,2.7-0.2,3.8c-0.1,0.5-0.1,1-0.2,1.4
	c0,0.3-0.1,0.5-0.1,0.7c0,0.2-0.1,0.4-0.1,0.6s-0.1,0.4-0.1,0.6c-0.1,1.1,0.1,2.2-0.4,3.3c-0.8,1.9-3.1,2.4-4,4.3
	c1.5-1.4,3.1-3,5-3.2c0.3,0,0.8,1,0.7,1.8c0,0.3,0.4,0.3,0.5,0.6c0.1,0.4-0.1,0.7-0.4,1c-0.3,0.2-0.2-0.3-0.4-0.4
	c-0.1,0.5,0.1,0.9,0.3,1.4c0.1,0.2,0.3,0.4,0.4,0.6c0.1,0.1,0.3,0.1,0.4-0.1s-0.2-0.3-0.4-0.5c-0.3-0.1-0.9-0.5-0.4-0.8
	c0.3-0.2,0.5,0.2,0.8,0.4c0.2,0.2,0.4,0.5,0.6,0.7c0.1,0.1,0.2,0.3,0.3,0.5c0.5,1.1,0.9,1.9,0.3,2.9c-1.4,2.3,0-0.5-1.7,0.5
	c-3.3,2.1-11.5-4.3-9.7-8.3c-0.1,0.3,0.2-1.1,0.1-0.9c0-0.1-1.5-6-1.3-6.9s3.1-3.6,3.8-4c0.9-0.5,7.7-3,7.9-1.7
	c1-0.6,0.7,0.9,1.1,1.3c0-3.4,5.4-3.2,8.3-3.6c1.6-0.2,4.7-1,5.9-0.1c0.8,0.6,0.5,1.6,1.1,1.9c0,0.3,1.3,3.5,1.5,3.5
	c0.7-0.9,1.6,2.4,2.3,2.3c0-0.1-0.4-1,0-0.9c2,0.4,0.7,8.5,0.6,8.7c0,0.2-0.1,0.3-0.1,0.5c-0.1,0.1-0.1,0.1-0.2,0.1
	c-0.1,0-0.3,0-0.4-0.1c-0.1,0-0.3-0.2-0.4-0.1c-0.7,0,0.6,3.3,0.8,3.8c0,0.2,0.1,0.5,0.2,0.7c0.1,0.2,0.1,0.4,0.2,0.5
	c0.3-0.8,0.1-2,1-2.3c0.1-0.1,0.2-0.1,0.4-0.1c1.1-0.3,3.6-0.1,4.2,0.6c0.2,0.2-0.3,3.6,0.3,3.3c0.1-0.1,0.3-3,0.8-3
	c0.2,0-0.3,3-0.3,3.2c1.1-0.7,0.4-2.9,0.9-3.2c0.9-0.6,0.5,2.5,0.5,2.5c0.6-1-0.1-1.8,1.1-2.4c1.2-0.7,2.1,0.2,2.7,0.8
	c0.3-0.7,0.4,0.3,0.4,0.4c-0.1-0.6,4.7-0.2,5.1,0.2c2.9,2.6-1.2,3.2-2.7,3.3c-1.5,0.2-13.5,1.8-13.7,0.3c-0.4-0.1-0.5-0.2-0.9-0.1
	c0.1-0.3,0.1-0.5,0.1-0.8c-1,0.3-1.4,1.2-2.4,1.5c-2.1,0.8-4.5-0.6-6.6-0.6c-2.2,0-6.5,2.1-7.9-0.4c-1.4,0.3-2-3.3-2.4-4.4
	c-0.2-0.3-0.3-0.6-0.5-0.9c-0.5-0.7-0.9-1.4-1.1-2.2c0-0.2-0.2-0.4,0-0.6c0.4-0.3,0.8,0.1,1.2,0 M3382.6,167.1
	c1.8-1.2,6.3-0.8,8.2-0.8c1.6,0,3.9-0.1,3.4,2.1c-0.2,0.9-6.8,4-7.7,3.6c0.1,0.1-0.1-0.9-0.2-0.6c-0.1,0.3,0.1,0.4,0,0.5
	c-0.2,0.6-2.7-0.1-2.5-0.3c0.2,0.1,0.3,0.3,0.2,0.5c-0.6,0.6-1.4-1-1.7-1.1c-0.3,0.1-0.3,0.9-0.4,0.9c0.1,0-1.4,0.6-1.6,0.7
	c0,0-0.7,0.4-0.9,0.5c-1.5,0-2.8-0.8-3.3-2.3c-0.9-2.6,1.3-4.7,3.9-4.1c0.3,0.1,1.1,0.5,1.1,0.4c0.5,0.8-0.4,1.6,0.1,2.8
	c0.2-0.2,0.3-0.4,0.4-0.7C3381.9,169.2,3381.8,167.6,3382.6,167.1z M3383.3,171.9C3383.8,171.2,3383.3,171.9,3383.3,171.9z
	 M3380.4,164c-0.1,0.3-0.4,1.2-1,1.3c0.1,0.1,0.3,0.1,0.4,0.2c0,0.7-4,1.2-4.9,1.2c-1-0.1-1.8,0.2-2.6-0.8c-0.5-0.7-0.2-2.1-0.8-2.4
	c-0.3-0.2-0.2,1.1-0.1,1.1c-0.7,0.3-1.7-3.1-0.4-3c0.4,0,1.9-0.3,3.5-0.5c3-0.3,6-0.4,8.9-0.3c1.8,0.1,5.4,0.6,3.6,3
	c-0.4,0.6-2.5,1.8-2.6,0.7c0.1,0-1,0.3-0.8,0.2c-0.3,0.2,0.7,0.4,0.7,0.3c0.1,0.2-4.1,2.2-4.2,0.9c0-0.1,0.2-1.6,0.1-1.5
	 M3385.9,175.7c1.3-0.2,3.3,0.5,4.6,0.8c2.4,0.5,8.2,3.7,3.2,4.5c-2,0.3-4.5-0.4-6.6-0.4c-1.3,0-3.2,0.5-3.7-1.1
	c-0.1-0.3,0.8-2.8,0.9-2.2C3384.9,176,3384.2,175.9,3385.9,175.7L3385.9,175.7z M3378.2,179.2c-0.8-0.5-1.6-0.9-1.5-2.7
	c0.2-2.3,1.8-3.1,3.7-2.6c0.6,0.1,3.1,2.3,2.5,2.3c0-0.5,0.9-1.5,0.4-0.2c0.1-0.1,0.1-0.5,0.2-0.5c1.4,0-1.5,4.7-1.5,4
	c0-0.7,0.9-2.6,1.3-3.1c0,0-0.6,0.5-0.6,0.5c0.1-0.3-0.1-1.4-0.2-1.7c-0.4,1-0.6,4.3-1.4,4.5
	C3380.9,180.3,3378.7,179.5,3378.2,179.2L3378.2,179.2z M3350.6,189.5c-0.2,0.2,0.1,1.8,0.3,1.1c0.1,0,2.2,3.1,3,3.5
	c2.1,0.9,3.2,0.4,2.8-1.7c-0.3-1.5-1.8-3.8-3.4-4.3C3351.9,187.5,3349.9,189.4,3350.6,189.5z M3351.4,179.6
	C3351.2,179.5,3350.6,179.8,3351.4,179.6L3351.4,179.6z"/>
<g>
	<path class="st0" d="M20.1,27l6.9-0.1c3.7,0,6.5,0.7,8.2,2.1c1.7,1.4,2.6,3.5,2.6,5.7c0,1.4-0.3,2.7-0.9,4c-0.5,1.1-1.4,2-2.4,2.5
		c1.3,0.6,2.3,1.6,3.1,2.7c0.9,1.5,1.3,3.3,1.2,5c0,5.9-4.5,8.8-13.6,8.9l-4.9,0L20.1,27z M27.5,39.5c1.2,0.1,2.5-0.2,3.6-0.8
		c0.9-0.8,1.3-2,1.1-3.2c0.1-1.1-0.4-2.2-1.3-2.9c-1.1-0.6-2.4-0.9-3.6-0.8l-1.2,0l0.1,7.7L27.5,39.5z M27.4,53
		c1.6,0.1,3.1-0.4,4.3-1.5c0.8-0.9,1.3-2.1,1.3-3.3c0-1.8-0.5-3-1.4-3.6c-1.2-0.7-2.6-1-4-0.9l-1.3,0l0,9.2L27.4,53z"/>
	<path class="st0" d="M42.8,49c-1.4-2.8-1.9-5.9-1.5-8.9c0.1-3.1,1.1-6,3-8.5c1.6-2,4.1-3,6.7-2.7c2.6,0.1,4.9,1.6,6.1,3.8
		c1.4,2.7,2,5.8,1.5,8.9c-0.1,3.1-1.2,6.1-3,8.5c-1.6,2-4.1,3.1-6.7,2.7C46.3,52.7,44,51.2,42.8,49z M51.8,46.5
		c1-3.6,1.4-7.4,1-11.1c-0.2-1.5-1-2.3-2.2-2.4c-1.2-0.1-2.1,0.5-2.5,1.9c-0.5,1.7-0.9,3.4-1,5.1c-0.2,2-0.2,4,0,6
		c0.2,1.5,0.9,2.3,2.2,2.4C50.4,48.6,51.3,48,51.8,46.5L51.8,46.5z"/>
	<path class="st0" d="M61.8,29.6l5.8-0.5l0,3.7c0.8-1.2,1.8-2.1,3.1-2.9c1.4-0.8,3-1.2,4.7-1.1l0,5.6c-1.3,0-2.6,0.2-3.9,0.5
		c-1.4,0.3-2.7,0.9-3.8,1.8L67.6,52l-5.8,0.5L61.8,29.6z"/>
	<path class="st0" d="M78.5,31.4l5.8-0.5l0,3c1-1,2.2-1.8,3.5-2.5c1-0.5,2-0.9,3.2-0.9c1.4,0,2.7,0.5,3.6,1.6c1,1.2,1.5,2.7,1.4,4.2
		l0.1,17.5l-5.8,0.5l-0.1-15.7c0-2.1-0.7-3.1-2.1-3.1c-0.5,0-1.1,0.2-1.5,0.4c-0.6,0.3-1.3,0.7-2.1,1.1l0.1,16.7l-5.8,0.6L78.5,31.4
		z"/>
	<path class="st0" d="M114.1,53.3L114,27l-6.3,0l0.4-4.8l18.1-0.1l-0.5,4.8l-5.8,0l0.2,25.8L114.1,53.3z"/>
	<path class="st0" d="M124.9,47.6c-1.3-2.8-1.8-5.9-1.3-8.9c0.1-3.1,1.2-6,3.1-8.5c1.6-2,4.2-3,6.7-2.6c2.6,0.2,4.9,1.6,6.1,3.9
		c1.4,2.7,1.9,5.8,1.4,8.9c-0.2,3.1-1.3,6-3.2,8.5c-1.6,2-4.2,3-6.7,2.6C128.5,51.3,126.2,49.8,124.9,47.6z M134,45.2
		c0.6-1.8,0.9-3.6,1.1-5.5c0.2-1.9,0.2-3.7,0-5.6c-0.3-1.5-1-2.3-2.1-2.5c-1.2-0.2-2,0.5-2.6,1.9c-0.5,1.7-0.9,3.4-1,5.2
		c-0.3,2-0.3,4-0.1,6.1c0,1.2,0.9,2.3,2.1,2.5C132.6,47.4,133.5,46.7,134,45.2z"/>
	<path class="st0" d="M154.9,24.1l6.9-0.1c3.7,0,6.5,0.7,8.2,2.1c1.7,1.4,2.6,3.5,2.6,5.7c0,1.4-0.3,2.7-0.9,4
		c-0.5,1.1-1.4,2-2.4,2.5c1.3,0.6,2.3,1.6,3.1,2.7c0.9,1.5,1.3,3.3,1.2,5c0,5.8-4.5,8.7-13.6,8.7l-4.9,0L154.9,24.1z M162.3,36.6
		c1.2,0.1,2.5-0.2,3.6-0.8c0.9-0.8,1.3-2,1.2-3.2c0.1-1.1-0.4-2.2-1.4-2.9c-1.1-0.6-2.4-0.9-3.6-0.8l-1.2,0l0,7.7L162.3,36.6z
		 M162.2,50.1c1.6,0.1,3.1-0.4,4.3-1.5c0.8-0.9,1.3-2,1.3-3.2c0-1.8-0.5-3-1.4-3.6c-1.2-0.7-2.6-1-4-0.9l-1.3,0l0,9.1L162.2,50.1z"
		/>
	<path class="st0" d="M179.3,53.9c-2-2.3-3.2-5.2-3.5-8.3c-0.6-3-0.3-6.2,0.9-9c1.1-2.3,3.3-3.9,5.9-4.2c2.4-0.5,5,0.4,6.6,2.3
		c1.9,2.4,3.1,5.3,3.4,8.4c0,0.2,0,0.3-0.1,0.5c0,0.1,0,0.1,0,0.2l-10.9,1.7c0.2,1.6,0.7,3.2,1.4,4.7c0.7,1.4,1.5,2,2.4,1.9
		c1.1-0.2,2-1.1,2.1-2.2l0.5-2.1l4.6,1c-0.2,1.8-0.9,3.6-2,5c-2.9,3.2-7.9,3.4-11,0.5c0,0,0,0,0,0l-0.3-0.3L179.3,53.9z M186.6,41.3
		c-0.1-1.3-0.5-2.6-1.2-3.8c-0.4-0.8-1.3-1.3-2.3-1.1c-0.5,0.1-1,0.4-1.2,0.9c-0.4,0.6-0.7,1.3-0.8,2.1c-0.2,0.9-0.2,1.9,0,2.8
		L186.6,41.3z"/>
	<path class="st0" d="M213.5,57.8l-11.3-29.2l6.5-1.3l6.2,17.7l0.5-18.6l4.8-1.1l6.3,17.9l0.8-18.8l5.4-1.2l-1.5,31.6l-5.9,1
		l-6.3-18.1L218.9,57L213.5,57.8z"/>
	<path class="st0" d="M236.2,58.5l-0.1-22.9l5.8-0.5L242,58L236.2,58.5z"/>
	<path class="st0" d="M246.7,57.3L246.5,27l5.8-0.8l0.2,30.6L246.7,57.3z"/>
	<path class="st0" d="M255.9,46.3c0-4.2,0.5-7.2,1.6-9.1c1-1.9,3-3,5.1-2.9c1,0,2,0.3,2.8,1c0.9,0.6,1.6,1.4,2,2.4l-0.1-10.1
		l5.8-0.7l0.2,30.6l-4.4,0.5l-1.5-3.2c-0.2,1-0.8,1.8-1.5,2.5c-1,0.7-2.2,1.1-3.5,1C258.2,58.3,256,54.3,255.9,46.3z M266.8,52.8
		c0.6-1.5,0.9-3.1,0.8-4.7l-0.1-7.7c-0.5-1.1-1.6-1.8-2.8-1.8c-0.8,0-1.5,0.3-2,1c-0.5,0.8-0.7,1.6-0.8,2.5
		c-0.1,1.4-0.2,2.8-0.2,4.2c0,1.4,0.1,2.9,0.2,4.3c0.1,0.9,0.4,1.9,0.9,2.7c0.4,0.7,1.2,1.1,2,1C265.6,54.2,266.4,53.6,266.8,52.8
		L266.8,52.8z"/>
	<path class="st0" d="M279.5,54.9l0.9-21.9l5.8,0.5l-2.8,21.7L279.5,54.9z M277.7,64.1l0.5-6.2l5.8,0.5l-0.5,6L277.7,64.1z"/>
	
		<ellipse transform="matrix(0.2162 -0.9763 0.9763 0.2162 164.9767 252.3249)" class="st0" cx="239.6" cy="23.4" rx="4.5" ry="4.5"/>
</g>
<path id="LF_5_" class="st0" d="M18.6,185.5c1-1.6,1-3.4,0.9-5.2c-0.1-1.2-1.1-1.8-2.1-2.5c-1.3-0.9-1.2-1.6,0.2-2.2
	c1.7-0.7,3.5-1.4,5.2-2c0.2-0.1,0.4,0,0.5,0c4.1,0.2,8.1-0.2,12.1-1.1c0.4-0.1,0.8-0.1,1.2-0.1c3.3-0.6,6.7-0.8,9.7-2.6
	c2.6-1.5,5.2-3.2,7.8-4.6c2.2-1.2,1.9-0.8,1.5-3c0.8-0.6,1.6-1,2.1-1.6c0.8-0.8,0.6-1.6-0.3-2.3c-1-0.7-2.1-0.8-3.3-0.7
	c-1.5,0.1-3,0.2-4.5,0.3c1.8-1.1,3.6-2,5.4-3c0.8-0.4,0.9-1.1,0.2-1.7c-0.4-0.4-0.9-0.6-1.5-0.7c-2-0.1-3.9,0.1-5.7,0.9
	c-1.1,0.5-2.2,0.8-3.4,1.3l-0.2-0.4c0.5-0.2,0.9-0.4,1.4-0.7c1.3-0.7,2.7-1.4,4-2.3c0.7-0.5,1.3-1.4,0.9-2.3c-0.5-1-1.5-1.2-2.6-1.1
	c-0.2,0-0.4,0-0.7,0.1c-1.1,0.5-2.2,0.9-3.3,1.5c-0.6,0.3-1.1,0.5-1.8,0.3c-0.7-0.3-1.4,0-2.1,0.3c-1.6,0.7-3.1,1.8-5,1.7
	c-1.3,0-2.6,0.3-3.8,0.5c-0.8,0.2-1.7,0.4-1.4,1.6c0,0.2-0.1,0.4-0.2,0.6c-3.5-2-4.4-1.9-5.2,0.7c-1.4-1.6-2.8-1.8-4.8-1.2
	c-0.9,0.3-1.9,0.3-2.8,0.4c-0.8,0-1.5-0.2-2.3-0.2c-2.3-0.2-3.8,1.1-3.8,3.4c0,1.7-0.4,3.2-1,4.8c-0.7,2-1.2,4.1-1.6,6.3
	c-0.3,1.8-0.4,3.6,1,5.2c0.8,1,1.1,2.3,1.6,3.6c0.3,0.7,0.3,1.6,0.7,2.2c1.2,2,2.4,4,3.7,5.9C16.3,186.9,17.8,186.8,18.6,185.5z
	 M55.7,162.2C55.7,162.1,55.8,162.1,55.7,162.2z M48.4,164.1c-0.7,0.2-1.4,0-2,0.1s-5.7,1.2-7.2,1.4c-1.5,0.2-2,0-2,0s4.8-1,5.3-1
	c0.5,0,7.9-1.8,8.7-2.1s1,0.3,1,0.3C52.4,163.4,49.2,163.9,48.4,164.1L48.4,164.1z"/>
<path id="RF_5_" class="st0" d="M157.3,195.2c-2.4-3.8-4.5-7.7-6.6-11.6c-0.3-0.8-0.5-1.7-0.6-2.6c-0.1-0.9,0.2-1.9,0.6-2.7
	c0.9-4.4,2.1-8.4,4.9-12.3c0.4-0.4,1-0.6,1.6-0.6c0.8,0.4,1.5,1.1,2,1.9c1.5,2.4,0.1,5.5-1.8,7.5c1.5,0.5,3.1,0.5,4.7,0.8
	c8.7,0.7,17.5-2.4,25.9,0.2c0.7,0.3,1.4,0.5,2.1,0.8l1.1,0.4c0.3,0.2,0.6,0.3,0.9,0.5c0.3,0.1,0.7,0.2,1.1,0.3
	c0.8,0.2,1.6,0.3,2.4,0.6c1.1,0.3,2.2,1.7,1.5,2.3c-0.9,1.1-2.7,0.4-4.3,0.4l-1,0l-0.8,0c-0.8,0-1.4,0.3-2,0.3l-3.3-0.1
	c-2.1,0.2-4-0.7-6.1,0.1c2.4,0.3,5.1,0.6,7.6,0.3c1.1,0.1,2.5,0.1,3.7,0.2l1.4,0.1c2,0,4-0.6,6.2-0.1c1.5,0.5,2.6,2.8,1,3.6
	c-0.9,0.6-2,0.8-3.1,0.9s-2.2,0.1-3.2,0.4c1,0.5,2.4,0.7,3.6,1.1s2,0.8,1.9,1.7c0,1-0.5,1.6-1.1,1.9c-0.7,0.3-1.6,0.4-2.6,0.3
	c-2.1-0.1-4.1-0.8-6.4-0.9c2,1.6,5.6,0.6,7.1,3.3c0.2,0.7,0.2,1.8-0.7,2.2c-2.5,1-4.7-0.6-7.1-0.6c-0.7,0-1.6,0.8-2.2,0.4
	c-3.8-1.4-7.6,0.5-11.1-1.4c-0.2,0-0.2-0.7-0.4-1.1c-0.5,0.5-1,0.9-1.6,1.3c-1.2,1-3.2,0.3-3.3-1.3c-2.1,3.3-6,0.3-9,1.8
	C159,195.7,158.1,195.6,157.3,195.2z"/>
<path id="RH_2_" class="st0" d="M397.3,136.9c-0.3,0-0.7,0.4-1,0.1c-0.2-0.1,0-0.3-0.1-0.5c0.2-0.7,0.4-1.4,0.8-2
	c0.2-0.3,0.3-0.5,0.4-0.8c0.3-1,0.5-4.1,1.8-4c1-2.3,4.9-0.8,6.8-1c1.8-0.1,3.8-1.5,5.7-1c0.8,0.2,1.3,0.9,2.2,1.1
	c0-0.2-0.1-0.5-0.2-0.7c0.4,0.1,0.4,0,0.8-0.1c0-1.3,10.6-0.9,11.9-0.8c1.3,0,4.9,0.2,2.6,2.7c-0.4,0.4-4.5,1.1-4.4,0.6
	c-0.1,0.1,0,1-0.3,0.4c-0.5,0.6-1.2,1.4-2.3,0.9c-1-0.5-0.5-1.2-1.1-2c0,0,0.6,2.7-0.2,2.2c-0.5-0.3-0.1-2.2-1.1-2.7
	c0,0.2,0.7,2.8,0.5,2.8c-0.5,0-0.8-2.5-0.9-2.5c-0.6-0.2,0.1,2.7,0,2.9c-0.4,0.6-2.6,1-3.6,0.8c-0.1,0-0.2,0-0.3-0.1
	c-0.8-0.2-0.8-1.2-1.1-1.9c-0.1,0.2-0.1,0.3-0.2,0.5c0,0.2-0.1,0.4-0.1,0.6c-0.1,0.5-1,3.4-0.4,3.3c0.1,0,0.2-0.1,0.3-0.2
	c0.1-0.1,0.2-0.1,0.3-0.1c0.1,0,0.2,0.1,0.2,0.1c0.1,0.1,0.1,0.3,0.2,0.4c0,0.2,1.9,7.1,0.2,7.6c-0.4,0.1-0.1-0.7-0.1-0.8
	c-0.6,0-1.2,2.9-1.9,2.2c-0.2,0-1.1,2.9-1.1,3.2c-0.5,0.3-0.2,1.1-0.8,1.7c-1,0.9-3.8,0.5-5.2,0.4c-2.5-0.1-7.3,0.5-7.5-2.5
	c-0.3,0.4,0.1,1.7-0.8,1.2c-0.1,1.2-6.2-0.4-7-0.8c-0.7-0.3-3.3-2.4-3.7-3.1c-0.3-0.8,0.6-6,0.5-6.2c0,0.1-0.3-1-0.2-0.8
	c-1.9-3.4,4.7-9.6,7.8-8c1.5,0.8,0.1-1.5,1.5,0.3c0.6,0.8,0.3,1.6,0,2.5c-0.1,0.1-0.2,0.3-0.2,0.4c-0.2,0.2-0.3,0.5-0.5,0.7
	c-0.2,0.2-0.4,0.5-0.6,0.4c-0.4-0.2,0.1-0.6,0.3-0.7c0.2-0.2,0.4-0.3,0.3-0.5c-0.1-0.1-0.2-0.1-0.3,0c-0.1,0.2-0.3,0.3-0.3,0.5
	c-0.1,0.4-0.2,0.8-0.1,1.2c0.2-0.1,0.1-0.5,0.3-0.3c0.3,0.2,0.4,0.5,0.4,0.8c-0.1,0.3-0.5,0.3-0.4,0.6c0.2,0.7-0.2,1.6-0.5,1.6
	c-1.7-0.1-3.2-1.4-4.6-2.4c0.9,1.6,2.9,1.8,3.8,3.4c0.5,0.9,0.4,1.9,0.6,2.8c0,0.2,0.1,0.3,0.1,0.5c0,0.2,0.1,0.3,0.2,0.5
	c0,0.2,0.1,0.4,0.1,0.6c0.1,0.4,0.2,0.8,0.3,1.2c0.2,0.9,0.1,2.5,0.5,3.2c0-0.1,0.5-1.4,0.6-1.4c-1.2,0.1-0.3-2,0.1-2.2
	c-0.2-0.1-0.4-0.3-0.5-0.4c-0.2-0.2-0.3-0.4-0.5-0.6c-0.1-0.2-0.3-0.4-0.4-0.6c-0.1-0.2-0.3-0.5-0.4-0.7c-0.5-0.9-0.3-2.1,0.7-2.5
	c0.1,0,0.2,0,0.3,0.1c0,0.1,0.1,0.2,0.2,0.3c0.1,0.1,0.2,0.2,0.3,0.2c0.2-0.1,0.2-0.3,0.2-0.5c-0.1-0.5-1-0.7-0.6-1.3
	c0.3-0.5,0.9-0.3,1.4-0.3c0.1,0,0.2-0.1,0.2-0.2c-0.1,0-0.1,0-0.2,0.1c0.1-0.2,0.1-0.3,0.4-0.3 M420.9,142.3
	c-0.1-0.2-0.2-0.4-0.4-0.5c-0.3,1.1,0.5,1.7,0.2,2.4c0,0-0.7,0.4-0.9,0.5c-2.2,0.8-4.3-0.9-3.7-3.2c0.3-1.3,1.4-2.1,2.7-2.2
	c0.2,0,0.8,0.3,0.9,0.3c0.2,0.1,1.5,0.5,1.4,0.5c0.1,0,0.1,0.7,0.4,0.8c0.2-0.1,0.8-1.6,1.4-1.1c0.1,0.2,0,0.4-0.1,0.4
	c-0.1-0.2,2-1,2.2-0.5c0,0.1-0.1,0.2,0,0.5c0.2,0.3,0.3-0.6,0.1-0.5c0.7-0.5,6.7,1.7,7,2.5c0.6,1.9-1.4,2-2.8,2.1
	c-1.7,0.2-5.6,0.9-7.2,0C421.2,143.9,421.2,142.5,420.9,142.3L420.9,142.3z M422.1,140C422.1,140,422.6,140.6,422.1,140L422.1,140z
	 M420.2,146.9c0.1,0.1-0.2-1.3-0.2-1.3c0-1.1,3.8,0.3,3.7,0.5c0-0.1-0.9,0.2-0.6,0.3c-0.2-0.1,0.7,0.1,0.7,0.1c0-1,1.9-0.1,2.3,0.4
	c1.7,1.9-1.4,2.7-2.9,2.9c-2.6,0.4-5.2,0.5-7.8,0.5c-1.4,0-2.7-0.2-3-0.1c-1.2,0.2-0.6-2.9,0.1-2.7c0,0,0,1.1,0.2,0.9
	c0.5-0.4,0.1-1.6,0.5-2.2c0.6-1,1.3-0.8,2.2-0.9c0.8-0.1,4.3,0,4.4,0.6c-0.1,0.1-0.2,0.1-0.4,0.2c0.5,0,0.9,0.8,1,1 M422.7,135.3
	c-0.1,0.5-1-1.6-1-1.9c0.3-1.4,1.9-1.2,3.1-1.3c1.8-0.1,3.9-1,5.7-0.9c4.3,0.3-0.4,3.6-2.5,4.2c-1.1,0.3-2.8,1.1-3.9,1
	C422.6,136.5,423.2,136.3,422.7,135.3L422.7,135.3z M419.6,133.5c0.7,0.1,1.2,3,1.6,3.8c0-0.2,0.1-1.3,0-1.5c0,0,0.6,0.4,0.6,0.4
	c-0.4-0.4-1.3-2-1.4-2.6c-0.1-0.6,2.9,3.2,1.6,3.4c-0.1,0-0.1-0.4-0.2-0.5c0.5,1-0.4,0.2-0.4-0.2c0.6,0-1.4,2.1-1.9,2.2
	c-1.6,0.5-3.1,0-3.5-2c-0.3-1.5,0.5-1.9,1.1-2.4C417.6,133.8,419.4,132.9,419.6,133.5L419.6,133.5z M394.8,128.4
	c1.3-0.6,2.4-2.7,2.6-4c0.2-1.9-0.8-2.2-2.6-1.2c-0.7,0.4-2.3,3.3-2.4,3.3c-0.3-0.6-0.4,0.8-0.2,1
	C391.6,127.6,393.5,129,394.8,128.4z M393.8,136C393.1,135.8,393.6,136.1,393.8,136L393.8,136z"/>
<path id="LH_4_" class="st0" d="M278.6,111.1c-0.2,0.1-0.3-0.1-0.4-0.2c0.1,0,0.1,0,0.2,0c-0.1-0.1-0.2-0.2-0.3-0.2
	c-0.4,0.1-1,0.4-1.4,0.1c-0.5-0.5,0.3-0.9,0.2-1.4c0-0.2-0.1-0.4-0.3-0.4c-0.1,0-0.2,0.2-0.3,0.3c-0.1,0.1-0.1,0.2-0.2,0.3
	c-0.1,0.1-0.2,0.1-0.3,0.1c-1.1-0.1-1.5-1.4-1.2-2.3c0-0.3,0.1-0.5,0.2-0.8c0.1-0.2,0.2-0.5,0.2-0.7c0.1-0.2,0.2-0.4,0.3-0.7
	c0.1-0.2,0.3-0.4,0.4-0.5c-0.4-0.1-1.8-1.9-0.6-2.1c-0.1,0-0.8-1.1-0.9-1.2c-0.2,0.9,0.3,2.4,0.3,3.3c0,0.4,0,0.8,0,1.3
	c0,0.2,0,0.4,0,0.7c0,0.2,0,0.4,0,0.5c0,0.2,0,0.3,0,0.5c0.1,0.9,0.4,1.9,0.1,2.9c-0.5,1.7-2.4,2.5-2.9,4.2c1.1-1.4,2.3-3,3.9-3.4
	c0.2-0.1,0.8,0.7,0.9,1.5c0,0.2,0.4,0.2,0.5,0.5c0.1,0.3,0,0.7-0.2,0.9c-0.2,0.2-0.2-0.2-0.4-0.3c0,0.4,0.2,0.8,0.4,1.1
	c0.1,0.2,0.3,0.3,0.5,0.4c0.1,0.1,0.3,0.1,0.3-0.1c0.1-0.2-0.2-0.3-0.4-0.4c-0.3-0.1-0.8-0.3-0.5-0.6c0.3-0.2,0.4,0.1,0.7,0.2
	c0.2,0.2,0.4,0.4,0.6,0.6c0.1,0.1,0.2,0.2,0.3,0.4c0.6,0.8,1,1.5,0.6,2.5c-0.9,2.1-0.1-0.4-1.4,0.7c-2.6,2.2-10.5-2.2-9.5-5.9
	c-0.1,0.2,0-1,0-0.8c0-0.1-2.1-5-2-5.8s2.2-3.5,2.8-3.9c0.7-0.5,6.2-3.6,6.6-2.5c0.8-0.6,0.7,0.7,1.1,1c-0.4-2.9,4.3-3.5,6.7-4.2
	c1.3-0.4,4-1.5,5.1-0.8c0.8,0.4,0.7,1.3,1.2,1.5c0.1,0.3,1.6,2.8,1.8,2.8c0.5-0.8,1.7,1.8,2.3,1.7c0-0.1-0.5-0.8-0.1-0.8
	c1.8,0,1.7,7.2,1.7,7.4c0,0.1,0,0.3-0.1,0.4c0,0.1-0.1,0.1-0.2,0.2c-0.1,0-0.2,0-0.4,0c-0.1,0-0.3-0.1-0.4-0.1
	c-0.6,0.1,0.9,2.7,1.2,3.2c0.1,0.2,0.1,0.4,0.2,0.6c0.1,0.2,0.2,0.3,0.3,0.4c0.1-0.7-0.2-1.7,0.6-2.1c0.1-0.1,0.2-0.1,0.3-0.2
	c0.9-0.4,3.1-0.6,3.7-0.1c0.2,0.2,0.2,3.2,0.7,2.8c0.1-0.1-0.2-2.6,0.3-2.7c0.2,0,0.1,2.6,0.2,2.8c0.8-0.7,0-2.5,0.4-2.9
	c0.7-0.6,0.7,2.1,0.7,2.1c0.4-0.9-0.3-1.5,0.6-2.2c1-0.7,1.8-0.1,2.5,0.3c0.2-0.7,0.3,0.2,0.4,0.3c-0.2-0.5,4-0.8,4.4-0.5
	c2.9,1.8-0.6,2.9-1.9,3.2c-1.3,0.3-11.4,3.3-11.8,2.1c-0.4,0-0.4-0.1-0.8,0.1c0.1-0.2,0.1-0.5,0-0.7c-0.8,0.4-1.1,1.2-1.9,1.6
	c-1.7,0.9-4,0.1-5.8,0.4c-1.9,0.3-5.4,2.7-6.9,0.7c-1.2,0.4-2.2-2.6-2.7-3.5c-0.2-0.2-0.4-0.5-0.6-0.7c-0.5-0.5-0.9-1.1-1.3-1.8
	c0-0.2-0.2-0.4-0.1-0.5c0.3-0.3,0.7,0,1-0.1 M300.6,98.2c1.4-1.2,5.3-1.5,7-1.7c1.4-0.2,3.3-0.6,3.2,1.4c0,0.8-5.4,4.4-6.2,4.1
	c0.1,0-0.2-0.8-0.3-0.5c-0.1,0.3,0.1,0.3,0.1,0.4c-0.1,0.5-2.3,0.3-2.2,0c0.2,0.1,0.3,0.2,0.2,0.4c-0.5,0.6-1.4-0.7-1.6-0.7
	c-0.2,0.1-0.1,0.8-0.2,0.8c0.1,0-1.1,0.7-1.3,0.8c0,0-0.5,0.5-0.8,0.5c-1.3,0.2-2.5-0.3-3.1-1.5c-1.1-2.2,0.5-4.2,2.8-4
	c0.2,0,1,0.3,1,0.2c0.5,0.6-0.1,1.4,0.4,2.4c0.2-0.2,0.2-0.4,0.3-0.6C300.3,100.1,300,98.7,300.6,98.2z M301.8,102.2
	C302.1,101.5,301.8,102.2,301.8,102.2z M298.3,95.8c-0.1,0.2-0.2,1.1-0.7,1.2c0.1,0,0.3,0.1,0.4,0.1c0.1,0.6-3.3,1.6-4.1,1.6
	c-0.9,0.1-1.5,0.4-2.3-0.4c-0.5-0.5-0.4-1.8-1-2c-0.3-0.1,0,0.9,0,0.9c-0.6,0.4-1.9-2.4-0.7-2.6c0.4,0,1.6-0.5,2.9-0.9
	c2.5-0.7,5.1-1.2,7.7-1.4c1.6-0.2,4.7-0.2,3.5,2.1c-0.3,0.6-1.9,1.9-2.1,0.9c0.1,0-0.8,0.4-0.6,0.3c-0.2,0.2,0.7,0.3,0.6,0.2
	c0.1,0.2-3.2,2.4-3.5,1.3c0-0.1-0.1-1.4-0.1-1.3 M304.6,105.1c1.1-0.3,2.9,0,4,0.1c2.2,0.1,7.5,2.1,3.4,3.5
	c-1.7,0.5-3.9,0.2-5.7,0.5c-1.2,0.2-2.7,0.8-3.3-0.5c-0.1-0.3,0.3-2.5,0.5-2C303.7,105.6,303.1,105.6,304.6,105.1L304.6,105.1z
	 M298.3,109.2c-0.7-0.3-1.5-0.6-1.7-2.1c-0.1-2,1.2-2.9,2.9-2.8c0.6,0,3,1.6,2.4,1.7c-0.1-0.4,0.6-1.4,0.4-0.3
	c0.1-0.1,0-0.5,0.1-0.5c1.3-0.2-0.7,4.3-0.8,3.6c-0.1-0.6,0.5-2.3,0.7-2.8c0,0-0.5,0.6-0.5,0.6c0.1-0.3-0.3-1.2-0.4-1.5
	c-0.2,0.9,0,3.8-0.6,4.1C300.9,109.8,298.9,109.4,298.3,109.2L298.3,109.2z M275.9,121.7c-0.1,0.2,0.3,1.5,0.4,0.9
	c0.1,0,2.3,2.4,3.1,2.6c2,0.5,2.8-0.1,2.2-1.8c-0.5-1.3-2.1-3-3.5-3.3C276.7,119.8,275.2,121.7,275.9,121.7z M275.3,113
	C275.1,113,274.7,113.4,275.3,113L275.3,113z"/>
<path id="LF_4_" class="st0" d="M586.2,138c1.1-1.5,1.3-3.4,1.3-5.2c0-1.2-1-1.9-1.9-2.6c-1.2-1-1.1-1.7,0.3-2.2
	c1.8-0.6,3.6-1.1,5.4-1.6c0.2,0,0.4,0.1,0.5,0.1c4,0.4,8.1,0.4,12.1-0.3c0.4-0.1,0.8,0,1.2-0.1c3.3-0.4,6.7-0.3,9.9-1.9
	c2.7-1.3,5.4-2.8,8.1-4.1c2.2-1.1,1.9-0.7,1.7-2.9c0.9-0.5,1.6-0.9,2.2-1.4c0.8-0.7,0.7-1.6-0.1-2.3c-0.9-0.8-2-1-3.2-0.9
	c-1.5,0-3,0-4.5,0c1.9-1,3.7-1.8,5.5-2.6c0.9-0.4,1-1.1,0.3-1.7c-0.4-0.4-0.9-0.7-1.4-0.8c-2-0.3-3.9-0.2-5.8,0.5
	c-1.1,0.4-2.3,0.7-3.4,1l-0.1-0.4c0.5-0.2,1-0.4,1.4-0.6c1.4-0.6,2.8-1.2,4.1-2c0.7-0.4,1.4-1.3,1.1-2.2c-0.4-1.1-1.5-1.3-2.5-1.3
	c-0.2,0-0.5,0-0.7,0.1c-1.1,0.4-2.3,0.8-3.4,1.2c-0.6,0.3-1.2,0.5-1.8,0.2c-0.7-0.3-1.4-0.1-2.2,0.1c-1.7,0.6-3.2,1.6-5.1,1.4
	c-1.3-0.1-2.6,0.1-3.9,0.3c-0.8,0.1-1.7,0.3-1.5,1.5c0,0.2-0.2,0.4-0.2,0.6c-3.4-2.2-4.3-2.2-5.3,0.3c-1.3-1.7-2.6-2-4.7-1.5
	c-0.9,0.2-1.9,0.2-2.8,0.2c-0.8,0-1.5-0.3-2.3-0.4c-2.3-0.4-3.9,0.8-4,3.1c-0.1,1.7-0.7,3.2-1.3,4.7c-0.9,2-1.5,4-2,6.1
	c-0.4,1.8-0.6,3.5,0.6,5.3c0.7,1,1,2.4,1.4,3.7c0.2,0.7,0.2,1.6,0.5,2.3c1,2.1,2.1,4.2,3.3,6.2C583.8,139.2,585.3,139.2,586.2,138z
	 M624.8,117.4C624.8,117.3,624.9,117.3,624.8,117.4z M617.4,118.7c-0.7,0.1-1.4-0.1-2,0c-0.6,0.1-5.8,0.8-7.3,0.9
	c-1.5,0.1-2-0.2-2-0.2s4.9-0.7,5.4-0.6c0.5,0.1,8-1.3,8.8-1.5c0.8-0.2,1,0.4,1,0.4C621.4,118.3,618.2,118.6,617.4,118.7L617.4,118.7
	z"/>
<path id="RF_4_" class="st0" d="M771.1,151.7c-2.1-4-4-8-5.8-12.1c-0.3-0.9-0.4-1.7-0.4-2.6c0-0.9,0.3-1.9,0.8-2.7
	c1.2-4.3,2.7-8.2,5.7-12c0.5-0.4,1-0.5,1.6-0.5c0.8,0.5,1.5,1.2,1.8,2c1.3,2.5-0.3,5.5-2.3,7.3c1.5,0.6,3.1,0.7,4.6,1.1
	c8.6,1.3,17.6-1.2,25.8,2c0.7,0.3,1.4,0.6,2.1,0.9l1,0.5c0.3,0.2,0.6,0.4,0.9,0.5c0.3,0.2,0.7,0.3,1,0.4c0.7,0.3,1.6,0.5,2.3,0.8
	c1.1,0.4,2.1,1.8,1.3,2.4c-1,1-2.7,0.2-4.4,0.1l-1-0.1l-0.7-0.1c-0.7-0.1-1.4,0.2-2,0.1l-3.3-0.3c-2.1,0.1-4-1-6.1-0.3
	c2.4,0.5,5.1,0.9,7.6,0.8c1.1,0.1,2.5,0.3,3.7,0.5l1.4,0.2c2,0.1,4.1-0.3,6.2,0.3c1.5,0.6,2.4,2.9,0.8,3.7c-1,0.6-2,0.7-3.1,0.7
	s-2.2,0-3.3,0.2c1,0.5,2.4,0.9,3.5,1.4c1.1,0.4,2,1,1.8,1.9c-0.1,1-0.6,1.6-1.2,1.8c-0.7,0.3-1.6,0.2-2.6,0.1
	c-2.1-0.3-4.1-1.1-6.3-1.3c1.8,1.8,5.5,1,6.8,3.8c0.2,0.7,0,1.8-0.9,2.2c-2.6,0.9-4.6-0.9-7.1-1.1c-0.7-0.1-1.6,0.7-2.3,0.2
	c-3.6-1.7-7.6-0.1-11-2.2c-0.2,0-0.2-0.7-0.3-1.2c-0.5,0.5-1.1,0.9-1.7,1.2c-1.2,0.9-3.2,0.1-3.2-1.5c-2.3,3.1-6-0.1-9.1,1.1
	C772.8,152.4,771.8,152.2,771.1,151.7z"/>
<path id="LH_2_" class="st0" d="M877.9,69.9c-0.2,0.1-0.3-0.1-0.4-0.2c0.1,0,0.1,0,0.2,0c-0.1-0.1-0.2-0.2-0.3-0.2
	c-0.5,0.1-1,0.4-1.4,0c-0.5-0.5,0.4-0.8,0.3-1.4c0-0.2-0.1-0.4-0.3-0.4c-0.1,0-0.2,0.2-0.3,0.2c-0.1,0.1-0.2,0.2-0.2,0.3
	c-0.1,0.1-0.2,0.1-0.3,0.1c-1-0.2-1.4-1.5-1.1-2.4c0.1-0.3,0.1-0.5,0.2-0.7c0.1-0.2,0.2-0.5,0.3-0.7c0.1-0.2,0.2-0.4,0.4-0.6
	c0.1-0.2,0.3-0.4,0.4-0.5c-0.4-0.1-1.7-2-0.5-2.1c-0.1,0-0.8-1.2-0.8-1.3c-0.3,0.8,0.1,2.4,0.1,3.3c0,0.4,0,0.8,0,1.3
	c0,0.2,0,0.4,0,0.7c0,0.2,0,0.3-0.1,0.5c0,0.2,0,0.3,0,0.5c0,0.9,0.2,1.9-0.1,2.9c-0.6,1.7-2.5,2.3-3.2,4c1.2-1.3,2.5-2.8,4.1-3.2
	c0.2,0,0.8,0.8,0.7,1.5c0,0.2,0.4,0.2,0.5,0.5c0.1,0.3,0,0.7-0.3,0.9c-0.2,0.2-0.2-0.3-0.4-0.3c0,0.4,0.1,0.8,0.3,1.2
	c0.1,0.2,0.3,0.3,0.4,0.5c0.1,0.1,0.3,0.1,0.3-0.1c0.1-0.2-0.2-0.3-0.4-0.4c-0.3-0.1-0.8-0.3-0.4-0.6c0.3-0.2,0.4,0.2,0.7,0.3
	c0.2,0.2,0.4,0.4,0.6,0.6c0.1,0.1,0.2,0.2,0.3,0.4c0.5,0.9,0.9,1.6,0.5,2.5c-1,2.1-0.1-0.4-1.4,0.6c-2.7,2-10.3-2.9-9-6.6
	c-0.1,0.2,0.1-1,0-0.8c0-0.1-1.8-5.1-1.6-6c0.2-0.8,2.4-3.3,3.1-3.7c0.7-0.5,6.5-3.2,6.8-2c0.8-0.6,0.7,0.7,1,1.1
	c-0.2-3,4.5-3.2,7-3.8c1.3-0.3,4.1-1.2,5.2-0.5c0.7,0.5,0.6,1.3,1.1,1.5c0,0.3,1.4,2.9,1.6,3c0.5-0.8,1.6,2,2.2,1.8
	c0-0.1-0.5-0.8-0.1-0.8c1.8,0.2,1.2,7.3,1.2,7.5c0,0.1,0,0.3-0.1,0.4c0,0.1-0.1,0.1-0.2,0.1c-0.1,0-0.2,0-0.4-0.1
	c-0.1,0-0.3-0.1-0.4-0.1c-0.6,0.1,0.7,2.8,0.9,3.2c0.1,0.2,0.1,0.4,0.2,0.6c0.1,0.2,0.1,0.3,0.3,0.5c0.2-0.7-0.1-1.8,0.7-2
	c0.1-0.1,0.2-0.1,0.3-0.2c0.9-0.3,3.2-0.3,3.7,0.2c0.2,0.2,0,3.2,0.5,2.8c0.1-0.1,0-2.6,0.5-2.6c0.2,0-0.1,2.6,0,2.8
	c0.9-0.7,0.2-2.5,0.6-2.9c0.7-0.6,0.6,2.1,0.6,2.1c0.5-0.9-0.2-1.5,0.8-2.2c1-0.7,1.8,0,2.4,0.5c0.2-0.6,0.3,0.2,0.4,0.3
	c-0.2-0.5,4.1-0.5,4.5-0.2c2.7,2-0.8,2.8-2.1,3.1c-1.3,0.3-11.6,2.5-11.9,1.2c-0.4-0.1-0.4-0.1-0.8,0c0.1-0.2,0.1-0.5,0-0.7
	c-0.9,0.4-1.2,1.1-2,1.5c-1.7,0.8-4-0.2-5.8-0.1c-1.9,0.2-5.5,2.3-6.9,0.2c-1.2,0.3-2-2.7-2.4-3.6c-0.2-0.3-0.3-0.5-0.5-0.7
	c-0.5-0.6-0.9-1.2-1.1-1.9c0-0.2-0.2-0.4,0-0.5c0.3-0.3,0.7,0,1-0.1 M900.6,58.6c1.4-1.2,5.4-1.2,7.1-1.2c1.4-0.1,3.4-0.3,3.1,1.6
	c-0.1,0.8-5.7,4-6.4,3.7c0.1,0.1-0.1-0.8-0.2-0.5c-0.1,0.3,0.1,0.3,0.1,0.5c-0.1,0.5-2.3,0.1-2.2-0.1c0.2,0.1,0.3,0.2,0.2,0.4
	c-0.5,0.6-1.3-0.8-1.5-0.9c-0.2,0.1-0.2,0.8-0.2,0.8c0.1,0-1.1,0.6-1.3,0.7c0,0-0.5,0.4-0.8,0.5c-1.3,0.1-2.5-0.5-3-1.7
	c-0.9-2.2,0.8-4.2,3.1-3.8c0.2,0,1,0.3,1,0.3c0.5,0.6-0.2,1.4,0.3,2.4c0.2-0.2,0.3-0.4,0.3-0.6C900.3,60.5,900,59,900.6,58.6z
	 M901.6,62.7C902,62,901.6,62.7,901.6,62.7z M898.6,56c-0.1,0.2-0.3,1.1-0.8,1.2c0.1,0,0.3,0.1,0.4,0.1c0,0.6-3.4,1.3-4.2,1.4
	c-0.9,0-1.5,0.3-2.3-0.6c-0.5-0.5-0.3-1.8-0.9-2.1c-0.3-0.1-0.1,0.9,0,0.9c-0.6,0.3-1.7-2.6-0.5-2.6c0.4,0,1.6-0.4,3-0.6
	c2.6-0.5,5.2-0.8,7.8-0.9c1.6,0,4.8,0.1,3.4,2.3c-0.3,0.6-2,1.8-2.2,0.8c0.1,0-0.8,0.3-0.7,0.2c-0.3,0.2,0.7,0.3,0.6,0.2
	c0.1,0.2-3.4,2.2-3.6,1.1c0-0.1,0-1.4,0-1.3 M904.2,65.8c1.1-0.3,2.9,0.2,4,0.3c2.1,0.2,7.4,2.7,3.1,3.7c-1.7,0.4-4-0.1-5.8,0.1
	c-1.2,0.1-2.7,0.6-3.3-0.7c-0.1-0.3,0.5-2.5,0.6-2C903.3,66.2,902.7,66.1,904.2,65.8L904.2,65.8z M897.6,69.4
	c-0.7-0.4-1.5-0.7-1.5-2.2c0-2,1.4-2.8,3.1-2.6c0.6,0.1,2.9,1.8,2.3,1.9c0-0.4,0.7-1.3,0.4-0.2c0.1-0.1,0-0.5,0.1-0.5
	c1.3-0.1-1,4.2-1,3.6c0-0.6,0.6-2.3,0.9-2.8c0,0-0.5,0.5-0.5,0.5c0.1-0.2-0.2-1.2-0.3-1.5c-0.3,0.9-0.3,3.8-0.9,4
	C900.1,70.2,898.2,69.7,897.6,69.4L897.6,69.4z M874.4,80.3c-0.1,0.2,0.2,1.6,0.4,0.9c0.1,0,2.1,2.6,2.9,2.8
	c1.9,0.6,2.8,0.1,2.3-1.7c-0.4-1.3-1.9-3.2-3.2-3.5S873.7,80.3,874.4,80.3z M874.4,71.6C874.2,71.6,873.7,71.9,874.4,71.6
	L874.4,71.6z"/>
<g>
	<path class="st0" d="M-398.7-308.3l6.9-0.2c3.7-0.1,6.5,0.6,8.2,2c1.7,1.4,2.7,3.4,2.7,5.6c0.1,1.4-0.2,2.8-0.8,4
		c-0.5,1.1-1.3,2-2.4,2.6c1.3,0.6,2.4,1.5,3.2,2.7c0.9,1.5,1.3,3.2,1.3,5c0.1,5.9-4.3,8.9-13.4,9.2l-4.9,0.1L-398.7-308.3z
		 M-391.1-295.9c1.2,0,2.5-0.3,3.5-0.9c0.9-0.8,1.3-2,1.1-3.2c0.1-1.1-0.4-2.2-1.4-2.9c-1.1-0.6-2.4-0.8-3.7-0.7l-1.2,0l0.2,7.7
		L-391.1-295.9z M-390.9-282.4c1.6,0.1,3.1-0.5,4.2-1.6c0.8-0.9,1.3-2.1,1.2-3.3c0-1.8-0.5-3-1.5-3.5c-1.2-0.6-2.6-0.9-4-0.8l-1.3,0
		l0.2,9.2L-390.9-282.4z"/>
	<path class="st0" d="M-375.6-286.8c-1.4-2.7-2-5.8-1.7-8.9c0.1-3.1,1-6,2.8-8.5c1.6-2,4.1-3.1,6.6-2.8c2.6,0.1,4.9,1.5,6.2,3.7
		c1.5,2.7,2.1,5.8,1.7,8.8c-0.1,3.1-1.1,6.1-2.9,8.6c-1.6,2.1-4.1,3.1-6.7,2.9C-372-283.1-374.4-284.5-375.6-286.8z M-366.6-289.5
		c1-3.6,1.2-7.4,0.7-11.2c-0.3-1.5-1-2.3-2.2-2.4c-1.2-0.1-2.1,0.6-2.5,2c-0.5,1.7-0.8,3.4-0.9,5.2c-0.2,2-0.1,4,0.1,6
		c0.2,1.5,1,2.3,2.2,2.4C-368-287.3-367.1-288-366.6-289.5L-366.6-289.5z"/>
	<path class="st0" d="M-357-306.5l5.7-0.6l0.1,3.7c0.8-1.2,1.8-2.2,3-2.9c1.4-0.8,3-1.2,4.6-1.2l0.1,5.6c-1.3,0.1-2.6,0.3-3.9,0.6
		c-1.4,0.3-2.7,0.9-3.8,1.9l0.4,15.2l-5.7,0.6L-357-306.5z"/>
	<path class="st0" d="M-340.3-305l5.7-0.6l0.1,3c1-1,2.2-1.8,3.4-2.5c1-0.6,2-0.9,3.1-1c1.4-0.1,2.7,0.5,3.6,1.5
		c1,1.2,1.5,2.7,1.5,4.2l0.4,17.5l-5.7,0.6l-0.4-15.7c0-2.1-0.8-3.1-2.2-3c-0.5,0-1.1,0.2-1.5,0.5c-0.6,0.3-1.3,0.7-2.1,1.2
		l0.4,16.7l-5.7,0.7L-340.3-305z"/>
	<path class="st0" d="M-304.2-283.8l-0.7-26.2l-6.3,0.2l0.3-4.8l18.1-0.4l-0.4,4.8l-5.8,0.1l0.6,25.8L-304.2-283.8z"/>
	<path class="st0" d="M-293.5-289.8c-1.4-2.8-1.9-5.9-1.4-8.9c0.1-3.1,1.1-6.1,2.9-8.6c1.6-2,4.1-3,6.7-2.7c2.6,0.1,4.9,1.5,6.1,3.8
		c1.4,2.7,2,5.8,1.6,8.8c-0.1,3.1-1.2,6.1-3,8.5c-1.6,2-4.1,3.1-6.7,2.8C-289.9-286.1-292.2-287.5-293.5-289.8z M-284.5-292.3
		c0.5-1.8,0.9-3.6,1-5.5c0.2-1.9,0.2-3.7-0.1-5.6c-0.3-1.5-1-2.3-2.2-2.4c-1.2-0.1-2,0.5-2.5,1.9c-0.5,1.7-0.8,3.4-0.9,5.2
		c-0.2,2-0.2,4,0,6.1c0,1.2,0.9,2.3,2.1,2.4C-285.8-290.1-285-290.7-284.5-292.3z"/>
	<path class="st0" d="M-264-313.8l6.9-0.2c3.7-0.1,6.5,0.6,8.2,2c1.7,1.4,2.7,3.5,2.7,5.7c0.1,1.4-0.2,2.8-0.8,4
		c-0.5,1.1-1.3,2-2.4,2.6c1.3,0.6,2.4,1.5,3.2,2.7c0.9,1.5,1.4,3.2,1.3,5c0.1,5.8-4.3,8.7-13.4,9l-4.9,0.1L-264-313.8z
		 M-256.4-301.4c1.2,0,2.5-0.3,3.5-0.9c0.9-0.8,1.3-2.1,1.1-3.3c0.1-1.1-0.5-2.2-1.4-2.9c-1.1-0.6-2.4-0.8-3.7-0.7l-1.2,0l0.2,7.7
		L-256.4-301.4z M-256.2-287.9c1.6,0.1,3.1-0.4,4.2-1.5c0.8-0.9,1.2-2,1.2-3.2c0-1.8-0.5-3-1.5-3.5c-1.2-0.6-2.6-0.9-4-0.8l-1.3,0
		l0.2,9.1L-256.2-287.9z"/>
	<path class="st0" d="M-239-284.4c-2-2.3-3.3-5.2-3.6-8.2c-0.7-3-0.4-6.2,0.7-9c1-2.4,3.3-4,5.8-4.3c2.4-0.5,5,0.3,6.6,2.1
		c2,2.4,3.2,5.3,3.6,8.3c0,0.2,0,0.3-0.1,0.5c0,0.1,0,0.1,0,0.2l-10.8,1.9c0.3,1.6,0.8,3.2,1.5,4.7c0.7,1.4,1.5,2,2.5,1.8
		c1.1-0.2,1.9-1.1,2.1-2.2l0.4-2.1l4.6,0.9c-0.1,1.8-0.8,3.6-1.9,5.1c-2.8,3.2-7.8,3.6-11,0.7c0,0,0,0,0,0l-0.3-0.3L-239-284.4z
		 M-231.9-297.2c-0.2-1.3-0.6-2.6-1.3-3.7c-0.5-0.8-1.4-1.2-2.3-1.1c-0.5,0.1-1,0.5-1.2,0.9c-0.4,0.6-0.6,1.3-0.7,2.1
		c-0.1,0.9-0.1,1.9,0,2.8L-231.9-297.2z"/>
	<path class="st0" d="M-204.8-281.1l-11.8-29l6.4-1.4l6.6,17.6l0.1-18.6l4.8-1.1l6.6,17.8l0.5-18.9l5.4-1.3l-0.9,31.6l-5.9,1.1
		l-6.7-17.9l0.2,19.2L-204.8-281.1z"/>
	<path class="st0" d="M-182.1-280.9l-0.5-22.9l5.7-0.6l0.6,22.9L-182.1-280.9z"/>
	<path class="st0" d="M-171.6-282.3l-0.7-30.3l5.7-0.9l0.8,30.6L-171.6-282.3z"/>
	<path class="st0" d="M-162.5-293.5c-0.1-4.2,0.4-7.2,1.4-9.1c1-1.9,3-3,5.1-3c1,0,2,0.3,2.9,0.9c0.9,0.6,1.6,1.4,2,2.4l-0.2-10
		l5.8-0.8l0.8,30.6l-4.4,0.6l-1.6-3.2c-0.2,1-0.7,1.8-1.5,2.5c-1,0.7-2.2,1.1-3.4,1C-160.1-281.5-162.4-285.4-162.5-293.5z
		 M-151.6-287.2c0.6-1.5,0.8-3.1,0.7-4.7l-0.2-7.7c-0.6-1.1-1.7-1.8-2.9-1.8c-0.8,0-1.5,0.4-2,1c-0.4,0.8-0.7,1.6-0.8,2.5
		c-0.1,1.4-0.1,2.8-0.1,4.2c0,1.4,0.1,2.9,0.3,4.3c0.1,0.9,0.4,1.8,0.9,2.7c0.4,0.7,1.2,1,2,1C-152.7-285.8-151.9-286.3-151.6-287.2
		L-151.6-287.2z"/>
	<path class="st0" d="M-138.9-285.3l0.4-21.9l5.8,0.4L-135-285L-138.9-285.3z M-140.5-276.1l0.4-6.2l5.8,0.4l-0.4,6L-140.5-276.1z"
		/>
	
		<ellipse transform="matrix(0.1979 -0.9802 0.9802 0.1979 166.0074 -429.2396)" class="st0" cx="-179.3" cy="-316.1" rx="4.5" ry="4.5"/>
</g>
<path id="LF_3_" class="st0" d="M-549.1-151.4c0.8-1.2,0.8-2.7,0.7-4.1c-0.1-1-0.9-1.4-1.6-1.9c-1-0.7-0.9-1.2,0.1-1.7
	c1.3-0.6,2.7-1,4.1-1.6c0.1,0,0.3,0,0.4,0c3.1,0.1,6.3-0.2,9.4-0.9c0.3-0.1,0.6-0.1,0.9-0.1c2.6-0.5,5.2-0.6,7.5-2
	c2-1.2,4-2.4,6-3.6c1.7-0.9,1.5-0.6,1.2-2.3c0.6-0.5,1.2-0.8,1.7-1.2c0.6-0.6,0.5-1.2-0.2-1.7c-0.8-0.6-1.6-0.6-2.5-0.5
	c-1.1,0.1-2.3,0.1-3.5,0.2c1.4-0.9,2.8-1.6,4.1-2.3c0.6-0.3,0.7-0.9,0.2-1.3c-0.3-0.3-0.7-0.5-1.1-0.5c-1.5-0.1-3,0.1-4.4,0.7
	c-0.8,0.4-1.7,0.7-2.6,1l-0.1-0.3c0.4-0.2,0.7-0.3,1.1-0.5c1-0.6,2.1-1.1,3.1-1.8c0.5-0.4,1-1,0.7-1.8c-0.4-0.8-1.2-0.9-2-0.9
	c-0.2,0-0.3,0-0.5,0.1c-0.9,0.4-1.7,0.7-2.6,1.1c-0.5,0.2-0.9,0.4-1.4,0.2c-0.6-0.2-1.1,0-1.7,0.2c-1.2,0.6-2.4,1.4-3.9,1.3
	c-1,0-2,0.2-3,0.4c-0.6,0.1-1.3,0.3-1.1,1.2c0,0.1-0.1,0.3-0.2,0.5c-2.7-1.5-3.4-1.5-4.1,0.5c-1.1-1.2-2.1-1.4-3.7-0.9
	c-0.7,0.2-1.4,0.3-2.2,0.3c-0.6,0-1.2-0.1-1.8-0.2c-1.8-0.2-2.9,0.8-3,2.6c0,1.3-0.3,2.5-0.8,3.7c-0.5,1.6-1,3.2-1.2,4.9
	c-0.2,1.4-0.3,2.8,0.7,4c0.6,0.7,0.9,1.8,1.2,2.8c0.2,0.6,0.2,1.2,0.5,1.7c0.9,1.6,1.9,3.1,2.9,4.6
	C-550.9-150.3-549.8-150.4-549.1-151.4z M-520.4-169.4C-520.4-169.5-520.4-169.5-520.4-169.4z M-526-168c-0.6,0.1-1.1,0-1.5,0.1
	c-0.4,0.1-4.4,0.9-5.6,1.1c-1.2,0.1-1.5,0-1.5,0s3.7-0.8,4.1-0.7s6.1-1.4,6.7-1.6c0.6-0.2,0.8,0.3,0.8,0.3
	C-523-168.5-525.5-168.1-526-168L-526-168z"/>
<path id="RF_3_" class="st0" d="M-441.7-143.9c-1.9-3-3.5-5.9-5.1-9c-0.3-0.6-0.4-1.3-0.5-2c0-0.7,0.1-1.5,0.5-2.1
	c0.7-3.4,1.6-6.5,3.8-9.6c0.3-0.3,0.8-0.5,1.2-0.5c0.7,0.3,1.2,0.8,1.5,1.5c1.2,1.9,0,4.3-1.4,5.8c1.2,0.4,2.4,0.4,3.6,0.6
	c6.7,0.5,13.5-1.9,20,0.2c0.5,0.2,1.1,0.4,1.6,0.6l0.8,0.3c0.2,0.1,0.5,0.3,0.7,0.4c0.3,0.1,0.5,0.2,0.8,0.3
	c0.6,0.2,1.3,0.3,1.9,0.5c0.9,0.2,1.7,1.3,1.2,1.8c-0.7,0.8-2.1,0.3-3.4,0.3l-0.8,0l-0.6,0c-0.6,0-1.1,0.2-1.5,0.2l-2.6-0.1
	c-1.6,0.2-3.1-0.6-4.7,0.1c1.9,0.2,4,0.5,5.9,0.2c0.9,0,1.9,0.1,2.9,0.2l1.1,0.1c1.6,0,3.1-0.5,4.8-0.1c1.2,0.4,2,2.1,0.8,2.8
	c-0.7,0.5-1.5,0.6-2.4,0.7s-1.7,0.1-2.5,0.3c0.8,0.4,1.9,0.6,2.8,0.9c0.9,0.3,1.6,0.7,1.5,1.3c0,0.8-0.4,1.2-0.9,1.5
	c-0.5,0.2-1.2,0.3-2,0.2c-1.7-0.1-3.2-0.6-4.9-0.7c1.5,1.3,4.3,0.5,5.5,2.6c0.2,0.5,0.1,1.4-0.6,1.7c-1.9,0.8-3.6-0.4-5.5-0.5
	c-0.5,0-1.2,0.7-1.7,0.3c-2.9-1.1-5.9,0.4-8.6-1.1c-0.2,0-0.2-0.5-0.3-0.9c-0.4,0.4-0.8,0.7-1.2,1c-0.9,0.8-2.4,0.2-2.6-1
	c-1.6,2.5-4.7,0.2-7,1.4C-440.4-143.5-441.1-143.6-441.7-143.9z"/>
<path id="RH_1_" class="st0" d="M-255.9-189c-0.3,0-0.5,0.3-0.8,0.1c-0.1-0.1,0-0.3,0-0.4c0.1-0.6,0.3-1.1,0.6-1.6
	c0.1-0.2,0.2-0.4,0.3-0.6c0.2-0.8,0.4-3.2,1.4-3.1c0.7-1.8,3.8-0.7,5.3-0.8c1.4-0.1,2.9-1.2,4.4-0.8c0.7,0.2,1,0.7,1.7,0.9
	c0-0.2,0-0.4-0.1-0.5c0.3,0,0.3,0,0.6-0.1c0-1,8.2-0.7,9.2-0.6c1,0,3.8,0.1,2,2.1c-0.3,0.3-3.5,0.8-3.4,0.4c0,0.1,0,0.8-0.3,0.3
	c-0.4,0.4-0.9,1.1-1.8,0.7c-0.8-0.4-0.4-0.9-0.9-1.5c0,0,0.5,2.1-0.1,1.7c-0.4-0.2-0.1-1.7-0.8-2.1c0,0.2,0.6,2.1,0.4,2.2
	c-0.4,0-0.6-1.9-0.7-2c-0.5-0.2,0.1,2.1,0,2.2c-0.3,0.5-2,0.8-2.8,0.6c-0.1,0-0.2,0-0.3-0.1c-0.6-0.1-0.6-1-0.8-1.5
	c-0.1,0.1-0.1,0.2-0.1,0.4c0,0.1,0,0.3-0.1,0.5c-0.1,0.4-0.8,2.6-0.3,2.6c0.1,0,0.2-0.1,0.3-0.1c0.1-0.1,0.2-0.1,0.3-0.1
	c0.1,0,0.1,0,0.2,0.1c0.1,0.1,0.1,0.2,0.1,0.3c0,0.1,1.5,5.5,0.1,5.9c-0.3,0.1-0.1-0.5-0.1-0.6c-0.5,0-0.9,2.2-1.4,1.7
	c-0.1,0-0.8,2.3-0.8,2.5c-0.4,0.2-0.1,0.9-0.6,1.3c-0.8,0.7-2.9,0.4-4,0.3c-2-0.1-5.6,0.4-5.8-1.9c-0.2,0.3,0,1.3-0.6,0.9
	c-0.1,0.9-4.8-0.3-5.5-0.6c-0.5-0.2-2.6-1.8-2.8-2.4c-0.2-0.6,0.4-4.7,0.4-4.8c0,0.1-0.2-0.8-0.1-0.6c-1.5-2.6,3.7-7.4,6-6.2
	c1.2,0.6,0.1-1.2,1.2,0.3c0.5,0.6,0.3,1.2,0,2c-0.1,0.1-0.1,0.2-0.2,0.3c-0.1,0.2-0.2,0.4-0.4,0.5c-0.2,0.1-0.3,0.4-0.5,0.3
	c-0.3-0.2,0-0.4,0.2-0.5c0.2-0.1,0.3-0.3,0.3-0.4s-0.2-0.1-0.3,0c-0.1,0.1-0.2,0.3-0.3,0.4c-0.1,0.3-0.2,0.6-0.1,0.9
	c0.1,0,0.1-0.4,0.3-0.3c0.2,0.1,0.3,0.4,0.3,0.6c0,0.2-0.4,0.3-0.3,0.4c0.1,0.5-0.2,1.2-0.4,1.3c-1.3-0.1-2.5-1-3.6-1.9
	c0.7,1.2,2.3,1.4,2.9,2.6c0.4,0.7,0.3,1.5,0.5,2.2c0,0.1,0.1,0.3,0.1,0.4c0,0.1,0.1,0.3,0.1,0.4c0,0.2,0.1,0.3,0.1,0.5
	c0.1,0.3,0.1,0.7,0.2,1c0.2,0.7,0.1,1.9,0.4,2.5c0-0.1,0.4-1.1,0.5-1.1c-0.9,0.1-0.2-1.5,0.1-1.7c-0.1-0.1-0.3-0.2-0.4-0.3
	c-0.1-0.1-0.3-0.3-0.4-0.4c-0.1-0.1-0.2-0.3-0.3-0.5c-0.1-0.2-0.2-0.4-0.3-0.5c-0.4-0.7-0.3-1.7,0.5-2c0.1,0,0.2,0,0.2,0
	c0,0.1,0.1,0.2,0.2,0.2c0.1,0,0.2,0.1,0.3,0.1c0.2,0,0.2-0.2,0.2-0.4c0-0.4-0.8-0.5-0.4-1c0.2-0.4,0.7-0.2,1.1-0.2
	c0.1,0,0.1-0.1,0.2-0.2c0,0-0.1,0-0.1,0c0-0.1,0.1-0.3,0.3-0.2 M-237.6-184.8c-0.1-0.2-0.2-0.3-0.3-0.4c-0.2,0.8,0.4,1.3,0.1,1.9
	c0,0-0.6,0.3-0.7,0.4c-1.7,0.6-3.3-0.7-2.9-2.5c0.2-1,1.1-1.7,2.1-1.7c0.2,0,0.6,0.2,0.7,0.2c0.2,0.1,1.2,0.4,1.1,0.3
	c0.1,0,0.1,0.5,0.3,0.6c0.2-0.1,0.6-1.2,1.1-0.9c0.1,0.1,0,0.3-0.1,0.3c-0.1-0.1,1.5-0.8,1.7-0.4c0,0.1-0.1,0.2,0,0.4
	c0.1,0.3,0.2-0.4,0.1-0.4c0.5-0.3,5.2,1.3,5.4,1.9c0.4,1.5-1.1,1.5-2.2,1.7c-1.3,0.2-4.3,0.7-5.6,0
	C-237.4-183.6-237.4-184.7-237.6-184.8L-237.6-184.8z M-236.7-186.6C-236.7-186.6-236.3-186.1-236.7-186.6L-236.7-186.6z
	 M-238.1-181.3c0.1,0.1-0.2-1-0.2-1c0-0.8,2.9,0.2,2.9,0.4c0-0.1-0.7,0.2-0.4,0.3c-0.1-0.1,0.6,0.1,0.5,0.1c0-0.8,1.4-0.1,1.8,0.3
	c1.3,1.5-1.1,2.1-2.3,2.2c-2,0.3-4,0.4-6.1,0.4c-1.1,0-2.1-0.1-2.4-0.1c-0.9,0.1-0.5-2.2,0-2.1c0,0,0,0.8,0.2,0.7
	c0.4-0.3,0.1-1.2,0.4-1.7c0.5-0.8,1-0.6,1.7-0.7c0.6-0.1,3.3,0,3.4,0.5c-0.1,0.1-0.2,0.1-0.3,0.2c0.4,0,0.7,0.6,0.8,0.8
	 M-236.2-190.3c-0.1,0.4-0.8-1.2-0.8-1.4c0.2-1.1,1.5-0.9,2.4-1c1.4-0.1,3.1-0.8,4.4-0.7c3.4,0.2-0.3,2.8-1.9,3.2
	c-0.8,0.2-2.2,0.9-3,0.8C-236.3-189.4-235.8-189.5-236.2-190.3L-236.2-190.3z M-238.6-191.7c0.5,0.1,0.9,2.3,1.2,3
	c0-0.2,0.1-1,0-1.2c0,0,0.5,0.3,0.5,0.3c-0.3-0.3-1-1.6-1.1-2c0-0.5,2.2,2.5,1.3,2.6c-0.1,0-0.1-0.3-0.2-0.4
	c0.4,0.8-0.3,0.2-0.3-0.1c0.5,0-1.1,1.6-1.5,1.7c-1.3,0.4-2.4,0-2.7-1.6c-0.2-1.2,0.4-1.5,0.8-1.9
	C-240.2-191.4-238.8-192.1-238.6-191.7L-238.6-191.7z M-257.8-195.6c1-0.5,1.9-2.1,2-3.1c0.2-1.4-0.6-1.7-2-1
	c-0.5,0.3-1.8,2.5-1.8,2.5c-0.2-0.5-0.3,0.6-0.2,0.7C-260.3-196.2-258.8-195.1-257.8-195.6z M-258.6-189.8
	C-259.1-189.9-258.7-189.7-258.6-189.8L-258.6-189.8z"/>
<path id="LH_3_" class="st0" d="M-347.8-209c-0.2,0.1-0.3,0-0.3-0.2c0,0,0.1,0,0.1,0c-0.1-0.1-0.1-0.2-0.2-0.1
	c-0.3,0.1-0.8,0.3-1.1,0.1c-0.4-0.4,0.2-0.7,0.2-1.1c0-0.1-0.1-0.3-0.3-0.3c-0.1,0-0.2,0.1-0.2,0.2c-0.1,0.1-0.1,0.2-0.1,0.3
	c0,0.1-0.1,0.1-0.2,0.1c-0.8-0.1-1.1-1-1-1.8c0-0.2,0.1-0.4,0.1-0.6c0.1-0.2,0.1-0.4,0.2-0.5c0.1-0.2,0.2-0.3,0.3-0.5
	c0.1-0.1,0.2-0.3,0.3-0.4c-0.3-0.1-1.4-1.4-0.5-1.6c-0.1,0-0.6-0.9-0.7-1c-0.2,0.7,0.2,1.8,0.2,2.5c0,0.3,0,0.6,0,1
	c0,0.2,0,0.3,0,0.5c0,0.1,0,0.3,0,0.4c0,0.1,0,0.3,0,0.4c0,0.7,0.3,1.5,0.1,2.2c-0.4,1.3-1.8,1.9-2.2,3.3c0.9-1.1,1.8-2.3,3-2.7
	c0.2,0,0.7,0.6,0.7,1.1c0,0.2,0.3,0.2,0.4,0.4c0.1,0.2,0,0.5-0.1,0.7c-0.2,0.1-0.2-0.2-0.3-0.2c0,0.3,0.2,0.6,0.3,0.9
	c0.1,0.1,0.2,0.3,0.4,0.3c0.1,0.1,0.2,0,0.3-0.1c0.1-0.1-0.1-0.2-0.3-0.3c-0.2,0-0.6-0.2-0.4-0.5c0.2-0.1,0.3,0.1,0.6,0.2
	c0.2,0.1,0.3,0.3,0.5,0.4c0.1,0.1,0.2,0.2,0.3,0.3c0.5,0.7,0.8,1.2,0.5,1.9c-0.7,1.7-0.1-0.3-1.1,0.5c-2,1.7-8.1-1.7-7.3-4.6
	c0,0.2,0-0.8,0-0.6c0-0.1-1.6-3.9-1.5-4.5s1.7-2.7,2.2-3c0.5-0.4,4.8-2.8,5.1-1.9c0.6-0.5,0.6,0.5,0.9,0.8c-0.3-2.3,3.3-2.7,5.2-3.3
	c1-0.3,3.1-1.2,4-0.7c0.6,0.3,0.5,1,0.9,1.1c0,0.2,1.2,2.2,1.4,2.2c0.4-0.6,1.3,1.4,1.8,1.3c0-0.1-0.4-0.6-0.1-0.6
	c1.4,0,1.3,5.6,1.3,5.7c0,0.1,0,0.2,0,0.3c0,0.1-0.1,0.1-0.1,0.1c-0.1,0-0.2,0-0.3,0c-0.1,0-0.2-0.1-0.3-0.1
	c-0.5,0.1,0.7,2.1,0.9,2.4c0.1,0.2,0.1,0.3,0.2,0.4c0.1,0.1,0.1,0.2,0.2,0.3c0.1-0.5-0.2-1.3,0.4-1.6c0.1-0.1,0.2-0.1,0.2-0.1
	c0.7-0.3,2.4-0.4,2.8,0c0.1,0.1,0.2,2.4,0.6,2.2c0.1-0.1-0.1-2,0.2-2.1c0.2,0,0.1,2,0.1,2.2c0.6-0.6,0-2,0.3-2.2
	c0.5-0.5,0.6,1.6,0.6,1.6c0.3-0.7-0.2-1.2,0.5-1.7c0.7-0.6,1.4-0.1,1.9,0.2c0.1-0.5,0.3,0.1,0.3,0.2c-0.2-0.4,3.1-0.6,3.4-0.4
	c2.2,1.4-0.5,2.2-1.5,2.5c-1,0.3-8.9,2.6-9.1,1.6c-0.3,0-0.3-0.1-0.6,0c0-0.2,0-0.4,0-0.5c-0.6,0.3-0.8,0.9-1.4,1.3
	c-1.3,0.7-3.1,0-4.5,0.3c-1.5,0.2-4.2,2.1-5.3,0.5c-0.9,0.3-1.7-2-2.1-2.7c-0.1-0.2-0.3-0.4-0.5-0.5c-0.4-0.4-0.7-0.9-1-1.4
	c0-0.1-0.2-0.3-0.1-0.4c0.2-0.2,0.6,0,0.8-0.1 M-330.8-219c1.1-1,4.1-1.2,5.4-1.4c1.1-0.1,2.6-0.4,2.5,1.1c0,0.7-4.2,3.4-4.8,3.2
	c0.1,0-0.1-0.6-0.2-0.3c0,0.2,0.1,0.2,0.1,0.3c-0.1,0.4-1.8,0.2-1.7,0c0.1,0,0.2,0.2,0.2,0.3c-0.4,0.5-1.1-0.5-1.2-0.6
	c-0.2,0.1-0.1,0.6-0.1,0.7c0.1,0-0.9,0.5-1,0.6c0,0-0.4,0.4-0.6,0.4c-1,0.2-2-0.3-2.4-1.2c-0.9-1.7,0.4-3.3,2.2-3.1
	c0.2,0,0.8,0.2,0.8,0.2c0.4,0.5-0.1,1.1,0.3,1.9c0.1-0.1,0.2-0.3,0.2-0.5C-331-217.5-331.2-218.6-330.8-219z M-329.8-215.9
	C-329.6-216.4-329.8-215.9-329.8-215.9z M-332.5-220.9c-0.1,0.2-0.2,0.8-0.6,1c0.1,0,0.2,0.1,0.3,0.1c0.1,0.5-2.6,1.2-3.2,1.3
	c-0.7,0.1-1.2,0.3-1.8-0.3c-0.4-0.4-0.3-1.4-0.8-1.6c-0.2-0.1,0,0.7,0,0.7c-0.5,0.3-1.5-1.9-0.5-2c0.3,0,1.2-0.4,2.3-0.7
	c2-0.5,3.9-0.9,6-1.1c1.2-0.1,3.7-0.2,2.7,1.6c-0.2,0.4-1.5,1.5-1.6,0.7c0,0-0.6,0.3-0.5,0.2c-0.2,0.2,0.5,0.2,0.5,0.2
	c0.1,0.2-2.5,1.9-2.7,1c0,0,0-1.1-0.1-1 M-327.7-213.6c0.8-0.3,2.3,0,3.1,0c1.7,0.1,5.8,1.7,2.6,2.7c-1.3,0.4-3.1,0.2-4.4,0.4
	c-0.9,0.2-2.1,0.6-2.6-0.4c-0.1-0.2,0.2-1.9,0.4-1.6C-328.3-213.3-328.8-213.3-327.7-213.6L-327.7-213.6z M-332.5-210.5
	c-0.6-0.3-1.2-0.5-1.3-1.6c-0.1-1.6,0.9-2.2,2.2-2.2c0.4,0,2.3,1.2,1.9,1.3c0-0.3,0.5-1.1,0.3-0.2c0.1-0.1,0-0.4,0.1-0.4
	c1-0.1-0.5,3.3-0.6,2.8c-0.1-0.4,0.4-1.8,0.6-2.2c0,0-0.4,0.4-0.4,0.4c0.1-0.2-0.2-0.9-0.3-1.1c-0.2,0.7,0,2.9-0.5,3.2
	C-330.5-210-332.1-210.3-332.5-210.5L-332.5-210.5z M-349.9-200.8c-0.1,0.2,0.2,1.2,0.3,0.7c0.1,0,1.8,1.9,2.4,2
	c1.5,0.4,2.2-0.1,1.7-1.4c-0.4-1-1.6-2.3-2.7-2.5S-350.4-200.8-349.9-200.8z M-350.3-207.5C-350.5-207.6-350.8-207.3-350.3-207.5
	L-350.3-207.5z"/>
<path id="LF_2_" class="st0" d="M-109.6-188.2c0.9-1.2,1-2.6,1-4c0-1-0.8-1.5-1.5-2c-0.9-0.8-0.9-1.3,0.3-1.7
	c1.4-0.5,2.8-0.9,4.2-1.3c0.1,0,0.3,0,0.4,0.1c3.1,0.3,6.3,0.3,9.4-0.2c0.3,0,0.6,0,0.9,0c2.6-0.3,5.2-0.3,7.6-1.4
	c2.1-1,4.2-2.2,6.3-3.2c1.7-0.8,1.5-0.5,1.3-2.2c0.7-0.4,1.3-0.7,1.7-1.1c0.6-0.6,0.6-1.2-0.1-1.8c-0.7-0.6-1.6-0.8-2.5-0.7
	c-1.2,0-2.3,0-3.5,0c1.4-0.8,2.9-1.4,4.3-2c0.7-0.3,0.8-0.8,0.3-1.3c-0.3-0.3-0.7-0.5-1.1-0.6c-1.5-0.2-3-0.2-4.5,0.4
	c-0.9,0.3-1.8,0.5-2.7,0.8l-0.1-0.3c0.4-0.1,0.8-0.3,1.1-0.4c1.1-0.5,2.2-0.9,3.2-1.5c0.6-0.3,1.1-1,0.8-1.7c-0.3-0.8-1.1-1-1.9-1
	c-0.2,0-0.3,0-0.5,0c-0.9,0.3-1.8,0.6-2.6,1c-0.5,0.2-0.9,0.4-1.4,0.1c-0.6-0.2-1.1-0.1-1.7,0.1c-1.3,0.5-2.5,1.2-4,1.1
	c-1-0.1-2,0.1-3,0.2c-0.6,0.1-1.3,0.2-1.2,1.2c0,0.1-0.1,0.3-0.2,0.4c-2.6-1.7-3.3-1.7-4.1,0.3c-1-1.3-2-1.6-3.7-1.2
	c-0.7,0.2-1.5,0.2-2.2,0.1c-0.6,0-1.2-0.2-1.8-0.3c-1.8-0.3-3,0.6-3.1,2.4c-0.1,1.3-0.5,2.5-1,3.7c-0.7,1.5-1.2,3.1-1.6,4.8
	c-0.3,1.4-0.5,2.7,0.5,4.1c0.6,0.8,0.8,1.9,1.1,2.8c0.2,0.6,0.1,1.2,0.4,1.7c0.8,1.6,1.6,3.2,2.6,4.8
	C-111.5-187.2-110.3-187.2-109.6-188.2z M-79.7-204.2C-79.7-204.2-79.6-204.2-79.7-204.2z M-85.4-203.1c-0.6,0.1-1.1-0.1-1.5,0
	c-0.4,0.1-4.5,0.6-5.6,0.7s-1.5-0.1-1.5-0.1s3.8-0.5,4.2-0.4s6.2-1,6.8-1.1c0.6-0.2,0.8,0.3,0.8,0.3
	C-82.3-203.4-84.8-203.2-85.4-203.1L-85.4-203.1z"/>
<path id="RF_2_" class="st0" d="M14.3-177.6c-1.6-3.1-3.1-6.2-4.5-9.3c-0.2-0.7-0.3-1.3-0.3-2c0-0.7,0.2-1.4,0.6-2.1
	c0.9-3.4,2.1-6.4,4.4-9.3c0.4-0.3,0.8-0.4,1.3-0.4c0.6,0.4,1.1,0.9,1.4,1.6c1,2-0.2,4.3-1.8,5.7c1.2,0.5,2.4,0.6,3.6,0.9
	c6.7,1,13.6-0.9,20,1.6c0.5,0.2,1.1,0.5,1.6,0.7l0.8,0.4c0.2,0.2,0.4,0.3,0.7,0.4c0.3,0.1,0.5,0.2,0.8,0.3c0.6,0.2,1.2,0.4,1.8,0.6
	c0.8,0.3,1.6,1.4,1,1.9c-0.8,0.8-2.1,0.1-3.4,0.1l-0.8,0l-0.6-0.1c-0.6-0.1-1.1,0.1-1.5,0.1l-2.6-0.3c-1.6,0.1-3.1-0.8-4.7-0.2
	c1.9,0.4,3.9,0.7,5.9,0.7c0.9,0.1,1.9,0.2,2.9,0.4l1,0.1c1.5,0.1,3.1-0.3,4.8,0.3c1.2,0.5,1.9,2.3,0.6,2.8c-0.7,0.4-1.6,0.5-2.4,0.6
	c-0.9,0-1.7,0-2.5,0.2c0.7,0.4,1.8,0.7,2.7,1c0.9,0.3,1.5,0.8,1.4,1.4c-0.1,0.8-0.4,1.2-1,1.4c-0.5,0.2-1.2,0.2-2,0.1
	c-1.6-0.2-3.1-0.9-4.9-1c1.4,1.4,4.3,0.8,5.3,2.9c0.1,0.5,0,1.4-0.7,1.7c-2,0.7-3.6-0.7-5.5-0.9c-0.5-0.1-1.3,0.6-1.8,0.2
	c-2.8-1.3-5.9-0.1-8.5-1.7c-0.2,0-0.1-0.5-0.3-0.9c-0.4,0.4-0.8,0.7-1.3,1c-1,0.7-2.5,0.1-2.5-1.2c-1.8,2.4-4.7-0.1-7.1,0.9
	C15.6-177,14.8-177.2,14.3-177.6z"/>
<rect x="1607.4" y="-492.2" style="fill:none;" width="284" height="53"/>
<text transform="matrix(1 0 0 1 1712.3524 -475.1366)" class="st0" style="font-family:'MyriadPro-Regular'; font-size:24px;">1200px</text>
<rect x="2781.9" y="-200.8" style="fill:none;" width="284" height="53"/>
<text transform="matrix(1 0 0 1 2886.8801 -183.7675)" class="st0" style="font-family:'MyriadPro-Regular'; font-size:24px;">1500px</text>
<rect x="-428.3" y="-492.2" style="fill:none;" width="284" height="53"/>
<text transform="matrix(1 0 0 1 -317.1491 -475.1366)" class="st0" style="font-family:'MyriadPro-Regular'; font-size:24px;">600px</text>
<rect x="318.3" y="-181.3" style="fill:none;" width="284" height="53"/>
<text transform="matrix(1 0 0 1 429.4149 -164.2801)" class="st0" style="font-family:'MyriadPro-Regular'; font-size:24px;">900px</text>
<rect x="-175" y="-883.2" style="fill:none;" width="352" height="268"/>
<text transform="matrix(1 0 0 1 -149.5944 -866.1367)"><tspan x="0" y="0" class="st0" style="font-family:'MyriadPro-Regular'; font-size:24px;">$on-palm:          600px !default;</tspan><tspan x="-2.3" y="28.8" class="st0" style="font-family:'MyriadPro-Regular'; font-size:24px;">$on-laptop:        900px !default;</tspan><tspan x="-13.6" y="57.6" class="st0" style="font-family:'MyriadPro-Regular'; font-size:24px;">$on-desktop:       1200px !default;</tspan><tspan x="-20.1" y="86.4" class="st0" style="font-family:'MyriadPro-Regular'; font-size:24px;">$on-widescreen:   1500px !default;</tspan><tspan x="-19.5" y="115.2" class="st0" style="font-family:'MyriadPro-Regular'; font-size:24px;">$on-jumbotron:    1900px !default;</tspan></text>
</svg>
