<svg id="logo" xmlns="http://www.w3.org/2000/svg" viewBox="0 0 184.59 80.78">
  <title>logo2</title>
  <path d="M2.61,49.66l4.26-1q3.45-.78,5.33.2A4.55,4.55,0,0,1,14.58,52a5.46,5.46,0,0,1,0,2.58,3.48,3.48,0,0,1-1.16,1.89,5.26,5.26,0,0,1,2.31,1.25,5.73,5.73,0,0,1,1.42,2.94Q18.37,66.07,10,68l-3,.69Zm6.25,6.71a4.1,4.1,0,0,0,2.08-1,2.29,2.29,0,0,0,.27-2.14A2,2,0,0,0,10,51.63a4.46,4.46,0,0,0-2.36,0l-.74.17L8,56.57Zm1.82,8.33a3.49,3.49,0,0,0,2.43-1.5A3,3,0,0,0,13.47,61q-.38-1.65-1.37-2a4.76,4.76,0,0,0-2.57,0l-.81.18L10,64.86Z"/>
  <path d="M19.58,60.1a9.68,9.68,0,0,1-2.14-5.3,9.57,9.57,0,0,1,.67-5.62,4.61,4.61,0,0,1,3.75-2.57,4.68,4.68,0,0,1,4.3,1.5,9.37,9.37,0,0,1,2.16,5.25,9.56,9.56,0,0,1-.7,5.67,4.66,4.66,0,0,1-3.76,2.61A4.6,4.6,0,0,1,19.58,60.1Zm5.23-2.77a18.38,18.38,0,0,0-.93-7Q23.36,49,22.2,49.15t-1.29,1.54A14.9,14.9,0,0,0,21,54a18.45,18.45,0,0,0,.81,3.73q.5,1.36,1.66,1.21t1.35-1.61Z"/>
  <path d="M28.64,45.54l3.48-1.11.52,2.31a6.22,6.22,0,0,1,1.49-2.19,5.7,5.7,0,0,1,2.72-1.33l.79,3.47a12.37,12.37,0,0,0-2.32.86,5.26,5.26,0,0,0-2.12,1.64l2.13,9.36-3.48,1.11Z"/>
  <path d="M39.2,44.38l3.48-1.11.41,1.83a10.16,10.16,0,0,1,1.81-2,4.54,4.54,0,0,1,1.82-1,2.84,2.84,0,0,1,2.41.48A4,4,0,0,1,50.58,45L53,55.77l-3.48,1.11-2.2-9.66q-.43-1.9-1.73-1.61a2.24,2.24,0,0,0-.89.47q-.46.37-1.16,1l2.34,10.27L42.41,58.5Z"/>
  <path d="M64.18,53,60.5,36.85l-3.88.88-.4-3,11.16-2.54.37,3L64.2,36l3.62,15.9Z"/>
  <path d="M70.07,48a9.67,9.67,0,0,1-2-5.34A9.57,9.57,0,0,1,68.79,37a4.61,4.61,0,0,1,3.79-2.51,4.68,4.68,0,0,1,4.28,1.57,9.37,9.37,0,0,1,2.07,5.28,9.56,9.56,0,0,1-.8,5.65,4.66,4.66,0,0,1-3.8,2.55A4.6,4.6,0,0,1,70.07,48Zm5.28-2.68a15.59,15.59,0,0,0-.07-3.53,15.58,15.58,0,0,0-.74-3.45Q74,37,72.88,37.1t-1.32,1.51a15,15,0,0,0,.07,3.32,18.46,18.46,0,0,0,.75,3.75A1.53,1.53,0,0,0,74,46.91Q75.15,46.82,75.35,45.32Z"/>
  <path d="M85.33,29.44l4.26-1q3.45-.78,5.33.2a4.56,4.56,0,0,1,2.38,3.19,5.46,5.46,0,0,1,0,2.58,3.47,3.47,0,0,1-1.16,1.89,5.26,5.26,0,0,1,2.31,1.25,5.72,5.72,0,0,1,1.42,2.94q1.21,5.32-7.18,7.23l-3,.69Zm6.25,6.71a4.1,4.1,0,0,0,2.08-1A2.29,2.29,0,0,0,93.93,33a2,2,0,0,0-1.23-1.6,4.46,4.46,0,0,0-2.36,0l-.74.17,1.08,4.77Zm1.82,8.33A3.48,3.48,0,0,0,95.83,43a3,3,0,0,0,.36-2.15q-.38-1.65-1.37-2a4.75,4.75,0,0,0-2.57,0l-.81.18,1.27,5.6Z"/>
  <path d="M104.48,44.48a9.77,9.77,0,0,1-3.28-4.62,9.67,9.67,0,0,1-.7-5.67,4.64,4.64,0,0,1,3.06-3.4,4.39,4.39,0,0,1,4.38.5A10,10,0,0,1,111.2,36a.46.46,0,0,1,0,.31.31.31,0,0,0,0,.14L104.73,39a10.13,10.13,0,0,0,1.53,2.71q.92,1.14,1.76.81a1.61,1.61,0,0,0,1-1.64V39.52H112a6.2,6.2,0,0,1-.55,3.38,4.94,4.94,0,0,1-6.75,1.82l-.25-.16Zm2.77-8.79A6.06,6.06,0,0,0,106,33.54a1.37,1.37,0,0,0-1.54-.38,1.19,1.19,0,0,0-.64.72,3.26,3.26,0,0,0-.19,1.38A5.36,5.36,0,0,0,104,37Z"/>
  <path d="M126.09,42.24,115.16,25.79l3.8-1.7,6.27,10.06L123,22.64l2.83-1.31,6.32,10.18-2.07-11.73,3.2-1.46L136.68,38l-3.5,1.41-6.36-10.27L129.32,41Z"/>
  <path d="M140.17,39.55,137,25.43l3.48-1.11,3.21,14.12Z"/>
  <path d="M146.49,37.4l-4.25-18.7,3.45-1.26L150,36.29Z"/>
  <path d="M150.68,29.31q-.88-3.88-.26-5.83A3.5,3.5,0,0,1,153.19,21a3,3,0,0,1,1.88.2,3.59,3.59,0,0,1,1.55,1.21l-1.41-6.19L158.7,15,163,33.84l-2.62.92L159,33a3,3,0,0,1-.59,1.73,3.28,3.28,0,0,1-2,1.06Q152.37,36.77,150.68,29.31Zm7.59,2.55a6.4,6.4,0,0,0-.17-3L157,24.11a2.13,2.13,0,0,0-2-.75,1.4,1.4,0,0,0-1.09.88,3.65,3.65,0,0,0-.15,1.67,23.2,23.2,0,0,0,.47,2.59,24.92,24.92,0,0,0,.71,2.61,3.93,3.93,0,0,0,.89,1.53,1.38,1.38,0,0,0,1.36.36,1.46,1.46,0,0,0,1.08-1.14Z"/>
  <path d="M166.37,31.45l-2.46-13.6,3.63-.49,1.25,13.76Zm.16,5.88L166,33.41l3.63-.49.51,3.76Z"/>
  <circle cx="137.51" cy="17.44" r="2.83"/>
</svg>
