<svg id="logo" data-name="Layer 1" xmlns="http://www.w3.org/2000/svg" viewBox="0 0 354.63 146.52">
  <defs>
    <style>
      .cls-1 {
        fill: none;
        <!-- stroke: #000; -->
        stroke-miterlimit: 10;
      }
    </style>
  </defs>
  <title>nicola-logo2</title>
  <g>
    <path class="cls-1" d="M39.42,21.1S50.77,10.8,55.9,9.66s8.55-6,19.09-6,11.68-.24,16.81,3.46,7.69,4.27,12,10.54,4.84,8.83,9.69,14a57.66,57.66,0,0,0,9.4,8.26c.85.57,6.27,3.7,6.27,3.7s8.55,10,8.55,11.11,2.85,4,3.7,11.68-.57,12.82,0,18.81,1.7,12.25.28,15.67l-1.42,3.42"/>
    <path class="cls-1" d="M29.32,28.92c1.74-1.28,5.41-5.21,7.87-6.39,2.65-1.58,6.68-4.83,11.87-5.8s7.7-2.11,12.54-2.11a52.34,52.34,0,0,1,13.28,1.95c3.57,1,6.17,1.46,10.07,4.55s4.87,3.9,7.63,7.31,3.25,1.79,5.84,7.14,4.06,7.47,5.52,10.39,2.92,4.55,3.73,8.93,1,2.44,2.11,9.09.32,6.17,0,11,.49,4.06-1.62,8.12-2.44,6.17-5.19,8.6-1.95,3.08-6.33,4.71-3.9,2.76-8,3.25-7.31-.32-9.58,0-7.79-1.46-7.79-1.46A51.49,51.49,0,0,0,63,96.76c-3.37-.16-4.34-.49-7.1-.49s-6-1.46-8.77-1.14-6.17-1.14-8.77-.65a54.71,54.71,0,0,1-8.44.65,18.94,18.94,0,0,1-7.14-1.95,16,16,0,0,1-4.87-3.25c-2.11-1.79-1.71-1-3.9-4.55S11.24,81,11.24,78.09s.28-6.48,0-8.93a43.54,43.54,0,0,1,0-9.25,42.18,42.18,0,0,1,2.92-9.58c1.29-3,2.27-4.06,3.73-7.14s4.74-6.59,6.51-9.05A23,23,0,0,1,29.32,28.92Z"/>
    <path class="cls-1" d="M31.69,95.1s-.81,2.46-1.3,4.74-5,23.05-5,23.54"/>
    <path class="cls-1" d="M57.51,50.82V47.89c0-1.95.32-2.6-1.46-2.92s-2.92-1.3-3.9-1-.36-.13-3.08,1.62-2.27,2.76-2.27,2.76a9.16,9.16,0,0,0,0,2.27"/>
    <path class="cls-1" d="M62,50.82V48.46A9.33,9.33,0,0,1,63.38,46c.69-.74,1.25-1.67,2.18-1.61a30.85,30.85,0,0,0,3.35,0A2.34,2.34,0,0,1,71,45c.87.68,1.3.19,2.17,1.61a9.45,9.45,0,0,0,1.36,2.11c.68.74,1.05,1.12,1.74,1.8s1.61,1.74,2,2"/>
    <path class="cls-1" d="M57,49.55A4.68,4.68,0,0,0,55.33,48l-.83-.3a1.28,1.28,0,0,0-1.76.35c-.88,1-1.5,1.75-1.5,1.75l.88.56,1.83.5a2.77,2.77,0,0,0,2.18-.5Z"/>
    <path class="cls-1" d="M65.56,49.89a7.94,7.94,0,0,1,2.29-1.41c.81-.2,1.11-.76,2.17-.26a9,9,0,0,1,2.17,1.67l-.62.93s-2.29.81-3.16.37S65.56,49.89,65.56,49.89Z"/>
    <path class="cls-1" d="M52.75,61.58A1,1,0,0,1,54,61.22l.81.28S56.31,63.15,57,63A5.58,5.58,0,0,0,58.62,62s1.09-.8,1.86,0c1.11.09.52,1,.52,1"/>
    <path class="cls-1" d="M80,91c-.09-.46.88-2.14.52-6a14.35,14.35,0,0,1,0-4.5c0-1-1-3.86-1.38-6.25s-.83-1.56-.84-3.4-4.94-5.14-5.4-6.06-3.49-1.93-4.59-2.3a4.58,4.58,0,0,1-3.21-2.11c-1.19-1.75-4.5-2.57-5.69-3.67s-3.27.87-5.4,1.19a4.08,4.08,0,0,0-3.51,2.2,10.71,10.71,0,0,1-2.39,2.39c-1.19,1.29-2.66,1.47-4.87,3.21a15,15,0,0,0-4.78,8.36c-.46,2.94-2,8.08-1.84,11.21s1,7.55,1,7.55"/>
    <path class="cls-1" d="M75.18,82.71c.83,1.56,2.94,3.49,3.45,5.42s1.88,2.57,2.06,6.06S81.8,110.45,78.63,118s-2.9,8.63-5.38,14.33-4.13,12.77-3.95,14.14"/>
    <path class="cls-1" d="M40.23,82.71a43.48,43.48,0,0,0-2.18,7.62c-.73,3.58-1.63,8.45-1.5,10.65s3.11,11.76,3.68,13.23,6.45,11.48,6.54,13.41,2.48,4.32,1.38,10.47-.64,5.51-.64,5.79"/>
    <path class="cls-1" d="M40.94,81.15c1.7-.81,4.89-1.21,5.78-1.43s1.3-.9,4.61-.54,6.77,1.08,8.06.94,5.37,0,5.37,0,3.76-.14,4.84,1.74"/>
    <path class="cls-1" d="M43.39,81.36a7.28,7.28,0,0,0,3,1.61c1.65.36,3.35,1.12,4.6.94s2.69.28,4.29,0a41.21,41.21,0,0,0,4.54-.61,21.78,21.78,0,0,1,4.6-.64c1.16,0,2.1,0,2.1,0"/>
    <path class="cls-1" d="M14.59,135c0-.49,4.55-21.27,5-23.54a28.17,28.17,0,0,1,1.3-4.74c.65-1.81,4.59-5.29,2.89-6.91-4.45-4.24-7.15-4.16-7.92-4.74S11.35,91.75,11,90.8s-4.8-7.3-5.28-8.11S3.4,78.44,3.4,76.88s.12-8.5.61-10.24c1.25-4.49,2.71-9.87,3.63-11.58s2.94-6.4,4.24-7.59a39.26,39.26,0,0,0,4.64-5.67,97.92,97.92,0,0,1,8.85-8.93"/>
    <path class="cls-1" d="M41.39,19.38S53.34,8.25,58.73,7,67.72.5,78.81.5,91.1.24,96.5,4.24s8.09,4.62,12.59,11.39,5.1,9.55,10.19,15.09a61.12,61.12,0,0,0,9.89,8.93c.9.62,6.59,4,6.59,4s9,10.78,9,12,3,4.31,3.9,12.62-.6,13.86,0,20.32,1.79,13.24.3,16.94l-1.49,3.69"/>
  </g>
  <g>
    <path d="M93,115.29h6.72q5.44,0,7.92,2.12a7,7,0,0,1,2.48,5.6,8.4,8.4,0,0,1-.86,3.88,5.34,5.34,0,0,1-2.38,2.44,8.11,8.11,0,0,1,3,2.66,8.8,8.8,0,0,1,1.12,4.9q0,8.4-13.24,8.4H93Zm7.08,12.2a6.31,6.31,0,0,0,3.46-.76q1.14-.76,1.14-3.12a3.06,3.06,0,0,0-1.3-2.86,6.87,6.87,0,0,0-3.54-.78H98.67v7.52ZM100,140.61a5.36,5.36,0,0,0,4.16-1.42,4.54,4.54,0,0,0,1.28-3.1q0-2.6-1.38-3.46a7.3,7.3,0,0,0-3.86-.86H98.87v8.84Z"/>
    <path d="M116,141.47a26.76,26.76,0,0,1-2.06-11.34q0-7.4,2.2-11.4a7.48,7.48,0,0,1,7.08-4q9.32,0,9.32,15.24a27,27,0,0,1-2.1,11.36,7.42,7.42,0,0,1-7.3,4.52A7.27,7.27,0,0,1,116,141.47Zm10-3.12a38.34,38.34,0,0,0,.68-8.42,35.5,35.5,0,0,0-.66-7.5q-.66-3-2.82-3t-2.8,3a36.26,36.26,0,0,0-.64,7.48,39.72,39.72,0,0,0,.66,8.46q.66,2.78,2.78,2.78T126,138.35Z"/>
    <path d="M145.11,132.13h-2.28v12.92l-5.84.48v-30l7.12-.24q5.16,0,8.08,2.06a7.19,7.19,0,0,1,2.92,6.3,8,8,0,0,1-4.28,7.6l2.68,6.52,2.72,6.48-5.76,1.56Zm-.28-4.32a5.44,5.44,0,0,0,3.26-.86q1.18-.86,1.18-3.26,0-3.72-3.68-3.72h-2.76v7.84Z"/>
    <path d="M173.59,145.53l-8.76-18.76v18.28l-5.24.24V115.53l6.12-.24,7.76,17.84V115.77l5-.48v29.76Z"/>
    <path d="M193.31,140.93q1-1.36,3.44-4.16,2.6-3,4.18-5.06a25.91,25.91,0,0,0,2.68-4.4,10.38,10.38,0,0,0,1.1-4.5,3.8,3.8,0,0,0-.78-2.3,2.68,2.68,0,0,0-2.3-1.06,3.37,3.37,0,0,0-2.68,1.46,7.34,7.34,0,0,0-1.48,3.5l-4.8-1.56a11.05,11.05,0,0,1,1.6-4,9.14,9.14,0,0,1,3.12-3,8.49,8.49,0,0,1,4.36-1.12,9.41,9.41,0,0,1,4.48,1,7.64,7.64,0,0,1,3.06,2.9,8.13,8.13,0,0,1,1.1,4.22,15.21,15.21,0,0,1-3,8.64,58.38,58.38,0,0,1-7.64,8.84h10.36l-.48,4.92H193.31Z"/>
    <path d="M224.39,115.29h6.72q5.44,0,7.92,2.12a7,7,0,0,1,2.48,5.6,8.4,8.4,0,0,1-.86,3.88,5.34,5.34,0,0,1-2.38,2.44,8.1,8.1,0,0,1,3,2.66,8.79,8.79,0,0,1,1.12,4.9q0,8.4-13.24,8.4h-4.8Zm7.08,12.2a6.31,6.31,0,0,0,3.46-.76q1.14-.76,1.14-3.12a3.06,3.06,0,0,0-1.3-2.86,6.87,6.87,0,0,0-3.54-.78h-1.16v7.52Zm-.12,13.12a5.36,5.36,0,0,0,4.16-1.42,4.54,4.54,0,0,0,1.28-3.1q0-2.6-1.38-3.46a7.3,7.3,0,0,0-3.86-.86h-1.28v8.84Z"/>
    <path d="M246.43,145.29v-30h15.24l-.48,4.68h-8.88v7.16h6.32l0,5h-6.28v8.44H262l-.48,4.68Z"/>
    <path d="M279.35,145.29l-6.12-29.76,6.4-.24,3.16,18,3.4-17.72,4.8-.24,3.16,18.16,3.8-17.92,5.4-.24-6.44,30h-5.8L288,127l-3.24,18.32Z"/>
    <path d="M306.47,145.53V115.77l5.88-.48v29.76Z"/>
    <path d="M318,145.29V115.77l5.84-.48v25.32h9.84l-.6,4.68Z"/>
    <path d="M336.71,115.29h6.16q5.92,0,8.84,3.76t2.92,11.36a23.67,23.67,0,0,1-1.1,7.4,11.8,11.8,0,0,1-3.5,5.42,9.07,9.07,0,0,1-6.12,2.06h-7.2Zm6.68,25.32a4.25,4.25,0,0,0,4.22-2.62,15.72,15.72,0,0,0,1.18-6.46v-1.36a31.51,31.51,0,0,0-.34-4.9,8,8,0,0,0-1.56-3.72,4.34,4.34,0,0,0-3.66-1.58h-.68v20.64Z"/>
  </g>
</svg>
