<?xml version="1.0" encoding="UTF-8"?><!DOCTYPE svg PUBLIC "-//W3C//DTD SVG 1.1//EN" "http://www.w3.org/Graphics/SVG/1.1/DTD/svg11.dtd"><svg xmlns="http://www.w3.org/2000/svg"><symbol id="aktiv" viewBox="0 0 24 24"><title>aktiv</title><path d="M11.25 9.07a2.5 2.5 0 0 0-2.42 1 2.5 2.5 0 0 0-2.42-1 2.6 2.6 0 0 0-2.08 2.63 2.48 2.48 0 0 0 .73 1.77l3.41 3.41a.5.5 0 0 0 .35.15.49.49 0 0 0 .35-.15l3.41-3.41a2.52 2.52 0 0 0 .73-1.83 2.58 2.58 0 0 0-2.06-2.57zm.65 3.7l-3.07 3.05-3.06-3.06a1.54 1.54 0 0 1-.44-1.12 1.57 1.57 0 0 1 1.24-1.59h.26a1.48 1.48 0 0 1 1 .36 1.5 1.5 0 0 1 .53 1.14.5.5 0 1 0 1 0 1.5 1.5 0 0 1 1.5-1.5h.26a1.6 1.6 0 0 1 1.24 1.65 1.51 1.51 0 0 1-.47 1zM13.31 6a2.5 2.5 0 1 0-2.5-2.5 2.5 2.5 0 0 0 2.5 2.5zm0-4a1.5 1.5 0 1 1-1.5 1.5 1.5 1.5 0 0 1 1.5-1.5z"/><path d="M19.13 4.17a1.46 1.46 0 0 0-2 0L14.5 6.79a1.71 1.71 0 0 0-.35 0h-2.28a.5.5 0 0 0 0 1h2.28a.74.74 0 0 1 .29.06.5.5 0 0 0 .56-.14l2.83-2.83a.44.44 0 0 1 .6 0 .43.43 0 0 1 0 .6L15 8.86a.5.5 0 0 0-.15.35V22h-3.07l-.36-5a.49.49 0 0 0-.52-.46.5.5 0 0 0-.46.53l.39 5.5a.5.5 0 0 0 .5.46h4a.5.5 0 0 0 .46-.31.49.49 0 0 0 .17-.37V9.42l3.23-3.23a1.43 1.43 0 0 0 0-2z"/></symbol><symbol id="banana" viewBox="0 0 30 30"><path d="M29.677 4.045a.506.506 0 0 0-.552.137c-.203.231-.404.347-.599.347h-.002c-.287-.001-.562-.246-.641-.337a.5.5 0 0 0-.872.425c.004.019.364 1.885-.925 4.112-.342.048-.656.18-.917.409l-.155.136c-1.574 1.385-6.364 5.599-9.739 7.293-1.639.823-4.412 1.385-7.095 1.928-3.142.637-5.856 1.186-6.986 2.123C.995 20.772 0 21.584 0 22.469c0 .869.978 1.755 1.174 1.924.023.02.052.03.078.045.023.014.043.03.069.04.006.002.01.007.016.009 3.025 1.047 5.925 1.5 8.645 1.5 9.607 0 16.949-5.657 19.467-10.752.241-.487.372-.964.449-1.432a.49.49 0 0 0 .102-.289v-9a.502.502 0 0 0-.323-.469zM1.691 23.506C1.366 23.192 1 22.728 1 22.47c0-.137.113-.33.266-.522a.482.482 0 0 0 .235.066c.229 0 1.375.036 1.375.75-.001.593-.787.717-1.185.742zm26.861-8.714c-2.95 5.968-12.898 12.727-25.314 9.238.328-.245.534-.577.605-.971l.225.03a28.01 28.01 0 0 0 3.83.271c7.77 0 14.155-3.541 19.014-10.561a.5.5 0 1 0-.822-.57c-5.403 7.806-12.762 11.13-21.885 9.869-.204-.029-.365-.05-.504-.065-.244-.467-.741-.79-1.41-.933 1.23-.639 3.693-1.139 6.088-1.624 2.746-.556 5.587-1.132 7.344-2.014 3.491-1.752 8.185-5.881 9.952-7.436l.155-.136c.379-.332 1.088-.206 1.764.314 1.164.893 1.911 2.658.958 4.588zM29 10.229a4.442 4.442 0 0 0-.798-.82 3.563 3.563 0 0 0-1.044-.562c.701-1.36.885-2.575.904-3.388.137.042.286.068.446.07.141.005.307-.015.492-.076v4.776z"/></symbol><symbol id="donate" viewBox="0 0 30 30"><path d="M8 27c-.3 0-.5-.2-.5-.5v-3c0-.3.2-.5.5-.5s.5.2.5.5v3c0 .3-.2.5-.5.5zM25.6 9.1c-.3 0-.6-.1-.9-.2l-10-5c-.1-.1-.2-.2-.3-.4s0-.3.1-.4l3-3c.3-.1.5-.1.7-.1l9 4c.2.1.3.3.3.5v3c0 .6-.3 1-.8 1.4-.3.1-.7.2-1.1.2zm-9.8-5.7l9.4 4.7c.3.1.7.1 1-.1.1-.1.3-.2.3-.5V4.8l-8.4-3.7-2.3 2.3z"/><path d="M8 30c-2.5 0-4.5-2-4.5-4.5 0-1.9 1.2-3.6 3-4.2h.4c.1 0 .2.2.3.3l.3.6c.5.9 1.5.8 2.2.4l.7-.4c.2-.1.4-.1.6.1.9.9 1.5 2 1.5 3.3 0 2.4-2 4.4-4.5 4.4zm-1.6-7.6c-1.1.6-1.9 1.8-1.9 3.1C4.5 27.4 6.1 29 8 29s3.5-1.6 3.5-3.5c0-.9-.3-1.7-.9-2.3l-.4.2c-1.3.8-2.9.5-3.7-.6 0-.1-.1-.3-.1-.4z"/><path d="M8.7 23.9c-.8 0-1.6-.4-2.1-1.1-.4-.6-.6-1.3-.5-2l-3-5c-.7-.9-.7-1.9 0-3l3-4.5c.3-.6.5-1 1.2-1.3l8.5-3.5c.1-.1.3-.1.4 0L24.7 8c.2.1.3.4.2.7 0 0-1.4 2.8-4 7-2.5 4.1-6.1 5.1-6.7 5.2l-3.9 2.5c-.6.3-1.1.5-1.6.5zM10.5 11c.1 0 .3.1.4.2 0 0 1.2 1.3 3.1 1.3.2 0 .4.1.5.3.1.2 0 .4-.1.5-1.1 1.1-1.9 2.8-1.9 3.1 0 .3-.2.5-.5.5-.3.1-2.4 1.2-4.2 2.4-.3.2-.6.6-.7 1-.1.6 0 1.3.3 1.8.6 1 1.6.9 2.3.5l4-2.5c.1 0 .1-.1.2-.1 0 0 3.7-.7 6.2-4.8 2-3.3 3.3-5.6 3.8-6.5L16 4.6 7.7 8c-.4.1-.5.3-.8.7l-3 4.6c-.5.8-.5 1.3 0 1.9l2.5 4.2c.2-.4.5-.6.8-.8 0 0 .5-.3 1.2-.7-.1-.5-.3-.9-.4-.9-.3 0-.5-.2-.5-.5 0-1.1-.7-1.6-.8-1.6-.2-.1-.3-.4-.2-.6.1-.2.3-.3.5-.3.5-.1 2.9-2 3-2.5 0-.2.1-.4.3-.5h.2zm-2 5.1c.4.2.7.8.8 1.2.8-.5 1.7-1 2.2-1.2.2-.7.7-1.8 1.4-2.7-1.1-.2-1.9-.7-2.3-1.1-.6.8-1.8 1.8-2.8 2.4.3.3.6.8.7 1.4z"/></symbol><symbol id="down" viewBox="0 0 24 24"><path d="M12 20.508a.504.504 0 0 1-.354-.146l-7-7.008A.5.5 0 1 1 5 12.5h3.5V5.008a.5.5 0 0 1 .5-.5h6a.5.5 0 0 1 .5.5V12.5H19a.5.5 0 0 1 .354.854l-7 7.008a.5.5 0 0 1-.354.146zM6.206 13.5L12 19.301l5.794-5.801H15a.5.5 0 0 1-.5-.5V5.508h-5V13a.5.5 0 0 1-.5.5H6.206z"/><path d="M12 23.5C5.659 23.5.5 18.341.5 12S5.659.5 12 .5 23.5 5.659 23.5 12 18.341 23.5 12 23.5zm0-22C6.21 1.5 1.5 6.21 1.5 12S6.21 22.5 12 22.5 22.5 17.79 22.5 12 17.79 1.5 12 1.5z"/></symbol><symbol id="facebook" viewBox="0 0 30 30"><path d="M27 30h-6.5c-.3 0-.5-.2-.5-.5v-11c0-.3.2-.5.5-.5h3.2l1.1-3h-4.3c-.3 0-.5-.2-.5-.5V11c0-1.7 1.3-3 3-3h2V5h-2.5C19.3 5 17 7.3 17 10.5v4c0 .3-.2.5-.5.5H13v3h3.5c.3 0 .5.2.5.5v11c0 .3-.2.5-.5.5H3c-1.7 0-3-1.3-3-3V3c0-1.7 1.3-3 3-3h24c1.7 0 3 1.3 3 3v24c0 1.7-1.3 3-3 3zm-6-1h6c1.1 0 2-.9 2-2V3c0-1.1-.9-2-2-2H3c-1.1 0-2 .9-2 2v24c0 1.1.9 2 2 2h13V19h-3.5c-.3 0-.5-.2-.5-.5v-4c0-.3.2-.5.5-.5H16v-3.5C16 6.8 18.8 4 22.5 4h3c.3 0 .5.2.5.5v4c0 .3-.2.5-.5.5H23c-1.1 0-2 .9-2 2v3h4.5c.2 0 .3.1.4.2.1.1.1.3.1.5l-1.5 4c-.1.2-.3.3-.5.3h-3v10z"/></symbol><symbol id="hand-heart-ou" viewBox="0 0 30 30"><title>hand-heart-ou</title><path d="M29.65 22.61h-2V21.79h1.38a.35.35 0 0 0 0-.69h-1.32v-.82h.85a.35.35 0 1 0 0-.69h-.83l.13-5.36a1.56 1.56 0 0 0-2.73-1.07 2.27 2.27 0 0 0-.63 1l-1 2.83-1.68-1.68-.42.56 2 2a.36.36 0 0 0 .29.1c.1 0 .2-.1.24-.24L25 14.34c.53-1.21 1.56-1.07 1.9-.73a.75.75 0 0 1 .24.63l-.2 8.2a6.49 6.49 0 0 1-2 4.39 5.07 5.07 0 0 1-7.12.2l-17-17A1.05 1.05 0 0 1 1 8.65a1 1 0 0 1 1.42 0l7.08 7.03-.5.46a.34.34 0 1 0 .49.49l.6-.6v-.07h.05a.33.33 0 0 0 0-.49L1.69 6.89a1 1 0 0 1 0-1.42 1 1 0 0 1 1.42 0l8.3 8.3-.44.44a.34.34 0 1 0 .49.49l.66-.66a.33.33 0 0 0 0-.49l-9.7-9.83a1 1 0 0 1 0-1.42 1 1 0 0 1 1.42 0l9.52 9.52-.5.5a.34.34 0 1 0 .49.49l.63-.63a.33.33 0 0 0 0-.07h.06a.33.33 0 0 0 0-.49L5.59 3a1 1 0 0 1 0-1.42 1 1 0 0 1 1.42 0l6.79 6.79.3-.67L7.55 1a1.69 1.69 0 0 0-2.39 0 1.69 1.69 0 0 0-.49 1l-.29-.29A1.69 1.69 0 0 0 2 1.82a1.69 1.69 0 0 0 0 2.39l.29.29a1.69 1.69 0 0 0-1 .49 1.69 1.69 0 0 0 0 2.39l.29.29a1.69 1.69 0 0 0-1 .49 1.69 1.69 0 0 0 0 2.39l14.1 14.21-1.11 1.11a.34.34 0 1 0 .49.49l1.11-1.11.58.58L14 27.58a.34.34 0 1 0 .49.49l1.75-1.75.58.58-1.37 1.37a.34.34 0 1 0 .49.49l1.37-1.37.14.14a5.24 5.24 0 0 0 .47.42l-.89.89a.34.34 0 1 0 .49.49l.89-.89a.34.34 0 0 0 .08-.15 5.85 5.85 0 0 0 7.09-1 7.42 7.42 0 0 0 1.65-2.52h1.9a.35.35 0 0 0 0-.69h-1.72a7 7 0 0 0 .18-.82h2.06a.35.35 0 0 0 0-.69z"/><path d="M19.51 16a.34.34 0 0 0 .49 0l4.14-4.48a2.72 2.72 0 0 0 .78-1.94v-.11a3 3 0 0 0-2.3-3 2.54 2.54 0 0 0-2.08.6 3.2 3.2 0 0 0-.79 1 3.19 3.19 0 0 0-.79-1 2.54 2.54 0 0 0-2.08-.6 3 3 0 0 0-2.3 3v.08a2.71 2.71 0 0 0 .78 1.94zm-4.23-6.5A2.28 2.28 0 0 1 17 7.15h.3a1.9 1.9 0 0 1 1.22.47 2.6 2.6 0 0 1 .9 1.94.35.35 0 0 0 .69 0A2.6 2.6 0 0 1 21 7.59a1.84 1.84 0 0 1 1.52-.44 2.28 2.28 0 0 1 1.72 2.32v.08a2 2 0 0 1-.6 1.47l-3.89 4.21L15.87 11a2 2 0 0 1-.6-1.47z"/></symbol><symbol id="hand" viewBox="0 0 24 24"><path d="M16.313 23.134H3.384c-.827 0-1.5-.673-1.5-1.5a2.82 2.82 0 0 1 2.409-2.778l4.03-.576L.78 10.737c-.428-.428-.665-.998-.665-1.604S.352 7.958.781 7.53a2.255 2.255 0 0 1 1.173-.624 2.27 2.27 0 0 1 .077-3.126 2.27 2.27 0 0 1 3.127-.076 2.269 2.269 0 0 1 3.83-1.174l.171.171a2.269 2.269 0 0 1 3.829-1.171l8.982 8.982c1.234 1.234 1.914 2.875 1.914 4.621s-.68 3.387-1.914 4.621l-1.768 1.768a5.465 5.465 0 0 1-3.889 1.612zM2.384 7.866a1.27 1.27 0 0 0-.896 2.164l8.25 8.25a.5.5 0 0 1-.282.849l-5.02.717a1.815 1.815 0 0 0-1.551 1.788.5.5 0 0 0 .5.5h12.929a4.47 4.47 0 0 0 3.182-1.318l1.768-1.768a5.5 5.5 0 0 0 1.621-3.914 5.5 5.5 0 0 0-1.621-3.914l-8.982-8.982c-.494-.494-1.299-.494-1.793 0s-.494 1.299 0 1.793l4.75 4.75a.498.498 0 0 1 0 .708.5.5 0 0 1-.707 0l-6.25-6.25c-.479-.479-1.313-.479-1.793 0a1.27 1.27 0 0 0 0 1.793l6.25 6.25a.498.498 0 0 1 0 .708.5.5 0 0 1-.707 0l-7.5-7.5c-.494-.494-1.299-.494-1.793 0s-.494 1.299 0 1.793l7.5 7.5a.498.498 0 0 1 0 .708.5.5 0 0 1-.707 0l-6.25-6.25a1.258 1.258 0 0 0-.898-.375z"/></symbol><symbol id="hands-monkey" viewBox="0 0 24 24"><title>hands-monkey</title><path d="M23.28 9.76A2.49 2.49 0 0 0 22 9.13l.21-.13a2.19 2.19 0 0 0 0-3.24 2.48 2.48 0 0 0-1.27-.63 2.19 2.19 0 0 0-.08-3.16 2.57 2.57 0 0 0-3.37-.08 2.24 2.24 0 0 0-.67-1.22 2.56 2.56 0 0 0-3.46 0L11.9 2a.5.5 0 0 0-.15-.33 5.81 5.81 0 0 0-4-1.55 5.81 5.81 0 0 0-4 1.55l-.54.51a3.13 3.13 0 0 0-1.6-.44A1.57 1.57 0 0 0 0 3.3v13.06a5.35 5.35 0 0 0 1.74 3.93l1.91 1.79a7.24 7.24 0 0 0 5 1.93 7.24 7.24 0 0 0 5-1.93L23.28 13a2.19 2.19 0 0 0 0-3.24zm-1.84-3.32a1.25 1.25 0 0 1 0 1.81l-3.23 3a1.5 1.5 0 0 0-.46-1L16.56 9.2l2.95-2.76a1.43 1.43 0 0 1 1.93 0zm-3.28-3.79a1.43 1.43 0 0 1 1.93 0 1.23 1.23 0 0 1 0 1.81l-4.29 4-1.93-1.79zm-4-1.26a1.43 1.43 0 0 1 1.93 0 1.22 1.22 0 0 1 0 1.81L13.11 6l-1.93-1.85zM3.85 3.11l.7-.65a4.75 4.75 0 0 1 6.41 0 .57.57 0 0 0 .35.14l-.89.83-.25-.23a.58.58 0 0 0-.79 0 .5.5 0 0 0 0 .74L17 11a.5.5 0 0 1 0 .74.57.57 0 0 1-.39.15.58.58 0 0 1-.39-.15L8.58 4.68a.58.58 0 0 0-.79 0 .5.5 0 0 0 0 .74l7.59 7.11 1 .94a.5.5 0 0 1 0 .74.57.57 0 0 1-.39.15.57.57 0 0 1-.39-.15L7 6.16a.58.58 0 0 0-.79 0 .5.5 0 0 0 0 .74l7.6 7.1a.5.5 0 0 1 0 .74.57.57 0 0 1-.39.15.57.57 0 0 1-.39-.15l-7.6-7.1a.58.58 0 0 0-.79 0 .5.5 0 0 0 0 .74l7.18 6.73a.5.5 0 0 1 0 .74.58.58 0 0 1-.79 0L3.85 9.11a4.06 4.06 0 0 1 0-6zm18.67 9.18l-9.68 9.07A6.14 6.14 0 0 1 8.62 23a6.14 6.14 0 0 1-4.22-1.65l-1.9-1.78a4.37 4.37 0 0 1-1.42-3.21V3.3a.52.52 0 0 1 .54-.5 2 2 0 0 1 .88.2 5 5 0 0 0 .56 6.84l7.17 6.72a1.76 1.76 0 0 0 2.37 0 1.54 1.54 0 0 0 .4-.66 1.78 1.78 0 0 0 .39 0 1.72 1.72 0 0 0 1.18-.46 1.54 1.54 0 0 0 .32-.46 1.72 1.72 0 0 0 1.08.38 1.72 1.72 0 0 0 1.18-.46 1.51 1.51 0 0 0 .49-1.11 1.43 1.43 0 0 0-.1-.53l3-2.83a1.43 1.43 0 0 1 1.93 0 1.23 1.23 0 0 1 .05 1.86z"/></symbol><symbol id="hands" viewBox="0 0 30 30"><title>hands</title><path d="M12.28 12.85a.47.47 0 0 0 .61-.06l-.46-.45a.24.24 0 0 0-.35 0 .24.24 0 0 0-.05.13.48.48 0 0 0 .09.26z"/><path d="M28.19 12.29a3 3 0 0 0-1.7-.8l.4-.4a2.72 2.72 0 0 0 0-3.9 3 3 0 0 0-1.7-.8l.1-.1a2.72 2.72 0 1 0-3.8-3.9l-.1.1a3.15 3.15 0 0 0-.9-1.7 2.73 2.73 0 0 0-1.9-.8 2.34 2.34 0 0 0-1.8.8l-4.93 4.93c0 .5.21.61.61.5H18a.73.73 0 0 1-.61.6l-3.23.45a.69.69 0 0 0-.65.43.72.72 0 0 0 .14.83l5.25 5.25a.33.33 0 0 1 .1.22.51.51 0 0 1-.1.3.44.44 0 0 1-.25.1.46.46 0 0 1-.3-.11l-4-3.84a.75.75 0 1 0-1 1.07l4.84 4.64a.33.33 0 0 1 .1.25.33.33 0 0 1-.1.25.38.38 0 0 1-.55 0L12.8 12a.75.75 0 1 0-1.06 1l4 3.95a.33.33 0 0 1 .1.25c0 .16 0 .18-.1.25a.38.38 0 0 1-.27.12.38.38 0 0 1-.26-.11l-3.91-4.04a.76.76 0 0 0-1.06 0 .74.74 0 0 0 0 1l3 3.11a.38.38 0 0 1 .1.3.44.44 0 0 1-.1.25.38.38 0 0 1-.55 0L6.9 12.61c-.23-.23-.25-.38-.07-.84A3.78 3.78 0 0 0 7 10.59L6.19 5a3.45 3.45 0 0 0-3.4-3A1.79 1.79 0 0 0 1 3.79v16.7a6.57 6.57 0 0 0 2 4.8l2.2 2.3a9.8 9.8 0 0 0 6.3 2.4 8 8 0 0 0 5.8-2.4l10.9-11.4a2.72 2.72 0 0 0-.01-3.9zM13.66 5.22l3.73-3.73a1.66 1.66 0 0 1 1.2-.5 2.11 2.11 0 0 1 1.3.5 1.85 1.85 0 0 1 .5 1.2 1.9 1.9 0 0 1-.5 1.3L18.6 5.34a.93.93 0 0 0-.46-.13zm3.92 2.59A1.73 1.73 0 0 0 19 6.39l3.17-3.3a1.69 1.69 0 0 1 2.4 0 1.75 1.75 0 0 1 0 2.5l-6.14 6.27-3.65-3.67zm9.91 7.68L16.49 27a7.11 7.11 0 0 1-5.1 2.1 8.16 8.16 0 0 1-5.5-2.1l-2.2-2.3A6.07 6.07 0 0 1 2 20.49V3.79a.74.74 0 0 1 .8-.8 2.46 2.46 0 0 1 2.4 2.1l.8 5.85a3.5 3.5 0 0 1-.12.56 1.61 1.61 0 0 0 .33 1.83l5.74 5.49a1.37 1.37 0 0 0 2 0 1.43 1.43 0 0 0 .39-.86l.2.21a1.38 1.38 0 0 0 1 .41 1.31 1.31 0 0 0 .92-.36 1.12 1.12 0 0 0 .45-.89 1.37 1.37 0 0 0 2 0 1.34 1.34 0 0 0 0-1.91 1.47 1.47 0 0 0 .9-.45A1.56 1.56 0 0 0 20 14a1.32 1.32 0 0 0-.4-1l-.49-.49 4.63-4.69a1.66 1.66 0 0 1 1.2-.5 1.35 1.35 0 0 1 1.2.5 1.75 1.75 0 0 1 0 2.5l-8.1 7.8a.49.49 0 0 0 .7.7L25 13a1.79 1.79 0 0 1 1.3-.5 1.85 1.85 0 0 1 1.2.5 1.75 1.75 0 0 1-.01 2.49z"/><path d="M15.19 15.19a.48.48 0 0 0-.14.4l.45.45a.48.48 0 0 0 .39-.14l.1-.1-.71-.69zM16.47 13.88l.72.69.36-.37-.72-.69-.36.37zM13.64 10.82a.24.24 0 0 0 0 .35l.42.4.34-.36-.4-.39a.24.24 0 0 0-.36 0z"/></symbol><symbol id="heartflag"><path d="M26.137 1.019C25.991.977 22.519 0 19 0c-1.794 0-2.82.259-3.812.51-.998.251-1.94.49-3.688.49C8.014 1 4.162.026 4.124.016c-.019-.005-.037.001-.056-.002C4.045.011 4.024 0 4 0c-.02 0-.036.009-.055.012a.432.432 0 0 0-.204.071c-.015.01-.034.011-.048.022-.008.007-.011.016-.018.023a.48.48 0 0 0-.092.113c-.011.018-.026.033-.035.052A.499.499 0 0 0 3.5.5v29a.5.5 0 0 0 1 0V16.132c1.252.282 4.192.868 7 .868 1.872 0 2.92-.265 3.934-.521C16.409 16.232 17.33 16 19 16c3.311 0 6.719 1.915 6.753 1.935a.493.493 0 0 0 .498-.004.5.5 0 0 0 .249-.432v-16a.5.5 0 0 0-.363-.48zM25.5 16.68C24.256 16.081 21.645 15 19 15c-1.794 0-2.819.259-3.812.511-.998.252-1.94.49-3.688.49-2.851 0-5.945-.652-7-.895V1.133c1.257.282 4.198.867 7 .867 1.872 0 2.92-.265 3.934-.521C16.409 1.232 17.33 1 19 1c2.736 0 5.524.639 6.5.885V16.68zM15 4.646C14.463 3.969 13.519 3 12.5 3c-1.767 0-3 1.233-3 3 0 .564.161 1.687.609 2.312l3.984 4.979.058.088c.151.233.401.621.851.621.451 0 .698-.388.845-.62l4.043-5.068.017-.021c.432-.603.593-1.726.593-2.291 0-1.767-1.233-3-3-3-1.019 0-1.963.969-2.5 1.646zM19.5 6c0 .533-.171 1.367-.4 1.7l-4.006 5.009-.09.135-.004.006-.008-.013-4.085-5.128C10.674 7.385 10.5 6.539 10.5 6c0-1.233.767-2 2-2 .615 0 1.512.891 2.08 1.771.184.285.656.285.84 0C15.988 4.892 16.885 4 17.5 4c1.233 0 2 .768 2 2z"/></symbol><symbol id="heartshop" viewBox="0 0 30 30"><path d="M23 12c-.3 0-.5-.2-.5-.5v-7c0-1.8-2.3-3.5-4-3.5H11C9.2 1 7.5 2.7 7.5 4.5v7c0 .3-.2.5-.5.5s-.5-.2-.5-.5v-7C6.5 2.1 8.6 0 11 0h7.5c2.3 0 5 2.1 5 4.5v7c0 .3-.2.5-.5.5z"/><path d="M20 8H10c-.3 0-.5-.2-.5-.5s.2-.5.5-.5h10c.3 0 .5.2.5.5s-.2.5-.5.5z"/><path d="M29 30H1c-.3 0-.5-.2-.5-.5v-22c0-.3.2-.5.5-.5h4c.3 0 .5.2.5.5S5.3 8 5 8H1.5v21h27V8H25c-.3 0-.5-.2-.5-.5s.2-.5.5-.5h4c.3 0 .5.2.5.5v22c0 .3-.2.5-.5.5z"/><g><path d="M15 24c-.1 0-.2 0-.3-.1-.2-.2-.2-.5 0-.7l4-4.5c.4-.4.9-1.2.9-1.7 0-.9-.5-1.9-1.5-2-.5 0-1.5.1-2.1.7-.3.2-.4.5-.4.8 0 .3-.2.5-.5.5s-.5-.2-.5-.5c0-.6.3-1.2.7-1.6.8-.7 2-1 2.8-.9 1.4.1 2.5 1.4 2.5 3 0 .9-.7 1.9-1.1 2.4l-4 4.5c-.2 0-.4.1-.5.1z"/></g><g><path d="M15 24c-.1 0-.3-.1-.4-.2l-4-4.5c-.4-.4-1.1-1.4-1.1-2.3 0-1.5.9-3 2.5-3 .9 0 2.1.2 2.9 1 .4.4.6.9.6 1.5 0 .3-.2.5-.5.5s-.5-.2-.5-.5-.1-.6-.3-.8c-.6-.5-1.5-.7-2.2-.7-.9 0-1.5 1-1.5 2 0 .5.4 1.2.9 1.6l4 4.5c.2.2.2.5 0 .7-.2.2-.3.2-.4.2z"/></g></symbol><symbol id="menu" viewBox="0 0 30 30"><title>menu</title><path d="M19.64 6.47H4.36a1 1 0 0 1 0-2h15.28a1 1 0 0 1 0 2zM23.64 22.52H4.36a1 1 0 0 1 0-2h19.28a1 1 0 0 1 0 2zM25.64 14.49H4.36a1 1 0 0 1 0-2h21.28a1 1 0 0 1 0 2z"/></symbol><symbol id="ou-hand" viewBox="0 0 30 30"><title>ou-hand</title><path d="M27.9 26.05l.13-.26.6.12a.52.52 0 0 0 .58-.29A.5.5 0 0 0 29 25l-.55-.38v-.19h.69a.52.52 0 0 0 .51-.39.49.49 0 0 0-.28-.57l-.66-.31v-.14l.73-.11a.51.51 0 0 0 .44-.46.51.51 0 0 0-.37-.48l-.77-.23v-.31l.67-.29a.5.5 0 0 0 .29-.59.52.52 0 0 0-.55-.38l-.73.06.59-.41a.5.5 0 0 0 .19-.59.52.52 0 0 0-.55-.32l-.68.07.55-.39a.5.5 0 0 0 .18-.6.52.52 0 0 0-.55-.32l-.67.08.54-.39a.5.5 0 0 0 .17-.6.52.52 0 0 0-.55-.31l-.65.08.52-.38a.5.5 0 0 0 .17-.6.52.52 0 0 0-.55-.31l-.65.09.52-.38a.5.5 0 0 0 .1-.71.53.53 0 0 0-.73-.1l-.52.38-1.3-3a1.3 1.3 0 0 0-1.39-.76 1.27 1.27 0 0 0-1.11 1.11L22 13.33 8.83.57A1.89 1.89 0 0 0 7 .06a2.1 2.1 0 0 0-1.43 1.31L5 .81a1.87 1.87 0 0 0-2.67 0 1.71 1.71 0 0 0-.49 1.8 2.16 2.16 0 0 0-1.29.6A1.85 1.85 0 0 0 .72 6l.78.76a2.07 2.07 0 0 0-.78.46 1.59 1.59 0 0 0 0 2.28l7.23 7.3a48.15 48.15 0 0 1 3.41 3.81L11 21s-.41.38-.21.79a.54.54 0 0 0 .68.28l.85-.34-.52.74a.5.5 0 0 0 0 .6.53.53 0 0 0 .6.16l.89-.35-.54.77a.49.49 0 0 0 0 .6.53.53 0 0 0 .6.15l.91-.36-.54.8a.49.49 0 0 0 0 .61.53.53 0 0 0 .61.13l.91-.39-.51.83a.49.49 0 0 0 .07.61.53.53 0 0 0 .62.1l.89-.45-.44.89a.5.5 0 0 0 .14.61.53.53 0 0 0 .64 0l.81-.58-.3.91a.5.5 0 0 0 .23.59.53.53 0 0 0 .64-.08l.59-.59-.17.81a.51.51 0 0 0 .31.57.53.53 0 0 0 .63-.18l.61-.63h.08v.88a.51.51 0 0 0 .45.48.52.52 0 0 0 .57-.34l.3-.62h.18l.22.66a.52.52 0 0 0 .55.35.51.51 0 0 0 .46-.46l.05-.51h.19l.23.44a.52.52 0 0 0 .59.26.5.5 0 0 0 .39-.5v-.38h.18l.2.31a.53.53 0 0 0 .62.21.49.49 0 0 0 .34-.54l-.05-.37a4.89 4.89 0 0 0 .46-.26l.3.27a.53.53 0 0 0 .67 0 .5.5 0 0 0 .16-.63l-.22-.43.29-.31.47.22a.53.53 0 0 0 .64-.16.5.5 0 0 0 0-.64l-.4-.43M8.1 1.29L22 14.78a.53.53 0 0 0 .54.12.51.51 0 0 0 .35-.42l.29-2.48a.25.25 0 0 1 .23-.22.25.25 0 0 1 .28.15l4 9a6.26 6.26 0 0 1-.44 4.24 4.52 4.52 0 0 1-2.66 2.57c-3.26 1-5.94-.67-7.61-2.3-.91-.89-2.27-2.51-3.7-4.22-1.64-2-3.33-4-4.55-5.14l-7.28-7.3a.6.6 0 0 1-.18-.42.61.61 0 0 1 .19-.44c.29-.28.87-.37 1.08-.17l7.52 7.31a.53.53 0 0 0 .74 0 .5.5 0 0 0 0-.72L1.46 5.27c-.18-.18-.73-.8-.18-1.34a1.12 1.12 0 0 1 1.55 0l9.38 9a.53.53 0 0 0 .74 0 .5.5 0 0 0 0-.72L3 2.62a.71.71 0 0 1 0-1.08.83.83 0 0 1 1.2 0l9.87 9.59a.53.53 0 0 0 .74 0 .5.5 0 0 0 0-.72L6.79 2.56a.77.77 0 0 1-.25-.8A1.08 1.08 0 0 1 7.28 1a.83.83 0 0 1 .82.29z"/></symbol><symbol id="search" viewBox="0 0 30 30"><title>search</title><path d="M25.75 24.82L19.91 19a9.54 9.54 0 1 0-1.41 1.41l5.85 5.84a1 1 0 0 0 1.41-1.41zM5 13a7.52 7.52 0 1 1 7.52 7.52A7.53 7.53 0 0 1 5 13z"/></symbol><symbol id="shoe" viewBox="0 0 30 30"><path d="M23.507 15.813c-2.78-.101-5.985-.672-6.999-1.248-.809-.46-1.47-1.328-1.995-2.331l.672-.269a.5.5 0 0 0 .278-.65.498.498 0 0 0-.649-.279l-.726.29c-.16-.381-.303-.768-.429-1.151l.526-.21a.5.5 0 0 0-.371-.929l-.441.177a16.575 16.575 0 0 1-.379-1.787.502.502 0 0 0-.605-.414c-5.628 1.268-9.814.99-9.854.989a.486.486 0 0 0-.37.128.496.496 0 0 0-.165.356c-.022.776-.436 2.436-.874 4.192C.572 14.896 0 17.191 0 18.5v4a.5.5 0 0 0 .5.5h29a.5.5 0 0 0 .5-.5c0-3.619-2.852-6.556-6.493-6.687zM1 18.5c0-1.187.582-3.521 1.096-5.581.391-1.572.739-2.965.86-3.898 1.236.038 4.673.031 9.142-.921.07.36.184.882.349 1.483l-1.133.453a.5.5 0 1 0 .371.929l1.053-.421c.124.375.266.762.428 1.151l-.851.341a.5.5 0 0 0 .37.929l.902-.361c.594 1.164 1.383 2.236 2.427 2.83 1.304.741 4.815 1.283 7.458 1.379A5.72 5.72 0 0 1 27.781 19H1v-.5zM1 22v-2h27.424c.3.613.493 1.287.555 2H1zM6 9c-1.654 0-3 1.346-3 3s1.346 3 3 3 3-1.346 3-3-1.346-3-3-3zm0 5c-1.103 0-2-.897-2-2s.897-2 2-2 2 .897 2 2-.897 2-2 2z"/></symbol><symbol id="shop" viewBox="-239 289 24 24"><path d="M-219.5 292h-3.5v-.5c0-1.4-1.1-2.5-2.5-2.5h-3c-1.4 0-2.5 1.1-2.5 2.5v.5h-3.5c-.3 0-.5.2-.5.5v19c0 .8.7 1.5 1.5 1.5h13c.8 0 1.5-.7 1.5-1.5v-19c0-.3-.2-.5-.5-.5zm-10.5-.5c0-.8.7-1.5 1.5-1.5h3c.8 0 1.5.7 1.5 1.5v.5h-6v-.5zm10 20c0 .3-.2.5-.5.5h-13c-.3 0-.5-.2-.5-.5V309h14v2.5zm0-3.5h-14v-15h3v3.5c0 .3.2.5.5.5s.5-.2.5-.5V293h6v3.5c0 .3.2.5.5.5s.5-.2.5-.5V293h3v15z"/></symbol><symbol id="signup" viewBox="0 0 24 24"><path d="M6.5 8h9a.5.5 0 0 0 0-1h-9a.5.5 0 0 0 0 1zM3.5 18c-.827 0-1.5.673-1.5 1.5S2.673 21 3.5 21 5 20.327 5 19.5 4.327 18 3.5 18zm0 2a.5.5 0 1 1 0-1 .5.5 0 0 1 0 1zM3.5 14c-.827 0-1.5.673-1.5 1.5S2.673 17 3.5 17 5 16.327 5 15.5 4.327 14 3.5 14zm0 2a.5.5 0 1 1 0-1 .5.5 0 0 1 0 1zM3.5 10c-.827 0-1.5.673-1.5 1.5S2.673 13 3.5 13 5 12.327 5 11.5 4.327 10 3.5 10zm0 2a.5.5 0 1 1 0-1 .5.5 0 0 1 0 1zM3.5 6C2.673 6 2 6.673 2 7.5S2.673 9 3.5 9 5 8.327 5 7.5 4.327 6 3.5 6zm0 2a.5.5 0 1 1 0-1 .5.5 0 0 1 0 1z"/><path d="M24 7.62a2.624 2.624 0 0 0-4.475-1.852l-1.379 1.379-.146.146V3.5c0-.827-.673-1.5-1.5-1.5h-2.592c-.207-.581-.757-1-1.408-1h-1.774C10.373.39 9.718 0 9 0S7.627.39 7.274 1H5.5c-.651 0-1.201.419-1.408 1H1.5C.673 2 0 2.673 0 3.5v19c0 .827.673 1.5 1.5 1.5h15c.827 0 1.5-.673 1.5-1.5v-7.794l3.85-3.85.003-.002.002-.003 1.377-1.377A2.6 2.6 0 0 0 24 7.62zm-10.235 9.907a4.021 4.021 0 0 0-.913-1.381 4.012 4.012 0 0 0-1.379-.911L18.5 8.208l2.292 2.292-7.027 7.027zm-2.893-1.45c.323.094.801.302 1.274.776.474.474.683.953.777 1.275l-2.736.685.685-2.736zM5.5 2h2.092c.211 0 .4-.134.471-.333A1 1 0 0 1 9 1a1 1 0 0 1 .937.667.5.5 0 0 0 .471.333H12.5a.5.5 0 0 1 .5.5V3H5v-.5a.5.5 0 0 1 .5-.5zM17 22.5a.5.5 0 0 1-.5.5h-15a.5.5 0 0 1-.5-.5v-19a.5.5 0 0 1 .5-.5H4v.5a.5.5 0 0 0 .5.5h9a.5.5 0 0 0 .5-.5V3h2.5a.5.5 0 0 1 .5.5v4.793l-2.77 2.77A.489.489 0 0 0 14 11H6.5a.5.5 0 0 0 0 1h6.793l-3 3H6.5a.5.5 0 0 0 0 1h3.36l-.75 3H6.5a.5.5 0 0 0 0 1h3a.452.452 0 0 0 .121-.016l4-1c.012-.003.02-.014.032-.018a.503.503 0 0 0 .169-.095c.009-.008.023-.009.032-.018L17 15.706V22.5zm5.525-13.733l-1.026 1.026-2.292-2.292 1.026-1.027a1.623 1.623 0 0 1 2.292 2.293z"/></symbol><symbol id="twitter" viewBox="0 0 30 30"><path d="M10.1 26.5c-3.1 0-6.3-.8-9.3-2.6-.2-.1-.3-.4-.2-.6 0-.2.2-.3.5-.3 2.5.3 5.6-.4 7.6-1.7-2.2-.5-4.2-2-5.1-4.1-.1-.2-.1-.4.1-.5.1-.1.3-.2.5-.1.3.1.6.2 1 .3-1.7-1-3.6-2.9-3.6-5.8 0-.2.1-.4.3-.5.2-.1.4-.1.5.1.4.3.9.6 1.3.8-.4-.6-.7-1.2-.9-2-.3-1.2-.6-3.4.8-5.8.1-.1.2-.2.4-.2s.3.1.4.2C6.7 6.5 9.6 9.5 14.5 10c0-1.7.7-3.4 1.9-4.6 2.3-2.3 5.8-2.5 8.4-.6.5-.1 1.9-.5 2.9-1.2.2-.1.4-.1.6 0 .2.1.2.3.2.5-.2.6-.5 1.3-.8 1.9.4-.2.9-.4 1.1-.5.2-.1.4-.1.6.1.2.2.2.4.1.6-.3.4-.5.8-.7 1.2-.4.7-.8 1.4-1.2 1.8.4 5.1-2.8 10.9-7.9 14.3-3 2-6.3 3-9.6 3zM3.2 24c5.4 2.3 11.1 1.9 15.9-1.3 4.9-3.3 8-8.9 7.4-13.7 0-.2.1-.4.2-.5.4-.2.7-.9 1.1-1.5-.6.2-1.3.4-1.8.4-.2 0-.4-.2-.5-.4 0-.2.1-.5.3-.6.4-.2.9-.8 1.2-1.5-1.1.5-2.2.7-2.2.7-.1 0-.3 0-.4-.1-2.2-1.7-5.3-1.6-7.3.4-1.1 1.1-1.7 2.8-1.6 4.4 0 .1 0 .3-.1.4-.1.3-.3.3-.4.3-5.3-.3-8.6-3.3-10.9-6.1-.8 1.8-.6 3.4-.4 4.2.3 1.1.9 2.1 1.5 2.5.2.1.3.3.2.5 0 .2-.2.4-.4.4-.8.2-1.7-.1-2.5-.5.6 3 3.8 4.4 4.5 4.5.2 0 .4.2.4.4.1.2 0 .4-.2.5-.6.5-1.4.5-2.3.4 1.1 1.6 3 2.7 5 2.7.2 0 .4.1.5.3s0 .4-.1.5c-1.6 1.5-4.4 2.5-7.1 2.7z"/></symbol></svg>