<svg id="Layer_1" data-name="Layer 1" xmlns="http://www.w3.org/2000/svg" viewBox="0 0 1317.06 180.9">
  <title>b2bw-oswald</title>
  <path d="M0,2H43.59Q68.44,2,81.84,12t13.4,34.22q0,33.35-25.5,37.27,30.51,5.89,30.51,43.59.21,25.29-12.21,38.36T51,178.5H0ZM43.15,74.1q13.95,0,19.07-6.21t5.12-20.16q0-13.51-6.65-18.42t-22.12-4.9H32V74.1Zm1.31,81.73q14.17,0,19.62-6.76t5.45-22.23q0-15.91-6-23.21t-20.16-7.3H32v59.5ZM126,166.19q-11.77-14.71-11.77-43V56.88q0-28.11,11.77-42.5T165.21,0q27.24,0,39,14.38T216,56.88v66.26q0,28.11-11.88,42.94t-38.9,14.82Q137.74,180.9,126,166.19Zm53.62-15.8q3.7-6.75,3.71-19.62V49.47q0-12.86-3.6-19.4t-14.49-6.54q-10.9,0-14.6,6.65T146.9,49.47v81.3q0,12.86,3.71,19.62t14.6,6.76Q175.88,157.14,179.59,150.39ZM235.38,2h42.5q27.9,0,41.63,10.57t13.73,36.29q0,16.79-4.9,27.35T311.45,91.54l24.63,87H303.82L282.68,97.64H267.42V178.5h-32Zm42.28,75.63q13.73,0,19.51-6.32t5.78-20.71q0-13.95-5.12-20.27T279.41,24h-12V77.59ZM353.29,2h22.45l42.94,100.69V2h26.59V178.5H423.91L380.75,73V178.5H353.29ZM513.7,157.14,557.29,89.8l4.14-6.32a171.29,171.29,0,0,0,11-19.72,43.18,43.18,0,0,0,3.6-18q0-20.48-14.38-20.49-10,0-13.95,7.63T543.78,53.4v7.41H514.36V53q0-24.85,11.12-38.9T560.78,0Q583,0,594.45,12T605.9,46a61.08,61.08,0,0,1-2.83,19,80,80,0,0,1-6.76,15.47q-3.92,6.76-12.21,19.18l-36.18,54.71h53.62V178.5H513.7ZM670.84,2h43.59q24.85,0,38.25,10t13.4,34.22q0,33.35-25.5,37.27,30.51,5.89,30.51,43.59.21,25.29-12.21,38.36T721.85,178.5h-51ZM714,74.1q13.95,0,19.07-6.21t5.12-20.16q0-13.51-6.65-18.42t-22.12-4.9h-6.54V74.1Zm1.31,81.73q14.17,0,19.62-6.76t5.45-22.23q0-15.91-6-23.21t-20.16-7.3H702.88v59.5ZM787.88,2H862V24.63H819.92V75.41H853V97.86H819.92v58.63h42.5v22H787.88Zm131.2,0h26.81l14.6,114.42L978.8,2.4h21.79l19,114L1033.95,2h26.59L1035.91,178.5h-26.15L990.14,60.15,970.74,178.5H943.93Zm158.23,0h31.82V178.5h-31.82ZM1132,2h32V156.49H1207v22h-75Zm87.39,0H1261q21.36,0,33.56,5.78a34,34,0,0,1,17.33,17.65q5.12,11.88,5.12,31.49v64.3q0,20.06-5.12,32.47a35.74,35.74,0,0,1-17.11,18.63q-12,6.21-32.47,6.21h-42.94Zm42.06,154.09q10.68,0,15.47-3.71a16.6,16.6,0,0,0,6.1-10.35q1.31-6.65,1.31-19.72V54.71q0-11.77-1.53-17.87a14,14,0,0,0-6.43-9q-4.9-2.94-15.37-2.94h-9.59V156.05Z"/>
</svg>
