<svg id="logo" xmlns="http://www.w3.org/2000/svg" viewBox="0 0 1200 200">
  <defs>
    <style>
      .cls-1 {
        fill: #ffb770;
      }
    </style>
  </defs>
  <title>desktop</title>
  <g>
    <path class="cls-1" d="M16.45,27.14,23.37,27Q29,27,31.55,29.11a7.2,7.2,0,0,1,2.63,5.66,8.64,8.64,0,0,1-.86,4,5.51,5.51,0,0,1-2.43,2.54A8.33,8.33,0,0,1,34,44a9.07,9.07,0,0,1,1.21,5q.08,8.78-13.52,9l-4.87.06Zm7.42,12.48a6.49,6.49,0,0,0,3.55-.85,3.63,3.63,0,0,0,1.13-3.22,3.17,3.17,0,0,0-1.34-2.88,7.06,7.06,0,0,0-3.65-.79l-1.2,0,.1,7.75Zm0,13.5a5.52,5.52,0,0,0,4.26-1.51,4.75,4.75,0,0,0,1.29-3.28q0-2.68-1.45-3.55a7.54,7.54,0,0,0-4-.86H22.71l.08,9.22Z"/>
    <path class="cls-1" d="M39.21,49a15.32,15.32,0,0,1-1.54-8.92,15.15,15.15,0,0,1,2.92-8.47,7.3,7.3,0,0,1,6.66-2.72,7.41,7.41,0,0,1,6.15,3.76A14.83,14.83,0,0,1,55,41.47,15.13,15.13,0,0,1,52,50a7.38,7.38,0,0,1-6.69,2.78A7.28,7.28,0,0,1,39.21,49Zm9-2.53a29.1,29.1,0,0,0,.91-11.14q-.36-2.23-2.2-2.39t-2.51,2a23.59,23.59,0,0,0-1,5.15,29.21,29.21,0,0,0,0,6q.32,2.27,2.16,2.43t2.63-2Z"/>
    <path class="cls-1" d="M58.1,29.48l5.76-.55,0,3.75a9.85,9.85,0,0,1,3-2.89,9,9,0,0,1,4.65-1.15l.06,5.63a19.58,19.58,0,0,0-3.88.55,8.33,8.33,0,0,0-3.83,1.83l.16,15.2-5.76.55Z"/>
    <path class="cls-1" d="M74.83,31.22l5.76-.55,0,3a16.08,16.08,0,0,1,3.47-2.49,7.19,7.19,0,0,1,3.15-.94,4.5,4.5,0,0,1,3.57,1.55A6.33,6.33,0,0,1,92.23,36l.14,17.47L86.61,54l-.17-15.68q0-3.08-2.14-3.07a3.55,3.55,0,0,0-1.53.43q-.84.42-2.13,1.16l.18,16.67-5.75.62Z"/>
    <path class="cls-1" d="M110.59,52.93l-.29-26.22-6.3.06L104.4,22l18.12-.19-.43,4.77-5.76.06.28,25.81Z"/>
    <path class="cls-1" d="M121.38,47.16a15.31,15.31,0,0,1-1.31-8.93,15.15,15.15,0,0,1,3-8.52,7.3,7.3,0,0,1,6.7-2.61,7.41,7.41,0,0,1,6.1,3.86,14.83,14.83,0,0,1,1.43,8.86,15.13,15.13,0,0,1-3.13,8.47A7.38,7.38,0,0,1,127.46,51,7.28,7.28,0,0,1,121.38,47.16Zm9.07-2.38a24.68,24.68,0,0,0,1.07-5.49,24.66,24.66,0,0,0,0-5.59q-.39-2.25-2.15-2.47t-2.55,1.89a23.75,23.75,0,0,0-1,5.16,29.22,29.22,0,0,0-.1,6.05,2.42,2.42,0,0,0,2.09,2.45Q129.64,47,130.45,44.78Z"/>
    <path class="cls-1" d="M151.21,23.56l6.93-.12q5.6-.05,8.18,2.09a7.22,7.22,0,0,1,2.61,5.73,8.64,8.64,0,0,1-.86,4,5.49,5.49,0,0,1-2.43,2.54,8.33,8.33,0,0,1,3.16,2.71,9.06,9.06,0,0,1,1.21,5q.09,8.64-13.53,8.78l-4.87.06ZM158.63,36a6.49,6.49,0,0,0,3.55-.85,3.63,3.63,0,0,0,1.14-3.24A3.17,3.17,0,0,0,162,29.06a7.06,7.06,0,0,0-3.65-.79l-1.2,0,.07,7.74Zm0,13.5a5.51,5.51,0,0,0,4.26-1.48,4.75,4.75,0,0,0,1.28-3.21q0-2.68-1.45-3.55a7.52,7.52,0,0,0-4-.86h-1.31l.09,9.09Z"/>
    <path class="cls-1" d="M175.8,53.24A15.47,15.47,0,0,1,172.27,45a15.31,15.31,0,0,1,.82-9A7.35,7.35,0,0,1,179,31.75,7,7,0,0,1,185.57,34,15.83,15.83,0,0,1,189,42.37a.73.73,0,0,1-.1.48.49.49,0,0,0,0,.22L178,44.84a16,16,0,0,0,1.46,4.71q1,2.07,2.45,1.84a2.55,2.55,0,0,0,2.1-2.2l.46-2.1,4.61,1a9.82,9.82,0,0,1-2,5,7.82,7.82,0,0,1-11,.56h0l-.33-.33ZM183,40.57a9.59,9.59,0,0,0-1.21-3.75,2.17,2.17,0,0,0-2.26-1.1,1.88,1.88,0,0,0-1.23.9,5.16,5.16,0,0,0-.76,2.07,8.49,8.49,0,0,0,0,2.82Z"/>
    <path class="cls-1" d="M210,57,198.59,27.9,205,26.54l6.33,17.67.4-18.56,4.82-1.08L223,42.44l.73-18.84,5.44-1.19L227.79,54l-5.89,1-6.4-18-.1,19.19Z"/>
    <path class="cls-1" d="M232.67,57.56l-.18-22.91,5.76-.55L238.49,57Z"/>
    <path class="cls-1" d="M243.17,56.35,242.86,26l5.76-.79L249,55.81Z"/>
    <path class="cls-1" d="M252.37,45.24q-.06-6.3,1.55-9.11A5.54,5.54,0,0,1,259,33.22a4.75,4.75,0,0,1,2.84.94,5.68,5.68,0,0,1,2,2.39l-.11-10,5.81-.72.34,30.59-4.36.55L264,53.74a4.75,4.75,0,0,1-1.49,2.48,5.19,5.19,0,0,1-3.45,1Q252.48,57.35,252.37,45.24Zm10.89,6.49A10.13,10.13,0,0,0,264,47l-.11-7.72A3.37,3.37,0,0,0,261,37.48a2.22,2.22,0,0,0-2,1,5.78,5.78,0,0,0-.79,2.53,36.73,36.73,0,0,0-.14,4.16,39.45,39.45,0,0,0,.22,4.28,6.22,6.22,0,0,0,.86,2.67,2.18,2.18,0,0,0,2,1,2.31,2.31,0,0,0,2.05-1.4Z"/>
    <path class="cls-1" d="M275.93,53.81l.75-21.87,5.78.46-2.67,21.71ZM274.2,63l.49-6.24,5.78.46-.47,6Z"/>
    <circle class="cls-1" cx="235.96" cy="22.46" r="4.48" transform="translate(164.09 248.33) rotate(-77.79)"/>
  </g>
  <path id="LF" class="cls-1" d="M71.28,143.42c1.17-1.84,1.18-3.94,1.06-6C72.26,136,71,135.35,70,134.61c-1.43-1-1.39-1.8.22-2.49,2-.84,4-1.55,6-2.3.18-.07.41,0,.62,0a53.79,53.79,0,0,0,13.84-1.26c.45-.1.92-.08,1.38-.17,3.77-.71,7.68-.91,11.09-2.92,3-1.75,5.9-3.61,8.91-5.3,2.46-1.38,2.15-.93,1.71-3.42a17.57,17.57,0,0,0,2.45-1.8c.89-.92.69-1.83-.33-2.58a5.13,5.13,0,0,0-3.73-.81c-1.69.17-3.4.22-5.11.32,2-1.3,4.1-2.34,6.12-3.44.95-.51,1.07-1.29.24-2a3.12,3.12,0,0,0-1.69-.74,13.69,13.69,0,0,0-6.56,1c-1.25.55-2.56,1-3.84,1.44l-.18-.44c.54-.25,1.09-.48,1.61-.77a47.17,47.17,0,0,0,4.56-2.6,2.17,2.17,0,0,0,1-2.63c-.55-1.19-1.76-1.32-3-1.28a2.13,2.13,0,0,0-.76.13c-1.28.54-2.57,1-3.8,1.69a2.48,2.48,0,0,1-2.09.34,3.14,3.14,0,0,0-2.45.34c-1.84.84-3.53,2-5.74,2a20,20,0,0,0-4.39.6c-.91.19-1.9.49-1.61,1.85,0,.19-.14.43-.23.67-4-2.29-5-2.15-6,.81-1.62-1.79-3.17-2.09-5.51-1.33a11.45,11.45,0,0,1-3.2.42,22.74,22.74,0,0,1-2.64-.27c-2.65-.24-4.35,1.21-4.37,3.86a17.2,17.2,0,0,1-1.13,5.5,44.23,44.23,0,0,0-1.84,7.17c-.33,2-.45,4.09,1.11,6a14.12,14.12,0,0,1,1.84,4.07,18.24,18.24,0,0,0,.75,2.54c1.35,2.31,2.76,4.59,4.28,6.79A2.11,2.11,0,0,0,71.28,143.42Zm42.46-26.64C113.72,116.72,113.76,116.65,113.73,116.78Zm-8.37,2.13c-.84.18-1.62,0-2.25.1s-6.54,1.36-8.25,1.57a5.19,5.19,0,0,1-2.28,0s5.48-1.14,6.08-1.09,9-2.08,9.94-2.39,1.16.38,1.16.38c.15.72-3.54,1.28-4.38,1.45Z"/>
  <path id="RF" class="cls-1" d="M230,154.51c-2.74-4.36-5.18-8.77-7.56-13.29a10.78,10.78,0,0,1-.69-3,5.42,5.42,0,0,1,.73-3.09c1-5,2.39-9.61,5.59-14.11a2.76,2.76,0,0,1,1.81-.72,5,5,0,0,1,2.25,2.17c1.7,2.79.07,6.33-2,8.57a39,39,0,0,0,5.34.91c9.94.79,20-2.77,29.6.27l2.43.91,1.21.46a5.3,5.3,0,0,0,1,.52c.38.15.79.27,1.22.39.86.26,1.87.4,2.75.74,1.27.34,2.5,1.92,1.72,2.66-1.06,1.25-3.08.42-5,.43l-1.14,0-.86,0c-.86,0-1.59.32-2.23.31l-3.8-.11c-2.35.25-4.62-.84-6.94.12a39.07,39.07,0,0,0,8.71.36c1.28.06,2.87.16,4.28.26l1.56.11c2.29,0,4.61-.7,7.15-.12,1.77.56,3,3.15,1.16,4.12a7.1,7.1,0,0,1-3.51,1.09,20,20,0,0,0-3.7.51,36.22,36.22,0,0,0,4.13,1.26c1.33.42,2.34,1,2.18,2a2.26,2.26,0,0,1-1.27,2.18,6.05,6.05,0,0,1-3,.31c-2.45-.12-4.73-1-7.28-1,2.25,1.85,6.37.68,8.07,3.79a2.07,2.07,0,0,1-.84,2.53c-2.84,1.2-5.35-.66-8.16-.74-.78,0-1.82,1-2.57.44-4.3-1.65-8.69.53-12.73-1.63-.26,0-.23-.77-.48-1.29a12.15,12.15,0,0,1-1.8,1.53,2.35,2.35,0,0,1-3.82-1.45c-2.4,3.77-6.92.32-10.32,2A4.64,4.64,0,0,1,230,154.51Z"/>
  <path id="RH" class="cls-1" d="M504.61,87.82c-.39-.05-.79.41-1.18.14-.2-.13-.05-.4-.06-.6a8.09,8.09,0,0,1,.92-2.33,6.78,6.78,0,0,0,.46-.91c.31-1.12.57-4.73,2-4.59,1.1-2.64,5.59-1,7.81-1.14s4.36-1.77,6.49-1.2c1,.26,1.47,1.07,2.5,1.31a1.71,1.71,0,0,0-.19-.78,1.29,1.29,0,0,0,.88-.16c0-1.45,12.12-1,13.65-1s5.66.22,3,3.06c-.41.43-5.16,1.25-5.08.64-.06.12,0,1.11-.4.42-.59.65-1.38,1.57-2.64,1s-.53-1.39-1.26-2.28c0,0,.73,3-.22,2.53-.56-.29-.13-2.56-1.24-3.12,0,.26.84,3.18.6,3.19-.53,0-.9-2.83-1.05-2.88-.69-.27.11,3.05,0,3.29-.46.72-3,1.13-4.09,1a1.31,1.31,0,0,1-.39-.11c-1-.17-.88-1.43-1.21-2.15a1.86,1.86,0,0,0-.18.57c0,.22-.07.46-.1.69-.12.53-1.14,3.89-.41,3.83.13,0,.27-.13.4-.19a.86.86,0,0,1,.4-.14.37.37,0,0,1,.23.13,1,1,0,0,1,.19.45c0,.22,2.14,8.15.18,8.7-.46.13-.08-.76-.11-.9-.73,0-1.36,3.27-2.12,2.48a17,17,0,0,0-1.22,3.65c-.54.33-.21,1.29-.94,2-1.13,1-4.36.55-5.93.48-2.9-.14-8.3.53-8.61-2.87-.33.44.07,1.89-1,1.39-.13,1.38-7.12-.49-8.06-.91-.78-.35-3.82-2.71-4.18-3.6s.64-6.91.6-7c.05.17-.33-1.17-.2-.93-2.17-3.89,5.41-11,8.89-9.21,1.73.87.15-1.74,1.73.38.69.94.39,1.8,0,2.9a4.79,4.79,0,0,1-.28.49,8.5,8.5,0,0,1-.56.79c-.27.22-.41.61-.74.48s.07-.66.34-.8.5-.37.39-.52a.24.24,0,0,0-.4,0,1.79,1.79,0,0,0-.39.61,2.41,2.41,0,0,0-.15,1.39c.2-.07.14-.53.4-.39a.94.94,0,0,1,.46.93c-.07.33-.53.39-.47.66.19.8-.28,1.84-.54,1.85-1.92-.08-3.63-1.55-5.27-2.75,1,1.8,3.36,2.08,4.34,3.87a9.11,9.11,0,0,1,.7,3.24c0,.19.09.39.15.58s.11.38.18.58l.15.73c.1.48.2,1,.3,1.42.23,1,.1,2.84.59,3.72.06-.13.6-1.59.67-1.64-1.34.1-.35-2.27.12-2.47a4.26,4.26,0,0,1-.6-.48,5.19,5.19,0,0,1-.57-.63c-.15-.2-.3-.43-.45-.68a7.64,7.64,0,0,1-.42-.8,2.05,2.05,0,0,1,.75-2.9.29.29,0,0,1,.33.07.66.66,0,0,0,.26.33c.13.07.26.2.4.2s.27-.33.27-.53c-.06-.6-1.12-.8-.65-1.46s1.06-.32,1.59-.32c.13,0,.2-.13.27-.26a.26.26,0,0,0-.2.07c.07-.2.13-.4.42-.36m26.81,6.07a1.21,1.21,0,0,0-.46-.61c-.35,1.23.61,2,.2,2.79,0,0-.82.46-1.07.55A3.11,3.11,0,0,1,526,93.1a3.29,3.29,0,0,1,3.08-2.56,3.1,3.1,0,0,1,1,.36c.23.07,1.75.53,1.64.52.07,0,.14.8.44.89.24-.16.87-1.84,1.57-1.28a.41.41,0,0,1-.17.51c-.14-.22,2.27-1.15,2.5-.56.06.15-.13.25,0,.53s.29-.66.16-.57c.79-.52,7.7,1.94,8,2.86.65,2.15-1.62,2.26-3.22,2.45-1.93.22-6.41,1-8.26,0-.77-.39-.81-2-1.09-2.16ZM533,91.38s.56.72,0,0Zm-2.15,7.91a13.88,13.88,0,0,0-.25-1.51c0-1.24,4.3.29,4.23.54,0-.08-1,.25-.65.4-.2-.1.84.09.79.12,0-1.12,2.12-.11,2.61.44,2,2.23-1.58,3.05-3.35,3.29a53.17,53.17,0,0,1-8.95.56c-1.58,0-3.08-.2-3.49-.14-1.34.2-.68-3.29.07-3,0,0-.05,1.23.23,1,.58-.4.17-1.81.58-2.51.69-1.16,1.46-.92,2.49-1.08s4.93,0,5,.7l-.41.23c.62,0,1,1,1.16,1.18M533.62,86c-.1.58-1.19-1.78-1.12-2.13.35-1.63,2.2-1.35,3.54-1.45,2.07-.14,4.52-1.11,6.52-1,5,.34-.43,4.1-2.81,4.79-1.24.36-3.2,1.27-4.48,1.19-1.7-.11-1.08-.25-1.65-1.41Zm-3.53-2.09c.79.15,1.33,3.39,1.83,4.37a6,6,0,0,0,0-1.72s.73.49.7.48a9.42,9.42,0,0,1-1.59-3c-.07-.72,3.3,3.71,1.86,3.84-.14,0-.13-.47-.26-.52.61,1.15-.41.27-.46-.21.67,0-1.61,2.35-2.23,2.54-1.87.61-3.58,0-4-2.29a2.46,2.46,0,0,1,1.26-2.79c.54-.41,2.64-1.42,2.86-.73Zm-28.36-5.81c1.46-.67,2.8-3.07,3-4.6.23-2.12-.89-2.54-2.93-1.43-.81.44-2.61,3.74-2.69,3.76-.32-.69-.43.89-.23,1.1C498.1,77.15,500.23,78.79,501.73,78.11Zm-1.14,8.63c-.81-.19-.2.12,0,0Z"/>
  <path id="LH" class="cls-1" d="M368.8,58.25c-.26.1-.38-.07-.49-.25a.26.26,0,0,0,.21,0c-.1-.11-.19-.23-.32-.19-.51.13-1.17.51-1.62.07-.61-.53.36-1,.28-1.58,0-.19-.12-.45-.39-.45s-.23.19-.33.3a.66.66,0,0,0-.17.39.29.29,0,0,1-.3.15,2.05,2.05,0,0,1-1.43-2.64,7.63,7.63,0,0,1,.21-.87c.09-.27.18-.54.27-.77a5.19,5.19,0,0,1,.39-.75,4.26,4.26,0,0,1,.47-.61c-.51-.07-2-2.14-.72-2.37-.08,0-1-1.31-1-1.42-.27,1,.29,2.69.32,3.75,0,.47,0,1,.05,1.45,0,.26,0,.5,0,.75s0,.4,0,.6,0,.4,0,.6a9.28,9.28,0,0,1,.09,3.31c-.52,2-2.71,2.81-3.28,4.8,1.31-1.57,2.61-3.4,4.46-3.94.25-.06,1,.84,1,1.67,0,.27.47.22.61.53a.94.94,0,0,1-.22,1c-.23.19-.27-.27-.48-.29a2.43,2.43,0,0,0,.48,1.31,1.79,1.79,0,0,0,.52.5c.16.09.3.07.38-.11s-.2-.3-.5-.41-.91-.32-.53-.7c.29-.21.51.14.83.29a8.5,8.5,0,0,1,.74.63,4.79,4.79,0,0,1,.39.41c.67,1,1.17,1.75.72,2.81-1,2.44-.12-.48-1.59.79-3,2.54-12-2.48-10.85-6.78-.07.27,0-1.12,0-.95,0-.13-2.42-5.73-2.28-6.68s2.51-4,3.18-4.51,7.15-4.13,7.6-2.83c.87-.74.83.78,1.26,1.12-.51-3.37,4.89-4,7.67-4.85,1.51-.46,4.53-1.71,5.87-1,.87.48.78,1.48,1.38,1.68a17.1,17.1,0,0,0,2.06,3.25c.54-.95,2,2.11,2.66,1.89,0-.13-.59-.91-.12-.9,2,.06,1.92,8.26,1.93,8.48a1,1,0,0,1-.07.48.37.37,0,0,1-.2.18.86.86,0,0,1-.42,0c-.14,0-.3-.12-.43-.09-.72.12,1.08,3.14,1.32,3.62.08.22.17.45.26.65a1.86,1.86,0,0,0,.33.5c.15-.79-.24-2,.65-2.39a1.31,1.31,0,0,1,.35-.2c1.06-.44,3.58-.65,4.2-.06.2.19.24,3.61.83,3.18.13-.09-.2-3,.33-3.05.24,0,.12,3,.19,3.24.94-.82,0-2.91.45-3.32.8-.72.83,2.41.83,2.4.49-1-.36-1.72.69-2.52s2.08-.13,2.81.35c.19-.76.4.2.49.31-.23-.57,4.59-.93,5.09-.6,3.27,2.11-.68,3.29-2.18,3.69s-13.09,3.77-13.48,2.36a1.29,1.29,0,0,0-.89.06,1.71,1.71,0,0,0,0-.8c-1,.48-1.25,1.39-2.12,1.87-1.93,1.07-4.53.06-6.59.4s-6.15,3.07-7.85.77c-1.37.49-2.49-3-3.07-4a6.78,6.78,0,0,0-.67-.77,8.09,8.09,0,0,1-1.45-2c0-.19-.24-.42-.08-.59.32-.36.82,0,1.18-.15m25.27-15c1.56-1.43,6.1-1.75,8-2,1.6-.21,3.83-.64,3.72,1.6,0,1-6.16,5-7.05,4.71.15,0-.21-.92-.3-.52s.14.35.12.51c-.07.62-2.64.3-2.55.06a.41.41,0,0,1,.28.45c-.54.72-1.56-.76-1.83-.86-.27.16-.13.94-.21,1,.1,0-1.26.77-1.47.9,0,0-.59.54-.86.59a3.3,3.3,0,0,1-3.6-1.74,3.11,3.11,0,0,1,3.26-4.61c.26,0,1.19.29,1.17.27.61.69-.15,1.64.48,2.75a1.21,1.21,0,0,0,.3-.71C393.6,45.7,393.24,44.1,393.89,43.5Zm1.41,4.65C395.68,47.35,395.3,48.16,395.3,48.16Zm-4-7.37c-.07.27-.24,1.24-.84,1.43l.45.12c.1.73-3.77,1.8-4.69,1.88s-1.73.51-2.68-.45c-.57-.58-.51-2-1.17-2.29-.32-.12,0,1.08,0,1.06-.67.43-2.15-2.8-.8-2.93.41,0,1.83-.54,3.35-1a53.17,53.17,0,0,1,8.8-1.62c1.78-.18,5.43-.26,4.05,2.38-.34.66-2.19,2.16-2.43,1.06.06,0-.9.45-.73.3-.28.23.77.3.73.23.12.23-3.7,2.75-4,1.54A11.83,11.83,0,0,0,391.3,41m7.18,10.42c1.21-.39,3.34,0,4.62.07,2.47.1,8.62,2.45,3.88,4-1.9.61-4.51.26-6.56.62-1.33.24-3.05,1-3.78-.55-.16-.32.33-2.88.57-2.33.29-1.27-.35-1.26,1.29-1.79Zm-7.15,4.63a2.46,2.46,0,0,1-1.89-2.4c-.17-2.3,1.35-3.32,3.3-3.18.65,0,3.44,1.82,2.78,1.94-.07-.48.72-1.58.4-.31.11-.08,0-.55.12-.57,1.43-.22-.77,4.9-.88,4.17a9.5,9.5,0,0,1,.83-3.26s-.56.64-.56.64a6,6,0,0,0-.44-1.66c-.25,1.08,0,4.35-.72,4.68,0,.71-2.31.23-2.93-.05ZM365.65,70.44c-.14.25.35,1.76.49,1,.09,0,2.63,2.76,3.52,3,2.24.59,3.21-.08,2.49-2.09-.52-1.45-2.39-3.45-4-3.75S364.89,70.41,365.65,70.44ZM365,60.51c-.23-.07-.74.38,0,0Z"/>
  <path id="LF-2" data-name="LF" class="cls-1" d="M720.76,89.08c1.3-1.75,1.46-3.85,1.48-5.92,0-1.41-1.17-2.15-2.16-3-1.35-1.14-1.26-1.9.39-2.47,2-.7,4.08-1.27,6.13-1.87.18-.05.41.06.62.08a53.79,53.79,0,0,0,13.89-.29c.46-.07.93,0,1.39-.07,3.81-.44,7.72-.37,11.27-2.14,3.1-1.54,6.13-3.19,9.26-4.67,2.55-1.21,2.21-.78,1.95-3.29a17.57,17.57,0,0,0,2.57-1.63c.95-.85.82-1.78-.15-2.59a5.13,5.13,0,0,0-3.67-1.07c-1.7.05-3.41,0-5.12,0,2.13-1.15,4.25-2.05,6.35-3,1-.44,1.16-1.21.38-2a3.12,3.12,0,0,0-1.63-.86,13.69,13.69,0,0,0-6.62.54c-1.28.46-2.62.78-3.93,1.17l-.15-.45c.55-.22,1.12-.4,1.66-.65a47.17,47.17,0,0,0,4.73-2.27,2.17,2.17,0,0,0,1.21-2.55c-.46-1.22-1.67-1.44-2.85-1.49a2.13,2.13,0,0,0-.76.07c-1.31.45-2.64.86-3.91,1.42a2.48,2.48,0,0,1-2.11.2,3.14,3.14,0,0,0-2.47.16c-1.89.71-3.66,1.79-5.86,1.58a20,20,0,0,0-4.42.29c-.93.13-1.93.36-1.74,1.73,0,.2-.17.42-.28.65-3.85-2.56-4.87-2.49-6,.39-1.49-1.9-3-2.31-5.41-1.71a11.45,11.45,0,0,1-3.22.2,22.74,22.74,0,0,1-2.62-.45c-2.63-.43-4.43.9-4.63,3.54a17.2,17.2,0,0,1-1.51,5.41,44.23,44.23,0,0,0-2.33,7c-.47,2-.74,4,.69,6a14.12,14.12,0,0,1,1.56,4.18,18.24,18.24,0,0,0,.57,2.59c1.18,2.4,2.43,4.77,3.79,7.07A2.11,2.11,0,0,0,720.76,89.08ZM765,65.47C765,65.4,765,65.34,765,65.47ZM756.47,67c-.85.12-1.61-.15-2.25-.05s-6.62.9-8.34,1a5.19,5.19,0,0,1-2.27-.19s5.55-.76,6.14-.66,9.15-1.44,10.08-1.69,1.13.46,1.13.46c.1.73-3.62,1-4.48,1.14Z"/>
  <path id="RF-2" data-name="RF" class="cls-1" d="M932.3,104.78c-2.43-4.54-4.55-9.11-6.61-13.79a10.78,10.78,0,0,1-.48-3,5.42,5.42,0,0,1,.94-3c1.34-5,3.06-9.42,6.56-13.69a2.76,2.76,0,0,1,1.85-.59A5,5,0,0,1,936.65,73c1.5,2.91-.37,6.32-2.63,8.4a39,39,0,0,0,5.26,1.29c9.86,1.48,20.15-1.36,29.51,2.34l2.36,1.08,1.18.55a5.3,5.3,0,0,0,1,.59c.37.17.77.33,1.19.47.84.32,1.84.53,2.69.93,1.24.43,2.36,2.09,1.53,2.77-1.14,1.17-3.1.2-5,.09l-1.14-.06-.85-.1c-.86-.08-1.61.2-2.25.15l-3.78-.37c-2.36.08-4.55-1.16-6.93-.37a39.07,39.07,0,0,0,8.66,1c1.28.15,2.85.36,4.25.56l1.55.22c2.29.16,4.65-.38,7.14.38,1.73.68,2.75,3.35.87,4.19a7.1,7.1,0,0,1-3.58.84,20,20,0,0,0-3.72.25,36.22,36.22,0,0,0,4,1.55c1.3.51,2.27,1.13,2,2.12a2.26,2.26,0,0,1-1.42,2.09,6.05,6.05,0,0,1-3,.1c-2.44-.29-4.65-1.28-7.19-1.53,2.11,2,6.3,1.12,7.79,4.35a2.07,2.07,0,0,1-1,2.47c-2.92,1-5.29-1-8.08-1.3-.77-.07-1.88.84-2.59.26-4.17-1.95-8.71-.08-12.58-2.51-.26,0-.18-.79-.38-1.32a12.15,12.15,0,0,1-1.9,1.41,2.35,2.35,0,0,1-3.71-1.71c-2.66,3.59-6.92-.16-10.44,1.28A4.64,4.64,0,0,1,932.3,104.78Z"/>
  <path id="LH-2" data-name="LH" class="cls-1" d="M1054.51,11.15c-.27.08-.37-.1-.47-.28a.26.26,0,0,0,.21,0c-.09-.12-.18-.24-.31-.21-.52.1-1.2.42-1.62,0-.57-.57.43-1,.39-1.56,0-.19-.08-.46-.36-.47s-.24.18-.36.28a.66.66,0,0,0-.2.37.29.29,0,0,1-.31.13,2.05,2.05,0,0,1-1.24-2.73,7.63,7.63,0,0,1,.27-.86c.11-.26.22-.53.32-.75a5.19,5.19,0,0,1,.45-.72,4.26,4.26,0,0,1,.51-.58c-.5-.11-1.89-2.28-.55-2.41-.08,0-.86-1.38-.95-1.49-.33,1,.1,2.7.06,3.76,0,.47,0,1,0,1.45,0,.26,0,.5,0,.75s-.06.4-.07.6,0,.4,0,.6a9.28,9.28,0,0,1-.14,3.31c-.66,1.94-2.9,2.62-3.61,4.56,1.41-1.47,2.84-3.21,4.72-3.62.25,0,.91.91.85,1.74,0,.27.45.25.57.57a.94.94,0,0,1-.29,1c-.24.18-.25-.29-.46-.32a2.43,2.43,0,0,0,.39,1.34,1.79,1.79,0,0,0,.49.54c.16.1.3.09.39-.09s-.18-.31-.47-.45-.89-.39-.48-.74c.3-.19.5.18.81.34a8.5,8.5,0,0,1,.69.68,4.79,4.79,0,0,1,.36.43c.6,1,1,1.82.52,2.85-1.19,2.36-.08-.48-1.64.67-3.12,2.33-11.81-3.32-10.35-7.52-.09.26.06-1.12,0-.95,0-.13-2-5.88-1.81-6.82s2.79-3.79,3.49-4.27S1051.67-3.36,1052-2c.92-.67.77.83,1.18,1.2-.28-3.39,5.16-3.67,8-4.3,1.54-.36,4.64-1.39,5.92-.55.83.54.67,1.53,1.26,1.77a17.1,17.1,0,0,0,1.83,3.38c.6-.91,1.8,2.24,2.52,2.07,0-.13-.53-1-.06-.91,2,.2,1.34,8.37,1.33,8.6a1,1,0,0,1-.11.48.37.37,0,0,1-.21.17.86.86,0,0,1-.42-.07c-.14,0-.3-.14-.42-.12-.73.07.86,3.21,1.07,3.7.07.23.14.46.21.67a1.86,1.86,0,0,0,.29.53c.2-.78-.1-2,.82-2.34a1.31,1.31,0,0,1,.37-.18c1.08-.37,3.62-.4,4.2.24.19.21,0,3.62.61,3.23.14-.08,0-3,.54-3,.24,0-.09,3,0,3.25,1-.75.19-2.9.68-3.29.84-.67.66,2.46.66,2.45.56-1-.24-1.74.86-2.47s2.08,0,2.78.54c.25-.74.38.23.47.35-.19-.58,4.64-.6,5.12-.25,3.11,2.33-.91,3.24-2.43,3.53s-13.33,2.85-13.62,1.41a1.29,1.29,0,0,0-.89,0,1.71,1.71,0,0,0,0-.8c-1,.41-1.34,1.3-2.25,1.72-2,.93-4.52-.25-6.6-.06s-6.35,2.63-7.89.22c-1.4.39-2.28-3.12-2.78-4.17a6.78,6.78,0,0,0-.61-.82,8.09,8.09,0,0,1-1.31-2.14c0-.19-.21-.43,0-.6.34-.33.82.05,1.19-.06m26.26-13.17c1.65-1.32,6.2-1.32,8.14-1.43,1.61-.09,3.86-.37,3.6,1.86-.12,1-6.49,4.57-7.36,4.2.14.06-.15-.93-.26-.54s.11.36.08.52c-.12.61-2.65.12-2.55-.12a.41.41,0,0,1,.25.47c-.59.68-1.5-.87-1.77-1-.28.14-.19.93-.28,1,.1,0-1.31.68-1.53.79a3.36,3.36,0,0,1-.9.53,3.3,3.3,0,0,1-3.47-2,3.11,3.11,0,0,1,3.57-4.37c.26,0,1.16.38,1.15.35.56.73-.26,1.62.29,2.78a1.21,1.21,0,0,0,.35-.68C1080.12.36,1079.88-1.26,1080.57-1.81Zm1.08,4.74C1082.08,2.15,1081.66,2.94,1081.66,2.93ZM1078.2-4.7c-.09.26-.33,1.22-.93,1.36l.44.16c0,.73-3.89,1.54-4.81,1.55s-1.77.39-2.64-.63c-.53-.62-.36-2.07-1-2.37-.31-.14-.07,1.08,0,1.06-.7.38-2-2.94-.6-3,.41,0,1.87-.41,3.41-.74a53.17,53.17,0,0,1,8.89-1c1.79-.06,5.44.12,3.87,2.66-.39.63-2.34,2-2.5.89.06,0-.93.38-.75.25-.29.21.75.36.71.28.11.23-3.89,2.49-4.08,1.26a11.83,11.83,0,0,0,0-1.52m6.44,10.9c1.23-.3,3.33.25,4.6.4,2.46.27,8.43,3,3.59,4.23-1.94.48-4.52-.06-6.59.16-1.34.14-3.11.74-3.74-.81-.13-.33.53-2.85.73-2.29.37-1.24-.26-1.28,1.42-1.69Zm-7.45,4.12A2.46,2.46,0,0,1,1075.43,8c0-2.3,1.58-3.22,3.52-2.94.64.09,3.3,2.05,2.63,2.13,0-.48.83-1.53.42-.28.11-.07,0-.55.16-.56,1.44-.12-1.11,4.83-1.17,4.1A9.5,9.5,0,0,1,1082,7.29s-.6.6-.6.6a6,6,0,0,0-.32-1.69c-.33,1.06-.3,4.34-1,4.62-.08.7-2.32.07-2.92-.26Zm-26.63,12.53c-.16.24.22,1.78.42,1,.09,0,2.43,2.94,3.3,3.23,2.2.74,3.21.14,2.63-1.91-.41-1.48-2.14-3.61-3.71-4S1049.76,23,1050.52,23.09Zm0-10c-.23-.09-.77.33,0,0Z"/>
</svg>
