<?xml version="1.0" encoding="utf-8"?>
<!-- Generator: Adobe Illustrator 21.0.2, SVG Export Plug-In . SVG Version: 6.00 Build 0)  -->
<!DOCTYPE svg PUBLIC "-//W3C//DTD SVG 1.1//EN" "http://www.w3.org/Graphics/SVG/1.1/DTD/svg11.dtd">
<svg version="1.1" id="Layer_1" xmlns="http://www.w3.org/2000/svg" xmlns:xlink="http://www.w3.org/1999/xlink" x="0px" y="0px"
	 viewBox="0 0 1650.5 591.1" style="enable-background:new 0 0 1650.5 591.1;" xml:space="preserve">
<style type="text/css">
	.st0{fill:#FFFFFF;}
</style>
<path id="LF" class="st0" d="M98.2,237.2c5.5-6.5,6.7-14.7,7.3-22.7c0.4-5.5-4-8.7-7.7-12.2c-5-4.8-4.4-7.7,2.2-9.5
	c8.1-2.2,16.3-3.9,24.4-5.7c0.7-0.2,1.6,0.3,2.4,0.5c17.9,3.2,36.2,4,54.4,2.4c1.8-0.1,3.6,0.2,5.4,0.1c15-0.8,30.3,0.5,44.6-5.4
	c12.5-5.2,24.8-10.9,37.4-15.9c10.3-4.1,8.8-2.5,8.5-12.4c4-2.1,7.6-3.4,10.5-5.7c3.9-3.1,3.7-6.7,0.1-10.2c-3.9-3.8-8.7-4.9-14-5.1
	c-6.7-0.2-13.3-0.9-20-1.4c8.6-3.9,17.1-6.9,25.6-10.1c3.9-1.5,4.8-4.4,2-7.6c-1.6-1.9-3.8-3.2-6.1-3.8c-8.6-1.8-17.3-2.1-26,0.4
	c-5.1,1.5-10.4,2.4-15.7,3.6l-0.5-1.8c2.2-0.7,4.5-1.3,6.6-2.1c6.4-2.4,13-4.5,19.1-7.7c3.3-1.7,6.7-5.2,5.4-9.6
	c-1.5-4.9-6.1-6.1-10.8-6.6c-1-0.2-2-0.1-3,0.1c-5.2,1.4-10.5,2.7-15.6,4.5c-2.9,1-5.4,1.7-8.3,0.2c-3.1-1.6-6.3-1.1-9.7,0
	c-7.6,2.3-14.8,6.1-23.3,4.7c-5.6-0.9-11.6-0.4-17.3,0c-3.6,0.2-7.6,0.9-7.2,6.3c0.1,0.8-0.8,1.6-1.3,2.5C153,96,149,96,143.7,107
	c-5.3-7.8-11.2-9.8-20.7-8.1c-4.1,0.7-8.4,0.4-12.6-0.1c-3.4-0.4-6.7-1.7-10.1-2.4c-10.2-2.3-17.5,2.4-19,12.6
	c-1.1,7.5-3.9,14-7.3,20.7c-4.4,8.6-8,17.6-10.9,26.8c-2.4,7.7-3.9,15.6,1.1,23.7c3,4.8,3.7,11.1,5,16.8c0.8,3.4,0.3,7.1,1.6,10.2
	c4,9.7,8.3,19.2,13,28.6C86.9,242,93.7,242.5,98.2,237.2z M277,156.4C277,156.1,277.2,155.9,277,156.4z M243.4,160.2
	c-3.4,0.2-6.3-1-8.8-0.8s-26.1,1.8-32.8,1.7s-8.8-1.3-8.8-1.3s21.9-1.5,24.2-1s36.1-3.3,39.8-4s4.3,2.1,4.3,2.1
	C261.4,159.8,246.8,160,243.4,160.2L243.4,160.2z"/>
<path id="RF" class="st0" d="M573.3,506.3c-8.3-18.4-15.4-36.8-22.3-55.6c-0.9-3.9-1.3-7.9-1.1-11.9c0.3-4.2,1.9-8.3,4.5-11.6
	c6.5-19,14.4-36,29.2-51.8c2.2-1.5,4.8-2.1,7.4-1.8c3.5,2.3,6.2,5.7,7.6,9.6c5.1,11.7-3.1,24.6-12.4,32.2c6.6,3.1,13.5,4.2,20.2,6.4
	c38.2,8.3,79.1-0.1,114.7,16.8c3,1.6,6,3.2,8.9,4.8l4.5,2.4c1.2,1,2.4,1.9,3.8,2.6c1.4,0.8,2.9,1.5,4.5,2.1c3.2,1.5,7,2.5,10.3,4.3
	c4.7,2,8.7,8.8,5.2,11.2c-4.8,4.3-12.2,0-19.5-1l-4.5-0.5l-3.3-0.6c-3.3-0.5-6.3,0.4-8.8,0l-14.7-2.4c-9.2-0.3-17.5-5.7-27-3.2
	c10.7,2.8,22.4,5.7,33.6,6c5,0.9,11.1,2.1,16.5,3.3l6,1.2c8.9,1.2,18.3-0.3,27.8,3.3c6.6,3.1,9.9,13.8,2.3,16.6
	c-4.4,2.3-9.3,2.5-14.2,2.4s-9.9-0.7-14.6,0c4.1,2.7,10.4,4.8,15.3,7.1s8.6,5,7.4,8.8c-0.7,4.4-3,6.8-6.1,7.8
	c-3.1,1-7.2,0.6-11.7-0.4c-9.4-1.8-17.8-6.2-27.7-7.8c7.7,8.4,24.3,6,29.3,19c0.5,3.1-0.3,8.1-4.6,9.4c-11.7,3.1-20.4-5.4-31.2-7.2
	c-3-0.5-7.6,2.8-10.2,0.3c-15.8-8.7-34-2.6-48.5-13.1c-1-0.2-0.5-3.1-1.2-5.3c-2.4,1.9-5,3.6-7.8,5c-5.8,3.9-14.2-0.6-14.1-7.6
	c-11.3,13.3-27-2.4-41.1,2.3C580.6,509.8,576.4,508.7,573.3,506.3z"/>
<path id="RH" class="st0" d="M1305,415.5c-1.5-0.4-3.3,1.2-4.7-0.1c-0.7-0.6,0-1.6,0.1-2.4c1.1-3.1,2.8-6,4.8-8.6
	c0.8-1,1.6-2.1,2.3-3.3c1.8-4.2,4.7-18.1,10.3-16.7c5.7-9.7,22.2-0.8,30.9-0.3c8.1,0.4,17.8-4.6,25.8-1.2c3.6,1.5,5.1,5,9,6.4
	c0.1-1,0-2.1-0.3-3.1c1.5,0.5,1.9,0.2,3.5-0.1c0.9-5.6,47.5,2.6,53.5,3.5s21.8,3.9,10,13.4c-1.8,1.5-20.7,2.1-20.1-0.2
	c-0.3,0.4-0.7,4.3-1.8,1.4c-2.7,2.2-6.2,5.4-10.8,2.5c-4.3-2.7-1.3-5.7-3.7-9.5c0,0,1.2,12.2-2.2,9.7c-2-1.4,0.9-10-3.1-12.8
	c-0.2,1,1.6,12.8,0.6,12.7c-2.1-0.1-2-11.4-2.6-11.7c-2.5-1.4-1.2,11.9-1.9,12.7c-2.2,2.6-12.1,2.8-16.4,1.5c-0.5-0.1-1-0.4-1.5-0.6
	c-3.6-1.2-2.7-6-3.5-9c-0.4,0.6-0.8,1.4-1,2.1c-0.3,0.8-0.5,1.7-0.7,2.6c-0.8,2-6.5,14.5-3.6,14.6c0.5,0.1,1.1-0.4,1.7-0.5
	c0.5-0.2,1.1-0.4,1.6-0.3c0.3,0.1,0.6,0.3,0.8,0.6c0.3,0.6,0.5,1.2,0.5,1.9c0.1,0.9,4,32.8-3.9,33.8c-1.9,0.2,0.1-3,0-3.6
	c-2.8-0.5-7,12-9.5,8.5c-0.8,0.1-6.5,12.3-6.7,13.5c-2.3,1-1.5,4.9-4.7,7.1c-4.9,3.5-17.2-0.2-23.3-1.3
	c-11.2-2.1-32.5-2.4-31.9-15.7c-1.5,1.5-0.7,7.4-4.4,4.9c-1.2,5.3-27.4-5.7-30.8-7.8c-2.8-1.8-13.4-12.5-14.3-16.2
	c-0.9-3.6,6.2-26.5,6.1-27c0.1,0.7-0.7-4.7-0.3-3.7c-6.3-16.2,26.8-39.6,39.4-31c6.2,4.3,1.5-6.7,6.5,2.4c2.2,4,0.6,7.2-1.6,11.2
	c-0.4,0.6-0.9,1.2-1.4,1.7c-0.8,1-1.7,1.9-2.6,2.8c-1.2,0.7-1.9,2.2-3.1,1.5c-1.7-1.3,0.6-2.5,1.8-2.9c1.1-0.6,2.1-1.2,1.8-1.8
	s-0.9-0.7-1.5-0.3c-0.7,0.6-1.4,1.3-1.8,2.2c-0.8,1.7-1.6,3.4-1.3,5.3c0.8-0.1,0.8-2,1.8-1.3c1.2,0.9,1.7,2.4,1.3,3.9
	c-0.4,1.2-2.3,1.2-2.2,2.3c0.3,3.2-2.1,7-3.1,6.9c-7.4-1.3-13.3-7.9-19-13.5c3.1,7.5,11.9,9.8,14.8,17.3c1.8,4.2,0.8,8.8,1,12.9
	c0.1,0.8,0.2,1.6,0.3,2.3s0.2,1.5,0.4,2.3c0.1,1,0.1,2,0.2,2.9c0.1,1.9,0.3,3.8,0.4,5.7c0.3,4.1-1.1,11.1,0.3,14.7
	c0.3-0.5,3.2-5.9,3.5-6c-5.2-0.3-0.2-9,1.8-9.5c-0.8-0.7-1.5-1.4-2.1-2.2c-0.7-0.9-1.3-1.8-1.9-2.8c-0.5-0.9-0.9-1.8-1.4-2.9
	c-0.5-1.1-0.9-2.2-1.2-3.3c-1.5-4.1-0.2-9.7,4.4-10.9c0.5-0.1,1,0,1.2,0.4c0.1,0.6,0.4,1.1,0.8,1.4c0.5,0.3,0.9,0.9,1.4,1
	c1.1-0.1,1.2-1.1,1.3-1.9c0.1-2.4-3.9-3.7-1.8-6c1.6-1.9,4.3-0.7,6.3-0.4c0.5,0.1,0.8-0.4,1.2-0.9c-0.3-0.1-0.6,0-0.8,0.1
	c0.4-0.7,0.7-1.5,1.8-1.2 M1406.5,454c-0.2-1-0.7-1.9-1.5-2.6c-2,4.6,1.3,8-0.7,10.9c0.1-0.1-3.4,1.4-4.4,1.6
	c-10.3,2.1-18.5-6.4-14.6-16.5c2.1-5.6,7.4-8.6,13.3-8.3c1.1,0.1,3.5,1.9,3.6,1.9c0.8,0.4,6.5,3,6.1,2.9c0.3,0.1,0.1,3.2,1.2,3.7
	c1-0.5,4.4-6.7,6.8-4.1c0.2,0.8-0.2,1.6-0.9,1.9c-0.4-0.9,9.4-3.2,10-0.9c0.1,0.6-0.6,0.9-0.2,2c0.5,1.5,1.5-2.4,0.9-2.1
	c3.4-1.6,28.8,11.6,29.4,15.3c1.4,8.7-7.5,7.9-13.8,7.8c-7.6-0.1-25.4,0.5-32.1-4.4c-2.8-1.9-2.1-8.3-3.1-8.9L1406.5,454z
	 M1413.2,444.3C1413.2,444.3,1414.9,447.4,1413.2,444.3L1413.2,444.3z M1400.7,473.8c0.3,0.4-0.2-5.7-0.2-6
	c0.6-4.8,16.5,3.4,16.1,4.3c0.1-0.3-3.9,0.4-2.8,1.2c-0.7-0.5,3.2,0.8,3,0.9c0.4-4.4,8.3,0.7,9.9,3.1c6.5,9.7-7.7,11-14.8,11
	c-11.7,0.1-23.4-0.7-35-2.6c-6.1-1-11.8-2.4-13.5-2.4c-5.3,0.1-0.9-13.1,1.9-11.7c-0.1-0.1-0.9,4.8,0.3,4.1c2.5-1.3,1.6-6.9,3.6-9.4
	c3.3-4.1,6.1-2.8,10.2-2.9c3.6-0.1,19.1,2.5,19,5.4c-0.6,0.2-1.1,0.5-1.7,0.7c2.4,0.5,3.5,4.2,3.9,5.2 M1418.5,423.8
	c-0.7,2.2-3.7-7.5-3.2-8.8c2.2-6.1,9.2-4.1,14.5-3.7c8.1,0.5,18.1-1.9,25.8-0.4c19.1,3.9-3.8,15.7-13.4,17.1c-5,0.7-13.1,3.2-18,2.2
	C1417.6,428.9,1420.1,428.6,1418.5,423.8L1418.5,423.8z M1405.9,413.8c3,1,3.3,13.8,4.8,17.9c0.2-1.1,1.4-5.6,1-6.7
	c0,0,2.6,2.3,2.4,2.2c-1.5-2.2-4.7-9.8-4.6-12.3c0.1-2.9,10.8,16.1,5.2,15.9c-0.5,0-0.3-1.9-0.7-2.2c1.8,4.8-1.7,0.8-1.7-1.1
	c2.6,0.2-7.5,8.2-10,8.7c-7.6,1.4-13.9-2-14.2-11c-0.2-6.8,3.3-8.4,6.3-10.2C1396.7,413.9,1405.4,411.1,1405.9,413.8L1405.9,413.8z
	 M1298.9,376.2c6-1.8,12.5-10.4,13.9-16.3c2-8.1-2.1-10.3-10.6-7.1c-3.4,1.3-12.1,13.1-12.4,13.1c-0.9-2.9-2.1,3.2-1.5,4.1
	C1285.4,370.6,1292.8,378.1,1298.9,376.2z M1289.9,409.1C1286.9,407.9,1289.1,409.5,1289.9,409.1L1289.9,409.1z"/>
<path id="LH" class="st0" d="M833.4,99.9c-1.1,0.3-1.4-0.5-1.8-1.2c0.2,0.2,0.5,0.2,0.8,0.2c-0.3-0.5-0.6-1-1.2-0.9
	c-2.1,0.2-4.8,1.3-6.3-0.6c-2.1-2.4,1.9-3.6,1.9-6c-0.1-0.8-0.2-1.8-1.3-1.9c-0.5,0.1-1,0.6-1.5,1c-0.4,0.4-0.7,0.9-0.9,1.4
	c-0.3,0.4-0.8,0.6-1.3,0.4c-4.6-1.3-5.8-6.9-4.1-11c0.4-1.1,0.8-2.2,1.3-3.3c0.5-1,1-2,1.5-2.9c0.6-1,1.2-1.9,1.9-2.7
	c0.7-0.8,1.4-1.5,2.2-2.1c-1.9-0.6-6.8-9.4-1.5-9.6c-0.3-0.1-3-5.6-3.3-6.1c-1.5,3.6-0.3,10.6-0.7,14.7c-0.2,1.8-0.4,3.7-0.6,5.7
	c-0.1,1-0.2,1.9-0.3,2.9c-0.2,0.8-0.3,1.5-0.4,2.3s-0.2,1.6-0.3,2.3c-0.3,4.2,0.5,8.8-1.4,12.9c-3.1,7.4-12,9.5-15.3,16.9
	c5.9-5.4,11.9-11.8,19.4-12.9c1-0.1,3.3,3.8,2.9,7c-0.1,1.1,1.7,1.1,2.1,2.4c0.3,1.4-0.2,2.9-1.4,3.8c-1,0.6-0.9-1.2-1.7-1.4
	c-0.3,1.9,0.4,3.6,1.2,5.3c0.4,0.9,1,1.6,1.8,2.2c0.6,0.4,1.1,0.4,1.5-0.2s-0.6-1.3-1.7-1.9c-1.1-0.4-3.4-1.7-1.7-3
	c1.2-0.7,1.9,0.8,3.1,1.6c0.9,0.9,1.7,1.8,2.5,2.8c0.5,0.6,0.9,1.2,1.3,1.8c2.1,4.1,3.6,7.4,1.3,11.3c-5.3,8.9-0.2-1.9-6.6,2.2
	c-12.8,8.3-45.3-16-38.5-32c-0.4,1,0.5-4.4,0.4-3.7c0.1-0.5-6.3-23.5-5.3-27.1s11.9-14.1,14.7-15.8c3.5-2,29.9-12.2,31-6.9
	c3.8-2.4,2.8,3.4,4.3,5c-0.2-13.3,21.1-13,32.3-14.8c6.1-1,18.5-4.2,23.3-0.6c3.1,2.3,2.2,6.2,4.5,7.2c0.1,1.2,5.4,13.6,6.3,13.7
	c2.6-3.4,6.5,9.2,9.3,8.7c0.1-0.5-1.8-3.9,0-3.6c7.9,1.3,3.1,33.1,3,33.9c0,0.6-0.2,1.3-0.5,1.8c-0.2,0.3-0.5,0.5-0.9,0.6
	c-0.6,0-1.1-0.1-1.6-0.4c-0.5-0.2-1.1-0.6-1.6-0.6c-2.9,0.1,2.5,12.8,3.2,14.7c0.2,0.9,0.4,1.8,0.7,2.7c0.2,0.8,0.6,1.5,1,2.1
	c1-3,0.1-7.9,3.8-8.9c0.5-0.3,1-0.5,1.5-0.6c4.3-1.2,14.2-0.6,16.3,2c0.7,0.9-1,14.1,1.5,12.8c0.5-0.3,0.8-11.6,2.9-11.7
	c1,0-1.1,11.7-1,12.7c4.1-2.7,1.5-11.3,3.5-12.7c3.5-2.4,2,9.8,1.9,9.8c2.5-3.8-0.5-6.9,4-9.4c4.7-2.7,8.1,0.6,10.7,2.8
	c1.2-2.8,1.4,1,1.7,1.5c-0.6-2.3,18.3-1.2,20.1,0.4c11.5,9.9-4.4,12.4-10.4,13.2s-52.8,7.7-53.6,2c-1.5-0.4-1.9-0.6-3.5-0.2
	c0.4-1,0.5-2,0.4-3.1c-4,1.3-5.6,4.7-9.2,6.1c-8,3.1-17.6-2.1-25.8-1.9c-8.7,0.2-25.5,8.6-30.9-1.2c-5.6,1.2-8.1-12.8-9.8-17
	c-0.6-1.2-1.4-2.3-2.2-3.4c-2-2.6-3.5-5.6-4.5-8.7c-0.1-0.8-0.7-1.7,0-2.4c1.4-1.2,3.2,0.4,4.7,0.1 M938.6,56
	c6.8-4.7,24.6-3.6,32.2-3.5c6.3,0.1,15.2-0.4,13.6,8.2c-0.7,3.7-26.5,16.2-29.8,14.5c0.5,0.3-0.3-3.7-0.9-2.2
	c-0.4,1.1,0.3,1.4,0.2,2.1c-0.6,2.4-10.4-0.2-9.9-1.1c0.7,0.3,1.1,1.1,0.9,1.9c-2.5,2.5-5.7-3.8-6.7-4.3c-1.1,0.5-1,3.6-1.3,3.6
	c0.4-0.1-5.3,2.3-6.2,2.7c-0.1,0-2.6,1.8-3.7,1.8c-5.9,0.2-11.1-3-13.1-8.7c-3.6-10.3,4.8-18.6,15.1-16.1c1,0.2,4.5,1.8,4.4,1.7
	c2,3-1.4,6.3,0.4,10.9c0.8-0.7,1.3-1.6,1.5-2.6C936.3,64.3,935.7,57.9,938.6,56z M941.6,74.8C943.5,71.8,941.6,74.8,941.6,74.8z
	 M930,44c-0.4,1-1.6,4.7-4,5.1c0.6,0.2,1.1,0.5,1.7,0.7c0,2.9-15.6,5-19.2,4.8c-4.1-0.2-7,1.1-10.2-3.1c-1.9-2.5-0.9-8.2-3.3-9.5
	c-1.2-0.6-0.6,4.2-0.4,4.1c-2.8,1.3-6.9-12-1.6-11.8c1.6,0.1,7.4-1.1,13.5-2c11.6-1.5,23.3-2.1,35-1.6c7,0.2,21.2,1.9,14.5,11.4
	c-1.7,2.4-9.7,7.2-10,2.8c0.2,0.1-3.7,1.2-3,0.8c-1.2,0.7,2.8,1.6,2.7,1.3c0.4,0.9-15.8,8.7-16.2,3.9c0-0.3,0.6-6.3,0.3-5.9
	 M952.2,89.2c4.9-0.9,12.9,1.9,17.9,2.7c9.5,1.7,32.1,14.1,12.9,17.5c-7.7,1.4-17.7-1.4-25.8-1.1c-5.3,0.2-12.3,2.1-14.4-4.1
	c-0.4-1.3,2.8-11,3.4-8.8C948.1,90.7,945.6,90.4,952.2,89.2L952.2,89.2z M922,103.4c-3-1.9-6.5-3.5-6.1-10.3c0.6-9,7-12.2,14.5-10.6
	c2.5,0.5,12.4,8.9,9.7,9c0-1.9,3.6-5.8,1.7-1c0.5-0.2,0.2-2.1,0.8-2.1c5.7-0.1-5.6,18.6-5.6,15.7c0-2.6,3.4-10.1,4.9-12.2
	c0.1,0-2.5,2.2-2.5,2.2c0.4-1.1-0.6-5.6-0.8-6.7c-1.5,4.1-2.3,16.9-5.3,17.8C932.9,107.9,924.3,104.8,922,103.4L922,103.4z
	 M814.7,145.5c-0.7,0.9,0.4,7,1.4,4.2c0.3,0,8.7,12.1,12.1,13.5c8.4,3.5,12.5,1.4,10.8-6.8c-1.2-5.9-7.5-14.7-13.5-16.6
	S811.8,145,814.7,145.5z M817.4,106.6C816.6,106.2,814.4,107.7,817.4,106.6L817.4,106.6z"/>
</svg>
