<svg id="Layer_1" data-name="Layer 1" xmlns="http://www.w3.org/2000/svg" viewBox="0 0 1200 591.06">
  <defs>
    <style>
      #LF, #RF, #RH, #LH {
      fill: rgb(225,220,200);
      }
    </style>
  </defs>
  <path id="LF" d="M98.17,237.25c5.53-6.5,6.68-14.67,7.31-22.73.43-5.51-4-8.71-7.66-12.17-5-4.79-4.44-7.73,2.16-9.54,8.07-2.22,16.28-3.9,24.45-5.73.72-.16,1.58.34,2.39.48A210.62,210.62,0,0,0,181.17,190c1.8-.15,3.63.17,5.44.08,15-.75,30.26.53,44.59-5.44,12.49-5.21,24.79-10.88,37.37-15.85,10.29-4.06,8.83-2.47,8.46-12.35,4-2.1,7.57-3.42,10.45-5.69,3.92-3.09,3.66-6.73.09-10.17-3.94-3.79-8.73-4.94-14.05-5.13-6.66-.24-13.31-.95-20-1.45,8.62-3.94,17.13-6.92,25.58-10.08,3.94-1.48,4.83-4.43,2-7.59a12.2,12.2,0,0,0-6.15-3.78c-8.64-1.78-17.33-2.07-26,.42-5.14,1.48-10.44,2.39-15.67,3.56l-.46-1.8c2.22-.7,4.47-1.29,6.64-2.12,6.41-2.44,13-4.52,19.08-7.65,3.34-1.73,6.73-5.2,5.38-9.64-1.49-4.89-6.14-6.06-10.77-6.55a8.33,8.33,0,0,0-3,.09c-5.24,1.42-10.54,2.68-15.64,4.53-2.89,1-5.36,1.69-8.28.22-3.13-1.58-6.26-1.08-9.7,0-7.57,2.28-14.76,6.05-23.3,4.65-5.63-.92-11.57-.36-17.33,0-3.65.25-7.65.89-7.24,6.31.06.77-.79,1.61-1.26,2.48-14.37-11-18.4-11-23.72-.05-5.34-7.8-11.2-9.79-20.68-8.07-4.08.74-8.45.39-12.62-.06-3.42-.37-6.72-1.67-10.11-2.45-10.16-2.34-17.53,2.38-19,12.64-1.07,7.47-3.93,14-7.29,20.73a173.19,173.19,0,0,0-10.93,26.84c-2.36,7.71-3.93,15.63,1.14,23.7,3,4.77,3.66,11.06,5,16.75.81,3.35.29,7.15,1.57,10.25,4,9.68,8.27,19.25,13,28.6C86.89,242,93.68,242.53,98.17,237.25ZM277,156.4c0-.26.18-.48,0,0Zm-33.62,3.84c-3.37.24-6.27-1-8.79-.79s-26.08,1.83-32.85,1.72-8.83-1.34-8.83-1.34,21.88-1.53,24.17-1,36.13-3.27,39.83-4,4.29,2.09,4.29,2.09C261.42,159.79,246.78,160,243.42,160.24Z"/>
  <path id="RF" d="M390.24,460.14c-8.33-18.37-15.43-36.77-22.29-55.58a42.2,42.2,0,0,1-1.12-11.87,21.22,21.22,0,0,1,4.47-11.61c6.52-19,14.38-36,29.15-51.79a10.8,10.8,0,0,1,7.39-1.82,19.37,19.37,0,0,1,7.57,9.61c5.13,11.74-3.07,24.58-12.43,32.16,6.58,3.11,13.49,4.25,20.23,6.38,38.16,8.32,79.08-.14,114.68,16.75q4.48,2.38,8.93,4.83l4.45,2.44a20.76,20.76,0,0,0,3.75,2.57c1.4.77,2.93,1.47,4.51,2.15,3.22,1.45,7.05,2.54,10.26,4.32,4.74,2,8.7,8.76,5.25,11.23-4.76,4.28-12.17,0-19.5-.95l-4.45-.52-3.31-.6c-3.33-.55-6.33.38-8.83,0l-14.69-2.43c-9.24-.29-17.47-5.7-27-3.22,10.69,2.78,22.37,5.71,33.6,6,4.95.92,11.06,2.15,16.48,3.28l6,1.24c8.89,1.21,18.26-.29,27.8,3.31,6.58,3.11,9.89,13.79,2.33,16.6-4.43,2.31-9.28,2.52-14.2,2.35s-9.89-.74-14.61,0c4.14,2.71,10.4,4.75,15.34,7.09s8.56,5,7.41,8.82c-.73,4.44-3,6.8-6.1,7.79s-7.23.63-11.74-.38c-9.44-1.77-17.83-6.2-27.7-7.82,7.74,8.37,24.34,6,29.3,19,.5,3.12-.31,8.06-4.59,9.38-11.67,3.14-20.4-5.39-31.25-7.18-3-.49-7.56,2.81-10.19.35-15.8-8.68-34-2.57-48.52-13.06-1-.16-.5-3.12-1.16-5.26a47.59,47.59,0,0,1-7.8,5c-5.83,3.85-14.22-.57-14.07-7.64-11.32,13.34-27-2.42-41.1,2.3C397.59,463.66,393.38,462.51,390.24,460.14Z"/>
  <path id="RH" d="M899.75,340.21c-1.48-.4-3.28,1.17-4.67-.07-.7-.62,0-1.58.08-2.35a31.67,31.67,0,0,1,4.79-8.56,26.55,26.55,0,0,0,2.27-3.29c1.8-4.19,4.71-18.06,10.26-16.74,5.67-9.66,22.2-.77,30.89-.3,8.14.44,17.84-4.56,25.81-1.21,3.59,1.51,5.14,4.95,9,6.4a6.7,6.7,0,0,0-.31-3.11c1.53.45,1.92.24,3.48-.14.92-5.62,47.52,2.64,53.48,3.53s21.85,3.86,10,13.44c-1.81,1.47-20.7,2.11-20.06-.2-.31.44-.7,4.3-1.77,1.43-2.65,2.19-6.17,5.37-10.79,2.54-4.35-2.66-1.34-5.66-3.69-9.51,0,0,1.2,12.19-2.2,9.7-2-1.43.87-10-3.14-12.76-.18,1,1.57,12.77.62,12.7-2.08-.14-2-11.44-2.56-11.74-2.53-1.42-1.19,11.9-1.9,12.73-2.17,2.56-12.09,2.83-16.39,1.54a5.12,5.12,0,0,1-1.46-.64c-3.63-1.18-2.67-6-3.55-9a7.27,7.27,0,0,0-1,2.1c-.28.82-.51,1.74-.74,2.64-.76,2-6.49,14.49-3.63,14.64.51.07,1.1-.37,1.65-.52a3.35,3.35,0,0,1,1.62-.32,1.44,1.44,0,0,1,.84.63,3.87,3.87,0,0,1,.49,1.85c.07.88,4,32.75-3.92,33.83-1.86.25.1-3,.05-3.56-2.81-.55-7,11.95-9.54,8.48-.83.08-6.53,12.3-6.65,13.51-2.29,1-1.51,4.89-4.68,7.12-4.92,3.46-17.19-.16-23.26-1.28C918,401.63,896.7,401.37,897.28,388c-1.53,1.51-.72,7.38-4.43,4.89-1.23,5.29-27.38-5.67-30.79-7.79-2.84-1.77-13.37-12.55-14.3-16.19s6.15-26.46,6.06-27c.11.67-.68-4.71-.29-3.7-6.35-16.24,26.79-39.62,39.37-31,6.25,4.3,1.5-6.67,6.51,2.4,2.18,4,.57,7.2-1.63,11.24a18.77,18.77,0,0,1-1.36,1.74,33.29,33.29,0,0,1-2.61,2.77c-1.17.7-1.9,2.16-3.11,1.46-1.65-1.29.63-2.53,1.76-2.93,1.11-.56,2.13-1.18,1.77-1.81s-.93-.69-1.53-.28a7,7,0,0,0-1.82,2.18c-.81,1.71-1.58,3.43-1.32,5.3.81-.15.81-2,1.76-1.32a3.67,3.67,0,0,1,1.28,3.85c-.44,1.25-2.27,1.24-2.17,2.31.33,3.19-2.06,7-3.09,6.89-7.41-1.33-13.27-7.93-19-13.48,3.11,7.52,11.94,9.84,14.8,17.32,1.76,4.18.83,8.76,1,12.93.07.78.15,1.56.26,2.34s.22,1.55.38,2.33c.07,1,.14,2,.21,2.93.13,1.93.26,3.84.41,5.68.33,4.15-1.11,11.06.33,14.74.29-.47,3.18-5.85,3.48-6-5.25-.32-.16-9,1.79-9.52a16.69,16.69,0,0,1-2.09-2.18,20.33,20.33,0,0,1-1.86-2.75c-.46-.86-.93-1.84-1.38-2.89a29.9,29.9,0,0,1-1.2-3.31c-1.5-4.11-.18-9.68,4.44-10.85a1.14,1.14,0,0,1,1.25.44,2.59,2.59,0,0,0,.84,1.43c.48.33.92.92,1.43,1,1.06-.11,1.21-1.14,1.32-1.91.08-2.35-3.92-3.71-1.75-6,1.58-1.87,4.29-.69,6.34-.4.51.07.84-.4,1.17-.88a1,1,0,0,0-.81.15c.37-.73.73-1.47,1.8-1.17m100.8,37.78a4.75,4.75,0,0,0-1.46-2.62c-2,4.59,1.32,7.95-.72,10.91.06-.09-3.41,1.35-4.44,1.56-10.29,2.12-18.47-6.39-14.61-16.55,2.14-5.64,7.37-8.64,13.29-8.29,1.08.06,3.51,1.88,3.6,1.92.85.41,6.49,3,6.09,2.87.28.09.1,3.19,1.22,3.68,1-.49,4.37-6.69,6.77-4.12a1.61,1.61,0,0,1-.91,1.88c-.43-.93,9.42-3.25,10-.86.14.62-.62.92-.25,2.05.5,1.53,1.49-2.4.94-2.14,3.35-1.58,28.84,11.6,29.43,15.34,1.37,8.67-7.48,7.92-13.79,7.8-7.59-.15-25.39.52-32.06-4.39C1001.62,385.84,1002.35,379.47,1001.31,378.84Zm6.67-9.67S1009.74,372.17,1008,369.16ZM995.45,398.6c.27.37-.21-5.69-.18-6,.56-4.81,16.52,3.4,16.13,4.33.13-.31-3.92.44-2.75,1.2-.74-.48,3.21.8,3,.87.43-4.38,8.28.7,9.89,3.11,6.49,9.7-7.73,11-14.76,11a208.19,208.19,0,0,1-35-2.58c-6.09-1-11.84-2.4-13.46-2.38-5.31.08-.89-13.14,1.89-11.74-.11-.06-.86,4.75.33,4.15,2.47-1.26,1.62-6.93,3.59-9.42,3.28-4.14,6.14-2.8,10.25-2.87,3.58-.06,19.13,2.48,19,5.35q-.85.36-1.71.67c2.39.46,3.46,4.23,3.87,5.2m17.72-50.93c-.7,2.18-3.67-7.52-3.2-8.84,2.22-6.14,9.24-4.09,14.5-3.73,8.12.55,18.12-1.93,25.8-.35,19.1,3.94-3.84,15.66-13.43,17.09-5,.74-13.08,3.24-18,2.23C1012.38,353.63,1014.86,353.4,1013.29,348.61Zm-12.6-10c3,1,3.35,13.84,4.79,17.93.24-1.07,1.41-5.57,1-6.66,0,0,2.58,2.3,2.44,2.25-1.45-2.17-4.69-9.78-4.6-12.34.1-2.85,10.84,16.13,5.17,15.88-.54,0-.27-1.9-.72-2.17,1.77,4.79-1.72.83-1.69-1.07,2.63.17-7.49,8.25-10,8.69-7.56,1.36-13.88-2-14.19-11-.24-6.83,3.29-8.35,6.35-10.16C991.53,338.62,1000.22,335.81,1000.69,338.6ZM893.73,301c6-1.82,12.5-10.41,13.9-16.27,2-8.12-2.11-10.34-10.59-7.1-3.37,1.29-12.11,13.13-12.44,13.15-.87-2.86-2.14,3.23-1.48,4.14C880.16,295.37,887.57,302.84,893.73,301Zm-9,32.87C881.69,332.69,883.9,334.25,884.74,333.86Z"/>
  <path id="LH" d="M567.81,184.74c-1.07.26-1.42-.48-1.77-1.22a1,1,0,0,0,.8.17c-.32-.49-.63-1-1.15-.91-2.06.24-4.8,1.34-6.33-.57-2.1-2.37,1.93-3.62,1.92-6-.09-.77-.21-1.8-1.27-1.94-.52.06-1,.63-1.46,1a2.59,2.59,0,0,0-.88,1.41,1.14,1.14,0,0,1-1.26.41c-4.59-1.3-5.76-6.9-4.14-11a29.9,29.9,0,0,1,1.29-3.28c.48-1,1-2,1.46-2.85a20.33,20.33,0,0,1,1.93-2.7,16.69,16.69,0,0,1,2.15-2.13c-1.93-.56-6.79-9.39-1.53-9.56-.29-.14-3-5.6-3.31-6.08-1.55,3.64-.3,10.59-.74,14.72-.2,1.84-.38,3.74-.56,5.67-.09,1-.19,1.94-.29,2.92-.17.77-.32,1.54-.44,2.32s-.23,1.55-.32,2.33c-.31,4.16.48,8.76-1.39,12.89-3.06,7.4-12,9.47-15.27,16.9,5.9-5.38,11.94-11.82,19.38-12.94,1-.12,3.31,3.79,2.89,7-.14,1.06,1.69,1.11,2.1,2.37a3.67,3.67,0,0,1-1.39,3.81c-1,.63-.92-1.2-1.72-1.37-.31,1.86.42,3.61,1.17,5.33a7,7,0,0,0,1.76,2.23c.59.42,1.14.43,1.54-.24s-.63-1.27-1.72-1.86c-1.12-.43-3.36-1.74-1.68-3,1.23-.66,1.92.82,3.07,1.55a33.29,33.29,0,0,1,2.53,2.84,18.77,18.77,0,0,1,1.31,1.78c2.09,4.1,3.61,7.39,1.31,11.28-5.26,8.92-.2-1.91-6.57,2.21-12.81,8.3-45.28-16-38.49-32.05-.42,1,.53-4.35.39-3.69.1-.5-6.34-23.51-5.31-27.12s11.86-14.1,14.74-15.79c3.47-2,29.92-12.25,31-6.93,3.78-2.39,2.8,3.45,4.29,5-.2-13.33,21.1-13,32.33-14.75,6.1-1,18.47-4.23,23.29-.63,3.11,2.32,2.23,6.15,4.48,7.24.09,1.21,5.44,13.58,6.27,13.69,2.59-3.4,6.47,9.22,9.3,8.74.06-.51-1.81-3.86,0-3.56,7.89,1.3,3.07,33.05,3,33.93a3.87,3.87,0,0,1-.54,1.84,1.44,1.44,0,0,1-.86.6,3.35,3.35,0,0,1-1.61-.37c-.54-.17-1.12-.62-1.63-.56-2.86.07,2.52,12.76,3.22,14.74.2.91.41,1.83.66,2.66a7.27,7.27,0,0,0,1,2.13c1-3,.14-7.85,3.8-8.92a5.12,5.12,0,0,1,1.48-.6c4.33-1.16,14.24-.62,16.34,2,.69.86-1,14.13,1.55,12.78.55-.29.81-11.58,2.89-11.67.95,0-1.13,11.7-1,12.68,4.09-2.67,1.49-11.28,3.5-12.66,3.47-2.39,1.95,9.78,1.93,9.76,2.46-3.79-.47-6.87,4-9.41,4.7-2.69,8.13.58,10.72,2.84,1.15-2.83,1.44,1,1.73,1.48-.58-2.33,18.29-1.16,20.06.36,11.55,9.91-4.39,12.42-10.4,13.16s-52.8,7.69-53.56,2c-1.55-.42-1.94-.65-3.48-.24a6.7,6.7,0,0,0,.4-3.1c-3.95,1.34-5.59,4.74-9.22,6.14-8.05,3.12-17.61-2.15-25.76-1.93-8.7.23-25.47,8.65-30.87-1.16-5.58,1.17-8.1-12.78-9.79-17a26.55,26.55,0,0,0-2.18-3.35,31.67,31.67,0,0,1-4.55-8.69c-.09-.77-.72-1.74,0-2.35,1.43-1.21,3.18.42,4.67.06M673,140.84c6.8-4.72,24.58-3.56,32.17-3.49,6.31.05,15.18-.45,13.57,8.18-.7,3.73-26.54,16.19-29.85,14.52.54.27-.34-3.68-.89-2.16-.4,1.12.35,1.45.19,2.06-.62,2.37-10.4-.22-9.94-1.14a1.61,1.61,0,0,1,.86,1.9c-2.47,2.51-5.65-3.78-6.65-4.3-1.13.47-1,3.57-1.32,3.65.4-.11-5.31,2.31-6.17,2.7-.09,0-2.58,1.79-3.66,1.82-5.93.18-11.07-3-13.06-8.66-3.57-10.26,4.85-18.55,15.07-16.14,1,.24,4.45,1.77,4.39,1.68,2,3-1.44,6.28.41,10.92a4.75,4.75,0,0,0,1.53-2.58C670.68,149.19,670.13,142.79,673,140.84ZM676,159.64C677.88,156.69,676,159.66,676,159.64Zm-11.55-30.71c-.43,1-1.61,4.7-4,5.09q.86.34,1.69.72c0,2.88-15.6,5-19.18,4.82-4.1-.18-7,1.07-10.17-3.15-1.9-2.54-.89-8.18-3.32-9.51-1.17-.64-.56,4.19-.44,4.14-2.82,1.32-6.87-12-1.56-11.79,1.61.07,7.4-1.13,13.52-2a208.19,208.19,0,0,1,35-1.6c7,.24,21.21,1.88,14.45,11.4-1.68,2.36-9.66,7.23-10,2.83.24.08-3.74,1.25-3,.79-1.19.74,2.84,1.59,2.72,1.28.36.94-15.82,8.71-16.25,3.88,0-.26.63-6.31.34-5.95m22.34,44.23c4.9-.87,12.94,1.85,17.89,2.73,9.54,1.7,32.14,14.06,12.94,17.46-7.71,1.37-17.65-1.39-25.78-1.07-5.27.21-12.35,2.07-14.39-4.13-.44-1.34,2.8-11,3.44-8.75C682.47,175.59,680,175.29,686.66,174.11Zm-30.18,14.19c-3-1.89-6.49-3.52-6.06-10.33.57-9,7-12.16,14.5-10.59,2.49.52,12.38,8.88,9.74,9,0-1.9,3.62-5.76,1.72-1,.46-.25.24-2.14.78-2.15,5.67-.09-5.6,18.59-5.61,15.73,0-2.56,3.43-10.08,4.94-12.2.14,0-2.5,2.19-2.5,2.18.44-1.08-.6-5.61-.81-6.69-1.55,4.05-2.29,16.86-5.28,17.79C667.34,192.77,658.74,189.72,656.48,188.29ZM549.15,230.38c-.69.89.42,7,1.37,4.18.34,0,8.74,12.11,12.07,13.49,8.39,3.47,12.51,1.38,10.78-6.8-1.24-5.89-7.45-14.66-13.45-16.65S546.2,229.84,549.15,230.38Zm2.71-38.88C551,191.09,548.77,192.58,551.85,191.5Z"/>
</svg>
