<svg id="Layer_1" data-name="Layer 1" xmlns="http://www.w3.org/2000/svg" viewBox="0 0 136.92 210.06">
  <title>handprint</title>
  <path id="RH" d="M64,158c-1.25.39,1.17,3.28-.07,4.67-.62.7-1.58,0-2.35-.08A31.67,31.67,0,0,1,53,157.78a26.55,26.55,0,0,0-3.29-2.27c-4.19-1.8-18.06-4.71-16.74-10.26-9.66-5.67-.77-22.2-.3-30.89.44-8.14-4.56-17.84-1.21-25.81,1.51-3.59,5-5.14,6.4-9a6.7,6.7,0,0,0-3.11.31c.45-1.53.24-1.92-.14-3.48C29,75.46,37.28,28.86,38.17,22.9S42,1.05,51.61,12.9c1.47,1.81,2.11,20.7-.2,20.06.44.31,4.3.7,1.43,1.77,2.19,2.65,5.37,6.17,2.54,10.79-2.66,4.35-5.66,1.34-9.51,3.69,0,0,12.19-1.2,9.7,2.2-1.43,2-10-.87-12.76,3.14,1,.18,12.77-1.57,12.7-.62-.14,2.08-11.44,2-11.74,2.56-1.42,2.53,11.9,1.19,12.73,1.9,2.56,2.17,2.83,12.09,1.54,16.39a5.12,5.12,0,0,1-.64,1.46c-1.18,3.63-6,2.67-9,3.55a7.27,7.27,0,0,0,2.1,1c.82.28,1.74.51,2.64.74,2,.76,14.49,6.49,14.64,3.63.07-.51-.37-1.1-.52-1.65a3.35,3.35,0,0,1-.32-1.62,1.44,1.44,0,0,1,.63-.84,3.87,3.87,0,0,1,1.85-.49c.88-.07,32.75-4,33.83,3.92.25,1.86-3-.1-3.56,0-.55,2.81,12,7,8.48,9.54.08.83,12.3,6.53,13.51,6.65,1,2.29,4.89,1.51,7.12,4.68,3.46,4.92-.16,17.19-1.28,23.26-2.09,11.17-2.35,32.47-15.72,31.89,1.51,1.53,7.38.72,4.89,4.43,5.29,1.23-5.67,27.38-7.79,30.79C107.13,198.51,96.35,209,92.71,210s-26.46-6.15-27-6.06c.67-.11-4.71.68-3.7.29-16.24,6.35-39.62-26.79-31-39.37,4.3-6.25-6.67-1.5,2.4-6.51,4-2.18,7.2-.57,11.24,1.63a18.77,18.77,0,0,1,1.74,1.36,22.61,22.61,0,0,1,2.37,2.06c.7,1.17,2.7,1.79,2,3-1.29,1.65-2.67,0-3.07-1.1-.56-1.11-1.18-2.13-1.81-1.77A1,1,0,0,0,45.6,165a8.82,8.82,0,0,0,2.16,2.34,9.13,9.13,0,0,0,5.32.8c-.15-.81-2-.81-1.32-1.76a3.67,3.67,0,0,1,3.85-1.28c1.25.44,1.24,2.27,2.31,2.17,3.19-.33,7,2.06,6.89,3.09-1.33,7.41-7.93,13.27-13.48,19,7.52-3.11,9.84-11.94,17.32-14.8,4.18-1.76,8.94-1.05,13.11-1.22.78-.07,1.38.07,2.16,0s1.55-.22,2.33-.38l2.93-.21c1.93-.13,3.84-.26,5.68-.41,4.15-.33,11.06,1.11,14.74-.33-.47-.29-5.85-3.18-6-3.48-.32,5.25-9,.16-9.52-1.79a16.69,16.69,0,0,1-2.18,2.09,20.33,20.33,0,0,1-2.75,1.86c-.86.46-1.84.93-2.89,1.38s-13,1.38-14.16-3.24c-.34-1.45,3.66-4.45,1-4.84-2.35-.08-3,2.56-5.3.39C65.89,162.79,65.26,157.6,64,158ZM102.54,56.43a4.75,4.75,0,0,0-2.62,1.46c4.59,2,8-1.32,10.91.72-.09-.06,1.35,3.41,1.56,4.44,2.12,10.29-6.39,18.47-16.55,14.61-5.64-2.14-8.64-7.37-8.29-13.29.06-1.08,1.88-3.51,1.92-3.6.41-.85,3-6.49,2.87-6.09.09-.28,3.19-.1,3.68-1.22-.49-1-6.69-4.37-4.12-6.77a1.61,1.61,0,0,1,1.88.91c-.93.43-3.25-9.42-.86-10,.62-.14.92.62,2,.25,1.53-.5-2.4-1.49-2.14-.94-1.58-3.35,11.6-28.84,15.34-29.43,8.67-1.37,7.92,7.48,7.8,13.79-.15,7.59.52,25.39-4.39,32.06-1.94,2.78-8.31,2.05-8.94,3.09Zm-9.67-6.67s3.1-1.77.09,0ZM122.4,62.28c.37-.27-5.69.21-6,.18-4.81-.56,3.4-16.52,4.33-16.13-.31-.13.44,3.92,1.2,2.75-.48.74.8-3.21.87-3-4.38-.43.7-8.28,3.11-9.89,9.7-6.49,11,7.73,11,14.76a208.19,208.19,0,0,1-2.58,35c-1,6.09-2.4,11.84-2.38,13.46.08,5.31-13.14.89-11.74-1.89-.06.11,4.75.86,4.15-.33-1.26-2.47-6.93-1.62-9.42-3.59-4.14-3.28-2.8-6.14-2.87-10.25-.06-3.58,2.48-19.13,5.35-19q.36.85.67,1.71c.46-2.39,4.23-3.46,5.2-3.87M72.36,44.47c2.18.7-7.52,3.67-8.84,3.2-6.14-2.22-4.09-9.24-3.73-14.5.55-8.12-1.93-18.12-.35-25.8,3.94-19.1,15.66,3.84,17.09,13.43.74,5,3.24,13.08,2.23,18-1.33,6.55-1.56,4.07-6.35,5.64Zm-10,12.6c1-3,13.84-3.35,17.93-4.79-1.07-.24-5.57-1.41-6.66-1,0,0,2.3-2.58,2.25-2.44-2.17,1.45-9.78,4.69-12.34,4.6-2.85-.1,16.13-10.84,15.88-5.17,0,.54-1.9.27-2.17.72,4.79-1.77.83,1.72-1.07,1.69.17-2.63,8.25,7.49,8.69,10,1.36,7.56-2,13.88-11,14.19-6.83.24-8.35-3.29-10.16-6.35-1.29-2.32-4.1-11-1.31-11.48ZM24.8,164C23,158,14.39,151.5,8.53,150.1c-8.12-2-10.34,2.11-7.1,10.59,1.29,3.37,13.13,12.11,13.15,12.44-2.86.87,3.23,2.14,4.14,1.48C19.17,177.57,26.64,170.16,24.8,164Z"/>
</svg>
