<svg id="logo" xmlns="http://www.w3.org/2000/svg" viewBox="0 0 900 200">
  <defs>
    <style>
      .cls-1 {
        fill: #ffb770;
      }
    </style>
  </defs>
  <title>laptop</title>
  <g>
    <path class="cls-1" d="M20.11,27,27,26.95q5.6,0,8.17,2.13a7.2,7.2,0,0,1,2.6,5.67,8.64,8.64,0,0,1-.88,4,5.51,5.51,0,0,1-2.44,2.52A8.33,8.33,0,0,1,37.63,44a9.07,9.07,0,0,1,1.19,5q0,8.78-13.56,8.9l-4.87,0Zm7.36,12.51A6.49,6.49,0,0,0,31,38.71a3.63,3.63,0,0,0,1.15-3.22,3.17,3.17,0,0,0-1.32-2.89,7.06,7.06,0,0,0-3.65-.81H26l.07,7.75Zm0,13.5a5.52,5.52,0,0,0,4.27-1.49A4.75,4.75,0,0,0,33,48.28q0-2.68-1.43-3.56a7.54,7.54,0,0,0-4-.88H26.3l0,9.22Z"/>
    <path class="cls-1" d="M42.77,49a15.32,15.32,0,0,1-1.49-8.92,15.15,15.15,0,0,1,3-8.46,7.3,7.3,0,0,1,6.68-2.69A7.41,7.41,0,0,1,57,32.7a14.83,14.83,0,0,1,1.54,8.85,15.13,15.13,0,0,1-3,8.52,7.38,7.38,0,0,1-6.71,2.75A7.28,7.28,0,0,1,42.77,49Zm9-2.49a29.1,29.1,0,0,0,1-11.14q-.35-2.23-2.19-2.4T48,34.89A23.59,23.59,0,0,0,47,40a29.21,29.21,0,0,0,0,6q.31,2.27,2.15,2.44t2.64-2Z"/>
    <path class="cls-1" d="M61.75,29.57l5.76-.52V32.8a9.85,9.85,0,0,1,3.05-2.87,9,9,0,0,1,4.66-1.12l0,5.63a19.58,19.58,0,0,0-3.88.54,8.33,8.33,0,0,0-3.84,1.81L67.64,52l-5.76.52Z"/>
    <path class="cls-1" d="M78.47,31.4l5.76-.52v3a16.08,16.08,0,0,1,3.48-2.47,7.19,7.19,0,0,1,3.16-.92A4.5,4.5,0,0,1,94.44,32a6.33,6.33,0,0,1,1.41,4.24l.05,17.47-5.76.52-.09-15.68q0-3.08-2.12-3.08a3.55,3.55,0,0,0-1.54.42q-.84.41-2.14,1.15l.1,16.67-5.76.59Z"/>
    <path class="cls-1" d="M114.13,53.27,114,27l-6.3,0,.41-4.77,18.12-.11L125.75,27,120,27l.15,25.81Z"/>
    <path class="cls-1" d="M124.95,47.56a15.31,15.31,0,0,1-1.26-8.94,15.15,15.15,0,0,1,3.05-8.5,7.3,7.3,0,0,1,6.72-2.58,7.41,7.41,0,0,1,6.08,3.89,14.83,14.83,0,0,1,1.39,8.87,15.13,15.13,0,0,1-3.17,8.46A7.38,7.38,0,0,1,131,51.4,7.28,7.28,0,0,1,124.95,47.56ZM134,45.22a24.68,24.68,0,0,0,1.1-5.48,24.66,24.66,0,0,0,0-5.59q-.38-2.26-2.14-2.48t-2.56,1.88a23.75,23.75,0,0,0-1,5.16,29.22,29.22,0,0,0-.12,6.05,2.42,2.42,0,0,0,2.08,2.46Q133.2,47.47,134,45.22Z"/>
    <path class="cls-1" d="M154.89,24.09l6.93-.09q5.6,0,8.17,2.13a7.22,7.22,0,0,1,2.59,5.75,8.64,8.64,0,0,1-.88,4,5.49,5.49,0,0,1-2.44,2.52,8.33,8.33,0,0,1,3.14,2.72,9.06,9.06,0,0,1,1.19,5q0,8.64-13.57,8.72l-4.87,0Zm7.36,12.51a6.49,6.49,0,0,0,3.56-.83A3.63,3.63,0,0,0,167,32.54a3.17,3.17,0,0,0-1.35-2.89,7.06,7.06,0,0,0-3.65-.81h-1.2l0,7.74Zm0,13.5a5.51,5.51,0,0,0,4.26-1.46,4.75,4.75,0,0,0,1.29-3.2q0-2.68-1.43-3.56a7.52,7.52,0,0,0-4-.88H161l0,9.09Z"/>
    <path class="cls-1" d="M179.34,53.9a15.47,15.47,0,0,1-3.49-8.26,15.31,15.31,0,0,1,.86-9,7.35,7.35,0,0,1,5.89-4.21,7,7,0,0,1,6.6,2.27,15.83,15.83,0,0,1,3.43,8.4.73.73,0,0,1-.11.48.49.49,0,0,0,0,.22L181.6,45.51A16,16,0,0,0,183,50.22q1,2.08,2.44,1.85a2.55,2.55,0,0,0,2.11-2.19l.47-2.1,4.61,1a9.82,9.82,0,0,1-2,5,7.82,7.82,0,0,1-11,.51h0l-.33-.33Zm7.29-12.64a9.59,9.59,0,0,0-1.2-3.75,2.17,2.17,0,0,0-2.25-1.11,1.88,1.88,0,0,0-1.24.89,5.16,5.16,0,0,0-.77,2.07,8.49,8.49,0,0,0,0,2.82Z"/>
    <path class="cls-1" d="M213.51,57.83,202.24,28.66l6.46-1.33L214.95,45l.49-18.55,4.82-1.06,6.28,17.9.82-18.84,5.45-1.16L231.33,54.9l-5.89,1-6.31-18.05L218.92,57Z"/>
    <path class="cls-1" d="M236.19,58.49l-.07-22.91,5.76-.52L242,58Z"/>
    <path class="cls-1" d="M246.69,57.33,246.53,27l5.76-.77.21,30.61Z"/>
    <path class="cls-1" d="M255.94,46.26q0-6.3,1.59-9.1a5.54,5.54,0,0,1,5.13-2.89,4.75,4.75,0,0,1,2.84,1,5.68,5.68,0,0,1,2,2.4l-.06-10.05,5.81-.69.2,30.59-4.36.53-1.53-3.19a4.75,4.75,0,0,1-1.5,2.47,5.19,5.19,0,0,1-3.45,1Q256,58.37,255.94,46.26ZM266.8,52.8a10.13,10.13,0,0,0,.76-4.7l-.07-7.72a3.37,3.37,0,0,0-2.83-1.84,2.22,2.22,0,0,0-2,1,5.78,5.78,0,0,0-.8,2.53,36.73,36.73,0,0,0-.16,4.16,39.45,39.45,0,0,0,.2,4.28,6.22,6.22,0,0,0,.85,2.67,2.18,2.18,0,0,0,2,1,2.31,2.31,0,0,0,2.06-1.39Z"/>
    <path class="cls-1" d="M279.46,54.94l.85-21.86,5.78.49-2.78,21.7Zm-1.77,9.14.52-6.24,5.78.49-.5,6Z"/>
    <circle class="cls-1" cx="239.65" cy="23.41" r="4.48" transform="translate(164.98 252.32) rotate(-77.51)"/>
  </g>
  <path id="LF" class="cls-1" d="M18.63,185.49a8.46,8.46,0,0,0,.93-5.25c-.07-1.23-1.15-1.81-2.06-2.46-1.25-.91-1.22-1.58.19-2.17,1.72-.73,3.48-1.35,5.23-2,.15-.06.36,0,.54,0a47,47,0,0,0,12.09-1.1c.39-.09.81-.07,1.21-.15,3.29-.62,6.71-.8,9.7-2.55,2.6-1.53,5.15-3.16,7.78-4.63,2.15-1.21,1.88-.81,1.5-3a15.36,15.36,0,0,0,2.14-1.57c.77-.8.61-1.6-.29-2.25a4.48,4.48,0,0,0-3.26-.71c-1.48.15-3,.19-4.47.28,1.79-1.13,3.58-2,5.35-3,.83-.45.93-1.13.21-1.74a2.72,2.72,0,0,0-1.47-.65,12,12,0,0,0-5.74.88c-1.09.48-2.24.84-3.36,1.26l-.16-.38c.47-.22.95-.42,1.4-.67a41.22,41.22,0,0,0,4-2.27,1.9,1.9,0,0,0,.9-2.29c-.48-1-1.54-1.15-2.58-1.12a1.86,1.86,0,0,0-.66.11c-1.12.47-2.25.91-3.32,1.47a2.17,2.17,0,0,1-1.82.3,2.74,2.74,0,0,0-2.14.29c-1.61.73-3.08,1.78-5,1.73a17.51,17.51,0,0,0-3.83.52c-.8.17-1.66.43-1.41,1.61,0,.17-.13.38-.2.59-3.51-2-4.4-1.88-5.25.71-1.42-1.56-2.77-1.83-4.82-1.16a10,10,0,0,1-2.79.37,19.87,19.87,0,0,1-2.31-.24c-2.32-.21-3.8,1.06-3.82,3.37a15,15,0,0,1-1,4.8,38.65,38.65,0,0,0-1.61,6.27c-.29,1.78-.4,3.58,1,5.21A12.34,12.34,0,0,1,11,177.48a15.94,15.94,0,0,0,.66,2.22c1.18,2,2.41,4,3.74,5.93A1.84,1.84,0,0,0,18.63,185.49Zm37.1-23.28C55.72,162.15,55.75,162.09,55.73,162.21Zm-7.32,1.87c-.74.15-1.42,0-2,.09s-5.71,1.19-7.21,1.37a4.54,4.54,0,0,1-2,0s4.79-1,5.31-1,7.89-1.81,8.69-2.09,1,.33,1,.33c.14.63-3.1,1.12-3.83,1.27Z"/>
  <path id="RF" class="cls-1" d="M157.32,195.17c-2.4-3.81-4.52-7.66-6.61-11.62a9.42,9.42,0,0,1-.61-2.59,4.74,4.74,0,0,1,.64-2.7,30.34,30.34,0,0,1,4.88-12.33,2.41,2.41,0,0,1,1.58-.63,4.32,4.32,0,0,1,2,1.9c1.49,2.44.06,5.53-1.78,7.49a34.1,34.1,0,0,0,4.67.8c8.69.69,17.48-2.42,25.87.24l2.12.8,1.06.41a4.63,4.63,0,0,0,.91.45c.33.13.69.24,1.06.34.76.22,1.64.35,2.4.65,1.11.3,2.19,1.67,1.5,2.32-.92,1.09-2.69.37-4.34.38l-1,0-.75,0c-.75,0-1.39.28-2,.27l-3.32-.09c-2.05.22-4-.73-6.07.1a34.15,34.15,0,0,0,7.61.31c1.12.05,2.51.14,3.74.23l1.36.09c2,0,4-.62,6.25-.11,1.55.49,2.6,2.75,1,3.6a6.21,6.21,0,0,1-3.07.95,17.49,17.49,0,0,0-3.23.44,31.65,31.65,0,0,0,3.61,1.1c1.16.37,2,.85,1.91,1.73a2,2,0,0,1-1.11,1.91,5.29,5.29,0,0,1-2.61.27c-2.14-.11-4.13-.83-6.36-.89,2,1.62,5.56.59,7.05,3.32a1.81,1.81,0,0,1-.73,2.21c-2.49,1-4.67-.58-7.13-.64-.68,0-1.59.85-2.24.39-3.76-1.44-7.6.46-11.12-1.42-.23,0-.2-.67-.42-1.13a10.62,10.62,0,0,1-1.57,1.34,2.05,2.05,0,0,1-3.34-1.26c-2.1,3.29-6,.28-9,1.75A4.05,4.05,0,0,1,157.32,195.17Z"/>
  <path id="RH" class="cls-1" d="M397.31,136.9c-.34,0-.69.36-1,.13-.17-.12,0-.35-.05-.52a7.07,7.07,0,0,1,.8-2,5.93,5.93,0,0,0,.4-.8c.27-1,.5-4.14,1.76-4,1-2.31,4.89-.84,6.82-1s3.81-1.55,5.67-1c.84.23,1.29.94,2.18,1.14a1.5,1.5,0,0,0-.16-.68,1.12,1.12,0,0,0,.77-.14c0-1.27,10.59-.85,11.93-.84s4.95.19,2.62,2.67c-.36.38-4.51,1.09-4.44.56-.06.11,0,1-.35.37-.52.56-1.2,1.37-2.31.89s-.47-1.21-1.1-2c0,0,.63,2.66-.19,2.21-.49-.26-.11-2.24-1.08-2.73,0,.23.73,2.78.52,2.79-.46,0-.79-2.47-.92-2.52-.6-.24.1,2.67,0,2.87-.4.63-2.59,1-3.58.84a1.14,1.14,0,0,1-.34-.1c-.84-.15-.77-1.25-1.06-1.88a1.62,1.62,0,0,0-.16.49c0,.19-.06.4-.08.61-.11.47-1,3.4-.36,3.35.11,0,.23-.12.35-.16a.75.75,0,0,1,.35-.12.32.32,0,0,1,.2.11.86.86,0,0,1,.16.39c0,.19,1.87,7.12.16,7.6-.4.11-.07-.67-.1-.79-.64,0-1.19,2.85-1.85,2.16a14.88,14.88,0,0,0-1.06,3.19c-.48.29-.19,1.13-.82,1.72-1,.91-3.81.48-5.18.42-2.53-.12-7.25.46-7.53-2.51-.29.38.06,1.65-.83,1.22-.11,1.21-6.23-.43-7-.79s-3.34-2.37-3.65-3.15.56-6,.52-6.15c0,.14-.29-1-.18-.81-1.89-3.4,4.73-9.57,7.77-8,1.51.76.13-1.52,1.51.33.6.82.34,1.57,0,2.53a4.19,4.19,0,0,1-.25.43,7.43,7.43,0,0,1-.49.69c-.24.19-.35.54-.64.42s.06-.58.3-.7.44-.33.34-.45a.21.21,0,0,0-.35,0,1.56,1.56,0,0,0-.34.54,2.11,2.11,0,0,0-.13,1.21c.17-.06.12-.47.35-.35a.82.82,0,0,1,.4.81c-.06.29-.46.34-.41.58.17.7-.24,1.61-.48,1.62-1.68-.07-3.17-1.35-4.61-2.41.91,1.57,2.94,1.82,3.8,3.38a8,8,0,0,1,.61,2.83c0,.17.08.34.13.51s.1.34.15.5l.13.64c.09.42.17.84.26,1.24.2.91.09,2.48.52,3.25,0-.11.53-1.39.59-1.43-1.17.09-.31-2,.11-2.16a3.73,3.73,0,0,1-.53-.42,4.54,4.54,0,0,1-.49-.55c-.13-.18-.26-.38-.39-.6a6.67,6.67,0,0,1-.37-.7,1.79,1.79,0,0,1,.65-2.53.25.25,0,0,1,.29.06.58.58,0,0,0,.23.29c.12.06.23.18.35.18s.23-.29.23-.46c-.05-.52-1-.7-.57-1.27s.93-.28,1.39-.28c.11,0,.17-.11.23-.23a.22.22,0,0,0-.17.06c.06-.17.12-.35.36-.31m23.43,5.31a1.06,1.06,0,0,0-.4-.54c-.3,1.08.53,1.72.17,2.43,0,0-.71.4-.93.48a2.72,2.72,0,0,1-3.73-3.22,2.87,2.87,0,0,1,2.69-2.23,2.71,2.71,0,0,1,.85.32c.2.06,1.53.47,1.43.45.06,0,.12.7.38.78.21-.14.76-1.61,1.37-1.12a.36.36,0,0,1-.14.44c-.12-.19,2-1,2.19-.49,0,.13-.11.22,0,.46s.26-.58.14-.5c.69-.45,6.73,1.69,7,2.5.56,1.88-1.41,2-2.81,2.14-1.68.2-5.6.88-7.22,0-.67-.34-.7-1.78-1-1.88Zm1.18-2.34s.49.63,0,0Zm-1.88,6.91a12.13,12.13,0,0,0-.22-1.32c0-1.08,3.76.25,3.7.47,0-.07-.85.22-.57.35-.18-.08.73.08.69.1,0-1,1.85-.1,2.28.39,1.73,1.95-1.38,2.67-2.93,2.88a46.47,46.47,0,0,1-7.82.49c-1.38,0-2.69-.17-3-.12-1.17.18-.59-2.88.06-2.65,0,0,0,1.08.2.91.51-.35.15-1.58.51-2.19.6-1,1.27-.8,2.18-.94s4.31,0,4.36.61l-.36.2c.54,0,.89.83,1,1m2.38-11.8c-.09.5-1-1.55-1-1.86.31-1.42,1.92-1.18,3.09-1.26,1.81-.12,3.95-1,5.69-.86,4.34.29-.38,3.58-2.45,4.18-1.08.31-2.79,1.11-3.91,1-1.49-.1-.95-.22-1.44-1.23Zm-3.09-1.83c.69.13,1.16,3,1.6,3.82a5.25,5.25,0,0,0,0-1.5s.64.43.61.42a8.24,8.24,0,0,1-1.39-2.59c-.06-.63,2.88,3.24,1.62,3.36-.12,0-.12-.41-.22-.46.54,1-.36.24-.41-.19.59,0-1.41,2.05-1.95,2.22-1.63.53-3.13,0-3.47-2a2.15,2.15,0,0,1,1.1-2.44c.47-.36,2.31-1.24,2.5-.64Zm-24.78-5.07a5.82,5.82,0,0,0,2.58-4c.2-1.86-.78-2.22-2.56-1.25-.71.39-2.28,3.27-2.35,3.28-.28-.61-.38.78-.2,1C391.62,127.57,393.49,129,394.79,128.41Zm-1,7.54c-.71-.17-.17.11,0,0Z"/>
  <path id="LH" class="cls-1" d="M278.62,111.06c-.23.09-.33-.06-.43-.22a.22.22,0,0,0,.18,0c-.09-.1-.17-.2-.28-.17-.45.12-1,.44-1.42.07s.32-.86.24-1.38c0-.17-.1-.39-.34-.39s-.2.17-.29.27a.58.58,0,0,0-.15.34.25.25,0,0,1-.27.13,1.8,1.8,0,0,1-1.25-2.31,6.67,6.67,0,0,1,.19-.76c.08-.24.16-.47.24-.67a4.54,4.54,0,0,1,.35-.66,3.72,3.72,0,0,1,.41-.54c-.44-.07-1.79-1.87-.63-2.07-.07,0-.83-1.15-.92-1.24-.23.85.25,2.35.28,3.28,0,.41,0,.84,0,1.27,0,.22,0,.43,0,.65s0,.35,0,.53,0,.35,0,.52a8.11,8.11,0,0,1,.08,2.89c-.45,1.73-2.37,2.46-2.87,4.2,1.14-1.37,2.28-3,3.89-3.45.22-.06.85.74.85,1.46,0,.24.41.19.54.46a.82.82,0,0,1-.19.88c-.2.17-.24-.24-.42-.25a2.12,2.12,0,0,0,.42,1.14,1.56,1.56,0,0,0,.46.44c.14.08.27.06.33-.1s-.18-.26-.44-.36-.8-.28-.46-.61.45.12.73.25a7.43,7.43,0,0,1,.65.55,4.19,4.19,0,0,1,.34.35c.59.84,1,1.53.63,2.45-.89,2.13-.1-.42-1.39.69-2.58,2.22-10.5-2.17-9.48-5.92-.06.23,0-1,0-.83,0-.11-2.11-5-2-5.84s2.2-3.48,2.78-3.94,6.25-3.61,6.65-2.47c.76-.64.72.68,1.1,1-.45-2.94,4.27-3.51,6.7-4.24,1.32-.41,4-1.49,5.13-.84.76.42.68,1.29,1.21,1.47a15,15,0,0,0,1.8,2.84c.47-.83,1.71,1.84,2.32,1.65,0-.11-.52-.8-.11-.79,1.78,0,1.68,7.22,1.69,7.41a.86.86,0,0,1-.06.42.32.32,0,0,1-.17.16.75.75,0,0,1-.37,0c-.12,0-.27-.1-.38-.07-.63.1.94,2.75,1.16,3.16.07.2.15.39.23.57a1.62,1.62,0,0,0,.29.44c.13-.69-.21-1.74.57-2.09a1.14,1.14,0,0,1,.31-.18c.92-.39,3.13-.57,3.67-.05.18.17.21,3.15.73,2.78.11-.08-.17-2.59.29-2.67.21,0,.1,2.62.16,2.83.82-.71,0-2.54.39-2.91.7-.63.73,2.1.72,2.1.43-.91-.31-1.5.6-2.2s1.82-.12,2.46.3c.17-.66.35.18.43.27-.2-.5,4-.81,4.45-.53,2.85,1.84-.6,2.88-1.9,3.22s-11.44,3.3-11.78,2.06a1.13,1.13,0,0,0-.78.05,1.5,1.5,0,0,0,0-.7c-.83.42-1.09,1.22-1.85,1.64-1.69.93-4,.06-5.75.35s-5.37,2.68-6.86.68c-1.2.43-2.18-2.58-2.68-3.46a5.93,5.93,0,0,0-.58-.67,7.07,7.07,0,0,1-1.27-1.78c0-.17-.21-.36-.07-.52.28-.31.72,0,1-.13m22.08-13.09c1.36-1.25,5.33-1.53,7-1.74,1.4-.18,3.34-.56,3.25,1.4,0,.85-5.38,4.38-6.16,4.11.13,0-.19-.8-.26-.45s.12.31.1.45c-.07.54-2.31.27-2.23,0a.36.36,0,0,1,.25.39c-.47.63-1.36-.67-1.6-.75-.24.14-.11.82-.18.85.09,0-1.1.67-1.28.78,0,0-.52.47-.75.51a2.89,2.89,0,0,1-3.15-1.52,2.72,2.72,0,0,1,2.84-4c.23,0,1,.26,1,.24.53.6-.13,1.43.42,2.4a1.06,1.06,0,0,0,.26-.62C300.3,100.09,300,98.69,300.56,98.17Zm1.23,4.07C302.12,101.53,301.79,102.24,301.79,102.24Zm-3.48-6.44c-.06.23-.21,1.09-.73,1.25l.4.11c.09.64-3.3,1.58-4.1,1.65s-1.52.45-2.34-.39c-.5-.5-.44-1.78-1-2-.28-.11,0,.94,0,.93-.58.38-1.88-2.45-.7-2.56.36,0,1.6-.47,2.93-.85a46.46,46.46,0,0,1,7.69-1.41c1.56-.16,4.75-.23,3.54,2.08-.3.57-1.92,1.89-2.13.93.06,0-.79.39-.64.27-.24.2.68.27.64.2.11.2-3.24,2.4-3.48,1.35a10.34,10.34,0,0,0-.1-1.33m6.28,9.11c1.06-.34,2.92,0,4,.06,2.16.09,7.53,2.14,3.39,3.47-1.66.54-3.94.23-5.73.54-1.16.21-2.67.83-3.31-.48-.14-.28.29-2.52.5-2,.25-1.11-.31-1.1,1.13-1.56Zm-6.24,4a2.15,2.15,0,0,1-1.65-2.1c-.15-2,1.18-2.9,2.89-2.78.57,0,3,1.59,2.43,1.7-.06-.42.63-1.38.35-.27.09-.07,0-.48.11-.5,1.25-.19-.68,4.28-.77,3.65a8.3,8.3,0,0,1,.72-2.85s-.49.56-.49.56a5.26,5.26,0,0,0-.38-1.45c-.22.94,0,3.8-.63,4.09,0,.62-2,.2-2.56,0Zm-22.45,12.55c-.13.22.3,1.54.43.88.08,0,2.3,2.41,3.08,2.62,2,.51,2.81-.07,2.18-1.83a5.8,5.8,0,0,0-3.48-3.28C276.7,119.85,275.21,121.68,275.88,121.71ZM275.3,113c-.2-.06-.65.33,0,0Z"/>
  <path id="LF-2" data-name="LF" class="cls-1" d="M586.21,138a8.46,8.46,0,0,0,1.29-5.17c0-1.23-1-1.88-1.88-2.6-1.18-1-1.1-1.66.34-2.16,1.76-.61,3.57-1.11,5.36-1.64.16,0,.36.05.54.07a47,47,0,0,0,12.14-.25c.4-.06.81,0,1.21-.06,3.33-.39,6.75-.33,9.85-1.87,2.71-1.34,5.36-2.79,8.09-4.08,2.23-1.06,1.93-.68,1.7-2.87A15.36,15.36,0,0,0,627.1,116c.83-.75.72-1.55-.13-2.27a4.48,4.48,0,0,0-3.2-.94c-1.49,0-3,0-4.48,0,1.86-1,3.71-1.79,5.55-2.62.86-.39,1-1.06.33-1.72a2.72,2.72,0,0,0-1.43-.75,12,12,0,0,0-5.78.48c-1.12.41-2.29.69-3.44,1l-.13-.39c.48-.19,1-.35,1.45-.57a41.22,41.22,0,0,0,4.14-2A1.9,1.9,0,0,0,621,104c-.4-1.07-1.46-1.26-2.49-1.3a1.86,1.86,0,0,0-.67.06c-1.15.39-2.31.75-3.42,1.24a2.17,2.17,0,0,1-1.84.17,2.74,2.74,0,0,0-2.16.14c-1.65.62-3.2,1.56-5.12,1.38a17.51,17.51,0,0,0-3.86.25c-.81.11-1.69.31-1.52,1.51,0,.17-.15.37-.24.57-3.36-2.24-4.26-2.18-5.28.34-1.3-1.66-2.64-2-4.72-1.49a10,10,0,0,1-2.81.17,19.87,19.87,0,0,1-2.29-.4c-2.3-.37-3.87.79-4,3.09a15,15,0,0,1-1.32,4.72,38.65,38.65,0,0,0-2,6.14c-.41,1.75-.65,3.54.6,5.26a12.34,12.34,0,0,1,1.36,3.66,15.94,15.94,0,0,0,.5,2.26c1,2.1,2.12,4.17,3.32,6.18A1.84,1.84,0,0,0,586.21,138Zm38.64-20.63C624.84,117.31,624.88,117.26,624.84,117.36Zm-7.43,1.35c-.75.1-1.41-.13-2,0s-5.78.79-7.29.87a4.54,4.54,0,0,1-2-.17s4.85-.66,5.37-.58,8-1.26,8.81-1.48,1,.4,1,.4c.09.64-3.17.9-3.91,1Z"/>
  <path id="RF-2" data-name="RF" class="cls-1" d="M771.07,151.72c-2.12-4-4-8-5.78-12.05a9.42,9.42,0,0,1-.42-2.63,4.74,4.74,0,0,1,.82-2.65,30.34,30.34,0,0,1,5.73-12,2.41,2.41,0,0,1,1.62-.51,4.32,4.32,0,0,1,1.83,2c1.31,2.54-.32,5.52-2.3,7.34a34.1,34.1,0,0,0,4.6,1.12c8.62,1.29,17.61-1.19,25.79,2l2.06.94,1,.48a4.63,4.63,0,0,0,.87.52c.32.15.67.28,1,.41.74.28,1.61.46,2.35.81,1.08.38,2.07,1.82,1.33,2.42-1,1-2.71.18-4.36.07l-1-.05-.75-.09c-.75-.07-1.4.18-2,.13l-3.31-.33c-2.06.07-4-1-6.06-.32a34.15,34.15,0,0,0,7.57.84c1.12.13,2.49.32,3.72.49l1.35.19c2,.14,4.06-.33,6.24.33,1.51.6,2.41,2.93.76,3.66a6.21,6.21,0,0,1-3.13.73,17.49,17.49,0,0,0-3.25.21,31.65,31.65,0,0,0,3.52,1.35c1.13.45,2,1,1.78,1.86a2,2,0,0,1-1.24,1.82,5.29,5.29,0,0,1-2.62.09c-2.13-.26-4.06-1.12-6.28-1.33,1.85,1.75,5.51,1,6.8,3.8a1.81,1.81,0,0,1-.88,2.16c-2.55.87-4.62-.9-7.06-1.14-.68-.07-1.64.74-2.26.23-3.65-1.7-7.61-.07-11-2.2-.23,0-.16-.69-.34-1.15a10.62,10.62,0,0,1-1.66,1.23,2.05,2.05,0,0,1-3.25-1.49c-2.33,3.14-6-.14-9.12,1.12A4.05,4.05,0,0,1,771.07,151.72Z"/>
  <path id="LH-2" data-name="LH" class="cls-1" d="M877.86,69.89c-.23.07-.32-.09-.41-.25a.22.22,0,0,0,.18,0c-.08-.1-.15-.21-.27-.19-.46.08-1,.37-1.42,0s.38-.83.34-1.36c0-.17-.07-.4-.31-.41s-.21.15-.31.24a.58.58,0,0,0-.18.33.25.25,0,0,1-.27.11A1.8,1.8,0,0,1,874.13,66a6.67,6.67,0,0,1,.24-.75c.09-.23.19-.46.28-.66a4.54,4.54,0,0,1,.39-.63,3.72,3.72,0,0,1,.45-.51c-.44-.1-1.65-2-.48-2.11-.07,0-.75-1.2-.83-1.31-.29.83.09,2.36.05,3.29,0,.41,0,.84,0,1.27,0,.22,0,.43,0,.65s0,.35-.06.52,0,.35,0,.52a8.11,8.11,0,0,1-.12,2.89c-.57,1.69-2.53,2.29-3.15,4,1.23-1.28,2.49-2.81,4.13-3.17.22,0,.79.8.75,1.52,0,.24.39.22.5.5a.82.82,0,0,1-.25.87c-.21.15-.22-.25-.4-.28a2.12,2.12,0,0,0,.34,1.17,1.56,1.56,0,0,0,.42.47c.14.08.26.08.34-.08s-.16-.27-.41-.39-.77-.34-.42-.64.44.15.71.3a7.43,7.43,0,0,1,.61.6,4.19,4.19,0,0,1,.32.38c.53.88.91,1.59.46,2.49-1,2.06-.07-.42-1.43.59-2.73,2-10.32-2.9-9-6.57-.08.23.05-1,0-.83,0-.11-1.76-5.14-1.58-6s2.43-3.31,3.05-3.73,6.48-3.17,6.8-2c.81-.59.67.73,1,1.05-.24-3,4.51-3.21,7-3.76,1.34-.31,4.05-1.21,5.18-.48.73.47.59,1.34,1.1,1.55a15,15,0,0,0,1.6,3c.53-.8,1.58,2,2.2,1.81,0-.11-.46-.83-.05-.79,1.78.17,1.17,7.32,1.17,7.51a.86.86,0,0,1-.09.42.32.32,0,0,1-.18.15.75.75,0,0,1-.36-.06c-.12,0-.26-.12-.37-.1-.64.06.75,2.8.93,3.24.06.2.12.4.19.58a1.62,1.62,0,0,0,.25.46c.18-.68-.08-1.75.72-2a1.14,1.14,0,0,1,.32-.16c.95-.32,3.16-.35,3.67.21.17.18,0,3.16.53,2.82.12-.07,0-2.59.47-2.64.21,0-.08,2.62,0,2.84.87-.65.17-2.53.59-2.87.74-.58.58,2.15.57,2.15.49-.88-.21-1.52.75-2.15s1.82,0,2.43.48c.21-.65.34.2.41.3-.16-.51,4.06-.53,4.47-.21,2.72,2-.8,2.83-2.12,3.08s-11.65,2.49-11.9,1.23a1.13,1.13,0,0,0-.78,0,1.5,1.5,0,0,0,0-.7c-.86.36-1.18,1.14-2,1.5-1.75.81-4-.22-5.77-.05s-5.55,2.3-6.89.2c-1.23.34-2-2.73-2.43-3.64a5.93,5.93,0,0,0-.53-.71,7.07,7.07,0,0,1-1.14-1.87c0-.17-.19-.38,0-.52s.71,0,1-.06m22.95-11.51c1.45-1.15,5.42-1.15,7.11-1.25,1.41-.08,3.37-.32,3.14,1.62-.1.84-5.67,4-6.43,3.67.12.05-.13-.81-.23-.47s.1.32.07.46c-.1.54-2.32.1-2.23-.11a.36.36,0,0,1,.22.41c-.51.6-1.31-.76-1.54-.86-.24.12-.17.81-.24.83.09,0-1.15.59-1.33.69a2.94,2.94,0,0,1-.79.46,2.89,2.89,0,0,1-3-1.74,2.72,2.72,0,0,1,3.12-3.82c.23,0,1,.33,1,.31.49.64-.23,1.42.25,2.43a1.06,1.06,0,0,0,.3-.6C900.25,60.47,900,59,900.64,58.57Zm.94,4.14C902,62,901.59,62.72,901.59,62.71Zm-3-6.67c-.08.23-.29,1.07-.82,1.19l.39.14c0,.64-3.4,1.34-4.2,1.36s-1.54.34-2.31-.55c-.46-.54-.32-1.81-.88-2.07-.27-.13-.06.94,0,.93-.61.34-1.71-2.57-.52-2.6.36,0,1.63-.36,3-.64a46.46,46.46,0,0,1,7.77-.87c1.56,0,4.75.11,3.39,2.33-.34.55-2,1.75-2.19.78.05,0-.81.33-.66.22-.25.18.66.31.62.25.09.2-3.4,2.17-3.56,1.1a10.34,10.34,0,0,0,0-1.33m5.62,9.52c1.08-.27,2.91.22,4,.35,2.15.24,7.36,2.66,3.14,3.7-1.7.42-4-.05-5.76.14-1.17.12-2.72.64-3.27-.71-.12-.29.46-2.49.64-2,.33-1.09-.23-1.12,1.24-1.48Zm-6.51,3.6a2.15,2.15,0,0,1-1.5-2.21c0-2,1.38-2.81,3.07-2.57.56.08,2.89,1.8,2.3,1.86,0-.42.72-1.34.37-.25.1-.06,0-.48.14-.49,1.26-.1-1,4.22-1,3.59a8.3,8.3,0,0,1,.92-2.79s-.52.52-.52.52a5.26,5.26,0,0,0-.28-1.48c-.29.92-.26,3.79-.91,4-.07.62-2,.06-2.55-.22ZM874.38,80.33c-.14.21.2,1.55.37.91.08,0,2.12,2.57,2.89,2.83,1.92.65,2.81.12,2.3-1.67a5.8,5.8,0,0,0-3.24-3.51C875.33,78.53,873.71,80.25,874.38,80.33Zm0-8.7c-.2-.08-.67.29,0,0Z"/>
</svg>
