<svg id="logo" xmlns="http://www.w3.org/2000/svg" viewBox="0 0 600 303">
  <defs>
    <style>
      .cls-1 {
        fill: #ffb770;
      }
    </style>
  </defs>
  <title>mobile</title>
  <g>
    <path class="cls-1" d="M81.24,60.86l11.44-.36q9.25-.21,13.56,3.27a11.9,11.9,0,0,1,4.48,9.28,14.28,14.28,0,0,1-1.34,6.62,9.1,9.1,0,0,1-4,4.25,13.76,13.76,0,0,1,5.28,4.4,15,15,0,0,1,2.12,8.27q.33,14.5-22.13,15.12l-8.05.22ZM93.79,81.3a10.73,10.73,0,0,0,5.85-1.49,6,6,0,0,0,1.8-5.35,5.23,5.23,0,0,0-2.27-4.73,11.67,11.67,0,0,0-6.05-1.22l-2,.05.35,12.8Zm.36,22.3a9.13,9.13,0,0,0,7-2.59,7.85,7.85,0,0,0,2.06-5.46q-.12-4.43-2.48-5.84a12.45,12.45,0,0,0-6.59-1.33l-2.17,0,.34,15.23Z"/>
    <path class="cls-1" d="M119.35,96.42a25.32,25.32,0,0,1-2.74-14.7,25,25,0,0,1,4.63-14.07A12.06,12.06,0,0,1,132.18,63a12.24,12.24,0,0,1,10.25,6.07,24.51,24.51,0,0,1,2.82,14.58,25,25,0,0,1-4.73,14.18,12.19,12.19,0,0,1-11,4.75A12,12,0,0,1,119.35,96.42ZM134.2,92a48.08,48.08,0,0,0,1.24-18.43q-.65-3.68-3.7-3.9T127.63,73a39,39,0,0,0-1.48,8.53,48.27,48.27,0,0,0,.15,10q.58,3.75,3.63,4t4.3-3.43Z"/>
    <path class="cls-1" d="M150.12,63.77l9.5-1,.14,6.19a16.27,16.27,0,0,1,5-4.84,14.91,14.91,0,0,1,7.66-2l.23,9.31a32.36,32.36,0,0,0-6.39,1,13.76,13.76,0,0,0-6.29,3.11l.62,25.11-9.5,1Z"/>
    <path class="cls-1" d="M177.8,66.26l9.5-1,.1,4.91a26.58,26.58,0,0,1,5.68-4.19,11.88,11.88,0,0,1,5.18-1.62,7.43,7.43,0,0,1,5.93,2.48,10.46,10.46,0,0,1,2.47,7l.63,28.87-9.5,1-.64-25.91q-.12-5.09-3.6-5a5.86,5.86,0,0,0-2.53.74q-1.37.71-3.49,2l.68,27.55-9.49,1.15Z"/>
    <path class="cls-1" d="M237.4,101.29,236.32,58l-10.41.25.53-7.9,29.93-.74-.6,7.88-9.52.24,1.05,42.65Z"/>
    <path class="cls-1" d="M255.09,91.52a25.3,25.3,0,0,1-2.36-14.73,25,25,0,0,1,4.78-14.14,12.06,12.06,0,0,1,11-4.47,12.24,12.24,0,0,1,10.16,6.24A24.51,24.51,0,0,1,281.26,79a25,25,0,0,1-5,14.07,12.19,12.19,0,0,1-11.06,4.57A12,12,0,0,1,255.09,91.52ZM270,87.38a40.78,40.78,0,0,0,1.65-9.09,40.76,40.76,0,0,0-.11-9.23q-.69-3.72-3.62-4t-4.17,3.19a39.24,39.24,0,0,0-1.54,8.55,48.29,48.29,0,0,0,0,10,4,4,0,0,0,3.52,4Q268.73,91.13,270,87.38Z"/>
    <path class="cls-1" d="M303.83,51.83l11.44-.36q9.25-.21,13.56,3.27a11.93,11.93,0,0,1,4.45,9.41A14.28,14.28,0,0,1,332,70.77,9.08,9.08,0,0,1,328,75a13.76,13.76,0,0,1,5.28,4.4,15,15,0,0,1,2.12,8.27q.35,14.27-22.15,14.82l-8.05.22Zm12.55,20.44a10.73,10.73,0,0,0,5.85-1.49A6,6,0,0,0,324,65.41a5.23,5.23,0,0,0-2.33-4.74,11.67,11.67,0,0,0-6.05-1.22l-2,.05.3,12.79Zm.36,22.3a9.1,9.1,0,0,0,7-2.54,7.85,7.85,0,0,0,2-5.33q-.12-4.43-2.48-5.84a12.43,12.43,0,0,0-6.59-1.33l-2.17,0,.36,15Z"/>
    <path class="cls-1" d="M345.15,100.31a25.56,25.56,0,0,1-6-13.55,25.3,25.3,0,0,1,1.14-14.9,12.14,12.14,0,0,1,9.61-7.14,11.48,11.48,0,0,1,11,3.55A26.16,26.16,0,0,1,366.78,82a1.2,1.2,0,0,1-.16.79.81.81,0,0,0-.07.36l-17.91,3.19a26.5,26.5,0,0,0,2.52,7.74q1.77,3.4,4.09,3a4.21,4.21,0,0,0,3.41-3.69l.7-3.49L367,91.48a16.22,16.22,0,0,1-3.16,8.38A12.92,12.92,0,0,1,345.61,101h0l-.56-.54ZM356.81,79.2A15.85,15.85,0,0,0,354.71,73,3.58,3.58,0,0,0,351,71.27a3.11,3.11,0,0,0-2,1.52,8.53,8.53,0,0,0-1.2,3.44,14,14,0,0,0,0,4.65Z"/>
    <path class="cls-1" d="M401.73,105.75,382.22,57.91l10.62-2.39,10.87,29L404,53.89,411.89,52l10.94,29.38.76-31.15,9-2.09-1.47,52.23-9.71,1.8-11-29.63.27,31.71Z"/>
    <path class="cls-1" d="M439.23,106.14l-.82-37.85,9.5-1,.92,37.87Z"/>
    <path class="cls-1" d="M456.55,103.9l-1.22-50.15,9.5-1.45,1.3,50.57Z"/>
    <path class="cls-1" d="M471.48,85.32q-.25-10.41,2.35-15.08a9.16,9.16,0,0,1,8.39-4.93,7.85,7.85,0,0,1,4.72,1.49,9.39,9.39,0,0,1,3.35,3.91l-.41-16.6,9.58-1.32,1.28,50.54-7.19,1-2.63-5.23a7.85,7.85,0,0,1-2.41,4.13,8.58,8.58,0,0,1-5.68,1.68Q472,105.32,471.48,85.32Zm18.14,10.47A16.74,16.74,0,0,0,490.74,88l-.36-12.75a5.57,5.57,0,0,0-4.74-3A3.66,3.66,0,0,0,482.39,74a9.55,9.55,0,0,0-1.25,4.2,60.7,60.7,0,0,0-.14,6.89,65.2,65.2,0,0,0,.47,7.06A10.28,10.28,0,0,0,483,96.52a3.61,3.61,0,0,0,3.3,1.63,3.82,3.82,0,0,0,3.36-2.36Z"/>
    <path class="cls-1" d="M510.61,98.93l.73-36.15,9.56.62L517,99.33ZM508,114.09l.67-10.33,9.56.62-.64,9.91Z"/>
    <circle class="cls-1" cx="443.85" cy="48.06" r="7.4" transform="translate(308.92 473.63) rotate(-78.59)"/>
  </g>
  <path id="RF" class="cls-1" d="M-14.55,276.71C-17,272.86-19.13,269-21.24,265a9.53,9.53,0,0,1-.61-2.62,4.79,4.79,0,0,1,.65-2.74,30.71,30.71,0,0,1,4.94-12.48,2.44,2.44,0,0,1,1.6-.63,4.38,4.38,0,0,1,2,1.92c1.51,2.47.06,5.6-1.8,7.58a34.52,34.52,0,0,0,4.72.81c8.8.69,17.7-2.45,26.18.24l2.15.81,1.07.41a4.69,4.69,0,0,0,.92.46c.34.13.7.24,1.08.34.77.23,1.66.35,2.43.65,1.12.3,2.22,1.69,1.52,2.35-.93,1.1-2.72.37-4.39.38l-1,0-.76,0c-.76,0-1.41.28-2,.27l-3.36-.09c-2.08.22-4.08-.74-6.14.11a34.56,34.56,0,0,0,7.7.32c1.14.05,2.54.14,3.79.23l1.38.09c2,0,4.08-.62,6.32-.11,1.57.49,2.64,2.78,1,3.64a6.28,6.28,0,0,1-3.11,1,17.7,17.7,0,0,0-3.27.45,32,32,0,0,0,3.65,1.12c1.18.37,2.07.86,1.93,1.75a2,2,0,0,1-1.13,1.93,5.36,5.36,0,0,1-2.64.27c-2.17-.11-4.18-.84-6.44-.9,2,1.64,5.63.6,7.14,3.36a1.83,1.83,0,0,1-.74,2.24c-2.52,1.06-4.73-.58-7.21-.65-.69,0-1.61.86-2.27.39-3.8-1.46-7.69.46-11.26-1.44-.23,0-.21-.68-.42-1.14A10.75,10.75,0,0,1,.8,276.57a2.08,2.08,0,0,1-3.38-1.28c-2.13,3.33-6.12.28-9.13,1.77A4.1,4.1,0,0,1-14.55,276.71Z"/>
  <path id="RH" class="cls-1" d="M228.36,217.73c-.34,0-.7.36-1,.13-.18-.12,0-.35-.05-.53a7.15,7.15,0,0,1,.81-2.06,6,6,0,0,0,.41-.81c.27-1,.5-4.19,1.78-4.06,1-2.34,4.95-.85,6.9-1s3.85-1.57,5.74-1.06c.85.23,1.3,1,2.21,1.16a1.51,1.51,0,0,0-.16-.69,1.14,1.14,0,0,0,.77-.14c0-1.29,10.72-.86,12.08-.85s5,.2,2.65,2.7c-.36.38-4.57,1.11-4.5.57-.06.11,0,1-.35.37-.53.57-1.22,1.39-2.34.9s-.47-1.23-1.12-2c0,0,.64,2.69-.2,2.24-.49-.26-.11-2.26-1.09-2.76,0,.23.74,2.81.53,2.82-.47,0-.8-2.5-.93-2.55-.61-.24.1,2.7,0,2.91-.41.64-2.62,1-3.62.85a1.16,1.16,0,0,1-.35-.1c-.85-.15-.78-1.26-1.07-1.91a1.64,1.64,0,0,0-.16.5c0,.19-.06.41-.08.61-.11.47-1,3.44-.36,3.39.12,0,.23-.12.35-.17a.76.76,0,0,1,.35-.12.33.33,0,0,1,.21.12.87.87,0,0,1,.17.4c0,.19,1.9,7.21.16,7.69-.41.11-.07-.67-.1-.8-.65,0-1.2,2.89-1.88,2.19a15.06,15.06,0,0,0-1.08,3.23c-.48.29-.19,1.14-.83,1.74-1,.92-3.85.49-5.25.43-2.56-.13-7.34.47-7.62-2.54-.3.38.06,1.67-.84,1.23-.11,1.22-6.3-.43-7.13-.8s-3.38-2.4-3.7-3.19.57-6.11.53-6.23c0,.15-.3-1-.18-.82-1.92-3.44,4.78-9.69,7.86-8.14,1.53.77.13-1.54,1.53.34.61.83.35,1.59,0,2.57a4.24,4.24,0,0,1-.25.43,7.52,7.52,0,0,1-.5.7c-.24.19-.36.54-.65.42s.06-.59.3-.71.44-.33.34-.46a.22.22,0,0,0-.35,0,1.58,1.58,0,0,0-.34.54,2.13,2.13,0,0,0-.13,1.23c.18-.06.12-.47.35-.35a.83.83,0,0,1,.4.82c-.06.29-.47.35-.42.58.17.7-.25,1.63-.48,1.64-1.7-.07-3.21-1.37-4.66-2.44.93,1.59,3,1.84,3.84,3.42a8.06,8.06,0,0,1,.62,2.86c0,.17.08.34.13.52s.1.34.16.51l.14.65c.09.43.18.85.27,1.26.2.92.09,2.51.52,3.29.05-.11.53-1.41.6-1.45-1.18.09-.31-2,.11-2.19a3.77,3.77,0,0,1-.53-.42,4.59,4.59,0,0,1-.5-.56c-.13-.18-.26-.38-.4-.6a6.76,6.76,0,0,1-.37-.7,1.81,1.81,0,0,1,.66-2.56.26.26,0,0,1,.29.06.59.59,0,0,0,.23.29c.12.06.23.18.35.18s.24-.29.24-.47c-.05-.53-1-.71-.58-1.29s.94-.29,1.41-.28c.12,0,.18-.12.23-.23a.23.23,0,0,0-.18.06c.06-.17.12-.35.37-.32m23.72,5.37a1.07,1.07,0,0,0-.41-.54c-.31,1.09.54,1.74.17,2.46,0,0-.72.41-.95.48a2.75,2.75,0,0,1-3.78-3.26,2.91,2.91,0,0,1,2.72-2.26,2.74,2.74,0,0,1,.86.32c.2.07,1.54.47,1.45.46.07,0,.12.71.39.79.21-.14.77-1.63,1.39-1.13a.36.36,0,0,1-.15.45c-.12-.19,2-1,2.21-.5.05.13-.11.22,0,.47s.26-.58.14-.51c.7-.46,6.81,1.71,7.06,2.53.57,1.9-1.43,2-2.85,2.17-1.7.2-5.67.89-7.31,0-.68-.35-.71-1.8-1-1.91Zm1.2-2.37s.49.64,0,0Zm-1.9,7a12.28,12.28,0,0,0-.22-1.34c0-1.09,3.8.26,3.74.48,0-.07-.86.22-.58.35-.18-.08.74.08.7.1,0-1,1.87-.1,2.31.39,1.75,2-1.39,2.7-3,2.91a47,47,0,0,1-7.91.49c-1.39,0-2.72-.17-3.09-.12-1.19.18-.6-2.91.06-2.69,0,0,0,1.09.2.92.51-.36.15-1.6.52-2.22.61-1,1.29-.81,2.21-1s4.36,0,4.42.62l-.36.2c.55,0,.9.84,1,1M254,216.13c-.09.51-1.05-1.57-1-1.88.31-1.44,1.94-1.2,3.13-1.28,1.83-.13,4-1,5.76-.87,4.4.3-.38,3.62-2.48,4.24-1.1.32-2.83,1.13-4,1-1.51-.1-1-.22-1.46-1.25Zm-3.13-1.85c.7.13,1.17,3,1.62,3.87a5.32,5.32,0,0,0,0-1.52s.65.44.61.43a8.34,8.34,0,0,1-1.41-2.62c-.06-.64,2.92,3.28,1.64,3.4-.12,0-.12-.42-.23-.46.54,1-.36.24-.41-.19.59,0-1.42,2.08-2,2.25-1.65.54-3.17,0-3.51-2a2.17,2.17,0,0,1,1.11-2.47c.48-.36,2.34-1.25,2.53-.64Zm-25.08-5.14a5.89,5.89,0,0,0,2.61-4.07c.2-1.88-.79-2.25-2.59-1.27-.71.39-2.31,3.31-2.38,3.32-.28-.61-.38.79-.2,1C222.6,208.29,224.49,209.74,225.81,209.14Zm-1,7.63c-.72-.17-.17.11,0,0Z"/>
  <path id="LH" class="cls-1" d="M108.23,191.57c-.23.09-.33-.06-.43-.22a.23.23,0,0,0,.18,0c-.09-.1-.17-.2-.29-.17-.45.12-1,.45-1.43.07s.32-.87.25-1.4c0-.17-.1-.4-.34-.4s-.2.17-.3.27a.59.59,0,0,0-.15.34.26.26,0,0,1-.27.13,1.82,1.82,0,0,1-1.26-2.34,6.75,6.75,0,0,1,.19-.77c.08-.24.16-.48.24-.68a4.59,4.59,0,0,1,.35-.66,3.77,3.77,0,0,1,.42-.54c-.45-.07-1.81-1.89-.63-2.09-.07,0-.84-1.16-.93-1.26-.24.86.26,2.38.28,3.32,0,.42,0,.85,0,1.29,0,.23,0,.44,0,.66s0,.35,0,.53,0,.35,0,.53a8.21,8.21,0,0,1,.08,2.93c-.46,1.75-2.4,2.49-2.9,4.25,1.16-1.38,2.31-3,3.94-3.49.22-.06.86.75.86,1.48,0,.24.41.2.54.47a.83.83,0,0,1-.19.9c-.2.17-.24-.24-.43-.25a2.15,2.15,0,0,0,.42,1.16,1.58,1.58,0,0,0,.46.45c.14.08.27.06.34-.1s-.18-.26-.44-.36-.81-.29-.47-.62.45.12.73.25a7.52,7.52,0,0,1,.65.56,4.24,4.24,0,0,1,.35.36c.59.85,1,1.54.64,2.48-.9,2.16-.1-.42-1.4.7-2.61,2.25-10.62-2.2-9.6-6-.06.24,0-1,0-.84,0-.11-2.14-5.07-2-5.91s2.22-3.52,2.82-4,6.32-3.66,6.73-2.5c.77-.65.73.69,1.11,1-.45-3,4.32-3.56,6.78-4.29,1.33-.41,4-1.51,5.19-.85.77.42.69,1.31,1.22,1.48a15.13,15.13,0,0,0,1.82,2.87c.48-.84,1.73,1.87,2.35,1.67,0-.12-.52-.81-.11-.8,1.81,0,1.7,7.3,1.71,7.5a.87.87,0,0,1-.06.43.33.33,0,0,1-.17.16.76.76,0,0,1-.37,0c-.13,0-.27-.1-.38-.08-.64.1,1,2.78,1.17,3.2.07.2.15.4.23.58a1.64,1.64,0,0,0,.29.45c.13-.7-.21-1.76.58-2.11a1.16,1.16,0,0,1,.31-.18c.93-.39,3.17-.57,3.72-.05.18.17.21,3.19.74,2.81.11-.08-.17-2.62.29-2.7.21,0,.1,2.65.16,2.87.83-.72,0-2.57.4-2.94.7-.64.74,2.13.73,2.13.43-.92-.32-1.52.61-2.23s1.84-.12,2.49.31c.17-.67.35.18.43.28-.2-.5,4.06-.82,4.5-.53,2.89,1.86-.6,2.91-1.93,3.26s-11.58,3.34-11.93,2.09a1.14,1.14,0,0,0-.79.05,1.51,1.51,0,0,0,0-.71c-.84.42-1.11,1.23-1.88,1.66-1.71.94-4,.06-5.82.36s-5.44,2.72-6.94.68c-1.21.43-2.2-2.61-2.71-3.51a6,6,0,0,0-.59-.68,7.15,7.15,0,0,1-1.28-1.81c0-.17-.21-.37-.07-.53.28-.31.72,0,1-.13m22.35-13.24c1.38-1.26,5.39-1.55,7.09-1.77,1.41-.18,3.38-.57,3.29,1.42,0,.86-5.44,4.44-6.24,4.16.13,0-.19-.81-.27-.46s.12.31.11.46c-.07.55-2.33.27-2.26,0a.36.36,0,0,1,.25.4c-.48.64-1.38-.67-1.62-.76-.24.14-.11.83-.18.86.09,0-1.12.68-1.3.79,0,0-.52.48-.76.52a2.92,2.92,0,0,1-3.19-1.54,2.75,2.75,0,0,1,2.88-4.07c.23,0,1.05.26,1,.24.54.61-.13,1.45.43,2.43a1.07,1.07,0,0,0,.26-.62C130.17,180.47,129.85,179.05,130.43,178.53Zm1.25,4.12C132,181.93,131.68,182.65,131.68,182.64Zm-3.52-6.52c-.07.24-.22,1.1-.74,1.26l.4.11c.09.64-3.34,1.6-4.15,1.67s-1.53.45-2.37-.39c-.5-.51-.45-1.8-1-2-.28-.11,0,1,0,.94-.59.38-1.9-2.48-.71-2.59.36,0,1.62-.48,3-.86a47,47,0,0,1,7.78-1.43c1.57-.16,4.8-.23,3.58,2.11-.3.58-1.94,1.91-2.15.94.06,0-.8.39-.65.27-.24.2.68.27.65.2.11.2-3.27,2.43-3.52,1.37a10.47,10.47,0,0,0-.11-1.34m6.35,9.22c1.07-.34,3,0,4.09.06,2.19.09,7.62,2.16,3.43,3.51-1.68.54-4,.23-5.8.55-1.17.21-2.7.84-3.35-.48-.14-.29.29-2.55.5-2.06.25-1.12-.31-1.11,1.15-1.58Zm-6.32,4.1a2.17,2.17,0,0,1-1.67-2.13c-.15-2,1.19-2.94,2.92-2.81.57,0,3,1.61,2.46,1.72-.06-.43.63-1.4.35-.28.1-.07,0-.49.11-.51,1.27-.19-.68,4.33-.77,3.69a8.4,8.4,0,0,1,.73-2.88s-.49.57-.49.56a5.33,5.33,0,0,0-.39-1.47c-.22,1,0,3.84-.64,4.14,0,.63-2,.21-2.59,0Zm-22.72,12.7c-.13.22.31,1.55.43.89.08,0,2.33,2.44,3.11,2.65,2,.52,2.84-.07,2.2-1.85a5.87,5.87,0,0,0-3.52-3.32C106.28,200.47,104.78,202.33,105.45,202.36Zm-.58-8.79c-.21-.07-.66.34,0,0Z"/>
  <path id="LF" class="cls-1" d="M419.56,218.84a8.57,8.57,0,0,0,1.31-5.23c0-1.25-1-1.9-1.91-2.63-1.2-1-1.12-1.68.35-2.18,1.79-.62,3.61-1.12,5.43-1.66.16,0,.36.05.55.07a47.58,47.58,0,0,0,12.29-.26c.4-.06.82,0,1.23-.06,3.37-.39,6.83-.33,10-1.89,2.74-1.36,5.43-2.82,8.19-4.13,2.26-1.07,2-.69,1.72-2.91a15.54,15.54,0,0,0,2.27-1.44c.84-.75.72-1.57-.13-2.29a4.53,4.53,0,0,0-3.24-.95c-1.5,0-3,0-4.53,0,1.88-1,3.76-1.81,5.62-2.65.87-.39,1-1.07.34-1.74a2.76,2.76,0,0,0-1.44-.76,12.11,12.11,0,0,0-5.85.48c-1.14.41-2.32.69-3.48,1l-.13-.4c.49-.19,1-.36,1.47-.58a41.72,41.72,0,0,0,4.19-2,1.92,1.92,0,0,0,1.07-2.25c-.41-1.08-1.47-1.27-2.53-1.32a1.88,1.88,0,0,0-.67.06c-1.16.4-2.34.76-3.46,1.25a2.2,2.2,0,0,1-1.86.17,2.77,2.77,0,0,0-2.19.14c-1.67.63-3.24,1.58-5.18,1.39a17.72,17.72,0,0,0-3.91.26c-.82.11-1.71.31-1.54,1.53,0,.17-.15.37-.25.58-3.4-2.27-4.31-2.21-5.35.34-1.32-1.68-2.67-2-4.78-1.51a10.13,10.13,0,0,1-2.85.17,20.11,20.11,0,0,1-2.32-.4c-2.32-.38-3.92.8-4.09,3.13a15.22,15.22,0,0,1-1.34,4.78,39.12,39.12,0,0,0-2.06,6.21c-.42,1.77-.65,3.58.61,5.33a12.49,12.49,0,0,1,1.38,3.7,16.13,16.13,0,0,0,.51,2.29c1,2.12,2.15,4.22,3.36,6.25A1.86,1.86,0,0,0,419.56,218.84ZM458.66,198C458.66,197.9,458.7,197.85,458.66,198Zm-7.52,1.37c-.76.1-1.43-.13-2,0s-5.85.8-7.38.88a4.59,4.59,0,0,1-2-.17s4.91-.67,5.43-.58,8.1-1.27,8.92-1.49,1,.41,1,.41c.09.64-3.2.91-4,1Z"/>
  <path id="RF-2" data-name="RF" class="cls-1" d="M581.44,232.73c-2.15-4-4-8.06-5.85-12.2a9.53,9.53,0,0,1-.43-2.66,4.79,4.79,0,0,1,.83-2.68,30.71,30.71,0,0,1,5.8-12.11,2.44,2.44,0,0,1,1.64-.52,4.38,4.38,0,0,1,1.85,2.05c1.33,2.57-.33,5.59-2.32,7.43a34.52,34.52,0,0,0,4.65,1.14c8.73,1.31,17.82-1.21,26.1,2.07l2.08,1,1,.48a4.69,4.69,0,0,0,.88.52c.33.15.68.29,1,.42.75.28,1.63.47,2.38.82,1.1.38,2.09,1.85,1.35,2.45-1,1-2.74.18-4.41.08l-1-.05-.76-.09c-.76-.07-1.42.18-2,.13l-3.35-.33c-2.09.07-4-1-6.13-.32a34.56,34.56,0,0,0,7.66.85c1.13.13,2.53.32,3.76.49l1.37.19c2,.14,4.11-.34,6.32.33,1.53.6,2.43,3,.77,3.71a6.28,6.28,0,0,1-3.17.74,17.7,17.7,0,0,0-3.29.22,32,32,0,0,0,3.56,1.37c1.15.45,2,1,1.8,1.88a2,2,0,0,1-1.26,1.85,5.36,5.36,0,0,1-2.65.09c-2.15-.26-4.11-1.13-6.36-1.35,1.87,1.77,5.58,1,6.89,3.85a1.83,1.83,0,0,1-.9,2.18c-2.58.88-4.68-.91-7.15-1.15-.68-.07-1.66.75-2.29.23-3.69-1.72-7.7-.07-11.13-2.22-.23,0-.16-.7-.34-1.17a10.75,10.75,0,0,1-1.68,1.24,2.08,2.08,0,0,1-3.29-1.51c-2.35,3.18-6.12-.14-9.23,1.13A4.1,4.1,0,0,1,581.44,232.73Z"/>
</svg>
