<svg id="Layer_1" data-name="Layer 1" xmlns="http://www.w3.org/2000/svg" viewBox="0 0 3647.69 1052.66" fill="#ffb770">
  <title>new-footprints</title>
  <g>
    <path d="M172,205.65c7.87.4,15.72.91,23.61,1.14,14.88.43,29.71,2,44.58,2.93,8.13.49,15.28,3.64,22.41,7.11,2.87,1.4,5,3,4.3,6.65-.65,3.48-3.06,4.75-6.19,5.2a106.61,106.61,0,0,0-13.79,2.61c10.83-1.67,21.12,1.76,31.64,2.88,5.89.63,14.76-.6,15,8.14.28,9.46-8.9,7.09-14.18,7.08-17.2,0-34.41-.94-51.6-1.87a62.24,62.24,0,0,0-14.65.71c11.52,1.23,22.92,2.81,34.53,3.47a143.49,143.49,0,0,1,45,9.76c3.65,1.45,4.82,4.06,4.1,7.65s-3.2,5.59-7,5.13c-11.08-1.35-22.14,2.43-33.34.28a58.63,58.63,0,0,1,21.75,6.36c2.57,1.38,4.54,3,3.93,6a6.1,6.1,0,0,1-6.11,5.28c-4.08.19-8.24.79-12.23.25-23.21-3.15-46.56-3.74-69.91-4.35-1.46,0-3-.54-4.36-.15-19.22,5.64-38.17,3.14-57.13-1.49-5.84-1.43-11.7-.26-17.29,1.55-6.84,2.22-7.83,7.22-2.11,11.49a112.53,112.53,0,0,0,13.51,8.07c4,2.2,6.11,5.51,5.86,10s-3.66,6.09-7.54,7.38c-21,7-34,2.7-44.73-17-8-14.71-19.83-23.77-34.67-30.6-10.82-5-22.07-9.43-31.89-16.46-13.48-9.66-17-22-10-36.72,5.15-10.87,16.44-12.56,26.1-16a158.33,158.33,0,0,1,85.27-6.26c13.36,2.65,27.35,2.11,41.05,3,1.7.11,3.55-.38,5.74,2.75C161.65,207.67,168,205.45,172,205.65Z"/>
    <path d="M1409.58,213.11c7.64-1.94,15.29-3.78,22.89-5.9,14.34-4,29-6.84,43.45-10.38,7.91-1.94,15.67-1,23.51.16,3.15.48,5.65,1.39,6.08,5.08.41,3.52-1.52,5.44-4.37,6.8a106.61,106.61,0,0,0-12.4,6.57c9.85-4.8,20.69-4.56,31.07-6.61,5.81-1.14,13.92-4.94,16.75,3.33,3.06,9-6.4,9.4-11.45,11-16.44,5.07-33.15,9.28-49.84,13.48a62.24,62.24,0,0,0-13.79,5c11.37-2.23,22.73-4.1,34-6.9a143.49,143.49,0,0,1,45.88-4c3.91.31,5.81,2.46,6.18,6.09s-1.41,6.28-5.14,7c-11,2-20.43,8.87-31.77,10.13a58.63,58.63,0,0,1,22.66-.36c2.86.56,5.21,1.48,5.54,4.59a6.1,6.1,0,0,1-4.28,6.85c-3.84,1.39-7.63,3.2-11.61,3.86-23.1,3.86-45.58,10.2-68.07,16.52-1.41.4-3.06.39-4.21,1.15-16.69,11.07-35.54,14.29-55,15.47-6,.36-11.25,3.21-16.06,6.6-5.88,4.14-5.34,9.21,1.38,11.6a112.53,112.53,0,0,0,15.29,3.71c4.49.91,7.47,3.45,8.54,7.78s-1.7,6.9-5,9.28c-18,12.9-31.7,12.64-47.75-3-12-11.68-26-16.84-42.17-19-11.81-1.56-23.87-2.48-35.33-6.29-15.74-5.23-22.74-16-20.44-32.12,1.7-11.91,12-16.87,20.2-23a158.33,158.33,0,0,1,79.6-31.2c13.54-1.42,26.75-6.08,40.1-9.28,1.66-.4,3.28-1.41,6.29.93C1400.32,218.08,1405.72,214.09,1409.58,213.11Z"/>
    <path d="M3139.75,460.94c7.88.08,15.75.27,23.64.17,14.88-.18,29.77.83,44.66,1.1,8.14.15,15.42,3,22.68,6.18,2.92,1.28,5.11,2.79,4.57,6.46-.51,3.51-2.87,4.87-6,5.45a106.61,106.61,0,0,0-13.67,3.17c10.75-2.11,21.17.89,31.73,1.58,5.91.39,14.72-1.21,15.33,7.52.66,9.44-8.6,7.45-13.88,7.66-17.19.69-34.42.47-51.63.25a62.24,62.24,0,0,0-14.61,1.31c11.56.76,23,1.86,34.64,2.05a143.49,143.49,0,0,1,45.37,7.9c3.7,1.3,5,3.86,4.41,7.47s-3,5.71-6.75,5.41c-11.13-.89-22,3.34-33.3,1.65a58.63,58.63,0,0,1,22,5.47c2.62,1.27,4.66,2.77,4.18,5.86a6.1,6.1,0,0,1-5.89,5.52c-4.07.36-8.2,1.13-12.21.75-23.32-2.19-46.67-1.82-70-1.48-1.46,0-3.06-.41-4.36,0-19,6.42-38,4.7-57.14.85-5.9-1.19-11.7.22-17.21,2.26-6.75,2.5-7.53,7.53-1.64,11.57a112.53,112.53,0,0,0,13.83,7.51c4.11,2,6.33,5.25,6.26,9.71s-3.41,6.23-7.23,7.68c-20.71,7.85-33.88,4.09-45.39-15.11-8.61-14.37-20.79-22.93-35.9-29.15-11-4.53-22.44-8.51-32.54-15.14-13.87-9.09-17.87-21.33-11.52-36.28,4.7-11.07,15.91-13.23,25.42-17a158.33,158.33,0,0,1,84.94-9.75c13.45,2.1,27.41,1,41.14,1.31,1.71,0,3.54-.52,5.84,2.51C3129.53,463.37,3135.77,460.9,3139.75,460.94Z"/>
    <path d="M697.3,647.17c-2.83,2.55-4.53,1.66-6.21,1.38-13.55-2.23-27.06-5.93-40.67-6.36a158.33,158.33,0,0,1-81.65-25.38c-8.63-5.51-19.25-9.71-21.81-21.47-3.46-15.88,2.75-27.15,18.07-33.51,11.16-4.63,23.11-6.42,34.78-8.82,16-3.3,29.56-9.45,40.69-22,14.88-16.73,28.52-18,47.41-6.4,3.48,2.13,6.45,4.42,5.67,8.89s-3.55,7.14-8,8.38a112.53,112.53,0,0,0-15,4.81c-6.53,2.87-6.7,8-.54,11.67,5,3,10.48,5.49,16.49,5.42,19.51-.23,38.54,1.63,56,11.46,1.2.68,2.85.55,4.28.84,22.89,4.68,45.77,9.39,69.09,11.57,4,.37,7.93,1.9,11.85,3a6.1,6.1,0,0,1,4.76,6.52c-.1,3.12-2.38,4.22-5.2,5a58.63,58.63,0,0,1-22.63,1.28c11.4.44,21.32,6.62,32.42,7.81,3.77.4,5.73,2.78,5.63,6.57s-1.84,5.93-5.72,6.52a143.49,143.49,0,0,1-46.05-.67c-11.45-2-22.92-3-34.42-4.43a62.24,62.24,0,0,0,14.11,4c17,3,33.93,6,50.69,9.85,5.14,1.19,14.62,1,12.21,10.11-2.23,8.46-10.59,5.26-16.47,4.53-10.5-1.29-21.3-.27-31.47-4.35a106.61,106.61,0,0,0,12.84,5.66c2.94,1.15,5,2.93,4.85,6.47-.16,3.71-2.59,4.79-5.7,5.5-7.73,1.77-15.41,3.22-23.44,1.86-14.68-2.5-29.5-4.27-44.09-7.22-7.74-1.56-15.5-2.84-23.26-4.23C703,650.76,697.3,647.17,697.3,647.17Z"/>
    <path d="M2080.77,640.46c-3.21,2.05-4.74.9-6.35.35-13-4.42-25.72-10.28-39.08-12.94a158.33,158.33,0,0,1-76.39-38.4c-7.61-6.85-17.4-12.73-18-24.75-.81-16.23,7.16-26.33,23.31-30.1,11.76-2.74,23.85-2.55,35.76-3,16.33-.63,30.71-4.49,43.74-15,17.42-14.06,31.08-13.06,47.82,1.45,3.08,2.67,5.64,5.42,4.14,9.7s-4.67,6.47-9.22,7a112.53,112.53,0,0,0-15.57,2.29c-6.91,1.76-7.92,6.76-2.44,11.42,4.47,3.81,9.44,7.13,15.38,8,19.29,3,37.75,7.91,53.35,20.47,1.08.87,2.72,1,4.09,1.53,21.81,8.37,43.61,16.76,66.26,22.72,3.9,1,7.51,3.18,11.2,4.91a6.1,6.1,0,0,1,3.63,7.21c-.61,3.06-3,3.77-5.94,4.06a58.63,58.63,0,0,1-22.53-2.44c11.17,2.3,19.94,10,30.7,13,3.65,1,5.2,3.68,4.47,7.4s-2.79,5.55-6.71,5.5a143.49,143.49,0,0,1-45.32-8.21c-11-3.83-22.12-6.74-33.23-10a62.24,62.24,0,0,0,13.27,6.27c16.24,5.72,32.49,11.45,48.39,18,4.88,2,14.26,3.34,10.39,12-3.58,8-11.3,3.45-17,1.78-10.15-3-21-3.75-30.33-9.44a106.61,106.61,0,0,0,11.74,7.68c2.71,1.62,4.46,3.71,3.73,7.17-.76,3.63-3.34,4.3-6.52,4.49-7.92.48-15.73.65-23.43-2-14.08-4.87-28.4-9-42.31-14.34-7.38-2.81-14.83-5.34-22.25-8C2085.77,644.93,2080.77,640.46,2080.77,640.46Z"/>
    <path d="M3513.94,1041.72c-2.1,3.18-4,2.74-5.66,2.89-13.68,1.24-27.68,1-41,4a158.33,158.33,0,0,1-85.4-4.09c-9.74-3.17-21.07-4.58-26.49-15.31-7.33-14.5-4.15-27,9.09-37,9.64-7.28,20.77-12,31.46-17.26,14.67-7.21,26.25-16.56,33.89-31.47,10.21-19.92,23.1-24.55,44.29-18.09,3.9,1.19,7.35,2.66,7.72,7.19s-1.64,7.8-5.6,10.11a112.53,112.53,0,0,0-13.3,8.41c-5.6,4.41-4.49,9.39,2.41,11.43,5.64,1.67,11.52,2.69,17.32,1.11,18.83-5.11,37.72-8.09,57.07-2.94,1.33.35,2.9-.18,4.36-.26,23.33-1.21,46.66-2.39,69.78-6.13,4-.64,8.15-.14,12.23-.06a6.1,6.1,0,0,1,6.24,5.12c.68,3.05-1.25,4.68-3.78,6.12a58.63,58.63,0,0,1-21.58,6.91c11.14-2.44,22.29,1.06,33.34-.57,3.75-.55,6.25,1.26,7.09,4.95s-.29,6.2-3.9,7.75a143.49,143.49,0,0,1-44.75,10.9c-11.58,1-22.95,2.82-34.43,4.35a62.24,62.24,0,0,0,14.67.34c17.16-1.37,34.34-2.73,51.54-3.18,5.28-.14,14.39-2.74,14.35,6.72,0,8.75-8.93,7.74-14.8,8.52-10.49,1.39-20.69,5.08-31.55,3.68a106.61,106.61,0,0,0,13.85,2.25c3.14.37,5.58,1.58,6.32,5,.78,3.63-1.3,5.28-4.13,6.75-7,3.65-14.11,7-22.22,7.67-14.84,1.27-29.63,3.26-44.49,4.07-7.88.43-15.72,1.13-23.58,1.74C3520.33,1043.77,3513.94,1041.72,3513.94,1041.72Z"/>
    <g>
      <path d="M439.69,65.07a80.64,80.64,0,0,0-17.91,26.4c-.73,12.33-3.71,17.1-3.92,19.63-1.1,4.41,3.75,17.62,12,6.88,6.36-13.62,21-27,20.32-42.2S439.69,65.07,439.69,65.07Z"/>
      <path d="M468.32,63.4s-11.91,8.61-18,27.69c-5.25,16.47-12.33,23.48-13.75,29.64s11.63,18.07,20.5-1.09,22.41-30.21,21.76-45.42S468.32,63.4,468.32,63.4Z"/>
      <path d="M493.07,69.78s-11.42,7.54-18.74,25.42c-10.69,15.95-12,24.84-12.62,30.84-1.28,6.09,11.78,18,20.18-.66,9.63-19.84,22.88-30.7,22.21-45.89S493.07,69.78,493.07,69.78Z"/>
      <path d="M515.28,84.47S503.86,92,497.78,111c-9.09,14.56-11.83,21.87-12.26,25.1-.12,2.25,11.75,16.05,19,3.16,9.16-19,22.42-29.91,21.75-45.09S515.28,84.47,515.28,84.47Z"/>
    </g>
    <g>
      <path d="M362.7,886.78A80.64,80.64,0,0,1,351.22,857c2.08-12.17.25-17.49.62-20-.07-4.54,7.64-16.31,13.29-4,3.11,14.7,14.33,31,10.25,45.71S362.7,886.78,362.7,886.78Z"/>
      <path d="M390.21,894.88s-9.65-11.08-11.27-31c-1.39-17.23-6.7-25.66-6.69-32s15.42-15,19.73,5.7S407,872,402.9,886.71,390.21,894.88,390.21,894.88Z"/>
      <path d="M415.77,894.26s-9.41-9.93-12.5-29c-6.8-18-6.06-26.9-5.32-32.9.13-6.22,15.54-14.87,19.51,5.21,4.89,21.5,15.34,35.08,11.26,49.72S415.77,894.26,415.77,894.26Z"/>
      <path d="M440.72,885s-9.41-9.93-11-29.8c-5.56-16.24-6.58-24-6.26-27.23.39-2.22,15.07-13,19.27,1.23,4.62,20.62,15.08,34.2,11,48.84S440.72,885,440.72,885Z"/>
    </g>
    <g>
      <path d="M1295.38,13.71a80.64,80.64,0,0,0-9.3,30.51c3,12,1.51,17.43,2.06,19.91.25,4.53,8.8,15.72,13.54,3,2-14.89,12.05-32,6.92-46.33S1295.38,13.71,1295.38,13.71Z"/>
      <path d="M1322.23,3.64s-8.83,11.75-9,31.77c-.15,17.29-4.83,26.08-4.37,32.39s16.46,13.82,19.26-7.11,12.48-35.49,7.35-49.82S1322.23,3.64,1322.23,3.64Z"/>
      <path d="M1347.77,2.42S1339.1,13,1337.39,32.24c-5.49,18.4-4.1,27.27-2.94,33.2.58,6.2,16.57,13.71,19.09-6.6,3.32-21.8,12.77-36.1,7.64-50.4S1347.77,2.42,1347.77,2.42Z"/>
      <path d="M1373.32,9.88s-8.67,10.58-8.87,30.52c-4.38,16.6-4.83,24.39-4.28,27.61.55,2.18,16,11.86,19.13-2.61,3.12-20.9,12.57-35.2,7.43-49.5S1373.32,9.88,1373.32,9.88Z"/>
    </g>
    <g>
      <path d="M1464.92,821.41a80.64,80.64,0,0,1-19.77-25c-1.62-12.24-4.93-16.78-5.33-19.29-1.41-4.32,2.47-17.84,11.52-7.73,7.32,13.12,22.87,25.41,23.31,40.63S1464.92,821.41,1464.92,821.41Z"/>
      <path d="M1493.59,821s-12.5-7.73-19.95-26.32c-6.43-16-14-22.53-15.85-28.57s10.3-18.86,20.53-.39,24.54,28.51,25,43.73S1493.59,821,1493.59,821Z"/>
      <path d="M1517.82,812.86s-11.93-6.7-20.52-24c-11.81-15.13-13.75-23.91-14.82-29.85-1.71-6,10.45-18.8,20.18-.8,11,19.1,25,29,25.46,44.16S1517.82,812.86,1517.82,812.86Z"/>
      <path d="M1538.91,796.61s-11.93-6.7-19.37-25.2c-10.12-13.87-13.38-21-14-24.15-.29-2.23,10.56-16.86,18.77-4.53,10.52,18.33,24.52,28.21,24.94,43.4S1538.91,796.61,1538.91,796.61Z"/>
    </g>
    <g>
      <path d="M2767.9,181.4a80.64,80.64,0,0,0-22.75,22.36c-3.14,11.94-7,16-7.7,18.47-1.94,4.11.22,18,10.46,9.11,8.91-12.1,25.87-22.35,28.21-37.39S2767.9,181.4,2767.9,181.4Z"/>
      <path d="M2796.3,185.39s-13.37,6.1-23.08,23.62c-8.39,15.12-16.7,20.6-19.31,26.37s7.85,20,20.32,3,27.91-25.21,30.25-40.26S2796.3,185.39,2796.3,185.39Z"/>
      <path d="M2819.32,196.51s-12.67,5.15-23.36,21.24c-13.61,13.54-16.63,22-18.44,27.76-2.45,5.72,8,20,19.92,3.32,13.34-17.56,28.46-25.61,30.79-40.63S2819.32,196.51,2819.32,196.51Z"/>
      <path d="M2838.21,215.27s-12.67,5.15-22.37,22.58c-11.78,12.49-15.9,19.12-17,22.21-.56,2.18,8.36,18,18.05,6.84C2829.66,250,2844.79,242,2847.12,227S2838.21,215.27,2838.21,215.27Z"/>
    </g>
    <g>
      <path d="M2531,972a80.64,80.64,0,0,1-5.41-31.44c4.43-11.53,3.68-17.1,4.54-19.49.82-4.47,10.69-14.49,13.81-1.29.16,15,8,33.25,1.07,46.83S2531,972,2531,972Z"/>
      <path d="M2556.36,985.32s-7.29-12.76-4.95-32.65c2-17.17-1.53-26.48-.28-32.68s18.06-11.65,18.22,9.46,7.93,36.77,1.05,50.35S2556.36,985.32,2556.36,985.32Z"/>
      <path d="M2581.54,989.73s-7.28-11.58-6.56-30.89c-3.15-18.94-.66-27.57,1.24-33.3,1.35-6.08,18.16-11.53,18.11,8.94.57,22,8.15,37.41,1.27,51S2581.54,989.73,2581.54,989.73Z"/>
      <path d="M2607.83,985.53s-7.28-11.58-5-31.39c-2.27-17-1.74-24.8-.79-27.93.82-2.1,17.33-9.76,18.65,5,.48,21.13,8.06,36.5,1.18,50S2607.83,985.53,2607.83,985.53Z"/>
    </g>
  </g>
</svg>
