<svg id="Layer_1" data-name="Layer 1" xmlns="http://www.w3.org/2000/svg" viewBox="0 0 387.42 146.52">
  <defs>
    <style>
      .cls-1 {
        fill: none;
        stroke: #000;
        stroke-miterlimit: 10;
      }
    </style>
  </defs>
  <title>nicola-logo</title>
  <g>
    <g>
      <path class="cls-1" d="M39.42,21.1S50.77,10.8,55.9,9.66s8.55-6,19.09-6,11.68-.24,16.81,3.46,7.69,4.27,12,10.54,4.84,8.83,9.69,14a57.66,57.66,0,0,0,9.4,8.26c.85.57,6.27,3.7,6.27,3.7s8.55,10,8.55,11.11,2.85,4,3.7,11.68-.57,12.82,0,18.81,1.7,12.25.28,15.67l-1.42,3.42"/>
      <path class="cls-1" d="M29.32,28.92c1.74-1.28,5.41-5.21,7.87-6.39,2.65-1.58,6.68-4.83,11.87-5.8s7.7-2.11,12.54-2.11a52.34,52.34,0,0,1,13.28,1.95c3.57,1,6.17,1.46,10.07,4.55s4.87,3.9,7.63,7.31,3.25,1.79,5.84,7.14,4.06,7.47,5.52,10.39,2.92,4.55,3.73,8.93,1,2.44,2.11,9.09.32,6.17,0,11,.49,4.06-1.62,8.12-2.44,6.17-5.19,8.6-1.95,3.08-6.33,4.71-3.9,2.76-8,3.25-7.31-.32-9.58,0-7.79-1.46-7.79-1.46A51.49,51.49,0,0,0,63,96.76c-3.37-.16-4.34-.49-7.1-.49s-6-1.46-8.77-1.14-6.17-1.14-8.77-.65a54.71,54.71,0,0,1-8.44.65,18.94,18.94,0,0,1-7.14-1.95,16,16,0,0,1-4.87-3.25c-2.11-1.79-1.71-1-3.9-4.55S11.24,81,11.24,78.09s.28-6.48,0-8.93a43.54,43.54,0,0,1,0-9.25,42.18,42.18,0,0,1,2.92-9.58c1.29-3,2.27-4.06,3.73-7.14s4.74-6.59,6.51-9.05A23,23,0,0,1,29.32,28.92Z"/>
      <path class="cls-1" d="M31.69,95.1s-.81,2.46-1.3,4.74-5,23.05-5,23.54"/>
      <path class="cls-1" d="M57.51,50.82V47.89c0-1.95.32-2.6-1.46-2.92s-2.92-1.3-3.9-1-.36-.13-3.08,1.62-2.27,2.76-2.27,2.76a9.16,9.16,0,0,0,0,2.27"/>
      <path class="cls-1" d="M62,50.82V48.46A9.33,9.33,0,0,1,63.38,46c.69-.74,1.25-1.67,2.18-1.61a30.85,30.85,0,0,0,3.35,0A2.34,2.34,0,0,1,71,45c.87.68,1.3.19,2.17,1.61a9.45,9.45,0,0,0,1.36,2.11c.68.74,1.05,1.12,1.74,1.8s1.61,1.74,2,2"/>
      <path class="cls-1" d="M57,49.55A4.68,4.68,0,0,0,55.33,48l-.83-.3a1.28,1.28,0,0,0-1.76.35c-.88,1-1.5,1.75-1.5,1.75l.88.56,1.83.5a2.77,2.77,0,0,0,2.18-.5Z"/>
      <path class="cls-1" d="M65.56,49.89a7.94,7.94,0,0,1,2.29-1.41c.81-.2,1.11-.76,2.17-.26a9,9,0,0,1,2.17,1.67l-.62.93s-2.29.81-3.16.37S65.56,49.89,65.56,49.89Z"/>
      <path class="cls-1" d="M52.75,61.58A1,1,0,0,1,54,61.22l.81.28S56.31,63.15,57,63A5.58,5.58,0,0,0,58.62,62s1.09-.8,1.86,0c1.11.09.52,1,.52,1"/>
      <path class="cls-1" d="M80,91c-.09-.46.88-2.14.52-6a14.35,14.35,0,0,1,0-4.5c0-1-1-3.86-1.38-6.25s-.83-1.56-.84-3.4-4.94-5.14-5.4-6.06-3.49-1.93-4.59-2.3a4.58,4.58,0,0,1-3.21-2.11c-1.19-1.75-4.5-2.57-5.69-3.67s-3.27.87-5.4,1.19a4.08,4.08,0,0,0-3.51,2.2,10.71,10.71,0,0,1-2.39,2.39c-1.19,1.29-2.66,1.47-4.87,3.21a15,15,0,0,0-4.78,8.36c-.46,2.94-2,8.08-1.84,11.21s1,7.55,1,7.55"/>
      <path class="cls-1" d="M75.18,82.71c.83,1.56,2.94,3.49,3.45,5.42s1.88,2.57,2.06,6.06S81.8,110.45,78.63,118s-2.9,8.63-5.38,14.33-4.13,12.77-3.95,14.14"/>
      <path class="cls-1" d="M40.23,82.71a43.48,43.48,0,0,0-2.18,7.62c-.73,3.58-1.63,8.45-1.5,10.65s3.11,11.76,3.68,13.23,6.45,11.48,6.54,13.41,2.48,4.32,1.38,10.47-.64,5.51-.64,5.79"/>
      <path class="cls-1" d="M40.94,81.15c1.7-.81,4.89-1.21,5.78-1.43s1.3-.9,4.61-.54,6.77,1.08,8.06.94,5.37,0,5.37,0,3.76-.14,4.84,1.74"/>
      <path class="cls-1" d="M43.39,81.36a7.28,7.28,0,0,0,3,1.61c1.65.36,3.35,1.12,4.6.94s2.69.28,4.29,0a41.21,41.21,0,0,0,4.54-.61,21.78,21.78,0,0,1,4.6-.64c1.16,0,2.1,0,2.1,0"/>
      <path class="cls-1" d="M14.59,135c0-.49,4.55-21.27,5-23.54a28.17,28.17,0,0,1,1.3-4.74c.65-1.81,4.59-5.29,2.89-6.91-4.45-4.24-7.15-4.16-7.92-4.74S11.35,91.75,11,90.8s-4.8-7.3-5.28-8.11S3.4,78.44,3.4,76.88s.12-8.5.61-10.24c1.25-4.49,2.71-9.87,3.63-11.58s2.94-6.4,4.24-7.59a39.26,39.26,0,0,0,4.64-5.67,97.92,97.92,0,0,1,8.85-8.93"/>
      <path class="cls-1" d="M41.39,19.38S53.34,8.25,58.73,7,67.72.5,78.81.5,91.1.24,96.5,4.24s8.09,4.62,12.59,11.39,5.1,9.55,10.19,15.09a61.12,61.12,0,0,0,9.89,8.93c.9.62,6.59,4,6.59,4s9,10.78,9,12,3,4.31,3.9,12.62-.6,13.86,0,20.32,1.79,13.24.3,16.94l-1.49,3.69"/>
    </g>
    <g>
      <path d="M99.18,144.25V117.11h4.08a17.85,17.85,0,0,1,4.34.42,6.52,6.52,0,0,1,2.76,1.42,7.39,7.39,0,0,1,1.81,2.58,7.82,7.82,0,0,1,.69,3.16,6.41,6.41,0,0,1-2.23,4.94,6.56,6.56,0,0,1,3.41,2.58,7.65,7.65,0,0,1-1,9.63,7.38,7.38,0,0,1-3,1.88,17.69,17.69,0,0,1-4.62.51Zm4.1-15.49h1.28a4.73,4.73,0,0,0,3.35-1,3.92,3.92,0,0,0,1.06-3,3.74,3.74,0,0,0-1.09-2.91,4.54,4.54,0,0,0-3.16-1h-1.44Zm0,11.64h2.53a6.28,6.28,0,0,0,4.08-1.09,3.77,3.77,0,0,0,1.37-3,3.83,3.83,0,0,0-1.32-3q-1.28-1.18-4.59-1.18h-2.07Z"/>
      <path d="M118.9,130.56a13.29,13.29,0,0,1,4.2-9.84,13.83,13.83,0,0,1,10.05-4.11,14.19,14.19,0,0,1,14.12,14.12,13.35,13.35,0,0,1-4.18,9.93,14.34,14.34,0,0,1-19.58.46A13.34,13.34,0,0,1,118.9,130.56Zm4.13.05a9.81,9.81,0,0,0,3,7.4A10,10,0,0,0,140.2,138a10.53,10.53,0,0,0,0-14.55,10.12,10.12,0,0,0-14.29,0A9.79,9.79,0,0,0,123,130.61Z"/>
      <path d="M161.61,132.68l8.4,11.57h-5l-7.75-11.11h-.74v11.11h-4.1V117.11h4.8q5.38,0,7.77,2a7.43,7.43,0,0,1,2.64,5.94,7.71,7.71,0,0,1-1.65,5A7.37,7.37,0,0,1,161.61,132.68Zm-5.1-3.11h1.3q5.82,0,5.82-4.45,0-4.17-5.66-4.17h-1.46Z"/>
      <path d="M174.09,144.25v-29L193.89,136V117.11H198V145.9l-19.79-20.65v19Z"/>
      <path d="M221.36,140.4h10.11v3.85H213.24l9.42-11.41q1.39-1.71,2.33-3a22.45,22.45,0,0,0,1.43-2.09,5.88,5.88,0,0,0,1-3,4.23,4.23,0,0,0-1.34-3.18,4.59,4.59,0,0,0-3.3-1.28q-4.11,0-4.71,4.87H214q1-8.58,8.67-8.58a8.75,8.75,0,0,1,6.22,2.36,7.65,7.65,0,0,1,2.53,5.84,8.87,8.87,0,0,1-1.18,4.34,21.27,21.27,0,0,1-1.75,2.63q-1.15,1.52-2.91,3.59Z"/>
      <path d="M248.92,144.25V117.11H253a17.85,17.85,0,0,1,4.34.42A6.52,6.52,0,0,1,260.1,119a7.39,7.39,0,0,1,1.81,2.58,7.82,7.82,0,0,1,.69,3.16,6.41,6.41,0,0,1-2.23,4.94,6.56,6.56,0,0,1,3.41,2.58,7.65,7.65,0,0,1-1,9.63,7.38,7.38,0,0,1-3,1.88,17.69,17.69,0,0,1-4.62.51Zm4.1-15.49h1.28a4.73,4.73,0,0,0,3.35-1,3.92,3.92,0,0,0,1.06-3,3.74,3.74,0,0,0-1.09-2.91,4.54,4.54,0,0,0-3.16-1H253Zm0,11.64h2.53a6.28,6.28,0,0,0,4.08-1.09,3.77,3.77,0,0,0,1.37-3,3.83,3.83,0,0,0-1.32-3q-1.28-1.18-4.59-1.18H253Z"/>
      <path d="M285.19,121H274.31v6.52h10.56v3.85H274.31v9.07h10.88v3.85h-15V117.11h15Z"/>
      <path d="M303,117.11l7.07,18.14,7.38-19.46,7.07,19.46L332,117.11h4.45L324.35,146l-7-19.23L310.1,146l-11.53-28.88Z"/>
      <path d="M344,117.11v27.14h-4.1V117.11Z"/>
      <path d="M354.57,117.11V140.4h8v3.85H350.47V117.11Z"/>
      <path d="M366.43,144.25V117.11h5.7a20.73,20.73,0,0,1,6.47.81,12.11,12.11,0,0,1,4.62,2.69,14,14,0,0,1-.18,20.2,12.78,12.78,0,0,1-4.61,2.69,21,21,0,0,1-6.38.76Zm4.1-3.85h1.85a15.4,15.4,0,0,0,4.59-.58,9.32,9.32,0,0,0,6.33-9.14,9.43,9.43,0,0,0-3-7.24q-2.69-2.48-7.93-2.48h-1.85Z"/>
    </g>
  </g>
</svg>
