<svg id="Layer_1" data-name="Layer 1" xmlns="http://www.w3.org/2000/svg" viewBox="0 0 606.65 735.36">
  <title>ou</title>
  <g>
    <path d="M301.44,735.36c-2.15-.73-4.42-.58-6.62-.92a73.74,73.74,0,0,1-25.11-8.38c-1.25-.7-2.44-1.52-3.66-2.28a25.92,25.92,0,0,1-11.54-15.91,75.11,75.11,0,0,1-2-10.1c-.27-2.18-.26-2.2-2.41-2.2-6.08,0-12.16-.07-18.24.06a126.47,126.47,0,0,1-32.1-3.44c-22.49-5.36-44.84-11.37-66.18-20.29-22.86-9.55-46-18.42-68.35-29.19a153.2,153.2,0,0,1-14.17-7.57c-1.83-1.13-3.62-2.35-5.4-3.58a21.42,21.42,0,0,1-8-10.24,131.64,131.64,0,0,1-6.88-26.4,205.81,205.81,0,0,1-2.43-28.18c-.25-9.79,1.68-19.24,4.45-28.55a316.65,316.65,0,0,1,12.4-33.49c7.63-18,12.91-36.6,17.14-55.59,1.7-7.64,3.38-15.29,4.85-23,.37-2,.41-2,2.33-1.62,1.41.26,2.83.52,4.24.81,1.63.33,1.68.38,1.34,2.08-1.2,5.87-2.37,11.75-3.66,17.6-3,13.66-6.21,27.27-10.52,40.59-3.23,10-7.39,19.59-11.25,29.32-3.3,8.32-6.47,16.69-9.13,25.24a89.44,89.44,0,0,0-4,32.65,189.46,189.46,0,0,0,4.23,31.33,99.31,99.31,0,0,0,4.82,15.3,11.57,11.57,0,0,0,3.57,4.72,72.54,72.54,0,0,0,11.13,7.05c11.5,6.17,23.49,11.27,35.51,16.29,9.74,4.07,19.61,7.83,29.23,12.13,25.89,11.57,53,19.19,80.51,25.63,8.24,1.93,16.61,2.36,25,2.42,6.32,0,12.64,0,19-.09,2.1,0,2.17,0,2.12-2.1a78,78,0,0,1,5.55-30.71c7-17.87,12.24-36.34,17.5-54.78,6-20.91,13-41.49,19.36-62.27a311.16,311.16,0,0,0,9-37.25,68.81,68.81,0,0,0,.93-14.1c-.42-13.83-1.34-27.64-2.2-41.45-.32-5-.55-10.06-1.3-15.05-.19-1.25-.65-1.74-1.93-1.87-3.34-.34-6.66-.87-10-1.29-1.9-.24-2-.23-2.3,1.7-3.2,17.7-7.57,35.15-11.68,52.65-2.82,12-7.05,23.57-11.32,35.12-1.44,3.9-3,7.74-4.56,11.6a121.73,121.73,0,0,1-13.12,24.46c-9.08,13.09-18.42,26-29,37.93a147.86,147.86,0,0,1-13.57,13.56c-6.43,5.63-14,8.24-22.36,8.67-14.06.71-27.72-1.61-41.13-5.68a21.82,21.82,0,0,1-6.15-3.19,98.47,98.47,0,0,1-14.26-12.44c-3.85-4-5.57-8.86-6.41-14.17a22.12,22.12,0,0,1,1.79-12.86c1.61-3.57,2.84-7.31,4.53-10.84,2.45-5.12,3.14-10.5,3.2-16.08a163.46,163.46,0,0,0-2-24.84c-3.56-25-10.45-49.21-17.69-73.33a114.42,114.42,0,0,1-3.65-19q-.69-5.59-1.2-11.21c-.12-1.3-.65-1.71-2-1.69a123.69,123.69,0,0,1-14.86-.37,83.31,83.31,0,0,1-35.4-11.86,101,101,0,0,1-31.62-30A71.45,71.45,0,0,1,2.33,333.41a141.9,141.9,0,0,1-1-19.87c.12-10.88-.24-21.75-.92-32.61,0-.7.13-1.46-.45-2V264a4.71,4.71,0,0,0,.53-2.3c.51-5.17.79-10.36,1.63-15.5a153.45,153.45,0,0,1,10.08-34.43c9.49-22.68,21.9-43.72,36.15-63.7a171.72,171.72,0,0,1,23.13-26.87c9-8.3,17.75-16.85,26.43-25.48,9.76-9.7,19.5-19.41,29.69-28.67,10.61-9.64,21.61-18.79,33.68-26.57,9-5.83,18.51-10.77,28.85-13.91,5-1.53,10.13-2.94,15.31-4a17.09,17.09,0,0,0,6.73-2.9,99.07,99.07,0,0,1,12.5-8c9.82-5,20.31-7.63,31.11-9.27A192.24,192.24,0,0,1,280.91.36c.62,0,1.29.18,1.81-.36h7.2a2.62,2.62,0,0,0,1.84.36,292.18,292.18,0,0,1,42.47,4c8.92,1.5,17.21,4.8,25.21,8.94a177.34,177.34,0,0,1,23.69,15,284.57,284.57,0,0,1,22.73,18c8.22,7.47,15,16.16,21.26,25.29,5.43,7.92,10.46,16.09,15.46,24.28a226.77,226.77,0,0,0,32.13,41.43,237.53,237.53,0,0,0,47,37.34c19.29,11.54,36.1,25.91,49.74,43.84,13.08,17.18,22.78,36,27.77,57.17a173.7,173.7,0,0,1,4.1,29.17c1,15.51.25,31,0,46.53-.14,8-.26,16,0,24s1,15.8,1.7,23.69c1.1,13,2.22,26,1.16,39a102.28,102.28,0,0,1-8.94,35.38c-15.61,33.38-31.14,66.8-47,100.07-2.34,4.92-3.79,10.18-5.47,15.35-2.54,7.83-5.16,15.63-8.06,23.34a73.31,73.31,0,0,1-18.05,27.38c-13.77,13.27-28.58,25.15-45.22,34.62-10,5.67-20.62,9.86-31.25,14-15,5.92-30.28,11.2-45.44,16.74-9.54,3.49-18.69,7.92-28,11.91-11.68,5-23.39,10-35.54,13.75A89.34,89.34,0,0,1,313.13,735a5.41,5.41,0,0,0-1.13.34ZM96,378.88h.2c0-2.4,0-4.8,0-7.2a246.28,246.28,0,0,1,4.07-42.44,124.83,124.83,0,0,1,8.14-26.78c5.16-11.64,12.94-20.86,24.37-26.79,1.56-.81,3.05-1.75,4.62-2.56a45.76,45.76,0,0,0,16.25-13.55,37.91,37.91,0,0,1,14.94-11.72c9.49-4.42,19.34-6,29.67-4a56.15,56.15,0,0,1,21.78,9.62c3.39,2.4,6.67,5,10,7.51a53,53,0,0,0,15.3,8.35c.23.08.44.2.67.26,13,3.9,22.89,12.16,31.72,22a55.36,55.36,0,0,1,11.1,18.64,146.8,146.8,0,0,1,6.85,27.89c1.59,10.84,2.26,21.78,3.82,32.63,1.42,9.89,2.61,19.81,4.13,29.69.94,6.15,2.31,12.24,3.17,18.42.26,1.85.31,1.88,2.57,2a139.52,139.52,0,0,0,41.6-4.26c21.37-5.71,39.27-16.77,52.84-34.47a177.63,177.63,0,0,0,14.27-22.72c7-12.72,10.25-26.45,11.54-40.76.73-8,1.1-16.11,1.56-24.18a136.27,136.27,0,0,0-1.87-30.1,197.39,197.39,0,0,0-12-41.85c-12.52-30.94-28.7-60-46.83-87.92a74.37,74.37,0,0,0-6.81-9c-5-5.62-10-11.21-15.25-16.62-6.39-6.62-13-13-20-19C313.88,77.56,297,69.76,278.76,64.79a182.89,182.89,0,0,0-34.94-5.87,199.3,199.3,0,0,0-31.4.21,203.67,203.67,0,0,0-27.87,4.73,214.06,214.06,0,0,0-32.08,9.75c-14.25,5.71-26.89,14-38.78,23.61-8.66,7-17,14.3-26,20.91a129,129,0,0,0-21,19.61c-11.85,13.74-21.78,28.82-30.82,44.51-7.51,13-14.34,26.42-19.38,40.64A130.63,130.63,0,0,0,9,256.73c-.57,7.43-.51,14.86-.38,22.3.2,10.87.94,21.74.75,32.62a153.49,153.49,0,0,0,.72,19.16c1.17,10.92,4.49,21.1,10.81,30.15A93.08,93.08,0,0,0,54.5,390.72c12.66,6.6,26.22,9,40.38,8.48,2-.07,2-.15,1.88-2.09C96.5,391,96.28,385,96,378.88Zm70.6-319c.21.05.38.15.52.11q3.13-.81,6.26-1.64c22.7-6.11,45.72-9.26,69.29-7.56a201.12,201.12,0,0,1,40.35,6.84c21.3,6,40.25,16.18,56.46,31.4,8.76,8.22,17,16.88,25.2,25.69a148.17,148.17,0,0,1,17,22.31,609.77,609.77,0,0,1,36.15,66.29,252,252,0,0,1,16.82,47.12,153.82,153.82,0,0,1,4.63,39.91c-.28,11-.89,22.06-2.12,33S433.65,345,429,355.1a168.67,168.67,0,0,1-16.48,28.65,103.74,103.74,0,0,1-18.74,20.15c-18.19,14.73-39.33,21.9-62.34,24.25a139.51,139.51,0,0,1-21.32.65c-1.6-.08-1.6,0-1.52,1.57,0,.24,0,.48.06.72.89,9,1.38,18,1.89,27q.62,11,1.21,22c.33,6.48.53,13-.5,19.4A266,266,0,0,1,304,532.29c-5.22,17.88-11.18,35.52-16.62,53.33-4.57,15-8.85,30-13.27,45.07-2.8,9.52-6.42,18.75-9.85,28A69.31,69.31,0,0,0,259.67,685c.07,2.35,0,2.35,2.39,2.33h.48c19-.55,38-1.4,57-3.44a154.8,154.8,0,0,0,19.41-3.06c7.74-1.84,15-5,22.25-8.18,20.48-9.11,40.23-19.64,59.71-30.67,13.92-7.88,27.67-16,40.88-25.09a52.52,52.52,0,0,0,13.46-13.53,119.5,119.5,0,0,0,10-17.73c6.8-14.52,11.82-29.68,16.38-45,2.85-9.57,5.49-19.19,9.4-28.43,9.62-22.76,20.1-45.13,30.68-67.44a86,86,0,0,0,5.08-13.69c3.86-13.76,4-27.79,3-41.9-.6-8.86-1.42-17.7-2.08-26.55-.89-12.06-.64-24.14-.4-36.22.21-10.32.48-20.63.1-30.95a182.05,182.05,0,0,0-3.38-30.72c-5.57-26.58-18.27-49.3-37.29-68.55a190.11,190.11,0,0,0-33.46-26.4,225,225,0,0,1-55.63-50.3c-6.32-8-11.93-16.44-18-24.61A170.4,170.4,0,0,0,381.07,73C366,58.54,349,46.85,330.64,37a185.16,185.16,0,0,0-17.41-8c-11.17-4.59-22.9-5.7-34.8-5.77a344.34,344.34,0,0,0-63.94,5.66,11.19,11.19,0,0,0-4.17,1.68q-8,5.22-16.2,10.28c-8.77,5.45-17.44,11-25.64,17.31C167.81,58.64,166.93,59,166.64,59.91Zm63.94-41.72c.39,0,.79,0,1.18-.06a326.73,326.73,0,0,1,53.61-2.7,106.12,106.12,0,0,1,12.9,1.15,90.68,90.68,0,0,1,21.09,6.26c18.26,7.66,34.89,18.08,50.61,30a168.12,168.12,0,0,1,34.41,34.91c4.76,6.53,9.46,13.09,14.2,19.63a219.6,219.6,0,0,0,46.36,46.94c6.66,5,13.81,9.27,20.66,14,15.78,10.89,29.9,23.54,41.31,39a142.42,142.42,0,0,1,26.95,67.38,231.43,231.43,0,0,1,1.72,30.16c0,11.44-.24,22.87-.46,34.31-.3,15,1.16,29.87,2.35,44.78.94,11.82,1.37,23.64-.21,35.44a93.24,93.24,0,0,1-7.89,27.79C540,467,530.77,486.72,522,506.72a225.26,225.26,0,0,0-11.47,31.76c-2.07,7.72-4.52,15.33-7.12,22.89C499,574.31,494,587,487.39,599a74.08,74.08,0,0,1-25.21,27.38c-19,12.19-38.49,23.49-58.38,34.13-15,8-30.21,15.72-45.95,22.27a103.21,103.21,0,0,1-17.93,6c-12.7,2.72-25.62,3.76-38.53,4.7q-17.59,1.28-35.23,1.67c-1.6,0-3.2.15-4.79.2-.83,0-1.11.38-1,1.21.37,2,.71,3.93,1,5.9,1.18,7.71,5.45,13,12.28,16.67a70,70,0,0,0,28.63,8A73,73,0,0,0,329,723.64c12.78-3.94,25.08-9.1,37.34-14.39,8.88-3.83,17.6-8,26.68-11.37,17.17-6.33,34.49-12.24,51.46-19.12,9.63-3.9,19.23-7.89,28.17-13.28a230.69,230.69,0,0,0,40.73-31.86,65.28,65.28,0,0,0,16-24.48c2.61-7,5-14,7.29-21.06,2-6,3.6-12.12,6.32-17.84,15.56-32.69,30.76-65.56,46.2-98.31a100.2,100.2,0,0,0,9.33-39.86c.39-11.38-.51-22.71-1.61-34a380.35,380.35,0,0,1-1.64-47c.42-15.91,1-31.82-.07-47.73a151.75,151.75,0,0,0-4.16-27.46c-5.64-22.21-16.51-41.67-31.24-59.05-12.11-14.3-26.56-25.79-42.53-35.53-31.69-19.33-58-44.32-78-75.68-5.21-8.15-10.29-16.39-15.5-24.54-9.36-14.69-20.49-27.74-34.58-38.2-10.28-7.63-20.4-15.46-31.71-21.56-7.92-4.27-16.17-7.71-25.1-9.2a289.26,289.26,0,0,0-30.5-3.4,222.83,222.83,0,0,0-39.29.83,120.73,120.73,0,0,0-25,5.36A24.17,24.17,0,0,0,230.58,18.19Zm-101,387.09c-8.63.18-15.49.62-22.34,1.23-1.68.15-1.74.16-1.59,1.86.26,2.87.57,5.73.91,8.58a124.41,124.41,0,0,0,4.11,21.37c7,23.41,13.61,47,17.24,71.2a168.24,168.24,0,0,1,2.22,31.53,35.87,35.87,0,0,1-2.61,12.6c-2,4.72-4,9.43-5.85,14.18-2.47,6.23-1.25,12,2.83,17.07A65.26,65.26,0,0,0,138.07,597a18.91,18.91,0,0,0,5.61,2.64,124.71,124.71,0,0,0,15.42,3.46,89.08,89.08,0,0,0,22.69,1.19,26.84,26.84,0,0,0,15-5.76,111,111,0,0,0,11.92-11.46c11.72-13,22-27.05,31.74-41.51a80.57,80.57,0,0,0,7-12,325.22,325.22,0,0,0,20.11-57.36c3.8-15.84,7.63-31.69,10.64-47.71.66-3.53.69-3.52-2.91-4.38l-.46-.14c-13.48-3.42-27.07-6.3-40.81-8.48-10.66-1.69-21.35-3.1-32.07-4.31-11.2-1.26-22.43-2.26-33.66-3.2q-11.35-.95-22.71-1.77C139.65,405.83,133.75,405.3,129.58,405.28ZM298.85,420c-.2-1.44-.39-2.54-.51-3.64-.42-3.9-1.66-7.64-2.19-11.52-1.35-9.9-2.82-19.78-4.12-29.68-1-7.53-2-15.05-2.68-22.62a165.14,165.14,0,0,0-5.23-30.68c-1.75-6.23-3.47-12.55-7.19-18-8.2-11.9-18.33-21.55-32.37-26.28a69.31,69.31,0,0,1-21.88-12.17c-1.8-1.47-3.65-2.86-5.52-4.23A58,58,0,0,0,206,254.66c-6.73-2.93-13.72-4.39-21-3.36-10.7,1.51-19.82,5.91-26.4,14.86a44.52,44.52,0,0,1-14.29,12.24c-3.34,1.89-6.67,3.8-10,5.7a40.67,40.67,0,0,0-15,14.88,74.41,74.41,0,0,0-6.08,13c-4.71,13.12-6.82,26.76-8,40.57a296.28,296.28,0,0,0-.94,33.8c.09,3.52.33,7,.43,10.55,0,1.23.47,1.74,1.74,1.59s2.72-.13,4.07-.25a173.19,173.19,0,0,1,29.22-.42c11.31,1,22.65,1.64,34,2.61,15.85,1.35,31.68,2.91,47.45,5.08,13.46,1.86,26.86,4.09,40.13,7,5.38,1.2,10.72,2.56,16.09,3.84,2.48.59,2.52.57,2.45-2.06-.13-4.72-.26-9.43-.47-14.15a48.67,48.67,0,0,0-6.59-22.32,19.79,19.79,0,0,0-11.31-9.12,24,24,0,0,0-11.85-.87c-7,1.21-14,2.46-21,3.92a123.88,123.88,0,0,1-28.8,2.73c-12-.31-24-1-36-1.19-8.16-.13-16.29-.54-24.42-1.32a33.19,33.19,0,0,1-17.88-6.79c-3.4-2.67-6.71-5.44-10-8.24a6.82,6.82,0,0,1-.67-.79,9,9,0,0,1,3.23-1c11.26-2.74,22.53-5.4,33.77-8.22a63.18,63.18,0,0,1,13.51-1.83,164.66,164.66,0,0,1,23,1c13.67,1.5,27.31,3.19,41,4.8,1.59.19,3.17.4,4.76.6.88.11,1.22.52,1.06,1.45a46.06,46.06,0,0,0-.62,5c-.07,1.31-.65,1.61-1.83,1.45-2.53-.35-5.08-.63-7.62-.93-8.73-1-17.47-2-26.2-3.09-9.29-1.14-18.57-2.28-27.95-2.33-5.28,0-10.56-.07-15.74,1.24-6.35,1.6-12.72,3.13-19.07,4.76-1.12.29-2.36.28-3.35,1.05a12.2,12.2,0,0,0,6.86,3.17,127,127,0,0,0,20.29,1.83c13.12.13,26.22.85,39.32,1.31a125.2,125.2,0,0,0,31.22-2.41c7.88-1.71,15.79-3.53,23.82-4.28,12.14-1.13,22.29,2.79,29,13.5a53.25,53.25,0,0,1,7.84,24.18c.52,6.47.52,12.94.63,19.41,0,.84-.1,1.56,1.05,1.75C292,419.19,295.22,419.68,298.85,420ZM131.36,75c2.67-1.41,5.31-2.88,8-4.19a22.05,22.05,0,0,0,4.95-3.31,309,309,0,0,1,38-28.73c.38-.24,1-.39,1.12-1.3C163.44,46.58,147,60.23,131.36,75Z"/>
    <path d="M183.08,208c-1.35,1.19-2.7,2.28-3.94,3.49-3.69,3.58-8.18,4.58-13.07,3.93a40.82,40.82,0,0,1-9-2.32,16.4,16.4,0,0,1-7.08-5.17,1.33,1.33,0,0,1,0-2c2.52-2.9,4.92-5.9,7.5-8.73,4.08-4.48,11.48-5,15.59-2a39.7,39.7,0,0,1,6.17,4.92c1.2,1.29,2.47,2.51,3.67,3.72.78-.19.6-.76.6-1.19,0-3.28-.07-6.56-.12-9.84a10.72,10.72,0,0,0-.09-1.2c-.54-4.23-1.55-5.35-5.75-6.06a31.72,31.72,0,0,0-11.68-.24,15,15,0,0,0-4.32,1.38A49.25,49.25,0,0,0,147.12,198a8.66,8.66,0,0,0-2.32,6.57c.12,1.35,0,2.72.12,4.07.11,1.18-.23,1.79-1.48,1.87-1.75.11-3.51.29-5.25.48-.82.09-1.19-.27-1.25-1.05-.52-6.51-.29-12.69,4.68-17.9a66.28,66.28,0,0,1,15.62-12.2c3.94-2.21,8.27-2.88,12.71-3a49.71,49.71,0,0,1,9.78.87c6.61,1.18,10.25,4.95,11.28,11.62a35.39,35.39,0,0,1,.49,5.49c0,5,0,9.92,0,14.88,0,1.22-.33,1.77-1.61,1.72-1.52-.07-3,0-4.56,0-1.75,0-1.75-.05-1.87-1.91A2,2,0,0,0,183.08,208Zm-22.26-2c4.23.89,8.34,3,12.6-.08-6-6.78-8.77-5.65-12.49-.58A3.16,3.16,0,0,0,160.81,206Z"/>
    <path d="M232.28,178.4c6.73-.15,12.93,1.83,18.83,4.84a20.14,20.14,0,0,1,8.28,8.45,80.53,80.53,0,0,0,16.08,19.85c1.18,1.08,2.3,2.23,3.53,3.25.9.75,1.16,1.36.26,2.33-1.14,1.22-2.19,2.54-3.23,3.86-.62.79-1.12.93-1.93.2-7.19-6.5-14.12-13.23-19.24-21.57-1-1.57-1.9-3.15-2.88-4.7a13.6,13.6,0,0,0-6-5.34c-6.67-3-13.56-4.13-20.79-2.42a9.64,9.64,0,0,0-2.91,1.05c-5.85,3.59-9.84,8.55-11.32,15.37a26.47,26.47,0,0,0-.21,6c0,1.65,0,1.66-1.69,1.78-1.2.08-2.39.16-3.59.23-2.55.14-2.57.13-2.74-2.53-.53-8,2.19-14.9,7.31-20.93.77-.91,1.67-1.72,2.52-2.56a23.43,23.43,0,0,1,16.12-6.93Z"/>
    <path d="M215.32,207.51c1.32-.93,2.67-1.9,4-2.84,3.43-2.34,6.82-4.73,10.31-7,5.2-3.35,10.5-3.37,15.8-.18a47.42,47.42,0,0,1,10,8.47c.59.63.73,1.19.18,1.88a2.44,2.44,0,0,0-.26.4c-3.07,5.94-7.78,8.85-14.63,8.89-5,0-9.66-.61-14-3.05-3.35-1.86-6.76-3.6-10.13-5.41C216.14,208.43,215.54,208.28,215.32,207.51Zm15.07-.78c4.82,3.32,9.68,2.71,14.55,1.74.92-.18.83-.81.18-1.36a26.11,26.11,0,0,0-4.7-3.25,5.42,5.42,0,0,0-5.47,0C233.5,204.72,232.12,205.65,230.39,206.73Z"/>
    <path d="M206.57,274.63c-1.22-.28-3,.71-4.16-1-.2-.27-.74,0-1.1.22-1.22.59-2.48,1.13-3.67,1.78a12.48,12.48,0,0,1-9.73,1.06c-3.32-.91-6.53-2.13-9.76-3.28-.9-.32-1.8-.65-2.72-.93-2.09-.65-2.14-.66-3,1.27a1.18,1.18,0,0,1-1.22.86c-2,0-4,0-6,0-.71,0-1-.36-.89-1.06a12.64,12.64,0,0,1,4.35-8.29c1.89-1.55,4.16-1.52,6.41-1.11a38.89,38.89,0,0,1,6.41,2c2.62,1,5.24,1.94,7.93,2.72a6.22,6.22,0,0,0,5.06-.5,32.64,32.64,0,0,1,5.67-2.57,9.15,9.15,0,0,1,5.41-.36c3.23.9,6,5.36,5.22,8.52-.15.65-.58.67-1.05.68C208.73,274.64,207.78,274.63,206.57,274.63Z"/>
  </g>
</svg>
