<svg id="logo" xmlns="http://www.w3.org/2000/svg" viewBox="0 0 600 200">
  <defs>
    <style>
      .cls-1 {
        fill: #ffb770;
      }
    </style>
  </defs>
  <title>palm</title>
  <g>
    <path class="cls-1" d="M167.69,39.87l6.92-.22q5.6-.13,8.21,2a7.2,7.2,0,0,1,2.71,5.62,8.64,8.64,0,0,1-.81,4,5.51,5.51,0,0,1-2.39,2.57,8.33,8.33,0,0,1,3.19,2.66,9.07,9.07,0,0,1,1.28,5q.2,8.78-13.39,9.15l-4.87.13Zm7.6,12.37a6.49,6.49,0,0,0,3.54-.9,3.63,3.63,0,0,0,1.09-3.24,3.17,3.17,0,0,0-1.38-2.86,7.06,7.06,0,0,0-3.66-.74l-1.2,0,.21,7.75Zm.22,13.5a5.52,5.52,0,0,0,4.24-1.57,4.75,4.75,0,0,0,1.25-3.3q-.07-2.68-1.5-3.53a7.54,7.54,0,0,0-4-.8l-1.31,0,.21,9.22Z"/>
    <path class="cls-1" d="M190.76,61.39a15.32,15.32,0,0,1-1.66-8.89A15.15,15.15,0,0,1,191.9,44a7.3,7.3,0,0,1,6.62-2.81,7.41,7.41,0,0,1,6.2,3.67,14.83,14.83,0,0,1,1.71,8.82,15.13,15.13,0,0,1-2.86,8.58,7.38,7.38,0,0,1-6.65,2.87A7.28,7.28,0,0,1,190.76,61.39Zm9-2.66a29.1,29.1,0,0,0,.75-11.15q-.39-2.23-2.24-2.36t-2.48,2a23.59,23.59,0,0,0-.9,5.16,29.21,29.21,0,0,0,.09,6q.35,2.27,2.2,2.4t2.6-2.08Z"/>
    <path class="cls-1" d="M209.38,41.63l5.75-.63.08,3.75a9.85,9.85,0,0,1,3-2.93,9,9,0,0,1,4.64-1.21l.14,5.63a19.58,19.58,0,0,0-3.87.61,8.33,8.33,0,0,0-3.8,1.88l.37,15.19-5.75.63Z"/>
    <path class="cls-1" d="M226.13,43.14l5.75-.63.06,3a16.08,16.08,0,0,1,3.44-2.54,7.19,7.19,0,0,1,3.14-1,4.5,4.5,0,0,1,3.59,1.5,6.33,6.33,0,0,1,1.49,4.21L244,65.14l-5.75.63-.39-15.68q-.07-3.08-2.18-3a3.55,3.55,0,0,0-1.53.45q-.83.43-2.11,1.19l.41,16.67-5.74.7Z"/>
    <path class="cls-1" d="M262.19,64.34l-.65-26.21-6.3.15.32-4.78L273.68,33l-.37,4.77-5.76.15.64,25.81Z"/>
    <path class="cls-1" d="M272.9,58.42a15.31,15.31,0,0,1-1.43-8.91A15.15,15.15,0,0,1,274.36,41,7.3,7.3,0,0,1,281,38.25,7.41,7.41,0,0,1,287.18,42a14.83,14.83,0,0,1,1.56,8.84,15.13,15.13,0,0,1-3,8.52,7.38,7.38,0,0,1-6.7,2.77A7.28,7.28,0,0,1,272.9,58.42Zm9-2.5a24.68,24.68,0,0,0,1-5.5,24.66,24.66,0,0,0-.07-5.59q-.42-2.25-2.19-2.44t-2.52,1.93a23.75,23.75,0,0,0-.93,5.17,29.22,29.22,0,0,0,0,6.05A2.42,2.42,0,0,0,279.34,58Q281.15,58.18,281.93,55.92Z"/>
    <path class="cls-1" d="M302.39,34.4l6.92-.22q5.6-.13,8.21,2a7.22,7.22,0,0,1,2.69,5.7,8.64,8.64,0,0,1-.81,4A5.49,5.49,0,0,1,317,48.43a8.33,8.33,0,0,1,3.19,2.66,9.06,9.06,0,0,1,1.28,5q.21,8.63-13.41,9l-4.87.13ZM310,46.77a6.49,6.49,0,0,0,3.54-.9,3.63,3.63,0,0,0,1.09-3.25,3.17,3.17,0,0,0-1.41-2.87,7.06,7.06,0,0,0-3.66-.74l-1.2,0,.18,7.74Zm.22,13.5a5.51,5.51,0,0,0,4.23-1.54,4.75,4.75,0,0,0,1.23-3.22q-.07-2.68-1.5-3.53a7.52,7.52,0,0,0-4-.8l-1.31,0,.22,9.09Z"/>
    <path class="cls-1" d="M327.4,63.74a15.47,15.47,0,0,1-3.64-8.2,15.31,15.31,0,0,1,.69-9,7.35,7.35,0,0,1,5.81-4.32,7,7,0,0,1,6.64,2.15,15.83,15.83,0,0,1,3.58,8.33.73.73,0,0,1-.1.48.49.49,0,0,0,0,.22L329.5,55.31A16,16,0,0,0,331,60q1.07,2.06,2.48,1.81a2.55,2.55,0,0,0,2.07-2.23l.43-2.11,4.62.93a9.82,9.82,0,0,1-1.91,5.07,7.82,7.82,0,0,1-11,.72h0l-.34-.33ZM334.45,51a9.59,9.59,0,0,0-1.27-3.73,2.17,2.17,0,0,0-2.27-1.07,1.88,1.88,0,0,0-1.22.92,5.16,5.16,0,0,0-.73,2.08A8.49,8.49,0,0,0,329,52Z"/>
    <path class="cls-1" d="M361.63,67l-11.81-29,6.43-1.45,6.58,17.58L363,35.65l4.8-1.15,6.62,17.78.46-18.85,5.42-1.26-.89,31.6-5.87,1.09-6.65-17.93L367,66.12Z"/>
    <path class="cls-1" d="M384.33,67.27l-.5-22.9,5.75-.63.56,22.92Z"/>
    <path class="cls-1" d="M394.81,65.91l-.74-30.35,5.75-.87.78,30.6Z"/>
    <path class="cls-1" d="M403.84,54.67q-.15-6.3,1.42-9.13a5.54,5.54,0,0,1,5.08-3,4.75,4.75,0,0,1,2.85.9,5.68,5.68,0,0,1,2,2.36l-.25-10,5.8-.8.77,30.58-4.35.61L415.6,63a4.75,4.75,0,0,1-1.46,2.5,5.19,5.19,0,0,1-3.44,1Q404.13,66.78,403.84,54.67Zm11,6.33a10.13,10.13,0,0,0,.68-4.71l-.22-7.72a3.37,3.37,0,0,0-2.87-1.79,2.22,2.22,0,0,0-2,1,5.78,5.78,0,0,0-.76,2.54,36.73,36.73,0,0,0-.08,4.17,39.45,39.45,0,0,0,.28,4.27,6.22,6.22,0,0,0,.9,2.65,2.18,2.18,0,0,0,2,1,2.31,2.31,0,0,0,2-1.43Z"/>
    <path class="cls-1" d="M427.52,62.91,428,41l5.79.38-2.37,21.74Zm-1.59,9.17.41-6.25,5.79.38-.39,6Z"/>
    <circle class="cls-1" cx="387.12" cy="32.13" r="4.48" transform="translate(279.04 405.24) rotate(-78.59)"/>
  </g>
  <path id="LF" class="cls-1" d="M17.28,196.77a6.55,6.55,0,0,0,.72-4.06c-.06-1-.89-1.4-1.6-1.9-1-.7-.94-1.22.15-1.68,1.33-.57,2.7-1,4.05-1.55.12,0,.28,0,.42,0a36.4,36.4,0,0,0,9.36-.85c.3-.07.63-.06.93-.11,2.55-.48,5.19-.62,7.51-2,2-1.18,4-2.44,6-3.59,1.67-.94,1.45-.63,1.16-2.31a11.89,11.89,0,0,0,1.66-1.22c.6-.62.47-1.24-.22-1.74a3.47,3.47,0,0,0-2.53-.55c-1.15.11-2.3.15-3.46.22,1.38-.88,2.77-1.59,4.14-2.32.64-.35.72-.87.16-1.35a2.11,2.11,0,0,0-1.14-.5,9.26,9.26,0,0,0-4.44.68c-.85.37-1.73.65-2.6,1l-.12-.3c.36-.17.74-.33,1.09-.52a31.92,31.92,0,0,0,3.09-1.76,1.47,1.47,0,0,0,.7-1.78c-.37-.8-1.19-.89-2-.87a1.44,1.44,0,0,0-.51.09c-.86.37-1.74.71-2.57,1.14a1.68,1.68,0,0,1-1.41.23,2.12,2.12,0,0,0-1.66.23c-1.24.57-2.39,1.38-3.88,1.34a13.56,13.56,0,0,0-3,.41c-.62.13-1.29.33-1.09,1.25,0,.13-.1.29-.16.45-2.72-1.55-3.41-1.45-4.06.55a3.07,3.07,0,0,0-3.73-.9,7.75,7.75,0,0,1-2.16.29,15.39,15.39,0,0,1-1.79-.18,2.46,2.46,0,0,0-3,2.61,11.64,11.64,0,0,1-.76,3.72,29.93,29.93,0,0,0-1.24,4.85,4.62,4.62,0,0,0,.75,4,9.55,9.55,0,0,1,1.25,2.75,12.34,12.34,0,0,0,.51,1.72c.91,1.56,1.87,3.1,2.9,4.59A1.43,1.43,0,0,0,17.28,196.77Zm28.73-18S46,178.66,46,178.74Zm-5.67,1.44c-.57.12-1.1,0-1.52.07s-4.42.92-5.58,1.06a3.51,3.51,0,0,1-1.54,0s3.71-.77,4.12-.74,6.11-1.41,6.73-1.62.78.26.78.26c.1.49-2.4.86-3,1Z"/>
  <path id="RF" class="cls-1" d="M124.68,204.27c-1.86-3-3.5-5.94-5.12-9a7.29,7.29,0,0,1-.47-2,3.67,3.67,0,0,1,.49-2.09,23.5,23.5,0,0,1,3.78-9.55,1.87,1.87,0,0,1,1.22-.48,3.35,3.35,0,0,1,1.52,1.47c1.15,1.89,0,4.28-1.38,5.8a26.41,26.41,0,0,0,3.61.62c6.73.53,13.54-1.87,20,.18l1.64.62.82.31a3.59,3.59,0,0,0,.7.35c.26.1.54.18.82.26.59.17,1.27.27,1.86.5.86.23,1.69,1.3,1.16,1.8-.71.84-2.08.28-3.36.29l-.77,0-.58,0c-.58,0-1.08.21-1.51.21l-2.57-.07c-1.59.17-3.12-.57-4.7.08a26.44,26.44,0,0,0,5.89.24c.87,0,1.94.11,2.9.18l1.06.07c1.55,0,3.12-.48,4.84-.08,1.2.38,2,2.13.79,2.79a4.81,4.81,0,0,1-2.38.73,13.54,13.54,0,0,0-2.5.34,24.51,24.51,0,0,0,2.79.86c.9.29,1.58.66,1.48,1.34a1.53,1.53,0,0,1-.86,1.48,4.1,4.1,0,0,1-2,.21c-1.66-.08-3.2-.64-4.93-.69,1.52,1.25,4.31.46,5.46,2.57a1.4,1.4,0,0,1-.57,1.71c-1.92.81-3.62-.45-5.52-.5-.53,0-1.23.66-1.74.3-2.91-1.12-5.88.36-8.61-1.1-.17,0-.16-.52-.32-.87a8.22,8.22,0,0,1-1.22,1,1.59,1.59,0,0,1-2.59-1c-1.63,2.55-4.68.22-7,1.36A3.14,3.14,0,0,1,124.68,204.27Z"/>
  <path id="RH" class="cls-1" d="M310.53,159.15c-.26,0-.53.28-.8.1s0-.27,0-.4a5.47,5.47,0,0,1,.62-1.58,4.59,4.59,0,0,0,.31-.62c.21-.76.38-3.2,1.37-3.11.74-1.79,3.78-.65,5.28-.77s2.95-1.2,4.39-.81c.65.17,1,.73,1.69.89a1.16,1.16,0,0,0-.13-.53.87.87,0,0,0,.59-.11c0-1,8.2-.66,9.24-.65s3.83.15,2,2.07c-.28.29-3.5.85-3.44.44,0,.08,0,.75-.27.29-.4.44-.93,1.06-1.79.69s-.36-.94-.85-1.54c0,0,.49,2.06-.15,1.71-.38-.2-.09-1.73-.84-2.11a13,13,0,0,1,.4,2.16c-.36,0-.61-1.91-.71-2-.47-.18.07,2.07,0,2.22-.31.49-2,.77-2.77.65a.88.88,0,0,1-.26-.08c-.65-.12-.6-1-.82-1.46a1.26,1.26,0,0,0-.12.38c0,.15,0,.31-.06.47-.08.36-.77,2.63-.28,2.59.09,0,.18-.09.27-.13a.58.58,0,0,1,.27-.09.25.25,0,0,1,.16.09.67.67,0,0,1,.13.31c0,.15,1.45,5.51.12,5.88-.31.09-.05-.52-.07-.61-.49,0-.92,2.21-1.44,1.68a11.52,11.52,0,0,0-.82,2.47c-.37.22-.14.87-.63,1.33-.76.71-2.95.37-4,.33-2-.1-5.62.36-5.83-1.95-.23.29,0,1.28-.64.94-.09.93-4.82-.33-5.45-.61a10.16,10.16,0,0,1-2.83-2.44c-.24-.6.43-4.67.41-4.77,0,.11-.23-.79-.14-.63-1.47-2.63,3.66-7.41,6-6.23,1.17.59.1-1.18,1.17.26.47.63.27,1.22,0,2a3.24,3.24,0,0,1-.19.33,5.75,5.75,0,0,1-.38.54c-.18.15-.27.41-.5.32s0-.45.23-.54.34-.25.26-.35a.17.17,0,0,0-.27,0,1.21,1.21,0,0,0-.26.42,1.63,1.63,0,0,0-.1.94c.14,0,.09-.36.27-.27a.63.63,0,0,1,.31.63c0,.22-.36.27-.32.45.13.54-.19,1.25-.37,1.25-1.3-.05-2.46-1-3.57-1.86.71,1.21,2.27,1.41,2.94,2.62a6.17,6.17,0,0,1,.47,2.19c0,.13.06.26.1.39s.07.26.12.39l.1.5c.07.33.13.65.2,1a11.21,11.21,0,0,0,.4,2.52c0-.09.41-1.08.46-1.11-.91.07-.24-1.54.08-1.67a2.89,2.89,0,0,1-.41-.32,3.51,3.51,0,0,1-.38-.43c-.1-.14-.2-.29-.3-.46a5.17,5.17,0,0,1-.28-.54,1.39,1.39,0,0,1,.51-2,.2.2,0,0,1,.22,0,.45.45,0,0,0,.18.23c.09,0,.18.14.27.14s.18-.22.18-.36c0-.4-.76-.54-.44-1s.72-.22,1.08-.22c.09,0,.13-.09.18-.18a.17.17,0,0,0-.14,0c0-.13.09-.27.28-.24m18.14,4.11a.82.82,0,0,0-.31-.41c-.24.83.41,1.33.13,1.89,0,0-.55.31-.72.37a2.11,2.11,0,0,1-2.89-2.49,2.23,2.23,0,0,1,2.08-1.73,2.1,2.1,0,0,1,.66.24l1.11.35c.05,0,.09.54.3.6.16-.11.59-1.25,1.06-.86a.28.28,0,0,1-.11.34c-.1-.15,1.54-.78,1.69-.38,0,.1-.08.17,0,.36s.2-.45.11-.39c.54-.35,5.21,1.31,5.4,1.94.44,1.45-1.1,1.53-2.18,1.66-1.3.15-4.34.68-5.59,0-.52-.27-.55-1.37-.74-1.46Zm.92-1.81s.38.49,0,0Zm-1.45,5.35a9.39,9.39,0,0,0-.17-1c0-.84,2.91.2,2.86.36,0-.06-.66.17-.44.27-.14-.06.57.06.53.08,0-.76,1.43-.07,1.77.3,1.34,1.51-1.07,2.06-2.27,2.23a36,36,0,0,1-6.05.38c-1.07,0-2.08-.13-2.36-.09-.91.14-.46-2.23,0-2.05,0,0,0,.83.15.7.39-.27.12-1.22.39-1.7.46-.79,1-.62,1.69-.73s3.33,0,3.38.47l-.28.15c.42,0,.69.64.78.8m1.84-9.14c-.07.39-.8-1.2-.75-1.44.24-1.1,1.49-.92,2.4-1,1.4-.1,3.06-.75,4.41-.66,3.36.23-.29,2.77-1.9,3.24a11,11,0,0,1-3,.8c-1.15-.07-.73-.17-1.11-1Zm-2.39-1.42c.54.1.9,2.29,1.24,3a4.07,4.07,0,0,0,0-1.16s.5.33.47.33a6.38,6.38,0,0,1-1.08-2c0-.49,2.23,2.51,1.26,2.6-.09,0-.09-.32-.17-.35.42.78-.28.18-.31-.14.45,0-1.09,1.59-1.51,1.72a1.88,1.88,0,0,1-2.69-1.55,1.66,1.66,0,0,1,.85-1.89c.37-.28,1.79-1,1.94-.49Zm-19.19-3.93a4.51,4.51,0,0,0,2-3.11c.15-1.44-.6-1.72-2-1a14,14,0,0,0-1.82,2.54c-.22-.47-.29.6-.16.74C306.12,151.93,307.56,153,308.58,152.57Zm-.77,5.84c-.55-.13-.13.08,0,0Z"/>
  <path id="LH" class="cls-1" d="M218.62,139.13c-.18.07-.25,0-.33-.17a.17.17,0,0,0,.14,0c-.07-.08-.13-.16-.22-.13-.35.09-.79.34-1.1.05s.25-.67.19-1.07c0-.13-.08-.3-.26-.3s-.16.13-.23.21a.45.45,0,0,0-.12.26.2.2,0,0,1-.21.1,1.39,1.39,0,0,1-1-1.79,5.17,5.17,0,0,1,.14-.59c.06-.18.12-.37.18-.52a3.51,3.51,0,0,1,.27-.51,2.88,2.88,0,0,1,.32-.42c-.34-.05-1.38-1.45-.49-1.6-.05,0-.64-.89-.71-1a11.07,11.07,0,0,0,.22,2.54c0,.32,0,.65,0,1,0,.17,0,.34,0,.51s0,.27,0,.41,0,.27,0,.41a6.28,6.28,0,0,1,.06,2.24c-.35,1.34-1.83,1.9-2.22,3.25.88-1.06,1.77-2.3,3-2.67.17,0,.66.57.66,1.13,0,.18.32.15.42.36a.63.63,0,0,1-.15.68c-.16.13-.19-.18-.33-.19a1.64,1.64,0,0,0,.33.89,1.21,1.21,0,0,0,.35.34c.11.06.21,0,.26-.08s-.14-.2-.34-.28-.62-.22-.36-.47.35.1.56.19a5.75,5.75,0,0,1,.5.43,3.24,3.24,0,0,1,.27.27c.45.65.79,1.18.49,1.9-.69,1.65-.08-.32-1.07.53-2,1.72-8.13-1.68-7.34-4.59,0,.18,0-.76,0-.64,0-.09-1.64-3.88-1.54-4.52a10.18,10.18,0,0,1,2.15-3c.55-.42,4.84-2.8,5.15-1.91.59-.5.56.53.85.76-.35-2.28,3.31-2.72,5.19-3.28,1-.31,3.06-1.16,4-.65.59.32.53,1,.94,1.13a11.57,11.57,0,0,0,1.39,2.2c.36-.64,1.32,1.43,1.8,1.28,0-.09-.4-.62-.08-.61,1.38,0,1.3,5.59,1.31,5.74a.67.67,0,0,1,0,.33.25.25,0,0,1-.13.12.58.58,0,0,1-.28,0c-.1,0-.21-.08-.29-.06-.49.08.73,2.13.9,2.45.06.15.11.3.18.44a1.26,1.26,0,0,0,.22.34c.1-.54-.16-1.35.44-1.62a.88.88,0,0,1,.24-.14c.71-.3,2.42-.44,2.84,0,.14.13.16,2.44.56,2.15.09-.06-.13-2,.22-2.07a12.56,12.56,0,0,1,.13,2.19c.64-.55,0-2,.3-2.25.54-.49.56,1.63.56,1.63.33-.71-.24-1.17.46-1.7s1.41-.09,1.9.24c.13-.51.27.14.33.21-.15-.39,3.1-.63,3.44-.41,2.21,1.43-.46,2.23-1.47,2.5s-8.86,2.55-9.12,1.6a.87.87,0,0,0-.6,0,1.16,1.16,0,0,0,0-.54c-.65.32-.85.94-1.44,1.27-1.31.72-3.07,0-4.46.27s-4.16,2.08-5.31.52c-.93.33-1.69-2-2.07-2.68a4.59,4.59,0,0,0-.45-.52,5.47,5.47,0,0,1-1-1.38c0-.13-.16-.28-.05-.4s.55,0,.8-.1m17.1-10.13c1.05-1,4.13-1.18,5.43-1.35,1.08-.14,2.59-.43,2.52,1.08,0,.66-4.17,3.39-4.77,3.18.1,0-.14-.62-.2-.35s.09.24.08.35c-.05.42-1.79.21-1.73,0a.28.28,0,0,1,.19.31c-.36.49-1.06-.52-1.24-.58-.18.11-.09.63-.14.66s-.86.52-1,.61-.4.37-.58.4a2.24,2.24,0,0,1-2.44-1.18,2.11,2.11,0,0,1,2.2-3.12c.18,0,.8.2.79.18.41.47-.1,1.11.33,1.86a.82.82,0,0,0,.2-.48C235.4,130.64,235.16,129.56,235.6,129.16Zm1,3.15C236.81,131.76,236.56,132.31,236.56,132.3Zm-2.7-5c-.05.18-.17.84-.57,1l.31.08c.07.49-2.55,1.22-3.17,1.27s-1.17.35-1.82-.3c-.38-.39-.34-1.38-.79-1.55-.22-.08,0,.73,0,.72-.45.29-1.46-1.89-.54-2,.28,0,1.24-.37,2.27-.66a36,36,0,0,1,6-1.09c1.2-.12,3.68-.17,2.74,1.61-.23.44-1.48,1.46-1.65.72,0,0-.61.3-.5.21-.19.15.52.21.5.16.08.15-2.51,1.86-2.69,1a8,8,0,0,0-.08-1m4.86,7.05a11,11,0,0,1,3.13,0c1.67.07,5.83,1.66,2.62,2.69-1.29.42-3.05.18-4.44.42-.9.16-2.07.64-2.56-.37-.11-.22.22-1.95.38-1.58.19-.86-.24-.85.88-1.21Zm-4.84,3.14A1.66,1.66,0,0,1,232.6,136a1.88,1.88,0,0,1,2.24-2.15c.44,0,2.33,1.23,1.88,1.31,0-.33.49-1.07.27-.21.07-.05,0-.37.08-.39,1-.15-.52,3.31-.59,2.82a6.43,6.43,0,0,1,.56-2.2s-.38.43-.38.43a4.07,4.07,0,0,0-.3-1.13c-.17.73,0,2.94-.49,3.17,0,.48-1.56.16-2,0Zm-17.38,9.72c-.1.17.24,1.19.33.68.06,0,1.78,1.87,2.38,2,1.52.4,2.17-.06,1.69-1.42a4.49,4.49,0,0,0-2.69-2.54C217.13,145.94,216,147.36,216.49,147.39Zm-.45-6.72c-.16-.05-.5.26,0,0Z"/>
  <path id="LF-2" data-name="LF" class="cls-1" d="M456.8,160a6.55,6.55,0,0,0,1-4c0-1-.79-1.46-1.46-2-.92-.77-.85-1.28.26-1.67,1.37-.47,2.76-.86,4.15-1.27.12,0,.28,0,.42.06a36.4,36.4,0,0,0,9.4-.2c.31,0,.63,0,.94,0,2.58-.3,5.22-.25,7.63-1.45,2.09-1,4.15-2.16,6.26-3.16,1.73-.82,1.49-.53,1.32-2.23a11.89,11.89,0,0,0,1.74-1.1c.64-.58.55-1.2-.1-1.75a3.47,3.47,0,0,0-2.48-.72c-1.15,0-2.31,0-3.47,0,1.44-.78,2.88-1.39,4.3-2,.66-.3.78-.82.26-1.33a2.11,2.11,0,0,0-1.1-.58,9.26,9.26,0,0,0-4.48.37c-.87.31-1.77.53-2.66.79l-.1-.31c.37-.15.76-.27,1.12-.44a31.92,31.92,0,0,0,3.2-1.54,1.47,1.47,0,0,0,.82-1.72c-.31-.83-1.13-1-1.93-1a1.44,1.44,0,0,0-.52,0c-.89.3-1.79.58-2.65,1a1.68,1.68,0,0,1-1.43.13,2.12,2.12,0,0,0-1.67.11c-1.28.48-2.48,1.21-4,1.07a13.56,13.56,0,0,0-3,.2c-.63.08-1.31.24-1.18,1.17,0,.13-.12.29-.19.44-2.6-1.73-3.3-1.69-4.09.26a3.07,3.07,0,0,0-3.66-1.16,7.75,7.75,0,0,1-2.18.13,15.39,15.39,0,0,1-1.77-.31,2.46,2.46,0,0,0-3.13,2.4,11.64,11.64,0,0,1-1,3.66,29.93,29.93,0,0,0-1.58,4.75,4.62,4.62,0,0,0,.47,4.07,9.55,9.55,0,0,1,1.05,2.83,12.34,12.34,0,0,0,.39,1.75c.8,1.62,1.65,3.23,2.57,4.78A1.43,1.43,0,0,0,456.8,160Zm29.92-16S486.75,143.94,486.72,144Zm-5.75,1c-.58.08-1.09-.1-1.52,0s-4.48.61-5.65.67a3.51,3.51,0,0,1-1.54-.13s3.76-.51,4.16-.45,6.19-1,6.82-1.14.76.31.76.31c.07.49-2.45.7-3,.77Z"/>
  <path id="RF-2" data-name="RF" class="cls-1" d="M580.65,170.62c-1.65-3.07-3.08-6.17-4.48-9.33a7.29,7.29,0,0,1-.33-2,3.67,3.67,0,0,1,.64-2.05,23.5,23.5,0,0,1,4.44-9.26,1.87,1.87,0,0,1,1.25-.4,3.35,3.35,0,0,1,1.41,1.57c1,2-.25,4.27-1.78,5.69a26.41,26.41,0,0,0,3.56.87c6.68,1,13.64-.92,20,1.58l1.59.73.8.37a3.59,3.59,0,0,0,.68.4c.25.12.52.22.8.32.57.21,1.24.36,1.82.63.84.29,1.6,1.41,1,1.88-.77.79-2.1.14-3.37.06l-.77,0-.58-.07c-.58-.06-1.09.14-1.52.1l-2.56-.25c-1.6.06-3.08-.78-4.69-.25a26.44,26.44,0,0,0,5.86.65c.86.1,1.93.24,2.88.38l1,.15c1.55.11,3.15-.26,4.83.25,1.17.46,1.86,2.27.59,2.84a4.81,4.81,0,0,1-2.42.57,13.54,13.54,0,0,0-2.52.17,24.51,24.51,0,0,0,2.73,1c.88.35,1.53.76,1.38,1.44a1.53,1.53,0,0,1-1,1.41,4.1,4.1,0,0,1-2,.07c-1.65-.2-3.15-.87-4.87-1,1.43,1.36,4.27.76,5.27,2.94a1.4,1.4,0,0,1-.68,1.67c-2,.67-3.58-.7-5.47-.88-.52-.05-1.27.57-1.75.18-2.82-1.32-5.89-.06-8.52-1.7-.17,0-.12-.53-.26-.89a8.22,8.22,0,0,1-1.29,1,1.59,1.59,0,0,1-2.51-1.16c-1.8,2.43-4.68-.11-7.06.86A3.14,3.14,0,0,1,580.65,170.62Z"/>
</svg>
