<svg id="logo" xmlns="http://www.w3.org/2000/svg" viewBox="0 0 1500 200">
  <defs>
    <style>
      .cls-1 {
        fill: #ffb770;
      }
    </style>
  </defs>
  <title>widescreen</title>
  <g>
    <path class="cls-1" d="M15.56,31.34l6.92-.28q5.6-.18,8.23,1.91a7.2,7.2,0,0,1,2.76,5.59,8.64,8.64,0,0,1-.77,4,5.51,5.51,0,0,1-2.37,2.59,8.33,8.33,0,0,1,3.22,2.64,9.07,9.07,0,0,1,1.33,5q.27,8.78-13.32,9.27l-4.87.17Zm7.7,12.3a6.49,6.49,0,0,0,3.53-.93,3.63,3.63,0,0,0,1.06-3.25,3.17,3.17,0,0,0-1.4-2.85,7.06,7.06,0,0,0-3.67-.71l-1.2,0,.28,7.74Zm.33,13.49a5.52,5.52,0,0,0,4.23-1.6A4.75,4.75,0,0,0,29,52.22q-.1-2.68-1.53-3.52a7.54,7.54,0,0,0-4-.77L22.2,48l.29,9.21Z"/>
    <path class="cls-1" d="M38.81,52.65a15.32,15.32,0,0,1-1.74-8.88,15.15,15.15,0,0,1,2.73-8.53,7.3,7.3,0,0,1,6.6-2.87A7.41,7.41,0,0,1,52.63,36a14.83,14.83,0,0,1,1.78,8.81,15.13,15.13,0,0,1-2.79,8.6A7.38,7.38,0,0,1,45,56.33,7.28,7.28,0,0,1,38.81,52.65Zm9-2.74a29.1,29.1,0,0,0,.65-11.16q-.41-2.22-2.26-2.34t-2.47,2a23.59,23.59,0,0,0-.85,5.17,29.21,29.21,0,0,0,.14,6Q43.35,51.9,45.2,52t2.58-2.1Z"/>
    <path class="cls-1" d="M57.26,32.74,63,32.06l.12,3.75a9.85,9.85,0,0,1,3-3,9,9,0,0,1,4.63-1.25l.19,5.63a19.58,19.58,0,0,0-3.86.64,8.33,8.33,0,0,0-3.79,1.91L63.76,55,58,55.65Z"/>
    <path class="cls-1" d="M74,34.1l5.74-.68.09,3a16.08,16.08,0,0,1,3.41-2.57,7.19,7.19,0,0,1,3.13-1A4.5,4.5,0,0,1,90,34.28a6.33,6.33,0,0,1,1.53,4.2l.53,17.47-5.74.68L85.79,41q-.1-3.08-2.21-3a3.55,3.55,0,0,0-1.52.46q-.83.44-2.1,1.21l.56,16.67L74.78,57Z"/>
    <path class="cls-1" d="M110.27,55l-.88-26.21-6.3.2.28-4.78,18.11-.6-.32,4.77-5.76.19.86,25.8Z"/>
    <path class="cls-1" d="M120.92,49a15.31,15.31,0,0,1-1.51-8.9,15.15,15.15,0,0,1,2.82-8.58,7.3,7.3,0,0,1,6.64-2.77,7.41,7.41,0,0,1,6.18,3.72,14.83,14.83,0,0,1,1.63,8.83,15.13,15.13,0,0,1-2.94,8.54,7.38,7.38,0,0,1-6.67,2.82A7.28,7.28,0,0,1,120.92,49Zm9-2.58a24.68,24.68,0,0,0,.95-5.51,24.66,24.66,0,0,0-.12-5.58q-.44-2.24-2.21-2.43t-2.5,2a23.75,23.75,0,0,0-.89,5.18,29.22,29.22,0,0,0,0,6.05,2.42,2.42,0,0,0,2.15,2.4Q129.17,48.68,129.93,46.4Z"/>
    <path class="cls-1" d="M150.21,24.71l6.92-.28q5.6-.18,8.23,1.91A7.22,7.22,0,0,1,168.1,32a8.64,8.64,0,0,1-.77,4A5.49,5.49,0,0,1,165,38.62a8.33,8.33,0,0,1,3.22,2.64,9.06,9.06,0,0,1,1.33,5q.29,8.63-13.33,9.09l-4.87.17Zm7.7,12.3a6.49,6.49,0,0,0,3.53-.93,3.63,3.63,0,0,0,1.06-3.26A3.17,3.17,0,0,0,161.08,30a7.06,7.06,0,0,0-3.67-.71l-1.2,0,.25,7.74Zm.33,13.49a5.51,5.51,0,0,0,4.22-1.57,4.75,4.75,0,0,0,1.2-3.23q-.1-2.68-1.53-3.52a7.52,7.52,0,0,0-4-.77l-1.31,0,.29,9.09Z"/>
    <path class="cls-1" d="M175.46,53.83a15.47,15.47,0,0,1-3.71-8.17,15.31,15.31,0,0,1,.61-9,7.35,7.35,0,0,1,5.78-4.37,7,7,0,0,1,6.66,2.09,15.83,15.83,0,0,1,3.65,8.3.73.73,0,0,1-.09.48.49.49,0,0,0,0,.22l-10.82,2a16,16,0,0,0,1.57,4.67q1.09,2,2.49,1.79a2.55,2.55,0,0,0,2-2.25l.41-2.11,4.63.89a9.82,9.82,0,0,1-1.87,5.09,7.82,7.82,0,0,1-11,.81h0l-.34-.32ZM182.41,41a9.59,9.59,0,0,0-1.3-3.72,2.17,2.17,0,0,0-2.28-1.05,1.88,1.88,0,0,0-1.21.93,5.16,5.16,0,0,0-.71,2.09,8.49,8.49,0,0,0,.05,2.82Z"/>
    <path class="cls-1" d="M209.73,56.83,197.67,28l6.42-1.5L210.82,44V25.44l4.79-1.19L222.36,42l.3-18.85,5.41-1.31-.62,31.61-5.86,1.14-6.81-17.87.33,19.19Z"/>
    <path class="cls-1" d="M232.42,56.87,231.73,34l5.74-.68.76,22.91Z"/>
    <path class="cls-1" d="M242.89,55.43l-1-30.34,5.74-.92,1,30.59Z"/>
    <path class="cls-1" d="M251.83,44.11q-.2-6.3,1.34-9.14a5.54,5.54,0,0,1,5-3,4.75,4.75,0,0,1,2.86.87,5.68,5.68,0,0,1,2,2.35l-.34-10,5.79-.85,1,30.57-4.35.64-1.62-3.15a4.75,4.75,0,0,1-1.44,2.51,5.19,5.19,0,0,1-3.43,1Q252.22,56.21,251.83,44.11Zm11,6.24a10.13,10.13,0,0,0,.64-4.71l-.29-7.71a3.37,3.37,0,0,0-2.88-1.77,2.22,2.22,0,0,0-2,1,5.78,5.78,0,0,0-.73,2.55,36.73,36.73,0,0,0,0,4.17,39.45,39.45,0,0,0,.32,4.27,6.22,6.22,0,0,0,.92,2.65,2.18,2.18,0,0,0,2,1,2.31,2.31,0,0,0,2-1.45Z"/>
    <path class="cls-1" d="M275.58,52.14l.25-21.88,5.79.33-2.18,21.76Zm-1.51,9.19.35-6.25,5.79.33-.33,6Z"/>
    <circle class="cls-1" cx="234.92" cy="21.71" r="4.48" transform="translate(169.1 248.26) rotate(-79.08)"/>
  </g>
  <path id="LF" class="cls-1" d="M71.28,143.42c1.17-1.84,1.18-3.94,1.06-6C72.26,136,71,135.35,70,134.61c-1.43-1-1.39-1.8.22-2.49,2-.84,4-1.55,6-2.3.18-.07.41,0,.62,0a53.79,53.79,0,0,0,13.84-1.26c.45-.1.92-.08,1.38-.17,3.77-.71,7.68-.91,11.09-2.92,3-1.75,5.9-3.61,8.91-5.3,2.46-1.38,2.15-.93,1.71-3.42a17.57,17.57,0,0,0,2.45-1.8c.89-.92.69-1.83-.33-2.58a5.13,5.13,0,0,0-3.73-.81c-1.69.17-3.4.22-5.11.32,2-1.3,4.1-2.34,6.12-3.44.95-.51,1.07-1.29.24-2a3.12,3.12,0,0,0-1.69-.74,13.69,13.69,0,0,0-6.56,1c-1.25.55-2.56,1-3.84,1.44l-.18-.44c.54-.25,1.09-.48,1.61-.77a47.17,47.17,0,0,0,4.56-2.6,2.17,2.17,0,0,0,1-2.63c-.55-1.19-1.76-1.32-3-1.28a2.13,2.13,0,0,0-.76.13c-1.28.54-2.57,1-3.8,1.69a2.48,2.48,0,0,1-2.09.34,3.14,3.14,0,0,0-2.45.34c-1.84.84-3.53,2-5.74,2a20,20,0,0,0-4.39.6c-.91.19-1.9.49-1.61,1.85,0,.19-.14.43-.23.67-4-2.29-5-2.15-6,.81-1.62-1.79-3.17-2.09-5.51-1.33a11.45,11.45,0,0,1-3.2.42,22.74,22.74,0,0,1-2.64-.27c-2.65-.24-4.35,1.21-4.37,3.86a17.2,17.2,0,0,1-1.13,5.5,44.23,44.23,0,0,0-1.84,7.17c-.33,2-.45,4.09,1.11,6a14.12,14.12,0,0,1,1.84,4.07,18.24,18.24,0,0,0,.75,2.54c1.35,2.31,2.76,4.59,4.28,6.79A2.11,2.11,0,0,0,71.28,143.42Zm42.46-26.64C113.72,116.72,113.76,116.65,113.73,116.78Zm-8.37,2.13c-.84.18-1.62,0-2.25.1s-6.54,1.36-8.25,1.57a5.19,5.19,0,0,1-2.28,0s5.48-1.14,6.08-1.09,9-2.08,9.94-2.39,1.16.38,1.16.38c.15.72-3.54,1.28-4.38,1.45Z"/>
  <path id="RF" class="cls-1" d="M230,154.51c-2.74-4.36-5.18-8.77-7.56-13.29a10.78,10.78,0,0,1-.69-3,5.42,5.42,0,0,1,.73-3.09c1-5,2.39-9.61,5.59-14.11a2.76,2.76,0,0,1,1.81-.72,5,5,0,0,1,2.25,2.17c1.7,2.79.07,6.33-2,8.57a39,39,0,0,0,5.34.91c9.94.79,20-2.77,29.6.27l2.43.91,1.21.46a5.3,5.3,0,0,0,1,.52c.38.15.79.27,1.22.39.86.26,1.87.4,2.75.74,1.27.34,2.5,1.92,1.72,2.66-1.06,1.25-3.08.42-5,.43l-1.14,0-.86,0c-.86,0-1.59.32-2.23.31l-3.8-.11c-2.35.25-4.62-.84-6.94.12a39.07,39.07,0,0,0,8.71.36c1.28.06,2.87.16,4.28.26l1.56.11c2.29,0,4.61-.7,7.15-.12,1.77.56,3,3.15,1.16,4.12a7.1,7.1,0,0,1-3.51,1.09,20,20,0,0,0-3.7.51,36.22,36.22,0,0,0,4.13,1.26c1.33.42,2.34,1,2.18,2a2.26,2.26,0,0,1-1.27,2.18,6.05,6.05,0,0,1-3,.31c-2.45-.12-4.73-1-7.28-1,2.25,1.85,6.37.68,8.07,3.79a2.07,2.07,0,0,1-.84,2.53c-2.84,1.2-5.35-.66-8.16-.74-.78,0-1.82,1-2.57.44-4.3-1.65-8.69.53-12.73-1.63-.26,0-.23-.77-.48-1.29a12.15,12.15,0,0,1-1.8,1.53,2.35,2.35,0,0,1-3.82-1.45c-2.4,3.77-6.92.32-10.32,2A4.64,4.64,0,0,1,230,154.51Z"/>
  <path id="RH" class="cls-1" d="M504.61,87.82c-.39-.05-.79.41-1.18.14-.2-.13-.05-.4-.06-.6a8.09,8.09,0,0,1,.92-2.33,6.78,6.78,0,0,0,.46-.91c.31-1.12.57-4.73,2-4.59,1.1-2.64,5.59-1,7.81-1.14s4.36-1.77,6.49-1.2c1,.26,1.47,1.07,2.5,1.31a1.71,1.71,0,0,0-.19-.78,1.29,1.29,0,0,0,.88-.16c0-1.45,12.12-1,13.65-1s5.66.22,3,3.06c-.41.43-5.16,1.25-5.08.64-.06.12,0,1.11-.4.42-.59.65-1.38,1.57-2.64,1s-.53-1.39-1.26-2.28c0,0,.73,3-.22,2.53-.56-.29-.13-2.56-1.24-3.12,0,.26.84,3.18.6,3.19-.53,0-.9-2.83-1.05-2.88-.69-.27.11,3.05,0,3.29-.46.72-3,1.13-4.09,1a1.31,1.31,0,0,1-.39-.11c-1-.17-.88-1.43-1.21-2.15a1.86,1.86,0,0,0-.18.57c0,.22-.07.46-.1.69-.12.53-1.14,3.89-.41,3.83.13,0,.27-.13.4-.19a.86.86,0,0,1,.4-.14.37.37,0,0,1,.23.13,1,1,0,0,1,.19.45c0,.22,2.14,8.15.18,8.7-.46.13-.08-.76-.11-.9-.73,0-1.36,3.27-2.12,2.48a17,17,0,0,0-1.22,3.65c-.54.33-.21,1.29-.94,2-1.13,1-4.36.55-5.93.48-2.9-.14-8.3.53-8.61-2.87-.33.44.07,1.89-1,1.39-.13,1.38-7.12-.49-8.06-.91-.78-.35-3.82-2.71-4.18-3.6s.64-6.91.6-7c.05.17-.33-1.17-.2-.93-2.17-3.89,5.41-11,8.89-9.21,1.73.87.15-1.74,1.73.38.69.94.39,1.8,0,2.9a4.79,4.79,0,0,1-.28.49,8.5,8.5,0,0,1-.56.79c-.27.22-.41.61-.74.48s.07-.66.34-.8.5-.37.39-.52a.24.24,0,0,0-.4,0,1.79,1.79,0,0,0-.39.61,2.41,2.41,0,0,0-.15,1.39c.2-.07.14-.53.4-.39a.94.94,0,0,1,.46.93c-.07.33-.53.39-.47.66.19.8-.28,1.84-.54,1.85-1.92-.08-3.63-1.55-5.27-2.75,1,1.8,3.36,2.08,4.34,3.87a9.11,9.11,0,0,1,.7,3.24c0,.19.09.39.15.58s.11.38.18.58l.15.73c.1.48.2,1,.3,1.42.23,1,.1,2.84.59,3.72.06-.13.6-1.59.67-1.64-1.34.1-.35-2.27.12-2.47a4.26,4.26,0,0,1-.6-.48,5.19,5.19,0,0,1-.57-.63c-.15-.2-.3-.43-.45-.68a7.64,7.64,0,0,1-.42-.8,2.05,2.05,0,0,1,.75-2.9.29.29,0,0,1,.33.07.66.66,0,0,0,.26.33c.13.07.26.2.4.2s.27-.33.27-.53c-.06-.6-1.12-.8-.65-1.46s1.06-.32,1.59-.32c.13,0,.2-.13.27-.26a.26.26,0,0,0-.2.07c.07-.2.13-.4.42-.36m26.81,6.07a1.21,1.21,0,0,0-.46-.61c-.35,1.23.61,2,.2,2.79,0,0-.82.46-1.07.55A3.11,3.11,0,0,1,526,93.1a3.29,3.29,0,0,1,3.08-2.56,3.1,3.1,0,0,1,1,.36c.23.07,1.75.53,1.64.52.07,0,.14.8.44.89.24-.16.87-1.84,1.57-1.28a.41.41,0,0,1-.17.51c-.14-.22,2.27-1.15,2.5-.56.06.15-.13.25,0,.53s.29-.66.16-.57c.79-.52,7.7,1.94,8,2.86.65,2.15-1.62,2.26-3.22,2.45-1.93.22-6.41,1-8.26,0-.77-.39-.81-2-1.09-2.16ZM533,91.38s.56.72,0,0Zm-2.15,7.91a13.88,13.88,0,0,0-.25-1.51c0-1.24,4.3.29,4.23.54,0-.08-1,.25-.65.4-.2-.1.84.09.79.12,0-1.12,2.12-.11,2.61.44,2,2.23-1.58,3.05-3.35,3.29a53.17,53.17,0,0,1-8.95.56c-1.58,0-3.08-.2-3.49-.14-1.34.2-.68-3.29.07-3,0,0-.05,1.23.23,1,.58-.4.17-1.81.58-2.51.69-1.16,1.46-.92,2.49-1.08s4.93,0,5,.7l-.41.23c.62,0,1,1,1.16,1.18M533.62,86c-.1.58-1.19-1.78-1.12-2.13.35-1.63,2.2-1.35,3.54-1.45,2.07-.14,4.52-1.11,6.52-1,5,.34-.43,4.1-2.81,4.79-1.24.36-3.2,1.27-4.48,1.19-1.7-.11-1.08-.25-1.65-1.41Zm-3.53-2.09c.79.15,1.33,3.39,1.83,4.37a6,6,0,0,0,0-1.72s.73.49.7.48a9.42,9.42,0,0,1-1.59-3c-.07-.72,3.3,3.71,1.86,3.84-.14,0-.13-.47-.26-.52.61,1.15-.41.27-.46-.21.67,0-1.61,2.35-2.23,2.54-1.87.61-3.58,0-4-2.29a2.46,2.46,0,0,1,1.26-2.79c.54-.41,2.64-1.42,2.86-.73Zm-28.36-5.81c1.46-.67,2.8-3.07,3-4.6.23-2.12-.89-2.54-2.93-1.43-.81.44-2.61,3.74-2.69,3.76-.32-.69-.43.89-.23,1.1C498.1,77.15,500.23,78.79,501.73,78.11Zm-1.14,8.63c-.81-.19-.2.12,0,0Z"/>
  <path id="RH-2" data-name="RH" class="cls-1" d="M1248.27,111c-.39-.05-.79.41-1.18.14-.2-.13-.05-.4-.06-.6a8.09,8.09,0,0,1,.92-2.33,6.78,6.78,0,0,0,.46-.91c.31-1.12.57-4.73,2-4.59,1.1-2.64,5.59-1,7.81-1.14s4.36-1.77,6.49-1.2c1,.26,1.47,1.07,2.5,1.31a1.71,1.71,0,0,0-.19-.78,1.29,1.29,0,0,0,.88-.16c0-1.45,12.12-1,13.65-1s5.66.22,3,3.06c-.41.43-5.16,1.25-5.08.64-.06.12,0,1.11-.4.42-.59.65-1.38,1.57-2.64,1s-.53-1.39-1.26-2.28c0,0,.73,3-.22,2.53-.56-.29-.13-2.56-1.24-3.12,0,.26.84,3.18.6,3.19-.53,0-.9-2.83-1.05-2.88-.69-.27.11,3.05,0,3.29-.46.72-3,1.13-4.09,1a1.31,1.31,0,0,1-.39-.11c-1-.17-.88-1.43-1.21-2.15a1.86,1.86,0,0,0-.18.57c0,.22-.07.46-.1.69-.12.53-1.14,3.89-.41,3.83.13,0,.27-.13.4-.19a.86.86,0,0,1,.4-.14.37.37,0,0,1,.23.13,1,1,0,0,1,.19.45c0,.22,2.14,8.15.18,8.7-.46.13-.08-.76-.11-.9-.73,0-1.36,3.27-2.12,2.48a17,17,0,0,0-1.22,3.65c-.54.33-.21,1.29-.94,2-1.13,1-4.36.55-5.93.48-2.9-.14-8.3.53-8.61-2.87-.33.44.07,1.89-1,1.39-.13,1.38-7.12-.49-8.06-.91-.78-.35-3.82-2.71-4.18-3.6s.64-6.91.6-7c.05.17-.33-1.17-.2-.93-2.17-3.89,5.41-11,8.89-9.21,1.73.87.15-1.74,1.73.38.69.94.39,1.8,0,2.9a4.79,4.79,0,0,1-.28.49,8.5,8.5,0,0,1-.56.79c-.27.22-.41.61-.74.48s.07-.66.34-.8.5-.37.39-.52a.24.24,0,0,0-.4,0,1.79,1.79,0,0,0-.39.61,2.41,2.41,0,0,0-.15,1.39c.2-.07.14-.53.4-.39a.94.94,0,0,1,.46.93c-.07.33-.53.39-.47.66.19.8-.28,1.84-.54,1.85-1.92-.08-3.63-1.55-5.27-2.75,1,1.8,3.36,2.08,4.34,3.87a9.11,9.11,0,0,1,.7,3.24c0,.19.09.39.15.58s.11.38.18.58l.15.73c.1.48.2,1,.3,1.42.23,1,.1,2.84.59,3.72.06-.13.6-1.59.67-1.64-1.34.1-.35-2.27.12-2.47a4.26,4.26,0,0,1-.6-.48,5.19,5.19,0,0,1-.57-.63c-.15-.2-.3-.43-.45-.68a7.64,7.64,0,0,1-.42-.8,2.05,2.05,0,0,1,.75-2.9.29.29,0,0,1,.33.07.66.66,0,0,0,.26.33c.13.07.26.2.4.2s.27-.33.27-.53c-.06-.6-1.12-.8-.65-1.46s1.06-.32,1.59-.32c.13,0,.2-.13.27-.26a.26.26,0,0,0-.2.07c.07-.2.13-.4.42-.36m26.81,6.07a1.21,1.21,0,0,0-.46-.61c-.35,1.23.61,2,.2,2.79,0,0-.82.46-1.07.55a3.11,3.11,0,0,1-4.27-3.68,3.29,3.29,0,0,1,3.08-2.56,3.1,3.1,0,0,1,1,.36c.23.07,1.75.53,1.64.52.07,0,.14.8.44.89.24-.16.87-1.84,1.57-1.28a.41.41,0,0,1-.17.51c-.14-.22,2.27-1.15,2.5-.56.06.15-.13.25,0,.53s.29-.66.16-.57c.79-.52,7.7,1.94,8,2.86.65,2.15-1.62,2.26-3.22,2.45-1.93.22-6.41,1-8.26,0-.77-.39-.81-2-1.09-2.16Zm1.35-2.68s.56.72,0,0Zm-2.15,7.91a13.88,13.88,0,0,0-.25-1.51c0-1.24,4.3.29,4.23.54,0-.08-1,.25-.65.4-.2-.1.84.09.79.12,0-1.12,2.12-.11,2.61.44,2,2.23-1.58,3.05-3.35,3.29a53.17,53.17,0,0,1-8.95.56c-1.58,0-3.08-.2-3.49-.14-1.34.2-.68-3.29.07-3,0,0-.05,1.23.23,1,.58-.4.17-1.81.58-2.51.69-1.16,1.46-.92,2.49-1.08s4.93,0,5,.7l-.41.23c.62,0,1,1,1.16,1.18m2.72-13.5c-.1.58-1.19-1.78-1.12-2.13.35-1.63,2.2-1.35,3.54-1.45,2.07-.14,4.52-1.11,6.52-1,5,.34-.43,4.1-2.81,4.79-1.24.36-3.2,1.27-4.48,1.19-1.7-.11-1.08-.25-1.65-1.41Zm-3.53-2.09c.79.15,1.33,3.39,1.83,4.37a6,6,0,0,0,0-1.72s.73.49.7.48a9.42,9.42,0,0,1-1.59-3c-.07-.72,3.3,3.71,1.86,3.84-.14,0-.13-.47-.26-.52.61,1.15-.41.27-.46-.21.67,0-1.61,2.35-2.23,2.54-1.87.61-3.58,0-4-2.29a2.46,2.46,0,0,1,1.26-2.79c.54-.41,2.64-1.42,2.86-.73Zm-28.36-5.81c1.46-.67,2.8-3.07,3-4.6.23-2.12-.89-2.54-2.93-1.43-.81.44-2.61,3.74-2.69,3.76-.32-.69-.43.89-.23,1.1C1241.76,100.33,1243.9,102,1245.39,101.29Zm-1.14,8.63c-.81-.19-.2.12,0,0Z"/>
  <path id="LH" class="cls-1" d="M368.8,58.25c-.26.1-.38-.07-.49-.25a.26.26,0,0,0,.21,0c-.1-.11-.19-.23-.32-.19-.51.13-1.17.51-1.62.07-.61-.53.36-1,.28-1.58,0-.19-.12-.45-.39-.45s-.23.19-.33.3a.66.66,0,0,0-.17.39.29.29,0,0,1-.3.15,2.05,2.05,0,0,1-1.43-2.64,7.63,7.63,0,0,1,.21-.87c.09-.27.18-.54.27-.77a5.19,5.19,0,0,1,.39-.75,4.26,4.26,0,0,1,.47-.61c-.51-.07-2-2.14-.72-2.37-.08,0-1-1.31-1-1.42-.27,1,.29,2.69.32,3.75,0,.47,0,1,.05,1.45,0,.26,0,.5,0,.75s0,.4,0,.6,0,.4,0,.6a9.28,9.28,0,0,1,.09,3.31c-.52,2-2.71,2.81-3.28,4.8,1.31-1.57,2.61-3.4,4.46-3.94.25-.06,1,.84,1,1.67,0,.27.47.22.61.53a.94.94,0,0,1-.22,1c-.23.19-.27-.27-.48-.29a2.43,2.43,0,0,0,.48,1.31,1.79,1.79,0,0,0,.52.5c.16.09.3.07.38-.11s-.2-.3-.5-.41-.91-.32-.53-.7c.29-.21.51.14.83.29a8.5,8.5,0,0,1,.74.63,4.79,4.79,0,0,1,.39.41c.67,1,1.17,1.75.72,2.81-1,2.44-.12-.48-1.59.79-3,2.54-12-2.48-10.85-6.78-.07.27,0-1.12,0-.95,0-.13-2.42-5.73-2.28-6.68s2.51-4,3.18-4.51,7.15-4.13,7.6-2.83c.87-.74.83.78,1.26,1.12-.51-3.37,4.89-4,7.67-4.85,1.51-.46,4.53-1.71,5.87-1,.87.48.78,1.48,1.38,1.68a17.1,17.1,0,0,0,2.06,3.25c.54-.95,2,2.11,2.66,1.89,0-.13-.59-.91-.12-.9,2,.06,1.92,8.26,1.93,8.48a1,1,0,0,1-.07.48.37.37,0,0,1-.2.18.86.86,0,0,1-.42,0c-.14,0-.3-.12-.43-.09-.72.12,1.08,3.14,1.32,3.62.08.22.17.45.26.65a1.86,1.86,0,0,0,.33.5c.15-.79-.24-2,.65-2.39a1.31,1.31,0,0,1,.35-.2c1.06-.44,3.58-.65,4.2-.06.2.19.24,3.61.83,3.18.13-.09-.2-3,.33-3.05.24,0,.12,3,.19,3.24.94-.82,0-2.91.45-3.32.8-.72.83,2.41.83,2.4.49-1-.36-1.72.69-2.52s2.08-.13,2.81.35c.19-.76.4.2.49.31-.23-.57,4.59-.93,5.09-.6,3.27,2.11-.68,3.29-2.18,3.69s-13.09,3.77-13.48,2.36a1.29,1.29,0,0,0-.89.06,1.71,1.71,0,0,0,0-.8c-1,.48-1.25,1.39-2.12,1.87-1.93,1.07-4.53.06-6.59.4s-6.15,3.07-7.85.77c-1.37.49-2.49-3-3.07-4a6.78,6.78,0,0,0-.67-.77,8.09,8.09,0,0,1-1.45-2c0-.19-.24-.42-.08-.59.32-.36.82,0,1.18-.15m25.27-15c1.56-1.43,6.1-1.75,8-2,1.6-.21,3.83-.64,3.72,1.6,0,1-6.16,5-7.05,4.71.15,0-.21-.92-.3-.52s.14.35.12.51c-.07.62-2.64.3-2.55.06a.41.41,0,0,1,.28.45c-.54.72-1.56-.76-1.83-.86-.27.16-.13.94-.21,1,.1,0-1.26.77-1.47.9,0,0-.59.54-.86.59a3.3,3.3,0,0,1-3.6-1.74,3.11,3.11,0,0,1,3.26-4.61c.26,0,1.19.29,1.17.27.61.69-.15,1.64.48,2.75a1.21,1.21,0,0,0,.3-.71C393.6,45.7,393.24,44.1,393.89,43.5Zm1.41,4.65C395.68,47.35,395.3,48.16,395.3,48.16Zm-4-7.37c-.07.27-.24,1.24-.84,1.43l.45.12c.1.73-3.77,1.8-4.69,1.88s-1.73.51-2.68-.45c-.57-.58-.51-2-1.17-2.29-.32-.12,0,1.08,0,1.06-.67.43-2.15-2.8-.8-2.93.41,0,1.83-.54,3.35-1a53.17,53.17,0,0,1,8.8-1.62c1.78-.18,5.43-.26,4.05,2.38-.34.66-2.19,2.16-2.43,1.06.06,0-.9.45-.73.3-.28.23.77.3.73.23.12.23-3.7,2.75-4,1.54A11.83,11.83,0,0,0,391.3,41m7.18,10.42c1.21-.39,3.34,0,4.62.07,2.47.1,8.62,2.45,3.88,4-1.9.61-4.51.26-6.56.62-1.33.24-3.05,1-3.78-.55-.16-.32.33-2.88.57-2.33.29-1.27-.35-1.26,1.29-1.79Zm-7.15,4.63a2.46,2.46,0,0,1-1.89-2.4c-.17-2.3,1.35-3.32,3.3-3.18.65,0,3.44,1.82,2.78,1.94-.07-.48.72-1.58.4-.31.11-.08,0-.55.12-.57,1.43-.22-.77,4.9-.88,4.17a9.5,9.5,0,0,1,.83-3.26s-.56.64-.56.64a6,6,0,0,0-.44-1.66c-.25,1.08,0,4.35-.72,4.68,0,.71-2.31.23-2.93-.05ZM365.65,70.44c-.14.25.35,1.76.49,1,.09,0,2.63,2.76,3.52,3,2.24.59,3.21-.08,2.49-2.09-.52-1.45-2.39-3.45-4-3.75S364.89,70.41,365.65,70.44ZM365,60.51c-.23-.07-.74.38,0,0Z"/>
  <path id="LF-2" data-name="LF" class="cls-1" d="M718.92,128.72c1.44-1.64,1.76-3.72,2-5.78.13-1.41-1-2.24-1.91-3.14-1.26-1.24-1.1-2,.59-2.43,2.07-.54,4.17-.93,6.27-1.37.18,0,.4.09.61.13a53.79,53.79,0,0,0,13.87.83c.46,0,.93.06,1.39,0,3.83-.13,7.73.25,11.41-1.22,3.21-1.28,6.37-2.68,9.6-3.91,2.64-1,2.26-.6,2.21-3.12a17.57,17.57,0,0,0,2.69-1.41c1-.77,1-1.7.06-2.6a5.13,5.13,0,0,0-3.57-1.36c-1.7-.09-3.4-.29-5.1-.45,2.22-1,4.4-1.7,6.57-2.48,1-.36,1.25-1.11.54-1.93a3.12,3.12,0,0,0-1.56-1,13.69,13.69,0,0,0-6.64,0c-1.32.36-2.68.57-4,.85l-.11-.46c.57-.17,1.15-.31,1.7-.52a47.17,47.17,0,0,0,4.9-1.88,2.17,2.17,0,0,0,1.41-2.44c-.36-1.25-1.55-1.57-2.73-1.71a2.13,2.13,0,0,0-.77,0c-1.34.34-2.7.64-4,1.1a2.48,2.48,0,0,1-2.12,0,3.14,3.14,0,0,0-2.48,0c-1.94.55-3.79,1.49-6,1.1a20,20,0,0,0-4.43-.07c-.93.05-2,.2-1.87,1.58,0,.2-.21.41-.33.63-3.63-2.86-4.66-2.88-6.06-.1-1.33-2-2.82-2.54-5.25-2.14a11.45,11.45,0,0,1-3.22-.06,22.74,22.74,0,0,1-2.57-.66c-2.59-.64-4.49.54-4.9,3.16a17.2,17.2,0,0,1-1.94,5.27,44.23,44.23,0,0,0-2.89,6.81c-.63,2-1.06,4,.2,6.06a14.12,14.12,0,0,1,1.21,4.3A18.24,18.24,0,0,0,712,121c1,2.49,2,4.95,3.21,7.35A2.11,2.11,0,0,0,718.92,128.72Zm46-20C764.89,108.68,764.94,108.63,764.89,108.75Zm-8.6.85c-.86,0-1.6-.28-2.24-.23s-6.67.37-8.4.32a5.19,5.19,0,0,1-2.25-.38s5.59-.31,6.18-.16,9.24-.7,10.19-.87,1.09.55,1.09.55c0,.73-3.69.73-4.55.78Z"/>
  <path id="LF-3" data-name="LF" class="cls-1" d="M1397.81,45.66c1.21-1.81,1.26-3.92,1.17-6-.06-1.41-1.27-2.09-2.31-2.86-1.41-1.07-1.36-1.83.26-2.48,2-.8,4-1.48,6-2.18.18-.06.41,0,.62.05a53.79,53.79,0,0,0,13.86-1c.45-.09.93-.07,1.38-.14,3.78-.64,7.69-.77,11.15-2.71,3-1.69,6-3.5,9-5.14,2.49-1.34,2.17-.89,1.78-3.39a17.57,17.57,0,0,0,2.48-1.76c.9-.9.73-1.82-.28-2.58a5.13,5.13,0,0,0-3.72-.88c-1.7.14-3.4.16-5.12.23,2.07-1.26,4.14-2.27,6.19-3.32,1-.49,1.09-1.27.28-2a3.12,3.12,0,0,0-1.67-.78,13.69,13.69,0,0,0-6.58.88c-1.26.53-2.58.92-3.87,1.37l-.17-.44c.54-.24,1.1-.46,1.62-.74a47.17,47.17,0,0,0,4.61-2.51,2.17,2.17,0,0,0,1.08-2.61c-.52-1.2-1.74-1.35-2.93-1.34a2.13,2.13,0,0,0-.76.11c-1.29.52-2.59,1-3.83,1.62a2.48,2.48,0,0,1-2.09.3,3.14,3.14,0,0,0-2.46.29c-1.85.8-3.56,2-5.77,1.88a20,20,0,0,0-4.4.52c-.92.17-1.91.45-1.65,1.82,0,.19-.15.43-.25.67-4-2.36-5-2.24-6,.7-1.59-1.82-3.13-2.15-5.49-1.43a11.45,11.45,0,0,1-3.2.36,22.74,22.74,0,0,1-2.64-.32c-2.65-.29-4.38,1.13-4.44,3.77a17.2,17.2,0,0,1-1.23,5.48,44.23,44.23,0,0,0-2,7.13c-.37,2-.53,4.08,1,6a14.12,14.12,0,0,1,1.77,4.1,18.24,18.24,0,0,0,.7,2.55c1.3,2.34,2.67,4.64,4.15,6.87A2.11,2.11,0,0,0,1397.81,45.66Zm42.94-25.85C1440.75,19.74,1440.78,19.68,1440.75,19.81Zm-8.41,2c-.85.16-1.62-.07-2.25.06s-6.56,1.24-8.28,1.42a5.19,5.19,0,0,1-2.28-.08s5.5-1,6.1-1,9.07-1.91,10-2.2,1.15.4,1.15.4c.14.72-3.57,1.21-4.41,1.37Z"/>
  <path id="RF-2" data-name="RF" class="cls-1" d="M928.5,161.41c-2.06-4.72-3.8-9.45-5.48-14.28a10.78,10.78,0,0,1-.24-3,5.42,5.42,0,0,1,1.19-2.95c1.74-4.83,3.81-9.14,7.64-13.12a2.76,2.76,0,0,1,1.89-.44,5,5,0,0,1,1.9,2.48c1.27,3-.88,6.27-3.3,8.17a39,39,0,0,0,5.14,1.71c9.71,2.27,20.19.26,29.22,4.71l2.26,1.27,1.13.64a5.3,5.3,0,0,0,.95.67c.35.2.74.39,1.14.57.82.38,1.79.68,2.6,1.14,1.2.53,2.19,2.27,1.3,2.89-1.23,1.08-3.11,0-5-.32l-1.13-.15-.84-.17c-.85-.15-1.62.07-2.25,0l-3.74-.68c-2.36-.11-4.44-1.52-6.88-.92a39.07,39.07,0,0,0,8.56,1.66c1.26.25,2.82.59,4.2.9l1.53.34c2.27.34,4.66,0,7.09,1,1.67.82,2.47,3.56.53,4.25a7.1,7.1,0,0,1-3.64.55,20,20,0,0,0-3.73-.06,36.22,36.22,0,0,0,3.89,1.87c1.25.62,2.17,1.31,1.86,2.28a2.26,2.26,0,0,1-1.59,2,6.05,6.05,0,0,1-3-.14c-2.4-.49-4.53-1.65-7-2.1,1.94,2.17,6.19,1.62,7.41,5a2.07,2.07,0,0,1-1.21,2.38c-3,.76-5.19-1.45-8-2-.76-.14-1.94.69-2.6.05-4-2.28-8.67-.78-12.34-3.52-.25,0-.12-.8-.28-1.35a12.15,12.15,0,0,1-2,1.25,2.35,2.35,0,0,1-3.56-2c-2.94,3.36-6.89-.72-10.5.43A4.64,4.64,0,0,1,928.5,161.41Z"/>
  <path id="LH-2" data-name="LH" class="cls-1" d="M1057.85,77.92c-.27.06-.36-.13-.45-.32a.26.26,0,0,0,.2,0c-.08-.13-.16-.26-.29-.24-.53.05-1.23.32-1.61-.17s.51-.92.51-1.52c0-.2,0-.46-.32-.5s-.26.16-.38.25a.66.66,0,0,0-.23.36.29.29,0,0,1-.32.1,2.05,2.05,0,0,1-1-2.82,7.63,7.63,0,0,1,.34-.83c.13-.25.26-.51.38-.72a5.19,5.19,0,0,1,.5-.68,4.26,4.26,0,0,1,.56-.54c-.49-.15-1.7-2.42-.35-2.45-.07,0-.74-1.44-.82-1.57-.41.92-.12,2.7-.24,3.76-.06.47-.11,1-.16,1.45,0,.26-.06.49-.09.74s-.09.39-.12.59-.06.39-.09.59a9.28,9.28,0,0,1-.4,3.29c-.81,1.88-3.1,2.37-4,4.26,1.53-1.35,3.09-3,5-3.23.26,0,.83,1,.71,1.8,0,.27.43.29.53.61a.94.94,0,0,1-.37,1c-.26.16-.23-.31-.43-.36a2.43,2.43,0,0,0,.28,1.37,1.79,1.79,0,0,0,.44.58c.15.11.29.11.39-.06s-.16-.33-.43-.48-.85-.46-.42-.77c.32-.16.49.22.78.41a8.5,8.5,0,0,1,.64.73,4.79,4.79,0,0,1,.33.46c.52,1.05.89,1.9.29,2.89-1.38,2.26,0-.49-1.69.54-3.3,2.07-11.5-4.26-9.71-8.33-.11.25.15-1.11.11-.94,0-.13-1.53-6-1.25-6.95s3.08-3.56,3.82-4c.89-.5,7.69-3,7.94-1.65,1-.6.7.89,1.08,1.29,0-3.4,5.44-3.24,8.31-3.64,1.56-.23,4.73-1,5.95-.07.79.6.55,1.58,1.12,1.87a17.1,17.1,0,0,0,1.55,3.52c.67-.86,1.62,2.38,2.34,2.27,0-.13-.45-1,0-.91,2,.36.66,8.45.64,8.68a1,1,0,0,1-.14.47.37.37,0,0,1-.22.15.86.86,0,0,1-.41-.1c-.14,0-.28-.16-.41-.15-.73,0,.6,3.27.77,3.78,0,.23.1.47.16.68a1.86,1.86,0,0,0,.25.55c.27-.76.07-2,1-2.26a1.31,1.31,0,0,1,.38-.15c1.11-.28,3.64-.1,4.17.57.17.22-.31,3.6.35,3.27.14-.07.25-3,.78-3,.24,0-.33,3-.3,3.23,1.05-.67.42-2.87.94-3.22.9-.6.46,2.5.46,2.5.64-1-.09-1.76,1.06-2.39s2.07.18,2.73.77c.3-.72.36.26.44.38-.14-.6,4.67-.23,5.12.17,2.91,2.57-1.17,3.16-2.71,3.32s-13.51,1.76-13.68.31a1.29,1.29,0,0,0-.89-.07,1.71,1.71,0,0,0,.11-.79c-1,.33-1.45,1.19-2.38,1.53-2.07.77-4.49-.62-6.57-.59s-6.54,2.11-7.88-.41c-1.43.28-2-3.29-2.44-4.38a6.78,6.78,0,0,0-.54-.86,8.09,8.09,0,0,1-1.13-2.24c0-.2-.18-.45,0-.6.37-.3.81.12,1.19,0m27.23-11c1.75-1.18,6.29-.82,8.23-.77,1.61,0,3.88-.06,3.43,2.14-.19.95-6.84,4-7.68,3.6.14.07-.07-.94-.22-.55s.08.37,0,.53c-.17.6-2.65-.1-2.53-.33a.41.41,0,0,1,.21.49c-.64.63-1.43-1-1.68-1.12-.29.12-.27.91-.35.93.1,0-1.36.57-1.59.67a3.36,3.36,0,0,1-.94.45,3.3,3.3,0,0,1-3.3-2.26,3.11,3.11,0,0,1,3.91-4.06c.25.07,1.13.47,1.11.45.5.77-.39,1.6.06,2.79a1.21,1.21,0,0,0,.4-.65C1084.26,69.23,1084.14,67.59,1084.88,67.1Zm.7,4.81C1086.07,71.17,1085.57,71.92,1085.57,71.92ZM1082.74,64c-.11.25-.43,1.19-1,1.28l.43.19c0,.74-4,1.22-4.92,1.16s-1.79.25-2.59-.84c-.48-.66-.2-2.09-.81-2.44-.3-.17-.16,1.07-.13,1.06-.73.33-1.71-3.09-.35-3,.41,0,1.89-.26,3.46-.46a53.17,53.17,0,0,1,8.94-.28c1.79.09,5.41.56,3.65,3-.44.6-2.49,1.81-2.56.68.06,0-1,.31-.77.19-.31.18.72.42.69.34.09.24-4.07,2.16-4.16.93a11.83,11.83,0,0,0,.11-1.52m5.54,11.38c1.25-.2,3.3.52,4.56.76,2.43.47,8.15,3.71,3.24,4.51-2,.32-4.5-.42-6.58-.37-1.35,0-3.16.48-3.66-1.11-.11-.34.76-2.8.91-2.22.47-1.21-.16-1.29,1.55-1.57Zm-7.76,3.51A2.46,2.46,0,0,1,1079,76.5c.18-2.3,1.83-3.08,3.74-2.65.63.14,3.13,2.31,2.45,2.33,0-.49.95-1.46.44-.25.12-.06.07-.55.21-.55,1.45,0-1.5,4.73-1.49,4a9.5,9.5,0,0,1,1.31-3.1s-.65.55-.65.55a6,6,0,0,0-.18-1.71c-.41,1-.65,4.3-1.42,4.52-.14.7-2.32-.12-2.89-.49ZM1052.92,89.5c-.18.22.08,1.79.33,1.07.09,0,2.19,3.13,3,3.49,2.13.92,3.19.4,2.78-1.7-.29-1.51-1.85-3.77-3.37-4.3S1052.16,89.35,1052.92,89.5Zm.84-9.92c-.22-.11-.79.26,0,0Z"/>
</svg>
