<svg id="Layer_1" data-name="Layer 1" xmlns="http://www.w3.org/2000/svg" viewBox="0 0 24 24">
  <title>aktiv</title>
  <path d="M11.25,9.07a2.5,2.5,0,0,0-2.42,1,2.5,2.5,0,0,0-2.42-1A2.6,2.6,0,0,0,4.33,11.7a2.48,2.48,0,0,0,.73,1.77l3.41,3.41a.5.5,0,0,0,.35.15.49.49,0,0,0,.35-.15l3.41-3.41a2.52,2.52,0,0,0,.73-1.83A2.58,2.58,0,0,0,11.25,9.07Zm.65,3.7L8.83,15.82,5.77,12.76a1.54,1.54,0,0,1-.44-1.12,1.57,1.57,0,0,1,1.24-1.59h.26a1.48,1.48,0,0,1,1,.36,1.5,1.5,0,0,1,.53,1.14.5.5,0,1,0,1,0,1.5,1.5,0,0,1,1.5-1.5l.26,0a1.6,1.6,0,0,1,1.24,1.65,1.51,1.51,0,0,1-.47,1Z"/>
  <g>
    <path d="M13.31,6a2.5,2.5,0,1,0-2.5-2.5A2.5,2.5,0,0,0,13.31,6Zm0-4a1.5,1.5,0,1,1-1.5,1.5A1.5,1.5,0,0,1,13.31,2Z"/>
    <path d="M19.13,4.17a1.46,1.46,0,0,0-2,0L14.5,6.79a1.71,1.71,0,0,0-.35,0H11.87a.5.5,0,0,0,0,1h2.28a.74.74,0,0,1,.29.06A.5.5,0,0,0,15,7.71l2.83-2.83a.44.44,0,0,1,.6,0,.43.43,0,0,1,0,.6L15,8.86a.5.5,0,0,0-.15.35V22H11.78l-.36-5a.49.49,0,0,0-.52-.46h0a.5.5,0,0,0-.46.53l.39,5.5a.5.5,0,0,0,.5.46h4a.5.5,0,0,0,.46-.31.49.49,0,0,0,.17-.37V9.42l3.23-3.23a1.43,1.43,0,0,0,0-2Z"/>
  </g>
</svg>
