<svg id="Layer_1" data-name="Layer 1" xmlns="http://www.w3.org/2000/svg" viewBox="0 0 30 30">
  <title>hand-heart-ou</title>
  <g>
    <path d="M29.65,22.61h-2c0-.06,0-.11,0-.17l0-.65h1.38a.35.35,0,0,0,0-.69H27.71l0-.82h.85a.35.35,0,1,0,0-.69h-.83l.13-5.36a1.56,1.56,0,0,0-2.73-1.07,2.27,2.27,0,0,0-.63,1l-1,2.83-1.68-1.68-.42.56,2,2a.36.36,0,0,0,.29.1c.1,0,.2-.1.24-.24L25,14.34c.53-1.21,1.56-1.07,1.9-.73a.75.75,0,0,1,.24.63l-.2,8.2a6.49,6.49,0,0,1-2,4.39,5.07,5.07,0,0,1-7.12.2l-17-17A1.05,1.05,0,0,1,1,8.65a1,1,0,0,1,1.42,0L9.5,15.68,9,16.14a.34.34,0,1,0,.49.49l.6-.6,0-.07.05,0a.33.33,0,0,0,0-.49L1.69,6.89a1,1,0,0,1,0-1.42,1,1,0,0,1,1.42,0l8.3,8.3-.44.44a.34.34,0,1,0,.49.49l.66-.66,0,0h0a.33.33,0,0,0,0-.49L2.42,3.72a1,1,0,0,1,0-1.42,1,1,0,0,1,1.42,0l9.52,9.52-.5.5a.34.34,0,1,0,.49.49l.63-.63a.33.33,0,0,0,0-.07l.06,0a.33.33,0,0,0,0-.49L5.59,3a1,1,0,0,1,0-1.42,1,1,0,0,1,1.42,0l6.79,6.79.3-.67L7.55,1a1.69,1.69,0,0,0-2.39,0,1.69,1.69,0,0,0-.49,1l-.29-.29A1.69,1.69,0,0,0,2,1.82a1.69,1.69,0,0,0,0,2.39l.29.29a1.69,1.69,0,0,0-1,.49,1.69,1.69,0,0,0,0,2.39l.29.29a1.69,1.69,0,0,0-1,.49,1.69,1.69,0,0,0,0,2.39L14.68,24.76h0l-1.11,1.11a.34.34,0,1,0,.49.49l1.11-1.11h0l.58.58h0L14,27.58a.34.34,0,1,0,.49.49l1.75-1.75h0l.58.58h0l-1.37,1.37a.34.34,0,1,0,.49.49l1.37-1.37h0l.14.14a5.24,5.24,0,0,0,.47.42l0,0-.89.89a.34.34,0,1,0,.49.49l.89-.89a.34.34,0,0,0,.08-.15,5.85,5.85,0,0,0,7.09-1,7.42,7.42,0,0,0,1.65-2.52h1.9a.35.35,0,0,0,0-.69H27.41a7,7,0,0,0,.18-.82h2.06a.35.35,0,0,0,0-.69Z"/>
    <path d="M19.51,16A.34.34,0,0,0,20,16l4.14-4.48a2.72,2.72,0,0,0,.78-1.94V9.47a3,3,0,0,0-2.3-3,2.54,2.54,0,0,0-2.08.6,3.2,3.2,0,0,0-.79,1,3.19,3.19,0,0,0-.79-1,2.54,2.54,0,0,0-2.08-.6,3,3,0,0,0-2.3,3v.08a2.71,2.71,0,0,0,.78,1.94Zm-4.23-6.5A2.28,2.28,0,0,1,17,7.15l.3,0a1.9,1.9,0,0,1,1.22.47,2.6,2.6,0,0,1,.9,1.94.35.35,0,0,0,.69,0A2.6,2.6,0,0,1,21,7.59a1.84,1.84,0,0,1,1.52-.44,2.28,2.28,0,0,1,1.72,2.32v.08a2,2,0,0,1-.6,1.47l-3.89,4.21L15.87,11a2,2,0,0,1-.6-1.47Z"/>
  </g>
</svg>
